%FSLAX34Y34*%
G04 Gerber Fmt 3.4, Leading zero omitted, Abs format*
G04 (created by PCBNEW (2014-02-21 BZR 4712)-product) date Sun 02 Mar 2014 06:29:27 PM PST*
%MOIN*%
G01*
G70*
G90*
G04 APERTURE LIST*
%ADD10C,0.005906*%
%ADD11R,0.029921X0.094488*%
%ADD12R,0.068000X0.068000*%
%ADD13C,0.068000*%
%ADD14R,0.039300X0.013700*%
%ADD15R,0.013700X0.039300*%
%ADD16R,0.088000X0.088000*%
%ADD17C,0.236200*%
%ADD18C,0.270000*%
%ADD19C,0.055118*%
%ADD20R,0.118100X0.063000*%
%ADD21R,0.087926X0.087926*%
%ADD22R,0.263780X0.263780*%
%ADD23R,0.062900X0.118100*%
%ADD24R,0.037400X0.035400*%
%ADD25R,0.070800X0.049200*%
%ADD26R,0.035400X0.037400*%
%ADD27R,0.053100X0.041300*%
%ADD28R,0.086600X0.061000*%
%ADD29R,0.061000X0.086600*%
%ADD30R,0.080000X0.068000*%
%ADD31O,0.080000X0.068000*%
%ADD32R,0.068000X0.080000*%
%ADD33O,0.068000X0.080000*%
%ADD34O,0.070900X0.137800*%
%ADD35R,0.039300X0.033400*%
%ADD36R,0.033400X0.039300*%
%ADD37R,0.045200X0.131800*%
%ADD38R,0.131800X0.045200*%
%ADD39R,0.066900X0.145700*%
%ADD40R,0.061000X0.023600*%
%ADD41R,0.059000X0.011800*%
%ADD42R,0.011800X0.059000*%
%ADD43R,0.052800X0.025900*%
%ADD44R,0.023600X0.061000*%
%ADD45C,0.072000*%
%ADD46R,0.062900X0.192900*%
%ADD47C,0.035000*%
%ADD48C,0.020000*%
%ADD49C,0.050000*%
%ADD50C,0.008000*%
G04 APERTURE END LIST*
G54D10*
G54D11*
X45488Y-33090D03*
X45488Y-34625D03*
X44988Y-33090D03*
X44988Y-34625D03*
X44488Y-33090D03*
X44488Y-34625D03*
X43988Y-33090D03*
X43988Y-34625D03*
X43488Y-33090D03*
X43488Y-34625D03*
G54D12*
X45700Y-36114D03*
G54D13*
X45700Y-37114D03*
X44700Y-36114D03*
X44724Y-37102D03*
X43700Y-36114D03*
X43700Y-37114D03*
X42700Y-36114D03*
X42700Y-37114D03*
X41700Y-36114D03*
X41700Y-37114D03*
G54D14*
X31239Y-55865D03*
X31239Y-55609D03*
X31239Y-55355D03*
X31239Y-55099D03*
G54D15*
X30894Y-54754D03*
X30638Y-54754D03*
X30384Y-54754D03*
X30128Y-54754D03*
G54D14*
X29783Y-55099D03*
X29783Y-55355D03*
X29783Y-55609D03*
X29783Y-55865D03*
G54D15*
X30128Y-56210D03*
X30384Y-56210D03*
X30638Y-56210D03*
X30894Y-56210D03*
G54D14*
X41748Y-47329D03*
X41748Y-47585D03*
X41748Y-47839D03*
X41748Y-48095D03*
G54D15*
X42093Y-48440D03*
X42349Y-48440D03*
X42603Y-48440D03*
X42859Y-48440D03*
G54D14*
X43204Y-48095D03*
X43204Y-47839D03*
X43204Y-47585D03*
X43204Y-47329D03*
G54D15*
X42859Y-46984D03*
X42603Y-46984D03*
X42349Y-46984D03*
X42093Y-46984D03*
G54D16*
X39655Y-27655D03*
X48151Y-45379D03*
X54564Y-45218D03*
X31883Y-35769D03*
X25840Y-37001D03*
X53340Y-20509D03*
X35210Y-45009D03*
X33423Y-45116D03*
X30005Y-41494D03*
X33167Y-28801D03*
X32360Y-33175D03*
X29875Y-45076D03*
X35899Y-49269D03*
X34257Y-49246D03*
X26068Y-55990D03*
X24001Y-55230D03*
X23848Y-57580D03*
X24009Y-49990D03*
X23958Y-52458D03*
G54D17*
X57874Y-57086D03*
X57874Y-39370D03*
X20866Y-39370D03*
X20866Y-57874D03*
G54D18*
X56555Y-35688D03*
X56515Y-22185D03*
X22185Y-35688D03*
X22185Y-22185D03*
G54D19*
X42476Y-47712D03*
X30511Y-55482D03*
G54D12*
X33370Y-22153D03*
G54D13*
X34370Y-22153D03*
X35370Y-22153D03*
X36370Y-22153D03*
X37370Y-22153D03*
X38370Y-22153D03*
X39370Y-22153D03*
X40370Y-22153D03*
X41370Y-22153D03*
X42370Y-22153D03*
X43370Y-22153D03*
X44370Y-22153D03*
X45370Y-22153D03*
X45370Y-21153D03*
X44370Y-21153D03*
X43370Y-21153D03*
X42370Y-21153D03*
X41370Y-21153D03*
X40370Y-21153D03*
X39370Y-21153D03*
X38370Y-21153D03*
X37370Y-21153D03*
X36370Y-21153D03*
X35370Y-21153D03*
X34370Y-21153D03*
X33370Y-21153D03*
G54D20*
X42988Y-24349D03*
X42988Y-26161D03*
G54D21*
X45606Y-25255D03*
X46485Y-24376D03*
X46485Y-26135D03*
X44726Y-24376D03*
X44726Y-26135D03*
X45606Y-24376D03*
X45606Y-26135D03*
X46485Y-25255D03*
X44726Y-25255D03*
G54D22*
X45606Y-25255D03*
G54D20*
X33946Y-24324D03*
X33946Y-26136D03*
G54D21*
X36564Y-25230D03*
X37444Y-24351D03*
X37444Y-26109D03*
X35685Y-24351D03*
X35685Y-26109D03*
X36564Y-24351D03*
X36564Y-26109D03*
X37444Y-25230D03*
X35685Y-25230D03*
G54D22*
X36564Y-25230D03*
G54D23*
X40488Y-24485D03*
X40488Y-26255D03*
G54D24*
X45344Y-47269D03*
X45344Y-47859D03*
G54D25*
X45051Y-27413D03*
X46073Y-27413D03*
G54D26*
X45159Y-49490D03*
X45749Y-49490D03*
X48998Y-52844D03*
X49588Y-52844D03*
G54D24*
X41824Y-53588D03*
X41824Y-54178D03*
G54D26*
X45143Y-56651D03*
X45733Y-56651D03*
G54D24*
X27659Y-55686D03*
X27659Y-55096D03*
X43635Y-28108D03*
X43635Y-28698D03*
X49001Y-57061D03*
X49001Y-57651D03*
X46049Y-29919D03*
X46049Y-29329D03*
X52120Y-53738D03*
X52120Y-54328D03*
G54D23*
X31801Y-24514D03*
X31801Y-26284D03*
G54D25*
X34369Y-27500D03*
X33347Y-27500D03*
G54D26*
X29799Y-27940D03*
X30389Y-27940D03*
G54D24*
X47923Y-35329D03*
X47923Y-35919D03*
G54D26*
X37069Y-27159D03*
X37659Y-27159D03*
X34722Y-30127D03*
X34132Y-30127D03*
X36734Y-36179D03*
X37324Y-36179D03*
G54D24*
X34143Y-41808D03*
X34143Y-41218D03*
X35309Y-41808D03*
X35309Y-41218D03*
G54D26*
X33958Y-43545D03*
X33368Y-43545D03*
G54D24*
X38171Y-43584D03*
X38171Y-44174D03*
G54D27*
X51285Y-20505D03*
X50577Y-20505D03*
G54D28*
X27102Y-23751D03*
X28716Y-23751D03*
G54D29*
X29818Y-26712D03*
X29818Y-25098D03*
G54D28*
X53210Y-36761D03*
X51596Y-36761D03*
G54D29*
X48598Y-26724D03*
X48598Y-25110D03*
X26082Y-25189D03*
X26082Y-26803D03*
G54D28*
X29763Y-37066D03*
X31377Y-37066D03*
G54D29*
X52515Y-26767D03*
X52515Y-25153D03*
G54D28*
X50877Y-23078D03*
X49263Y-23078D03*
G54D30*
X40281Y-34726D03*
G54D31*
X40281Y-33726D03*
X40281Y-32726D03*
G54D32*
X45281Y-30840D03*
G54D33*
X44281Y-30840D03*
X43281Y-30840D03*
X42281Y-30840D03*
X41281Y-30840D03*
X40281Y-30840D03*
G54D34*
X27468Y-25913D03*
X28468Y-25913D03*
X51122Y-25145D03*
X50122Y-25145D03*
G54D35*
X53218Y-42758D03*
X53218Y-43348D03*
G54D36*
X50800Y-52124D03*
X50210Y-52124D03*
G54D35*
X27061Y-45415D03*
X27061Y-44825D03*
X28057Y-45430D03*
X28057Y-44840D03*
X50348Y-45045D03*
X50348Y-44455D03*
X51348Y-45045D03*
X51348Y-44455D03*
X24041Y-41856D03*
X24041Y-41266D03*
X47860Y-41824D03*
X47860Y-41234D03*
X25218Y-41856D03*
X25218Y-41266D03*
X48919Y-41828D03*
X48919Y-41238D03*
G54D37*
X48081Y-36982D03*
X50521Y-36982D03*
G54D38*
X31468Y-28673D03*
X31468Y-31113D03*
G54D39*
X26142Y-20724D03*
X28464Y-20724D03*
G54D40*
X40756Y-28155D03*
X40756Y-28655D03*
X40756Y-29155D03*
X40756Y-29655D03*
X42880Y-29655D03*
X42880Y-29155D03*
X42880Y-28655D03*
X42880Y-28155D03*
G54D41*
X42907Y-51864D03*
X42907Y-52061D03*
X42907Y-52258D03*
X42907Y-52455D03*
X42907Y-52652D03*
X42907Y-52848D03*
X42907Y-53045D03*
X42907Y-53242D03*
X42907Y-53438D03*
X42907Y-53635D03*
X42907Y-53832D03*
X42907Y-54028D03*
X42907Y-54225D03*
X42907Y-54422D03*
X42907Y-54619D03*
X42907Y-54816D03*
G54D42*
X43675Y-55584D03*
X43872Y-55584D03*
X44069Y-55584D03*
X44266Y-55584D03*
X44463Y-55584D03*
X44659Y-55584D03*
X44856Y-55584D03*
X45053Y-55584D03*
X45249Y-55584D03*
X45446Y-55584D03*
X45643Y-55584D03*
X45839Y-55584D03*
X46036Y-55584D03*
X46233Y-55584D03*
X46430Y-55584D03*
X46627Y-55584D03*
G54D41*
X47395Y-54816D03*
X47395Y-54619D03*
X47395Y-54422D03*
X47395Y-54225D03*
X47395Y-54028D03*
X47395Y-53832D03*
X47395Y-53635D03*
X47395Y-53438D03*
X47395Y-53242D03*
X47395Y-53045D03*
X47395Y-52848D03*
X47395Y-52652D03*
X47395Y-52455D03*
X47395Y-52258D03*
X47395Y-52061D03*
X47395Y-51864D03*
G54D42*
X46627Y-51096D03*
X46430Y-51096D03*
X46233Y-51096D03*
X46036Y-51096D03*
X45839Y-51096D03*
X45643Y-51096D03*
X45446Y-51096D03*
X45249Y-51096D03*
X45053Y-51096D03*
X44856Y-51096D03*
X44659Y-51096D03*
X44463Y-51096D03*
X44266Y-51096D03*
X44069Y-51096D03*
X43872Y-51096D03*
X43675Y-51096D03*
G54D43*
X45250Y-29070D03*
X45250Y-28696D03*
X45250Y-28322D03*
X44300Y-28322D03*
X44300Y-29070D03*
G54D44*
X31314Y-43611D03*
X31814Y-43611D03*
X32314Y-43611D03*
X32814Y-43611D03*
X32814Y-41487D03*
X32314Y-41487D03*
X31814Y-41487D03*
X31314Y-41487D03*
X36114Y-43611D03*
X36614Y-43611D03*
X37114Y-43611D03*
X37614Y-43611D03*
X37614Y-41487D03*
X37114Y-41487D03*
X36614Y-41487D03*
X36114Y-41487D03*
X26559Y-43658D03*
X27059Y-43658D03*
X27559Y-43658D03*
X28059Y-43658D03*
X28059Y-41534D03*
X27559Y-41534D03*
X27059Y-41534D03*
X26559Y-41534D03*
X49850Y-43520D03*
X50350Y-43520D03*
X50850Y-43520D03*
X51350Y-43520D03*
X51350Y-41396D03*
X50850Y-41396D03*
X50350Y-41396D03*
X49850Y-41396D03*
G54D40*
X33813Y-34155D03*
X33813Y-34655D03*
X33813Y-35155D03*
X33813Y-35655D03*
X33813Y-36155D03*
X33813Y-36655D03*
X33813Y-37155D03*
X35937Y-37155D03*
X35937Y-36655D03*
X35937Y-36155D03*
X35937Y-35655D03*
X35937Y-35155D03*
X35937Y-34655D03*
X35937Y-34155D03*
G54D45*
X27389Y-32299D03*
X29389Y-31799D03*
X27389Y-31299D03*
X29389Y-30799D03*
X27389Y-30299D03*
X29389Y-29799D03*
X27389Y-29299D03*
X29389Y-28799D03*
X29389Y-35799D03*
X27389Y-35299D03*
X29389Y-34799D03*
X27389Y-34299D03*
X29389Y-33799D03*
X27389Y-33299D03*
X29389Y-32799D03*
X51244Y-31523D03*
X49244Y-32023D03*
X51244Y-32523D03*
X49244Y-33023D03*
X51244Y-33523D03*
X49244Y-34023D03*
X51244Y-34523D03*
X49244Y-35023D03*
X49244Y-28023D03*
X51244Y-28523D03*
X49244Y-29023D03*
X51244Y-29523D03*
X49244Y-30023D03*
X51244Y-30523D03*
X49244Y-31023D03*
G54D40*
X34758Y-30929D03*
X34758Y-31429D03*
X34758Y-31929D03*
X34758Y-32429D03*
X36882Y-32429D03*
X36882Y-31929D03*
X36882Y-31429D03*
X36882Y-30929D03*
X37855Y-29354D03*
X37855Y-28854D03*
X37855Y-28354D03*
X37855Y-27854D03*
X35731Y-27854D03*
X35731Y-28354D03*
X35731Y-28854D03*
X35731Y-29354D03*
G54D46*
X50549Y-57418D03*
X50549Y-53758D03*
G54D47*
X41356Y-29183D03*
X42210Y-27978D03*
X40320Y-57883D03*
X40470Y-55919D03*
X39860Y-58131D03*
X39931Y-55919D03*
X41639Y-58289D03*
X40816Y-54553D03*
X39781Y-24478D03*
X41738Y-24494D03*
X43706Y-49698D03*
X40210Y-49261D03*
X40049Y-49738D03*
X44120Y-50001D03*
X33840Y-32356D03*
X38470Y-31340D03*
X34458Y-34820D03*
X35328Y-34982D03*
X48541Y-35549D03*
X35179Y-27001D03*
X29551Y-27523D03*
X37423Y-47797D03*
X42053Y-49009D03*
X48651Y-36974D03*
X35309Y-40793D03*
X34143Y-40789D03*
X27064Y-40954D03*
X28061Y-40950D03*
X37612Y-40891D03*
X32828Y-40809D03*
X51348Y-40801D03*
X50352Y-40789D03*
X37324Y-35726D03*
X34131Y-30616D03*
X38131Y-27159D03*
X33812Y-37549D03*
X32151Y-37064D03*
X37525Y-32431D03*
X37521Y-31407D03*
X37868Y-51513D03*
X42328Y-51509D03*
X32041Y-48218D03*
X44659Y-49356D03*
X27049Y-50080D03*
X47391Y-51407D03*
X28068Y-50108D03*
X47958Y-51419D03*
X27112Y-36045D03*
X26486Y-33175D03*
X34990Y-33088D03*
X29120Y-41915D03*
X41596Y-49021D03*
X32309Y-47840D03*
X49009Y-51816D03*
X39312Y-50336D03*
X39289Y-23651D03*
X40151Y-50446D03*
X49183Y-51120D03*
X39781Y-23683D03*
X44226Y-44183D03*
X42698Y-43785D03*
X44714Y-44175D03*
X43120Y-43631D03*
X38663Y-45206D03*
X40899Y-45210D03*
X40458Y-44549D03*
X38631Y-44738D03*
X41171Y-58427D03*
X41159Y-55860D03*
X28348Y-37891D03*
X52183Y-44793D03*
X42238Y-44490D03*
X33375Y-56419D03*
X33978Y-57049D03*
X44001Y-42824D03*
X41998Y-42812D03*
X38718Y-42812D03*
X37612Y-44198D03*
X50005Y-20505D03*
X43832Y-47907D03*
X45289Y-48368D03*
X27663Y-54631D03*
X46568Y-30316D03*
X46561Y-30836D03*
X46568Y-32387D03*
X46572Y-32954D03*
X32549Y-21163D03*
X39801Y-26257D03*
X45750Y-48958D03*
X44848Y-32320D03*
X49568Y-52309D03*
X52127Y-54852D03*
X49001Y-58163D03*
X45431Y-51730D03*
X43545Y-52261D03*
X43541Y-54025D03*
X46753Y-54423D03*
X46765Y-53635D03*
X45643Y-54954D03*
X29253Y-55096D03*
X30127Y-56742D03*
X43328Y-46765D03*
X32812Y-44210D03*
X41458Y-28423D03*
X43352Y-25253D03*
X43635Y-29214D03*
X40025Y-54108D03*
X38879Y-45612D03*
X40242Y-45631D03*
X42151Y-54718D03*
X41364Y-23419D03*
X40927Y-23431D03*
X52919Y-49978D03*
X41588Y-50301D03*
X35137Y-27854D03*
X36820Y-28521D03*
X26561Y-51710D03*
X42096Y-51864D03*
X36513Y-35387D03*
X33257Y-35383D03*
X37114Y-40872D03*
X35470Y-33269D03*
X36828Y-33301D03*
X36620Y-40875D03*
X37320Y-32978D03*
X35478Y-32411D03*
X31482Y-47820D03*
X42340Y-46438D03*
X37781Y-33009D03*
X34029Y-33639D03*
X35486Y-29919D03*
X36021Y-30466D03*
X37848Y-30320D03*
X38478Y-28356D03*
X44344Y-46887D03*
X44352Y-47647D03*
X42785Y-30175D03*
X42868Y-27659D03*
G54D48*
X42210Y-27978D02*
X42210Y-27683D01*
X42210Y-27683D02*
X42988Y-26905D01*
X40756Y-29155D02*
X41328Y-29155D01*
X41328Y-29155D02*
X41356Y-29183D01*
X45250Y-28322D02*
X44761Y-28322D01*
X45250Y-29070D02*
X44862Y-29070D01*
X44761Y-27703D02*
X45051Y-27413D01*
X44761Y-28970D02*
X44761Y-28322D01*
X44761Y-28322D02*
X44761Y-27703D01*
X44862Y-29070D02*
X44761Y-28970D01*
G54D49*
X45051Y-27413D02*
X43496Y-27413D01*
X42988Y-26905D02*
X42988Y-26161D01*
X43496Y-27413D02*
X42988Y-26905D01*
G54D50*
X40320Y-57883D02*
X40218Y-57781D01*
X24671Y-49990D02*
X24009Y-49990D01*
X25312Y-50631D02*
X24671Y-49990D01*
X25312Y-57395D02*
X25312Y-50631D01*
X25698Y-57781D02*
X25312Y-57395D01*
X40218Y-57781D02*
X25698Y-57781D01*
X41748Y-47585D02*
X41201Y-47585D01*
X45839Y-56148D02*
X45839Y-55584D01*
X46198Y-56507D02*
X45839Y-56148D01*
X46198Y-57045D02*
X46198Y-56507D01*
X45509Y-57734D02*
X46198Y-57045D01*
X40470Y-57734D02*
X45509Y-57734D01*
X40320Y-57883D02*
X40470Y-57734D01*
X40470Y-54360D02*
X40470Y-55919D01*
X40738Y-54092D02*
X40470Y-54360D01*
X40738Y-48049D02*
X40738Y-54092D01*
X41201Y-47585D02*
X40738Y-48049D01*
X39860Y-58131D02*
X25742Y-58131D01*
X24698Y-52458D02*
X23958Y-52458D01*
X25088Y-52848D02*
X24698Y-52458D01*
X25088Y-57478D02*
X25088Y-52848D01*
X25742Y-58131D02*
X25088Y-57478D01*
X40450Y-58198D02*
X39927Y-58198D01*
X39927Y-58198D02*
X39860Y-58131D01*
X41748Y-47329D02*
X41202Y-47329D01*
X46036Y-56119D02*
X46036Y-55584D01*
X46372Y-56454D02*
X46036Y-56119D01*
X46372Y-57360D02*
X46372Y-56454D01*
X45755Y-57976D02*
X46372Y-57360D01*
X40672Y-57976D02*
X45755Y-57976D01*
X40450Y-58198D02*
X40672Y-57976D01*
X39931Y-54616D02*
X39931Y-55919D01*
X40513Y-54033D02*
X39931Y-54616D01*
X40513Y-48017D02*
X40513Y-54033D01*
X41202Y-47329D02*
X40513Y-48017D01*
X41639Y-58289D02*
X41467Y-58116D01*
X24600Y-55230D02*
X24001Y-55230D01*
X24836Y-55466D02*
X24600Y-55230D01*
X24836Y-57561D02*
X24836Y-55466D01*
X25694Y-58419D02*
X24836Y-57561D01*
X40572Y-58419D02*
X25694Y-58419D01*
X40875Y-58116D02*
X40572Y-58419D01*
X41467Y-58116D02*
X40875Y-58116D01*
X40816Y-54553D02*
X41009Y-54360D01*
X41009Y-48045D02*
X41215Y-47839D01*
X41009Y-54360D02*
X41009Y-48045D01*
X46545Y-57490D02*
X45559Y-58475D01*
X41826Y-58475D02*
X41639Y-58289D01*
X45559Y-58475D02*
X41826Y-58475D01*
X41748Y-47839D02*
X41215Y-47839D01*
X46233Y-56005D02*
X46233Y-55584D01*
X46545Y-56316D02*
X46233Y-56005D01*
X46545Y-57490D02*
X46545Y-56316D01*
G54D49*
X40488Y-24485D02*
X39788Y-24485D01*
X39788Y-24485D02*
X39781Y-24478D01*
X41738Y-24494D02*
X41882Y-24349D01*
X41882Y-24349D02*
X42988Y-24349D01*
X37370Y-21153D02*
X37370Y-22153D01*
G54D50*
X44659Y-51096D02*
X44659Y-50112D01*
X44246Y-49698D02*
X43706Y-49698D01*
X44659Y-50112D02*
X44246Y-49698D01*
X39946Y-48998D02*
X39946Y-39663D01*
X40210Y-49261D02*
X39946Y-48998D01*
X40756Y-29655D02*
X40336Y-29655D01*
X39567Y-39284D02*
X39946Y-39663D01*
X39567Y-30424D02*
X39567Y-39284D01*
X40336Y-29655D02*
X39567Y-30424D01*
X44463Y-51096D02*
X44463Y-50345D01*
X39710Y-49399D02*
X39710Y-39679D01*
X40049Y-49738D02*
X39710Y-49399D01*
X44463Y-50345D02*
X44120Y-50001D01*
X39710Y-39679D02*
X39407Y-39375D01*
X40756Y-28155D02*
X40407Y-28155D01*
X39407Y-29155D02*
X39407Y-39375D01*
X40407Y-28155D02*
X39407Y-29155D01*
G54D49*
X51244Y-34523D02*
X50775Y-34523D01*
X50314Y-34062D02*
X50314Y-29082D01*
X50775Y-34523D02*
X50314Y-34062D01*
X51244Y-28523D02*
X51244Y-27110D01*
X51122Y-26988D02*
X51122Y-25145D01*
X51244Y-27110D02*
X51122Y-26988D01*
X52515Y-25153D02*
X51130Y-25153D01*
X51130Y-25153D02*
X51122Y-25145D01*
X51122Y-25145D02*
X51122Y-24169D01*
X51122Y-24169D02*
X50877Y-23925D01*
X50877Y-23925D02*
X50877Y-23078D01*
X51244Y-34523D02*
X51244Y-34523D01*
X50874Y-28523D02*
X51244Y-28523D01*
X50314Y-29082D02*
X50874Y-28523D01*
X49244Y-34023D02*
X51596Y-36376D01*
X51596Y-36376D02*
X51596Y-36761D01*
X49244Y-29023D02*
X49429Y-29023D01*
X50181Y-27377D02*
X49527Y-26724D01*
X50181Y-28271D02*
X50181Y-27377D01*
X49429Y-29023D02*
X50181Y-28271D01*
X48598Y-26724D02*
X49527Y-26724D01*
X49527Y-26724D02*
X50122Y-26129D01*
X50122Y-26129D02*
X50122Y-25145D01*
X49244Y-34023D02*
X48633Y-34023D01*
X48901Y-29023D02*
X49244Y-29023D01*
X48381Y-29543D02*
X48901Y-29023D01*
X48381Y-33771D02*
X48381Y-29543D01*
X48633Y-34023D02*
X48381Y-33771D01*
G54D50*
X47860Y-41824D02*
X47860Y-42096D01*
X49435Y-42257D02*
X49850Y-41842D01*
X48021Y-42257D02*
X49435Y-42257D01*
X47860Y-42096D02*
X48021Y-42257D01*
X49850Y-41396D02*
X49850Y-41842D01*
X51673Y-33523D02*
X51244Y-33523D01*
X52490Y-34340D02*
X51673Y-33523D01*
X52490Y-39998D02*
X52490Y-34340D01*
X51698Y-40789D02*
X52490Y-39998D01*
X51698Y-41824D02*
X51698Y-40789D01*
X51348Y-42175D02*
X51698Y-41824D01*
X50183Y-42175D02*
X51348Y-42175D01*
X49850Y-41842D02*
X50183Y-42175D01*
X48919Y-41828D02*
X49206Y-41828D01*
X49919Y-40175D02*
X50850Y-40175D01*
X49454Y-40639D02*
X49919Y-40175D01*
X49454Y-41580D02*
X49454Y-40639D01*
X49206Y-41828D02*
X49454Y-41580D01*
X51244Y-32523D02*
X50718Y-33049D01*
X50850Y-40153D02*
X50850Y-40175D01*
X50850Y-40175D02*
X50850Y-41396D01*
X52214Y-38789D02*
X50850Y-40153D01*
X52214Y-34761D02*
X52214Y-38789D01*
X51474Y-34021D02*
X52214Y-34761D01*
X50982Y-34021D02*
X51474Y-34021D01*
X50718Y-33757D02*
X50982Y-34021D01*
X50718Y-33049D02*
X50718Y-33757D01*
X33813Y-36155D02*
X34285Y-36155D01*
X33840Y-32978D02*
X33840Y-32356D01*
X34785Y-33923D02*
X33840Y-32978D01*
X34785Y-35655D02*
X34785Y-33923D01*
X34285Y-36155D02*
X34785Y-35655D01*
G54D49*
X49244Y-35023D02*
X49785Y-35564D01*
X50143Y-36982D02*
X50521Y-36982D01*
X49785Y-36624D02*
X50143Y-36982D01*
X49785Y-35564D02*
X49785Y-36624D01*
G54D50*
X38283Y-28854D02*
X37855Y-28854D01*
X38470Y-29041D02*
X38283Y-28854D01*
X38470Y-31340D02*
X38470Y-29041D01*
G54D49*
X49244Y-35023D02*
X48555Y-35023D01*
X48712Y-28023D02*
X49244Y-28023D01*
X47645Y-29090D02*
X48712Y-28023D01*
X47645Y-34114D02*
X47645Y-29090D01*
X48555Y-35023D02*
X47645Y-34114D01*
G54D48*
X34369Y-27500D02*
X34992Y-27500D01*
X35179Y-27312D02*
X35179Y-27001D01*
X34992Y-27500D02*
X35179Y-27312D01*
G54D49*
X34369Y-27500D02*
X34369Y-27184D01*
X33946Y-26761D02*
X33946Y-26136D01*
X34369Y-27184D02*
X33946Y-26761D01*
G54D48*
X24041Y-41266D02*
X25218Y-41266D01*
X23352Y-42344D02*
X23352Y-41529D01*
X23615Y-41266D02*
X24041Y-41266D01*
X23352Y-41529D02*
X23615Y-41266D01*
X23352Y-42344D02*
X23789Y-42781D01*
X26399Y-42781D02*
X26816Y-42364D01*
X23789Y-42781D02*
X26399Y-42781D01*
X35937Y-34155D02*
X35937Y-33426D01*
X35868Y-31505D02*
X35291Y-30929D01*
X35868Y-33356D02*
X35868Y-31505D01*
X35937Y-33426D02*
X35868Y-33356D01*
X34143Y-42147D02*
X33931Y-42360D01*
X31578Y-42360D02*
X31314Y-42096D01*
X33931Y-42360D02*
X31578Y-42360D01*
X35309Y-42120D02*
X35009Y-42419D01*
X34143Y-42151D02*
X34143Y-42147D01*
X34143Y-42147D02*
X34143Y-41808D01*
X34411Y-42419D02*
X34143Y-42151D01*
X35009Y-42419D02*
X34411Y-42419D01*
X36114Y-41487D02*
X36114Y-42228D01*
X35309Y-42120D02*
X35309Y-41808D01*
X35608Y-42419D02*
X35309Y-42120D01*
X35923Y-42419D02*
X35608Y-42419D01*
X36114Y-42228D02*
X35923Y-42419D01*
X31314Y-42096D02*
X31047Y-42364D01*
X31047Y-42364D02*
X26816Y-42364D01*
X31314Y-42096D02*
X31314Y-41487D01*
X36734Y-36179D02*
X36734Y-38088D01*
X36114Y-38708D02*
X36114Y-41487D01*
X36734Y-38088D02*
X36114Y-38708D01*
X47860Y-41234D02*
X48915Y-41234D01*
X49238Y-36246D02*
X48541Y-35549D01*
X49238Y-39250D02*
X49238Y-36246D01*
X48915Y-39572D02*
X49238Y-39250D01*
X48915Y-41234D02*
X48915Y-39572D01*
X35937Y-36155D02*
X36710Y-36155D01*
X36710Y-36155D02*
X36734Y-36179D01*
X34758Y-30929D02*
X34758Y-30164D01*
X34758Y-30164D02*
X34722Y-30127D01*
X37069Y-27159D02*
X36651Y-27159D01*
X36651Y-27159D02*
X36450Y-27360D01*
X35937Y-36155D02*
X35474Y-36155D01*
X35289Y-35368D02*
X35501Y-35155D01*
X35289Y-35970D02*
X35289Y-35368D01*
X35474Y-36155D02*
X35289Y-35970D01*
X35328Y-34982D02*
X35328Y-34372D01*
X35328Y-34372D02*
X35545Y-34155D01*
X35937Y-35155D02*
X35501Y-35155D01*
X35328Y-34982D02*
X35501Y-35155D01*
X33813Y-35655D02*
X34226Y-35655D01*
X34226Y-35655D02*
X34458Y-35423D01*
X34458Y-35423D02*
X34458Y-34820D01*
X34293Y-34655D02*
X33813Y-34655D01*
X34458Y-34820D02*
X34293Y-34655D01*
X35937Y-34155D02*
X35545Y-34155D01*
X36185Y-29354D02*
X36185Y-29775D01*
X35478Y-30742D02*
X35291Y-30929D01*
X35478Y-30482D02*
X35478Y-30742D01*
X36185Y-29775D02*
X35478Y-30482D01*
X35731Y-29354D02*
X36185Y-29354D01*
X36185Y-29354D02*
X36450Y-29088D01*
X35179Y-27001D02*
X36092Y-27001D01*
X36092Y-27001D02*
X36450Y-27360D01*
X35291Y-30929D02*
X34758Y-30929D01*
X36450Y-27360D02*
X36450Y-29088D01*
X48147Y-35329D02*
X47923Y-35329D01*
X48368Y-35549D02*
X48147Y-35329D01*
X48541Y-35549D02*
X48368Y-35549D01*
X29799Y-27940D02*
X29799Y-27771D01*
X29799Y-27771D02*
X29551Y-27523D01*
G54D50*
X37423Y-45372D02*
X36614Y-44562D01*
X37423Y-47797D02*
X37423Y-45372D01*
X44064Y-50403D02*
X43446Y-50403D01*
X43446Y-50403D02*
X42053Y-49009D01*
X44266Y-51096D02*
X44266Y-50605D01*
X36614Y-44562D02*
X36614Y-43611D01*
X44266Y-50605D02*
X44064Y-50403D01*
X47922Y-52258D02*
X48297Y-51883D01*
X48297Y-50864D02*
X50348Y-48812D01*
X48297Y-51883D02*
X48297Y-50864D01*
X50348Y-45045D02*
X50348Y-48812D01*
X47922Y-52258D02*
X47395Y-52258D01*
X48016Y-52455D02*
X48501Y-51970D01*
X48501Y-50994D02*
X51348Y-48147D01*
X48501Y-51970D02*
X48501Y-50994D01*
X47395Y-52455D02*
X48016Y-52455D01*
X51348Y-48147D02*
X51348Y-45045D01*
G54D49*
X31801Y-26284D02*
X31205Y-26284D01*
X30425Y-25098D02*
X29818Y-25098D01*
X30718Y-25391D02*
X30425Y-25098D01*
X30718Y-25797D02*
X30718Y-25391D01*
X31205Y-26284D02*
X30718Y-25797D01*
X31801Y-26284D02*
X31801Y-27226D01*
X31801Y-27226D02*
X31527Y-27500D01*
X31801Y-26284D02*
X32392Y-26284D01*
X32954Y-25230D02*
X36564Y-25230D01*
X32655Y-25529D02*
X32954Y-25230D01*
X32655Y-26021D02*
X32655Y-25529D01*
X32392Y-26284D02*
X32655Y-26021D01*
G54D48*
X48081Y-36982D02*
X48081Y-36392D01*
X47923Y-36234D02*
X47923Y-35919D01*
X48081Y-36392D02*
X47923Y-36234D01*
G54D49*
X48081Y-36982D02*
X48643Y-36982D01*
X48643Y-36982D02*
X48651Y-36974D01*
G54D48*
X35309Y-41218D02*
X35309Y-40793D01*
X34143Y-41218D02*
X34143Y-40789D01*
X27059Y-41534D02*
X27059Y-40960D01*
X27059Y-40960D02*
X27064Y-40954D01*
X28059Y-41534D02*
X28059Y-40952D01*
X28059Y-40952D02*
X28061Y-40950D01*
X37614Y-41487D02*
X37614Y-40893D01*
X37614Y-40893D02*
X37612Y-40891D01*
X32814Y-41487D02*
X32814Y-40822D01*
X32814Y-40822D02*
X32828Y-40809D01*
X51350Y-41396D02*
X51350Y-40803D01*
X51350Y-40803D02*
X51348Y-40801D01*
X50350Y-41396D02*
X50350Y-40791D01*
X50350Y-40791D02*
X50352Y-40789D01*
X37324Y-36179D02*
X37324Y-35726D01*
X37324Y-35726D02*
X37324Y-35726D01*
X34132Y-30127D02*
X34132Y-30615D01*
X34132Y-30615D02*
X34131Y-30616D01*
X38131Y-27159D02*
X38407Y-27435D01*
X37659Y-27159D02*
X38131Y-27159D01*
X38295Y-27854D02*
X37855Y-27854D01*
X38407Y-27742D02*
X38295Y-27854D01*
X38407Y-27435D02*
X38407Y-27742D01*
X33813Y-37155D02*
X33813Y-37548D01*
X33813Y-37548D02*
X33812Y-37549D01*
G54D49*
X31377Y-37066D02*
X32149Y-37066D01*
X32149Y-37066D02*
X32151Y-37064D01*
G54D48*
X36882Y-32429D02*
X37523Y-32429D01*
X37523Y-32429D02*
X37525Y-32431D01*
X36882Y-31429D02*
X37500Y-31429D01*
X37500Y-31429D02*
X37521Y-31407D01*
X30389Y-27940D02*
X31468Y-27940D01*
G54D49*
X33347Y-27500D02*
X31527Y-27500D01*
X31527Y-27500D02*
X31468Y-27559D01*
X31468Y-27940D02*
X31468Y-27559D01*
X31468Y-28673D02*
X31468Y-27940D01*
X45370Y-21153D02*
X45370Y-22153D01*
X44370Y-21153D02*
X44370Y-22153D01*
X43370Y-21153D02*
X43370Y-22153D01*
X42370Y-22153D02*
X42370Y-21153D01*
X48598Y-25110D02*
X48598Y-24440D01*
X49263Y-23775D02*
X49263Y-23078D01*
X48598Y-24440D02*
X49263Y-23775D01*
X49263Y-23078D02*
X48338Y-22153D01*
X48338Y-22153D02*
X45370Y-22153D01*
G54D50*
X37868Y-45161D02*
X37114Y-44407D01*
X37868Y-51513D02*
X37868Y-45161D01*
X43675Y-51096D02*
X42742Y-51096D01*
X37114Y-44407D02*
X37114Y-43611D01*
X42742Y-51096D02*
X42328Y-51509D01*
G54D49*
X33946Y-24324D02*
X32841Y-24324D01*
X32650Y-24514D02*
X31801Y-24514D01*
X32841Y-24324D02*
X32650Y-24514D01*
X33946Y-24324D02*
X33946Y-23809D01*
X33370Y-23232D02*
X33370Y-22153D01*
X33946Y-23809D02*
X33370Y-23232D01*
X26470Y-34299D02*
X25840Y-34929D01*
X25840Y-34929D02*
X25840Y-37001D01*
X26082Y-25189D02*
X25539Y-25189D01*
X26456Y-34299D02*
X26470Y-34299D01*
X26470Y-34299D02*
X27389Y-34299D01*
X25238Y-33080D02*
X26456Y-34299D01*
X25238Y-25490D02*
X25238Y-33080D01*
X25539Y-25189D02*
X25238Y-25490D01*
X53210Y-36761D02*
X53210Y-30793D01*
X53210Y-30793D02*
X51942Y-29525D01*
X36370Y-21153D02*
X36370Y-20500D01*
X36370Y-20500D02*
X36519Y-20350D01*
X36519Y-20350D02*
X46177Y-20350D01*
X46177Y-20350D02*
X47275Y-21448D01*
X47275Y-21448D02*
X50645Y-21448D01*
X50645Y-21448D02*
X53429Y-24232D01*
X53429Y-24232D02*
X53429Y-26562D01*
X53429Y-26562D02*
X53224Y-26767D01*
X53224Y-26767D02*
X52515Y-26767D01*
X33370Y-22153D02*
X27889Y-22153D01*
X27889Y-22153D02*
X27102Y-22940D01*
X36370Y-21153D02*
X36370Y-22153D01*
X35370Y-21153D02*
X35370Y-22153D01*
X34370Y-21153D02*
X34370Y-22153D01*
X33370Y-21153D02*
X33370Y-22153D01*
X26082Y-25189D02*
X26082Y-24137D01*
X26468Y-23751D02*
X27102Y-23751D01*
X26082Y-24137D02*
X26468Y-23751D01*
X51942Y-29525D02*
X52515Y-28952D01*
X52515Y-28952D02*
X52515Y-26767D01*
X51942Y-29525D02*
X51940Y-29523D01*
X51940Y-29523D02*
X51244Y-29523D01*
X27102Y-23751D02*
X27102Y-22940D01*
G54D50*
X31814Y-47992D02*
X31814Y-43611D01*
X32041Y-48218D02*
X31814Y-47992D01*
X45053Y-51096D02*
X45053Y-49994D01*
X44659Y-49600D02*
X44659Y-49356D01*
X45053Y-49994D02*
X44659Y-49600D01*
X47395Y-51864D02*
X47395Y-51411D01*
X27061Y-50068D02*
X27061Y-45415D01*
X27049Y-50080D02*
X27061Y-50068D01*
X47395Y-51411D02*
X47391Y-51407D01*
X47395Y-52061D02*
X47867Y-52061D01*
X28057Y-50096D02*
X28057Y-45430D01*
X28068Y-50108D02*
X28057Y-50096D01*
X47958Y-51970D02*
X47958Y-51419D01*
X47867Y-52061D02*
X47958Y-51970D01*
G54D49*
X27389Y-29299D02*
X27389Y-27228D01*
X27389Y-27228D02*
X26964Y-26803D01*
X26082Y-26803D02*
X26964Y-26803D01*
X26964Y-26803D02*
X27165Y-26803D01*
X27468Y-26500D02*
X27468Y-25913D01*
X27165Y-26803D02*
X27468Y-26500D01*
X27885Y-35299D02*
X28049Y-35462D01*
X28952Y-37066D02*
X29763Y-37066D01*
X28049Y-36163D02*
X28952Y-37066D01*
X28049Y-35462D02*
X28049Y-36163D01*
X27389Y-29299D02*
X27503Y-29299D01*
X27929Y-35299D02*
X27885Y-35299D01*
X27885Y-35299D02*
X27389Y-35299D01*
X28181Y-35047D02*
X27929Y-35299D01*
X28181Y-29976D02*
X28181Y-35047D01*
X27503Y-29299D02*
X28181Y-29976D01*
X29389Y-29799D02*
X29122Y-29799D01*
X28440Y-27027D02*
X28755Y-26712D01*
X28440Y-29118D02*
X28440Y-27027D01*
X29122Y-29799D02*
X28440Y-29118D01*
X29818Y-26712D02*
X28755Y-26712D01*
X28468Y-26425D02*
X28468Y-25913D01*
X28755Y-26712D02*
X28468Y-26425D01*
X28468Y-25913D02*
X28468Y-25157D01*
X28716Y-24909D02*
X28716Y-23751D01*
X28468Y-25157D02*
X28716Y-24909D01*
X29389Y-34799D02*
X29897Y-34799D01*
X29897Y-34799D02*
X30370Y-34326D01*
X30370Y-34326D02*
X30370Y-30334D01*
X30370Y-30334D02*
X29834Y-29799D01*
X29834Y-29799D02*
X29389Y-29799D01*
G54D50*
X24352Y-42501D02*
X24041Y-42190D01*
X24352Y-42501D02*
X25466Y-42501D01*
X25466Y-42501D02*
X26434Y-41534D01*
X26559Y-41534D02*
X26434Y-41534D01*
X24041Y-42190D02*
X24041Y-41856D01*
X26559Y-41534D02*
X26559Y-41964D01*
X26559Y-41964D02*
X26690Y-42096D01*
X29389Y-33799D02*
X28710Y-34478D01*
X28568Y-42096D02*
X26690Y-42096D01*
X28777Y-41887D02*
X28568Y-42096D01*
X28777Y-40431D02*
X28777Y-41887D01*
X30513Y-38694D02*
X28777Y-40431D01*
X30513Y-36694D02*
X30513Y-38694D01*
X30250Y-36431D02*
X30513Y-36694D01*
X28998Y-36431D02*
X30250Y-36431D01*
X28710Y-36143D02*
X28998Y-36431D01*
X28710Y-34478D02*
X28710Y-36143D01*
X28659Y-39285D02*
X28659Y-37592D01*
X28659Y-37592D02*
X27112Y-36045D01*
X25218Y-41856D02*
X25773Y-41856D01*
X26068Y-40820D02*
X26080Y-40820D01*
X26068Y-41561D02*
X26068Y-40820D01*
X25773Y-41856D02*
X26068Y-41561D01*
X28659Y-39285D02*
X28659Y-39311D01*
X28659Y-39311D02*
X27559Y-40411D01*
X26435Y-40411D02*
X27559Y-40411D01*
X26080Y-40765D02*
X26435Y-40411D01*
X26080Y-40820D02*
X26080Y-40765D01*
X27389Y-31299D02*
X26889Y-31299D01*
X27559Y-40411D02*
X27559Y-41534D01*
X26486Y-31702D02*
X26486Y-33175D01*
X26889Y-31299D02*
X26486Y-31702D01*
X35494Y-36655D02*
X35937Y-36655D01*
X34990Y-36151D02*
X35494Y-36655D01*
X34990Y-33088D02*
X34990Y-36151D01*
X29901Y-35799D02*
X30122Y-35799D01*
X29120Y-40375D02*
X29120Y-41915D01*
X30738Y-38757D02*
X29120Y-40375D01*
X30738Y-36415D02*
X30738Y-38757D01*
X30122Y-35799D02*
X30738Y-36415D01*
X35731Y-28354D02*
X35094Y-28354D01*
X35094Y-28354D02*
X32335Y-31113D01*
X32335Y-31113D02*
X31468Y-31113D01*
G54D49*
X29389Y-35799D02*
X29901Y-35799D01*
X29901Y-35799D02*
X31468Y-34232D01*
X31468Y-34232D02*
X31468Y-31113D01*
X31468Y-30326D02*
X31468Y-31113D01*
X29389Y-28799D02*
X29940Y-28799D01*
X29940Y-28799D02*
X31468Y-30326D01*
G54D50*
X43954Y-50557D02*
X43131Y-50557D01*
X43131Y-50557D02*
X41596Y-49021D01*
X32314Y-47834D02*
X32314Y-43611D01*
X32309Y-47840D02*
X32314Y-47834D01*
X44069Y-51096D02*
X44069Y-50671D01*
X44069Y-50671D02*
X43954Y-50557D01*
X39072Y-23868D02*
X39072Y-26600D01*
X38805Y-28608D02*
X39072Y-28875D01*
X38805Y-26868D02*
X38805Y-28608D01*
X39072Y-26600D02*
X38805Y-26868D01*
X47395Y-52848D02*
X48167Y-52848D01*
X49009Y-52005D02*
X49009Y-51816D01*
X48167Y-52848D02*
X49009Y-52005D01*
X39192Y-50216D02*
X39192Y-39704D01*
X39312Y-50336D02*
X39192Y-50216D01*
X39289Y-23651D02*
X39072Y-23868D01*
X39072Y-28875D02*
X39072Y-39584D01*
X39192Y-39704D02*
X39072Y-39584D01*
X39248Y-24216D02*
X39248Y-26673D01*
X38958Y-28340D02*
X39246Y-28627D01*
X38958Y-26962D02*
X38958Y-28340D01*
X39248Y-26673D02*
X38958Y-26962D01*
X39466Y-49742D02*
X39466Y-39718D01*
X39246Y-39498D02*
X39246Y-28627D01*
X39466Y-39718D02*
X39246Y-39498D01*
X40151Y-50446D02*
X40151Y-50427D01*
X40151Y-50427D02*
X39466Y-49742D01*
X47395Y-52652D02*
X48115Y-52652D01*
X48694Y-51608D02*
X49183Y-51120D01*
X48694Y-52072D02*
X48694Y-51608D01*
X48115Y-52652D02*
X48694Y-52072D01*
X39248Y-24216D02*
X39781Y-23683D01*
X43419Y-41478D02*
X43419Y-44135D01*
X46036Y-46753D02*
X46036Y-50468D01*
X43419Y-44135D02*
X46036Y-46753D01*
X43419Y-41478D02*
X44724Y-40173D01*
X46036Y-51096D02*
X46036Y-50468D01*
X44724Y-40173D02*
X44724Y-37102D01*
X44724Y-37102D02*
X44198Y-36576D01*
X44988Y-35389D02*
X44988Y-34625D01*
X44738Y-35639D02*
X44988Y-35389D01*
X44372Y-35639D02*
X44738Y-35639D01*
X44198Y-35812D02*
X44372Y-35639D01*
X44198Y-36576D02*
X44198Y-35812D01*
X44226Y-44183D02*
X46430Y-46387D01*
X46430Y-46387D02*
X46430Y-51096D01*
X42700Y-43783D02*
X42700Y-37114D01*
X42698Y-43785D02*
X42700Y-43783D01*
X42700Y-37114D02*
X42190Y-36604D01*
X43988Y-35303D02*
X43988Y-34625D01*
X43850Y-35440D02*
X43988Y-35303D01*
X42713Y-35440D02*
X43850Y-35440D01*
X42190Y-35962D02*
X42713Y-35440D01*
X42190Y-36604D02*
X42190Y-35962D01*
X44714Y-44175D02*
X46627Y-46088D01*
X46627Y-46088D02*
X46627Y-51096D01*
X43120Y-43631D02*
X42923Y-43435D01*
X42923Y-43435D02*
X42923Y-41655D01*
X42923Y-41655D02*
X43700Y-40877D01*
X43700Y-40877D02*
X43700Y-37114D01*
X43700Y-37114D02*
X43198Y-36612D01*
X44488Y-35271D02*
X44488Y-34625D01*
X44159Y-35600D02*
X44488Y-35271D01*
X43446Y-35600D02*
X44159Y-35600D01*
X43198Y-35848D02*
X43446Y-35600D01*
X43198Y-36612D02*
X43198Y-35848D01*
X46233Y-46615D02*
X43683Y-44064D01*
X43683Y-44064D02*
X43683Y-41525D01*
X43683Y-41525D02*
X45700Y-39507D01*
X45700Y-37114D02*
X45700Y-39507D01*
X46233Y-46615D02*
X46233Y-51096D01*
X45700Y-37114D02*
X45190Y-36604D01*
X45488Y-35362D02*
X45488Y-34625D01*
X45222Y-35627D02*
X45488Y-35362D01*
X45190Y-35627D02*
X45222Y-35627D01*
X45190Y-36604D02*
X45190Y-35627D01*
X44463Y-55584D02*
X44463Y-56477D01*
X31794Y-55609D02*
X31239Y-55609D01*
X33553Y-57368D02*
X31794Y-55609D01*
X43572Y-57368D02*
X33553Y-57368D01*
X44463Y-56477D02*
X43572Y-57368D01*
X44659Y-55584D02*
X44659Y-56667D01*
X31743Y-55865D02*
X31239Y-55865D01*
X33423Y-57545D02*
X31743Y-55865D01*
X43781Y-57545D02*
X33423Y-57545D01*
X44659Y-56667D02*
X43781Y-57545D01*
X44069Y-55584D02*
X44069Y-56304D01*
X31863Y-55355D02*
X31239Y-55355D01*
X33234Y-56726D02*
X31863Y-55355D01*
X43647Y-56726D02*
X33234Y-56726D01*
X44069Y-56304D02*
X43647Y-56726D01*
X39793Y-56250D02*
X38474Y-54931D01*
X38474Y-45395D02*
X38663Y-45206D01*
X38474Y-54931D02*
X38474Y-45395D01*
X42281Y-30840D02*
X42281Y-34234D01*
X40899Y-44872D02*
X40899Y-45210D01*
X40832Y-44805D02*
X40899Y-44872D01*
X40832Y-35683D02*
X40832Y-44805D01*
X42281Y-34234D02*
X40832Y-35683D01*
X43675Y-56013D02*
X43675Y-55584D01*
X43438Y-56250D02*
X43675Y-56013D01*
X39793Y-56250D02*
X43438Y-56250D01*
X43533Y-56474D02*
X39675Y-56474D01*
X40458Y-35726D02*
X41281Y-34903D01*
X40458Y-44549D02*
X40458Y-35726D01*
X38179Y-45190D02*
X38631Y-44738D01*
X38179Y-54978D02*
X38179Y-45190D01*
X39675Y-56474D02*
X38179Y-54978D01*
X41281Y-30840D02*
X41281Y-34903D01*
X43872Y-56135D02*
X43872Y-55584D01*
X43533Y-56474D02*
X43872Y-56135D01*
X24580Y-57580D02*
X25671Y-58671D01*
X25671Y-58671D02*
X40927Y-58671D01*
X41171Y-58427D02*
X40927Y-58671D01*
X24580Y-57580D02*
X23848Y-57580D01*
X41159Y-55860D02*
X41293Y-55726D01*
X41293Y-48194D02*
X41392Y-48095D01*
X41293Y-55726D02*
X41293Y-48194D01*
X46718Y-57702D02*
X45785Y-58635D01*
X41379Y-58635D02*
X41171Y-58427D01*
X45785Y-58635D02*
X41379Y-58635D01*
X41748Y-48095D02*
X41392Y-48095D01*
X46430Y-55973D02*
X46430Y-55584D01*
X46718Y-56261D02*
X46430Y-55973D01*
X46718Y-57702D02*
X46718Y-56261D01*
X24846Y-37346D02*
X25391Y-37891D01*
X25391Y-37891D02*
X28348Y-37891D01*
X52183Y-50533D02*
X51238Y-51478D01*
X52183Y-44793D02*
X52183Y-50533D01*
X24846Y-37346D02*
X24846Y-22020D01*
X25391Y-37891D02*
X24846Y-37346D01*
X50800Y-52124D02*
X50800Y-51915D01*
X50800Y-51915D02*
X51238Y-51478D01*
X41700Y-37114D02*
X41700Y-43952D01*
X48033Y-53832D02*
X47395Y-53832D01*
X51238Y-51478D02*
X53131Y-53372D01*
X53131Y-53372D02*
X53131Y-56978D01*
X53131Y-56978D02*
X51561Y-58549D01*
X51561Y-58549D02*
X48639Y-58549D01*
X48639Y-58549D02*
X48419Y-58328D01*
X48419Y-58328D02*
X48419Y-54218D01*
X48419Y-54218D02*
X48033Y-53832D01*
X41700Y-43952D02*
X42238Y-44490D01*
X26142Y-20724D02*
X24846Y-22020D01*
X43488Y-34625D02*
X43488Y-35183D01*
X43488Y-35183D02*
X43391Y-35280D01*
X41700Y-37114D02*
X41190Y-36604D01*
X41778Y-35280D02*
X41190Y-35868D01*
X43391Y-35280D02*
X41778Y-35280D01*
X41190Y-36604D02*
X41190Y-35868D01*
X31239Y-55099D02*
X32056Y-55099D01*
X32056Y-55099D02*
X33375Y-56419D01*
X44266Y-56367D02*
X43584Y-57049D01*
X43584Y-57049D02*
X33978Y-57049D01*
X44266Y-55584D02*
X44266Y-56367D01*
G54D48*
X33958Y-43545D02*
X33958Y-42970D01*
X38171Y-43584D02*
X38171Y-42812D01*
X45344Y-47269D02*
X45344Y-46627D01*
X45344Y-46627D02*
X42872Y-44155D01*
X45801Y-48368D02*
X45801Y-47427D01*
X45643Y-47269D02*
X45344Y-47269D01*
X45801Y-47427D02*
X45643Y-47269D01*
X45344Y-47269D02*
X43686Y-47269D01*
X43686Y-47269D02*
X43564Y-47391D01*
X45159Y-49490D02*
X45159Y-49009D01*
X42872Y-44155D02*
X42486Y-44155D01*
X45159Y-49009D02*
X45801Y-48368D01*
X27659Y-55686D02*
X27269Y-55686D01*
X27559Y-50098D02*
X27559Y-43658D01*
X27001Y-50655D02*
X27559Y-50098D01*
X27001Y-55419D02*
X27001Y-50655D01*
X27269Y-55686D02*
X27001Y-55419D01*
X27659Y-55686D02*
X29383Y-55686D01*
X29383Y-55686D02*
X29395Y-55698D01*
X44001Y-42824D02*
X44009Y-42832D01*
X44009Y-42832D02*
X46604Y-42832D01*
X42486Y-44155D02*
X41998Y-43667D01*
X41998Y-43667D02*
X41998Y-42812D01*
G54D50*
X30384Y-56210D02*
X30384Y-56002D01*
X30247Y-55865D02*
X29783Y-55865D01*
X30384Y-56002D02*
X30247Y-55865D01*
G54D48*
X48151Y-45379D02*
X49112Y-45379D01*
X49850Y-44641D02*
X49850Y-43520D01*
X49112Y-45379D02*
X49850Y-44641D01*
G54D50*
X48998Y-52844D02*
X48998Y-52387D01*
X50218Y-52116D02*
X50210Y-52124D01*
X50218Y-51702D02*
X50218Y-52116D01*
X50116Y-51600D02*
X50218Y-51702D01*
X49785Y-51600D02*
X50116Y-51600D01*
X48998Y-52387D02*
X49785Y-51600D01*
X45249Y-51096D02*
X45249Y-49962D01*
X45159Y-49872D02*
X45159Y-49490D01*
X45249Y-49962D02*
X45159Y-49872D01*
X47395Y-53045D02*
X48505Y-53045D01*
X48706Y-52844D02*
X48998Y-52844D01*
X48505Y-53045D02*
X48706Y-52844D01*
X41824Y-53588D02*
X42155Y-53588D01*
X42399Y-53832D02*
X42907Y-53832D01*
X42155Y-53588D02*
X42399Y-53832D01*
X42907Y-52061D02*
X43324Y-52061D01*
X43498Y-51887D02*
X45112Y-51887D01*
X43324Y-52061D02*
X43498Y-51887D01*
X46422Y-53045D02*
X46422Y-52922D01*
X46422Y-52922D02*
X45564Y-52064D01*
X45643Y-51096D02*
X45643Y-51482D01*
X45643Y-51482D02*
X45781Y-51620D01*
X45781Y-51620D02*
X45781Y-51848D01*
X45781Y-51848D02*
X45564Y-52064D01*
X45249Y-51474D02*
X45249Y-51096D01*
X45564Y-52064D02*
X45289Y-52064D01*
X45289Y-52064D02*
X45112Y-51887D01*
X45112Y-51887D02*
X45112Y-51612D01*
X45112Y-51612D02*
X45249Y-51474D01*
X45249Y-54218D02*
X46422Y-53045D01*
X46422Y-53045D02*
X47395Y-53045D01*
X45249Y-55584D02*
X45249Y-54218D01*
X43313Y-53832D02*
X42907Y-53832D01*
X43501Y-53643D02*
X43313Y-53832D01*
X44675Y-53643D02*
X43501Y-53643D01*
X45249Y-54218D02*
X44675Y-53643D01*
X45143Y-56651D02*
X45143Y-56218D01*
X45143Y-56218D02*
X45293Y-56068D01*
X45249Y-55584D02*
X45249Y-56025D01*
X45446Y-55986D02*
X45446Y-55584D01*
X45364Y-56068D02*
X45446Y-55986D01*
X45293Y-56068D02*
X45364Y-56068D01*
X45249Y-56025D02*
X45293Y-56068D01*
X29783Y-55609D02*
X29484Y-55609D01*
X29499Y-55865D02*
X29783Y-55865D01*
X29395Y-55698D02*
X29395Y-55761D01*
X29395Y-55761D02*
X29499Y-55865D01*
X29484Y-55609D02*
X29395Y-55698D01*
X43502Y-47329D02*
X43631Y-47200D01*
X42603Y-46617D02*
X42603Y-46984D01*
X42769Y-46450D02*
X42603Y-46617D01*
X43482Y-46450D02*
X42769Y-46450D01*
X43631Y-46600D02*
X43482Y-46450D01*
X43631Y-47200D02*
X43631Y-46600D01*
X43204Y-47585D02*
X43485Y-47585D01*
X43485Y-47585D02*
X43564Y-47505D01*
X43564Y-47494D02*
X43564Y-47391D01*
X43564Y-47505D02*
X43564Y-47494D01*
X43502Y-47329D02*
X43204Y-47329D01*
X43564Y-47391D02*
X43502Y-47329D01*
G54D48*
X49850Y-43029D02*
X48313Y-43029D01*
X48313Y-43029D02*
X47383Y-43029D01*
X47383Y-43029D02*
X46895Y-42541D01*
X50850Y-43520D02*
X50850Y-43122D01*
X49850Y-43027D02*
X49850Y-43029D01*
X49850Y-43029D02*
X49850Y-43520D01*
X50076Y-42801D02*
X49850Y-43027D01*
X50529Y-42801D02*
X50076Y-42801D01*
X50850Y-43122D02*
X50529Y-42801D01*
X36114Y-43062D02*
X36364Y-42812D01*
X36364Y-42812D02*
X38171Y-42812D01*
X38171Y-42812D02*
X38718Y-42812D01*
X46604Y-42832D02*
X46895Y-42541D01*
X46572Y-36986D02*
X45700Y-36114D01*
X46572Y-42218D02*
X46572Y-36986D01*
X46895Y-42541D02*
X46572Y-42218D01*
X31314Y-43114D02*
X31458Y-42970D01*
X36114Y-43062D02*
X36114Y-43611D01*
X36021Y-42970D02*
X36114Y-43062D01*
X31458Y-42970D02*
X33958Y-42970D01*
X33958Y-42970D02*
X36021Y-42970D01*
X27559Y-43179D02*
X27877Y-42860D01*
X31314Y-43114D02*
X31314Y-43611D01*
X31061Y-42860D02*
X31314Y-43114D01*
X27877Y-42860D02*
X31061Y-42860D01*
X26559Y-43658D02*
X26559Y-43153D01*
X26559Y-43153D02*
X26793Y-42919D01*
X26793Y-42919D02*
X27340Y-42919D01*
X27340Y-42919D02*
X27559Y-43137D01*
X27559Y-43137D02*
X27559Y-43179D01*
X27559Y-43179D02*
X27559Y-43658D01*
X45779Y-33090D02*
X46049Y-32820D01*
X46049Y-32820D02*
X46049Y-29919D01*
X46049Y-29919D02*
X45781Y-29919D01*
X45781Y-29919D02*
X45403Y-29541D01*
X45403Y-29541D02*
X44500Y-29541D01*
X44500Y-29541D02*
X44300Y-29341D01*
X45700Y-36114D02*
X46033Y-35781D01*
X45779Y-33090D02*
X45488Y-33090D01*
X46033Y-33344D02*
X45779Y-33090D01*
X46033Y-35781D02*
X46033Y-33344D01*
X42880Y-29655D02*
X43986Y-29655D01*
X44300Y-29341D02*
X44300Y-29070D01*
X43986Y-29655D02*
X44300Y-29341D01*
X33368Y-43545D02*
X32880Y-43545D01*
X32880Y-43545D02*
X32814Y-43611D01*
X38171Y-44174D02*
X37636Y-44174D01*
X37614Y-44196D02*
X37612Y-44198D01*
X37614Y-44196D02*
X37614Y-43611D01*
X37636Y-44174D02*
X37612Y-44198D01*
G54D50*
X50577Y-20505D02*
X50005Y-20505D01*
X43564Y-47903D02*
X43828Y-47903D01*
X43828Y-47903D02*
X43832Y-47907D01*
G54D48*
X45344Y-47859D02*
X45344Y-48312D01*
X45344Y-48312D02*
X45289Y-48368D01*
X27659Y-55096D02*
X27659Y-54635D01*
X27659Y-54635D02*
X27663Y-54631D01*
G54D49*
X46561Y-30836D02*
X46568Y-30828D01*
X46568Y-30828D02*
X46568Y-30316D01*
X46572Y-32954D02*
X46568Y-32950D01*
X46568Y-32950D02*
X46568Y-32387D01*
X46561Y-30836D02*
X46561Y-32379D01*
X46561Y-32379D02*
X46568Y-32387D01*
G54D50*
X32549Y-21163D02*
X32110Y-20724D01*
X28464Y-20724D02*
X32110Y-20724D01*
G54D49*
X40488Y-26255D02*
X39803Y-26255D01*
X39803Y-26255D02*
X39801Y-26257D01*
G54D48*
X45749Y-49490D02*
X45749Y-48958D01*
X45749Y-48958D02*
X45750Y-48958D01*
G54D50*
X45446Y-51096D02*
X45446Y-50553D01*
X45765Y-50234D02*
X45765Y-49679D01*
X45446Y-50553D02*
X45765Y-50234D01*
G54D48*
X44848Y-32320D02*
X45281Y-31887D01*
X44860Y-32320D02*
X44848Y-32320D01*
X44868Y-32328D02*
X44860Y-32320D01*
X45281Y-31887D02*
X45281Y-30840D01*
G54D50*
X49588Y-52844D02*
X49588Y-52328D01*
X49588Y-52328D02*
X49568Y-52309D01*
X52120Y-54328D02*
X52120Y-54844D01*
X52120Y-54844D02*
X52127Y-54852D01*
X49001Y-57651D02*
X49001Y-58163D01*
X41824Y-54178D02*
X42128Y-54178D01*
X42278Y-54028D02*
X42907Y-54028D01*
X42128Y-54178D02*
X42278Y-54028D01*
X45733Y-56651D02*
X45733Y-56344D01*
X45643Y-56253D02*
X45643Y-55584D01*
X45733Y-56344D02*
X45643Y-56253D01*
X45446Y-51096D02*
X45446Y-51714D01*
X45446Y-51714D02*
X45431Y-51730D01*
X42907Y-52258D02*
X43542Y-52258D01*
X43542Y-52258D02*
X43545Y-52261D01*
X42907Y-54028D02*
X43538Y-54028D01*
X43538Y-54028D02*
X43541Y-54025D01*
X47395Y-54422D02*
X46754Y-54422D01*
X46754Y-54422D02*
X46753Y-54423D01*
X47395Y-53635D02*
X46766Y-53635D01*
X46766Y-53635D02*
X46765Y-53635D01*
X45643Y-55584D02*
X45643Y-54954D01*
X45643Y-54954D02*
X45643Y-54954D01*
X29783Y-55099D02*
X29257Y-55099D01*
X29257Y-55099D02*
X29253Y-55096D01*
X30128Y-56210D02*
X30128Y-56741D01*
X30128Y-56741D02*
X30127Y-56742D01*
X43204Y-47839D02*
X43500Y-47839D01*
X43503Y-48095D02*
X43204Y-48095D01*
X43564Y-48033D02*
X43561Y-48037D01*
X43561Y-48037D02*
X43503Y-48095D01*
X43564Y-47903D02*
X43564Y-48033D01*
X43500Y-47839D02*
X43564Y-47903D01*
X42859Y-46984D02*
X43110Y-46984D01*
X43110Y-46984D02*
X43328Y-46765D01*
G54D48*
X32814Y-43611D02*
X32814Y-44208D01*
X32814Y-44208D02*
X32812Y-44210D01*
X40756Y-28655D02*
X41226Y-28655D01*
X41226Y-28655D02*
X41458Y-28423D01*
X44488Y-32496D02*
X44655Y-32328D01*
X44988Y-32448D02*
X44988Y-33090D01*
X44868Y-32328D02*
X44988Y-32448D01*
X44655Y-32328D02*
X44868Y-32328D01*
X43488Y-33090D02*
X43488Y-32440D01*
X44488Y-32496D02*
X44488Y-33090D01*
X44352Y-32360D02*
X44488Y-32496D01*
X43568Y-32360D02*
X44352Y-32360D01*
X43488Y-32440D02*
X43568Y-32360D01*
X46049Y-29329D02*
X46049Y-28757D01*
X45938Y-28647D02*
X45938Y-28696D01*
X46049Y-28757D02*
X45938Y-28647D01*
G54D49*
X45606Y-25255D02*
X43354Y-25255D01*
X43354Y-25255D02*
X43352Y-25253D01*
G54D48*
X43635Y-28698D02*
X43635Y-29214D01*
X45250Y-28696D02*
X45938Y-28696D01*
X45938Y-28696D02*
X45864Y-28696D01*
X45864Y-28696D02*
X45889Y-28696D01*
X46073Y-28512D02*
X46073Y-27413D01*
X45889Y-28696D02*
X46073Y-28512D01*
G54D49*
X46073Y-27413D02*
X46073Y-25723D01*
X46073Y-25723D02*
X45606Y-25255D01*
X41370Y-21153D02*
X41370Y-22153D01*
G54D50*
X49001Y-57061D02*
X49001Y-54454D01*
X49001Y-54454D02*
X47985Y-53438D01*
X49001Y-57061D02*
X49490Y-57061D01*
X49490Y-57061D02*
X49537Y-57108D01*
X47395Y-53438D02*
X47985Y-53438D01*
X49847Y-57418D02*
X50549Y-57418D01*
X49537Y-57108D02*
X49847Y-57418D01*
X49695Y-53758D02*
X49179Y-53242D01*
X49179Y-53242D02*
X47395Y-53242D01*
X50549Y-53758D02*
X51391Y-53758D01*
X51411Y-53738D02*
X52120Y-53738D01*
X51391Y-53758D02*
X51411Y-53738D01*
X49695Y-53758D02*
X50549Y-53758D01*
X44300Y-28322D02*
X44300Y-28139D01*
X44269Y-28108D02*
X43635Y-28108D01*
X44300Y-28139D02*
X44269Y-28108D01*
X53836Y-22399D02*
X51942Y-20505D01*
X51942Y-20505D02*
X51285Y-20505D01*
X53218Y-38222D02*
X53218Y-42758D01*
X53836Y-37604D02*
X53218Y-38222D01*
X53836Y-22399D02*
X53836Y-37604D01*
X38879Y-52962D02*
X38879Y-45612D01*
X40025Y-54108D02*
X38879Y-52962D01*
X40171Y-45561D02*
X40171Y-35474D01*
X40281Y-34726D02*
X40281Y-35364D01*
X40281Y-35364D02*
X40171Y-35474D01*
X40242Y-45631D02*
X40171Y-45561D01*
X42907Y-54619D02*
X42250Y-54619D01*
X42250Y-54619D02*
X42151Y-54718D01*
X40370Y-22153D02*
X39872Y-21655D01*
X39872Y-21655D02*
X38868Y-21655D01*
X38868Y-21655D02*
X38370Y-22153D01*
X42880Y-28655D02*
X42438Y-28655D01*
X41364Y-27580D02*
X41364Y-23419D01*
X42438Y-28655D02*
X41364Y-27580D01*
X41151Y-23655D02*
X41151Y-27627D01*
X40927Y-23431D02*
X41151Y-23655D01*
X42470Y-29155D02*
X42880Y-29155D01*
X41151Y-27627D02*
X42348Y-28824D01*
X42348Y-28824D02*
X42348Y-29033D01*
X42348Y-29033D02*
X42470Y-29155D01*
X53218Y-43348D02*
X53218Y-49679D01*
X53218Y-49679D02*
X52919Y-49978D01*
X41588Y-50301D02*
X41588Y-52057D01*
X41588Y-52057D02*
X41986Y-52454D01*
X42907Y-52455D02*
X41987Y-52455D01*
X41987Y-52455D02*
X41986Y-52454D01*
G54D48*
X27061Y-44825D02*
X27061Y-43660D01*
X27061Y-43660D02*
X27059Y-43658D01*
X28057Y-44840D02*
X28057Y-43660D01*
X28057Y-43660D02*
X28059Y-43658D01*
G54D50*
X50350Y-43520D02*
X50350Y-44453D01*
X50350Y-44453D02*
X50348Y-44455D01*
X51350Y-43520D02*
X51350Y-44453D01*
X51350Y-44453D02*
X51348Y-44455D01*
X35139Y-27854D02*
X35137Y-27854D01*
X33167Y-28801D02*
X34190Y-28801D01*
X35139Y-27854D02*
X35731Y-27854D01*
X34190Y-28801D02*
X35137Y-27854D01*
X36882Y-29650D02*
X36882Y-30929D01*
X36820Y-29588D02*
X36882Y-29650D01*
X36820Y-28521D02*
X36820Y-29588D01*
X26068Y-55990D02*
X26068Y-52202D01*
X26068Y-52202D02*
X26561Y-51710D01*
X42907Y-51864D02*
X42096Y-51864D01*
X42096Y-51864D02*
X42096Y-51864D01*
X26068Y-55990D02*
X26068Y-56620D01*
X26568Y-57120D02*
X30368Y-57120D01*
X26068Y-56620D02*
X26568Y-57120D01*
X30638Y-56210D02*
X30638Y-56849D01*
X30638Y-56849D02*
X30368Y-57120D01*
X31814Y-41487D02*
X31814Y-42000D01*
X32970Y-35671D02*
X33257Y-35383D01*
X32970Y-40427D02*
X32970Y-35671D01*
X33179Y-40635D02*
X32970Y-40427D01*
X33179Y-41852D02*
X33179Y-40635D01*
X32911Y-42120D02*
X33179Y-41852D01*
X31935Y-42120D02*
X32911Y-42120D01*
X31814Y-42000D02*
X31935Y-42120D01*
X33813Y-35155D02*
X33486Y-35155D01*
X36246Y-35655D02*
X35937Y-35655D01*
X36513Y-35387D02*
X36246Y-35655D01*
X33486Y-35155D02*
X33257Y-35383D01*
X37114Y-41487D02*
X37114Y-40872D01*
X37114Y-40872D02*
X37114Y-40444D01*
X34758Y-32688D02*
X34758Y-32429D01*
X34832Y-32761D02*
X34758Y-32688D01*
X35143Y-32761D02*
X34832Y-32761D01*
X35470Y-33088D02*
X35143Y-32761D01*
X35470Y-33269D02*
X35470Y-33088D01*
X36828Y-33517D02*
X36828Y-33301D01*
X37978Y-34667D02*
X36828Y-33517D01*
X37978Y-39580D02*
X37978Y-34667D01*
X37114Y-40444D02*
X37978Y-39580D01*
X36614Y-41487D02*
X36614Y-40881D01*
X36614Y-40881D02*
X36620Y-40875D01*
X34758Y-31929D02*
X35212Y-31929D01*
X36614Y-42192D02*
X36614Y-41487D01*
X36742Y-42320D02*
X36614Y-42192D01*
X37789Y-42320D02*
X36742Y-42320D01*
X38289Y-41820D02*
X37789Y-42320D01*
X38289Y-34706D02*
X38289Y-41820D01*
X37320Y-33738D02*
X38289Y-34706D01*
X37320Y-32978D02*
X37320Y-33738D01*
X35478Y-32194D02*
X35478Y-32411D01*
X35212Y-31929D02*
X35478Y-32194D01*
X30005Y-41494D02*
X30655Y-41494D01*
X31301Y-40848D02*
X32314Y-40848D01*
X30655Y-41494D02*
X31301Y-40848D01*
X34758Y-31429D02*
X34271Y-31429D01*
X33316Y-33773D02*
X32647Y-34442D01*
X33316Y-32383D02*
X33316Y-33773D01*
X34271Y-31429D02*
X33316Y-32383D01*
X32647Y-34442D02*
X32647Y-40360D01*
X32647Y-40360D02*
X32314Y-40692D01*
X32314Y-40692D02*
X32314Y-40848D01*
X32314Y-40848D02*
X32314Y-41487D01*
X28901Y-51228D02*
X31482Y-48647D01*
X31482Y-48647D02*
X31482Y-47820D01*
X29783Y-55355D02*
X29415Y-55355D01*
X42349Y-46447D02*
X42340Y-46438D01*
X42349Y-46447D02*
X42349Y-46984D01*
X28891Y-51238D02*
X28901Y-51228D01*
X28891Y-55202D02*
X28891Y-51238D01*
X29116Y-55427D02*
X28891Y-55202D01*
X29344Y-55427D02*
X29116Y-55427D01*
X29415Y-55355D02*
X29344Y-55427D01*
X38159Y-32631D02*
X38159Y-30057D01*
X37781Y-33009D02*
X38159Y-32631D01*
X33813Y-34155D02*
X33813Y-33855D01*
X33813Y-33855D02*
X34029Y-33639D01*
X37855Y-29354D02*
X37855Y-29752D01*
X37855Y-29752D02*
X38159Y-30057D01*
X34029Y-33639D02*
X33813Y-33855D01*
X35937Y-34655D02*
X36423Y-34655D01*
X35263Y-28854D02*
X35731Y-28854D01*
X35021Y-29096D02*
X35263Y-28854D01*
X35021Y-29675D02*
X35021Y-29096D01*
X35265Y-29919D02*
X35021Y-29675D01*
X35486Y-29919D02*
X35265Y-29919D01*
X36108Y-30553D02*
X36021Y-30466D01*
X36108Y-33218D02*
X36108Y-30553D01*
X36541Y-33651D02*
X36108Y-33218D01*
X36541Y-34537D02*
X36541Y-33651D01*
X36423Y-34655D02*
X36541Y-34537D01*
X36882Y-31929D02*
X37519Y-31929D01*
X37848Y-31600D02*
X37848Y-30320D01*
X37519Y-31929D02*
X37848Y-31600D01*
X38476Y-28354D02*
X37855Y-28354D01*
X38478Y-28356D02*
X38476Y-28354D01*
X43104Y-45659D02*
X42673Y-45659D01*
X41001Y-43987D02*
X41001Y-35769D01*
X42673Y-45659D02*
X41001Y-43987D01*
X44856Y-50073D02*
X44352Y-49568D01*
X43116Y-45659D02*
X43104Y-45659D01*
X44344Y-46887D02*
X43116Y-45659D01*
X44352Y-49568D02*
X44352Y-47647D01*
X42880Y-28155D02*
X42880Y-27672D01*
X42785Y-33986D02*
X41001Y-35769D01*
X42785Y-30175D02*
X42785Y-33986D01*
X42880Y-27672D02*
X42868Y-27659D01*
X44856Y-50073D02*
X44856Y-51096D01*
M02*
