%FSLAX34Y34*%
G04 Gerber Fmt 3.4, Leading zero omitted, Abs format*
G04 (created by PCBNEW (2014-02-21 BZR 4712)-product) date Tue 25 Feb 2014 10:55:41 PM PST*
%MOIN*%
G01*
G70*
G90*
G04 APERTURE LIST*
%ADD10C,0.005906*%
%ADD11R,0.080000X0.068000*%
%ADD12O,0.080000X0.068000*%
%ADD13R,0.068000X0.080000*%
%ADD14O,0.068000X0.080000*%
%ADD15O,0.070900X0.137800*%
%ADD16C,0.072000*%
%ADD17R,0.068000X0.068000*%
%ADD18C,0.068000*%
%ADD19R,0.088000X0.088000*%
%ADD20C,0.236200*%
%ADD21C,0.270000*%
%ADD22C,0.055118*%
%ADD23R,0.087926X0.087926*%
%ADD24R,0.263780X0.263780*%
%ADD25C,0.035000*%
%ADD26C,0.020000*%
%ADD27C,0.008000*%
%ADD28C,0.050000*%
%ADD29C,0.010000*%
G04 APERTURE END LIST*
G54D10*
G54D11*
X40281Y-34726D03*
G54D12*
X40281Y-33726D03*
X40281Y-32726D03*
G54D13*
X45281Y-30840D03*
G54D14*
X44281Y-30840D03*
X43281Y-30840D03*
X42281Y-30840D03*
X41281Y-30840D03*
X40281Y-30840D03*
G54D15*
X27468Y-25913D03*
X28468Y-25913D03*
X51122Y-25145D03*
X50122Y-25145D03*
G54D16*
X27389Y-32299D03*
X29389Y-31799D03*
X27389Y-31299D03*
X29389Y-30799D03*
X27389Y-30299D03*
X29389Y-29799D03*
X27389Y-29299D03*
X29389Y-28799D03*
X29389Y-35799D03*
X27389Y-35299D03*
X29389Y-34799D03*
X27389Y-34299D03*
X29389Y-33799D03*
X27389Y-33299D03*
X29389Y-32799D03*
X51244Y-31523D03*
X49244Y-32023D03*
X51244Y-32523D03*
X49244Y-33023D03*
X51244Y-33523D03*
X49244Y-34023D03*
X51244Y-34523D03*
X49244Y-35023D03*
X49244Y-28023D03*
X51244Y-28523D03*
X49244Y-29023D03*
X51244Y-29523D03*
X49244Y-30023D03*
X51244Y-30523D03*
X49244Y-31023D03*
G54D17*
X45700Y-36114D03*
G54D18*
X45700Y-37114D03*
X44700Y-36114D03*
X44724Y-37102D03*
X43700Y-36114D03*
X43700Y-37114D03*
X42700Y-36114D03*
X42700Y-37114D03*
X41700Y-36114D03*
X41700Y-37114D03*
G54D19*
X39655Y-27655D03*
X48151Y-45379D03*
X54564Y-45218D03*
X31883Y-35769D03*
X25840Y-37001D03*
X53340Y-20509D03*
X35210Y-45009D03*
X33423Y-45116D03*
X30005Y-41494D03*
X33167Y-28801D03*
X32360Y-33175D03*
X29875Y-45076D03*
X35899Y-49269D03*
X34257Y-49246D03*
X26068Y-55990D03*
X24001Y-55230D03*
X23848Y-57580D03*
X24009Y-49990D03*
X23958Y-52458D03*
G54D20*
X57874Y-57086D03*
X57874Y-39370D03*
X20866Y-39370D03*
X20866Y-57874D03*
G54D21*
X56555Y-35688D03*
X56515Y-22185D03*
X22185Y-35688D03*
X22185Y-22185D03*
G54D22*
X42476Y-47712D03*
X30511Y-55482D03*
G54D17*
X33370Y-22153D03*
G54D18*
X34370Y-22153D03*
X35370Y-22153D03*
X36370Y-22153D03*
X37370Y-22153D03*
X38370Y-22153D03*
X39370Y-22153D03*
X40370Y-22153D03*
X41370Y-22153D03*
X42370Y-22153D03*
X43370Y-22153D03*
X44370Y-22153D03*
X45370Y-22153D03*
X45370Y-21153D03*
X44370Y-21153D03*
X43370Y-21153D03*
X42370Y-21153D03*
X41370Y-21153D03*
X40370Y-21153D03*
X39370Y-21153D03*
X38370Y-21153D03*
X37370Y-21153D03*
X36370Y-21153D03*
X35370Y-21153D03*
X34370Y-21153D03*
X33370Y-21153D03*
G54D23*
X45606Y-25255D03*
X46485Y-24376D03*
X46485Y-26135D03*
X44726Y-24376D03*
X44726Y-26135D03*
G54D24*
X45606Y-25255D03*
G54D23*
X36564Y-25230D03*
X37444Y-24351D03*
X37444Y-26109D03*
X35685Y-24351D03*
X35685Y-26109D03*
G54D24*
X36564Y-25230D03*
G54D25*
X41356Y-29183D03*
X42210Y-27978D03*
X40320Y-57883D03*
X40470Y-55919D03*
X39860Y-58131D03*
X39931Y-55919D03*
X41639Y-58289D03*
X40816Y-54553D03*
X39781Y-24478D03*
X41738Y-24494D03*
X43706Y-49698D03*
X40210Y-49261D03*
X40049Y-49738D03*
X44120Y-50001D03*
X33840Y-32356D03*
X38470Y-31340D03*
X34458Y-34820D03*
X35328Y-34982D03*
X48541Y-35549D03*
X35179Y-27001D03*
X29551Y-27523D03*
X37423Y-47797D03*
X42053Y-49009D03*
X48651Y-36974D03*
X35309Y-40793D03*
X34143Y-40789D03*
X27064Y-40954D03*
X28061Y-40950D03*
X37612Y-40891D03*
X32828Y-40809D03*
X51348Y-40801D03*
X50352Y-40789D03*
X37324Y-35726D03*
X34131Y-30616D03*
X38131Y-27159D03*
X33812Y-37549D03*
X32151Y-37064D03*
X37525Y-32431D03*
X37521Y-31407D03*
X37868Y-51513D03*
X42328Y-51509D03*
X32041Y-48218D03*
X44659Y-49356D03*
X27049Y-50080D03*
X47391Y-51407D03*
X28068Y-50108D03*
X47958Y-51419D03*
X27112Y-36045D03*
X26486Y-33175D03*
X34990Y-33088D03*
X29120Y-41915D03*
X41596Y-49021D03*
X32309Y-47840D03*
X49009Y-51816D03*
X39312Y-50336D03*
X39289Y-23651D03*
X40151Y-50446D03*
X49183Y-51120D03*
X39781Y-23683D03*
X44226Y-44183D03*
X42698Y-43785D03*
X44714Y-44175D03*
X43120Y-43631D03*
X38663Y-45206D03*
X40899Y-45210D03*
X40458Y-44549D03*
X38631Y-44738D03*
X41171Y-58427D03*
X41159Y-55860D03*
X28348Y-37891D03*
X52183Y-44793D03*
X42238Y-44490D03*
X33375Y-56419D03*
X33978Y-57049D03*
X44001Y-42824D03*
X41998Y-42812D03*
X38718Y-42812D03*
X37612Y-44198D03*
X50005Y-20505D03*
X43832Y-47907D03*
X45289Y-48368D03*
X27663Y-54631D03*
X46568Y-30316D03*
X46561Y-30836D03*
X46568Y-32387D03*
X46572Y-32954D03*
X32549Y-21163D03*
X39801Y-26257D03*
X45750Y-48958D03*
X44848Y-32320D03*
X49568Y-52309D03*
X52127Y-54852D03*
X49001Y-58163D03*
X45431Y-51730D03*
X43545Y-52261D03*
X43541Y-54025D03*
X46753Y-54423D03*
X46765Y-53635D03*
X45643Y-54954D03*
X29253Y-55096D03*
X30127Y-56742D03*
X43328Y-46765D03*
X32812Y-44210D03*
X41458Y-28423D03*
X43352Y-25253D03*
X43635Y-29214D03*
X40025Y-54108D03*
X38879Y-45612D03*
X40242Y-45631D03*
X42151Y-54718D03*
X41364Y-23419D03*
X40927Y-23431D03*
X52919Y-49978D03*
X41588Y-50301D03*
X35137Y-27854D03*
X36820Y-28521D03*
X26561Y-51710D03*
X42096Y-51864D03*
X36513Y-35387D03*
X33257Y-35383D03*
X37114Y-40872D03*
X35470Y-33269D03*
X36828Y-33301D03*
X36620Y-40875D03*
X37320Y-32978D03*
X35478Y-32411D03*
X31482Y-47820D03*
X42340Y-46438D03*
X37781Y-33009D03*
X34029Y-33639D03*
X35486Y-29919D03*
X36021Y-30466D03*
X37848Y-30320D03*
X38478Y-28356D03*
X44344Y-46887D03*
X44352Y-47647D03*
X42785Y-30175D03*
X42868Y-27659D03*
G54D26*
X41356Y-29183D02*
X39986Y-29183D01*
X39513Y-28710D02*
X39513Y-27809D01*
X39986Y-29183D02*
X39513Y-28710D01*
X42210Y-28328D02*
X42210Y-27978D01*
X41356Y-29183D02*
X42210Y-28328D01*
G54D27*
X40470Y-57734D02*
X40320Y-57883D01*
X40470Y-55919D02*
X40470Y-57734D01*
X39931Y-58061D02*
X39931Y-55919D01*
X39860Y-58131D02*
X39931Y-58061D01*
X41639Y-55375D02*
X40816Y-54553D01*
X41639Y-58289D02*
X41639Y-55375D01*
G54D28*
X39781Y-24478D02*
X39124Y-24478D01*
X37370Y-22724D02*
X37370Y-22153D01*
X39124Y-24478D02*
X37370Y-22724D01*
X39781Y-24478D02*
X39781Y-24488D01*
X39781Y-24488D02*
X41732Y-24488D01*
X41732Y-24488D02*
X41738Y-24494D01*
G54D27*
X40210Y-49261D02*
X39541Y-48592D01*
X34911Y-48592D02*
X34257Y-49246D01*
X39541Y-48592D02*
X34911Y-48592D01*
X40647Y-49698D02*
X40210Y-49261D01*
X43706Y-49698D02*
X40647Y-49698D01*
X40049Y-49738D02*
X39580Y-49269D01*
X39580Y-49269D02*
X35899Y-49269D01*
X40312Y-50001D02*
X40049Y-49738D01*
X44120Y-50001D02*
X40312Y-50001D01*
X51244Y-33523D02*
X51850Y-32917D01*
X50460Y-31240D02*
X49244Y-30023D01*
X50460Y-31551D02*
X50460Y-31240D01*
X50929Y-32019D02*
X50460Y-31551D01*
X51649Y-32019D02*
X50929Y-32019D01*
X51850Y-32220D02*
X51649Y-32019D01*
X51850Y-32917D02*
X51850Y-32220D01*
X51244Y-32523D02*
X50744Y-32523D01*
X50744Y-32523D02*
X49244Y-31023D01*
X34177Y-32019D02*
X47582Y-32019D01*
X33840Y-32356D02*
X34177Y-32019D01*
X48730Y-35297D02*
X48840Y-35407D01*
X48730Y-33537D02*
X48730Y-35297D01*
X49244Y-33023D02*
X48730Y-33537D01*
X47990Y-32427D02*
X47582Y-32019D01*
X47990Y-35474D02*
X47990Y-32427D01*
X48348Y-35832D02*
X47990Y-35474D01*
X48718Y-35832D02*
X48348Y-35832D01*
X48840Y-35710D02*
X48718Y-35832D01*
X48840Y-35407D02*
X48840Y-35710D01*
X51244Y-30523D02*
X50240Y-29519D01*
X49791Y-32476D02*
X49244Y-33023D01*
X49791Y-31830D02*
X49791Y-32476D01*
X49472Y-31511D02*
X49791Y-31830D01*
X48901Y-31511D02*
X49472Y-31511D01*
X48629Y-31240D02*
X48901Y-31511D01*
X48629Y-29822D02*
X48629Y-31240D01*
X48933Y-29519D02*
X48629Y-29822D01*
X50240Y-29519D02*
X48933Y-29519D01*
X49244Y-28023D02*
X48379Y-28887D01*
X38709Y-31579D02*
X38470Y-31340D01*
X48058Y-31579D02*
X38709Y-31579D01*
X48379Y-31257D02*
X48058Y-31579D01*
X48379Y-28887D02*
X48379Y-31257D01*
G54D26*
X34620Y-34982D02*
X35328Y-34982D01*
X34620Y-34982D02*
X34458Y-34820D01*
X49244Y-32023D02*
X48515Y-32023D01*
X48515Y-32023D02*
X48289Y-32250D01*
X48541Y-35549D02*
X48289Y-35297D01*
X48289Y-32250D02*
X47838Y-31799D01*
X48289Y-35297D02*
X48289Y-32250D01*
X34978Y-26801D02*
X35179Y-27001D01*
X29551Y-27523D02*
X30273Y-26801D01*
X30273Y-26801D02*
X34978Y-26801D01*
X29389Y-31799D02*
X47838Y-31799D01*
X29389Y-31799D02*
X30190Y-30998D01*
X30190Y-28163D02*
X29551Y-27523D01*
X30190Y-30998D02*
X30190Y-28163D01*
G54D27*
X40271Y-47830D02*
X37456Y-47830D01*
X37456Y-47830D02*
X37423Y-47797D01*
X41702Y-48659D02*
X41100Y-48659D01*
X42053Y-49009D02*
X41702Y-48659D01*
X41096Y-48655D02*
X40271Y-47830D01*
X41100Y-48659D02*
X41096Y-48655D01*
G54D28*
X36564Y-25230D02*
X38025Y-25230D01*
X38080Y-25297D02*
X38017Y-25234D01*
X38080Y-26576D02*
X38080Y-25297D01*
X37970Y-26687D02*
X38080Y-26576D01*
X35742Y-26687D02*
X37970Y-26687D01*
X35120Y-26064D02*
X35742Y-26687D01*
X35120Y-23868D02*
X35120Y-26064D01*
X35222Y-23765D02*
X35120Y-23868D01*
X37415Y-23765D02*
X35222Y-23765D01*
X38076Y-24427D02*
X37415Y-23765D01*
X38076Y-25179D02*
X38076Y-24427D01*
X38025Y-25230D02*
X38076Y-25179D01*
X48651Y-36974D02*
X48651Y-36986D01*
G54D26*
X51344Y-40805D02*
X51340Y-40805D01*
X51348Y-40801D02*
X51344Y-40805D01*
X50352Y-40789D02*
X50348Y-40793D01*
G54D28*
X42370Y-21153D02*
X42370Y-20744D01*
X26996Y-32299D02*
X26110Y-31413D01*
X27389Y-32299D02*
X26996Y-32299D01*
X26110Y-22421D02*
X26110Y-31413D01*
X28250Y-20281D02*
X26110Y-22421D01*
X41907Y-20281D02*
X28250Y-20281D01*
X42370Y-20744D02*
X41907Y-20281D01*
X42370Y-22153D02*
X43370Y-22153D01*
X43370Y-22153D02*
X44370Y-22153D01*
X44370Y-22153D02*
X45370Y-22153D01*
X42370Y-21153D02*
X43370Y-21153D01*
X43370Y-21153D02*
X44370Y-21153D01*
X44370Y-21153D02*
X45370Y-21153D01*
X45370Y-22153D02*
X50023Y-22153D01*
X51767Y-31523D02*
X51244Y-31523D01*
X52537Y-30753D02*
X51767Y-31523D01*
X52537Y-24667D02*
X52537Y-30753D01*
X50023Y-22153D02*
X52537Y-24667D01*
G54D27*
X42328Y-51509D02*
X37872Y-51509D01*
X37872Y-51509D02*
X37868Y-51513D01*
G54D28*
X36370Y-22153D02*
X35370Y-22153D01*
X35370Y-22153D02*
X34370Y-22153D01*
X34370Y-22153D02*
X33370Y-22153D01*
X35370Y-21153D02*
X36370Y-21153D01*
X34370Y-21153D02*
X35370Y-21153D01*
X33370Y-21153D02*
X34370Y-21153D01*
G54D27*
X40009Y-48383D02*
X32206Y-48383D01*
X32206Y-48383D02*
X32041Y-48218D01*
X40025Y-48383D02*
X40009Y-48383D01*
X40998Y-49356D02*
X40025Y-48383D01*
X44659Y-49356D02*
X40998Y-49356D01*
X28163Y-51194D02*
X27049Y-50080D01*
X47179Y-51194D02*
X28163Y-51194D01*
X47391Y-51407D02*
X47179Y-51194D01*
X28954Y-50994D02*
X28068Y-50108D01*
X47533Y-50994D02*
X28954Y-50994D01*
X47958Y-51419D02*
X47533Y-50994D01*
X29389Y-33799D02*
X28171Y-32580D01*
X28171Y-32580D02*
X28171Y-32100D01*
X28171Y-32100D02*
X27872Y-31801D01*
X27872Y-31801D02*
X27143Y-31801D01*
X27143Y-31801D02*
X26671Y-31328D01*
X26671Y-31328D02*
X26671Y-31017D01*
X26671Y-31017D02*
X27389Y-30299D01*
X27112Y-36045D02*
X26486Y-35419D01*
X26486Y-35419D02*
X26486Y-33175D01*
X26486Y-33175D02*
X26486Y-35419D01*
X29389Y-32799D02*
X29062Y-32799D01*
X28090Y-31299D02*
X27389Y-31299D01*
X28364Y-31572D02*
X28090Y-31299D01*
X28364Y-32100D02*
X28364Y-31572D01*
X29062Y-32799D02*
X28364Y-32100D01*
X32360Y-33175D02*
X29970Y-33175D01*
X34990Y-33088D02*
X32446Y-33088D01*
X32446Y-33088D02*
X32360Y-33175D01*
X27389Y-33299D02*
X28395Y-34305D01*
X29970Y-33931D02*
X29970Y-33175D01*
X29596Y-34305D02*
X29970Y-33931D01*
X28395Y-34305D02*
X29596Y-34305D01*
X28753Y-31435D02*
X29389Y-30799D01*
X28753Y-31994D02*
X28753Y-31435D01*
X29041Y-32281D02*
X28753Y-31994D01*
X29714Y-32281D02*
X29041Y-32281D01*
X29970Y-32537D02*
X29960Y-32527D01*
X29960Y-32527D02*
X29714Y-32281D01*
X29970Y-33175D02*
X29970Y-32537D01*
X29875Y-43391D02*
X29875Y-45076D01*
X29120Y-42635D02*
X29875Y-43391D01*
X29120Y-41915D02*
X29120Y-42635D01*
X40230Y-48179D02*
X32647Y-48179D01*
X32647Y-48179D02*
X32309Y-47840D01*
X41072Y-49021D02*
X40230Y-48179D01*
X41596Y-49021D02*
X41072Y-49021D01*
X48013Y-50820D02*
X39797Y-50820D01*
X49009Y-51816D02*
X48013Y-50820D01*
X39797Y-50820D02*
X39312Y-50336D01*
X38887Y-20671D02*
X38139Y-20671D01*
X38139Y-20671D02*
X37860Y-20950D01*
X37860Y-20950D02*
X37860Y-21442D01*
X37860Y-21442D02*
X38057Y-21639D01*
X38057Y-21639D02*
X38557Y-21639D01*
X38557Y-21639D02*
X38848Y-21931D01*
X38848Y-21931D02*
X38848Y-23210D01*
X38848Y-23210D02*
X39289Y-23651D01*
X39370Y-21153D02*
X38887Y-20671D01*
X49183Y-51120D02*
X48680Y-50617D01*
X40322Y-50617D02*
X40151Y-50446D01*
X48680Y-50617D02*
X40322Y-50617D01*
X39781Y-23683D02*
X39370Y-23271D01*
X39370Y-23271D02*
X39370Y-22153D01*
X43009Y-44084D02*
X44127Y-44084D01*
X44127Y-44084D02*
X44226Y-44183D01*
X43009Y-44084D02*
X42998Y-44084D01*
X42998Y-44084D02*
X42698Y-43785D01*
X43120Y-43631D02*
X43383Y-43895D01*
X43383Y-43895D02*
X44435Y-43895D01*
X44435Y-43895D02*
X44714Y-44175D01*
X38663Y-45206D02*
X38663Y-45210D01*
X40899Y-45210D02*
X38663Y-45210D01*
X40269Y-44738D02*
X40458Y-44549D01*
X38631Y-44738D02*
X40269Y-44738D01*
X41171Y-55872D02*
X41159Y-55860D01*
X41171Y-58427D02*
X41171Y-55872D01*
X28348Y-37891D02*
X40214Y-37891D01*
X42238Y-44490D02*
X51879Y-44490D01*
X51879Y-44490D02*
X52183Y-44793D01*
X40214Y-37891D02*
X40992Y-37114D01*
X40992Y-37114D02*
X41700Y-37114D01*
X33978Y-57021D02*
X33978Y-57049D01*
X33375Y-56419D02*
X33978Y-57021D01*
G54D26*
X41998Y-42812D02*
X43990Y-42812D01*
X43990Y-42812D02*
X44001Y-42824D01*
X38718Y-42812D02*
X41998Y-42812D01*
G54D28*
X46485Y-26135D02*
X46485Y-26727D01*
X46485Y-23990D02*
X46485Y-24376D01*
X46687Y-23789D02*
X46485Y-23990D01*
X44312Y-23789D02*
X46687Y-23789D01*
X44139Y-23962D02*
X44312Y-23789D01*
X44139Y-26627D02*
X44139Y-23962D01*
X44230Y-26718D02*
X44139Y-26627D01*
X46476Y-26718D02*
X44230Y-26718D01*
X46485Y-26727D02*
X46476Y-26718D01*
G54D27*
X41875Y-21647D02*
X48553Y-21647D01*
X41875Y-21647D02*
X41370Y-22153D01*
X49694Y-20505D02*
X48553Y-21647D01*
X50005Y-20505D02*
X49694Y-20505D01*
G54D28*
X45281Y-30840D02*
X46557Y-30840D01*
X46557Y-30840D02*
X46561Y-30836D01*
X46568Y-32950D02*
X46572Y-32954D01*
X42013Y-22797D02*
X42013Y-23730D01*
G54D27*
X33029Y-21643D02*
X32549Y-21163D01*
X37572Y-21643D02*
X33029Y-21643D01*
X37875Y-21946D02*
X37572Y-21643D01*
G54D28*
X42013Y-22797D02*
X41370Y-22153D01*
G54D27*
X41781Y-23962D02*
X39206Y-23962D01*
X39206Y-23962D02*
X37875Y-22631D01*
X37875Y-22631D02*
X37875Y-21946D01*
X42013Y-23730D02*
X41781Y-23962D01*
X49568Y-52309D02*
X49553Y-52309D01*
X45431Y-51730D02*
X45431Y-51738D01*
X29253Y-55096D02*
X29257Y-55096D01*
X42151Y-54718D02*
X41541Y-54108D01*
X41541Y-54108D02*
X40025Y-54108D01*
X38879Y-45612D02*
X40222Y-45612D01*
X40222Y-45612D02*
X40242Y-45631D01*
X41364Y-23419D02*
X40370Y-22425D01*
X40370Y-22425D02*
X40370Y-22153D01*
X39875Y-21647D02*
X39875Y-22336D01*
X40927Y-23387D02*
X40927Y-23431D01*
X39875Y-22336D02*
X40927Y-23387D01*
X40370Y-21153D02*
X39875Y-21647D01*
X38370Y-21153D02*
X38864Y-21647D01*
X38864Y-21647D02*
X39875Y-21647D01*
X52919Y-49978D02*
X52596Y-50301D01*
X52596Y-50301D02*
X41588Y-50301D01*
X36153Y-27854D02*
X36820Y-28521D01*
X35137Y-27854D02*
X36153Y-27854D01*
X26856Y-51415D02*
X36009Y-51415D01*
X26561Y-51710D02*
X26856Y-51415D01*
X36037Y-51415D02*
X36009Y-51415D01*
X42096Y-51864D02*
X36486Y-51864D01*
X36486Y-51864D02*
X36037Y-51415D01*
X31883Y-35769D02*
X32872Y-35769D01*
X32872Y-35769D02*
X33257Y-35383D01*
X36509Y-35383D02*
X36513Y-35387D01*
X33257Y-35383D02*
X36509Y-35383D01*
X35210Y-45009D02*
X35210Y-42775D01*
X35210Y-42775D02*
X37114Y-40872D01*
X36797Y-33269D02*
X35470Y-33269D01*
X36828Y-33301D02*
X36797Y-33269D01*
X33423Y-44072D02*
X33423Y-45116D01*
X36620Y-40875D02*
X33423Y-44072D01*
X36045Y-32978D02*
X37320Y-32978D01*
X35478Y-32411D02*
X36045Y-32978D01*
X31872Y-47431D02*
X32391Y-47431D01*
X31482Y-47820D02*
X31872Y-47431D01*
X32395Y-47431D02*
X32391Y-47431D01*
X40856Y-47419D02*
X37356Y-47419D01*
X42340Y-46438D02*
X41836Y-46438D01*
X41836Y-46438D02*
X40856Y-47419D01*
X37356Y-47419D02*
X36824Y-47950D01*
X36824Y-47950D02*
X32915Y-47950D01*
X32915Y-47950D02*
X32395Y-47431D01*
X34029Y-33639D02*
X34068Y-33600D01*
X37190Y-33600D02*
X37781Y-33009D01*
X34068Y-33600D02*
X37190Y-33600D01*
X35486Y-29931D02*
X35486Y-29919D01*
X36021Y-30466D02*
X35486Y-29931D01*
X38478Y-29690D02*
X38478Y-28356D01*
X37848Y-30320D02*
X38478Y-29690D01*
X44352Y-46895D02*
X44344Y-46887D01*
X44352Y-47647D02*
X44352Y-46895D01*
X42868Y-30092D02*
X42785Y-30175D01*
X42868Y-27659D02*
X42868Y-30092D01*
G54D10*
G36*
X46855Y-23475D02*
X46855Y-23587D01*
X45703Y-23587D01*
X45616Y-23674D01*
X45616Y-24553D01*
X45616Y-25245D01*
X45624Y-25245D01*
X45624Y-25265D01*
X45616Y-25265D01*
X45616Y-25958D01*
X45616Y-26837D01*
X45703Y-26924D01*
X46853Y-26924D01*
X46849Y-31289D01*
X45968Y-31289D01*
X45971Y-31275D01*
X45971Y-31206D01*
X45971Y-30938D01*
X45971Y-30743D01*
X45971Y-30475D01*
X45971Y-30406D01*
X45958Y-30338D01*
X45931Y-30274D01*
X45893Y-30217D01*
X45844Y-30168D01*
X45787Y-30130D01*
X45723Y-30104D01*
X45655Y-30090D01*
X45596Y-30090D01*
X45596Y-26837D01*
X45596Y-25958D01*
X45596Y-25265D01*
X45596Y-25245D01*
X45596Y-24553D01*
X45596Y-23674D01*
X45508Y-23587D01*
X44321Y-23587D01*
X44252Y-23587D01*
X44185Y-23600D01*
X44121Y-23626D01*
X44064Y-23665D01*
X44015Y-23713D01*
X43977Y-23771D01*
X43950Y-23834D01*
X43937Y-23902D01*
X43937Y-25158D01*
X44024Y-25245D01*
X44904Y-25245D01*
X45596Y-25245D01*
X45596Y-25265D01*
X44904Y-25265D01*
X44024Y-25265D01*
X43937Y-25353D01*
X43937Y-26609D01*
X43950Y-26676D01*
X43977Y-26740D01*
X44015Y-26797D01*
X44064Y-26846D01*
X44121Y-26884D01*
X44185Y-26911D01*
X44252Y-26924D01*
X44321Y-26924D01*
X45508Y-26924D01*
X45596Y-26837D01*
X45596Y-30090D01*
X45378Y-30090D01*
X45291Y-30178D01*
X45291Y-30830D01*
X45883Y-30830D01*
X45971Y-30743D01*
X45971Y-30938D01*
X45883Y-30850D01*
X45291Y-30850D01*
X45291Y-30858D01*
X45271Y-30858D01*
X45271Y-30850D01*
X45263Y-30850D01*
X45263Y-30830D01*
X45271Y-30830D01*
X45271Y-30178D01*
X45183Y-30090D01*
X44907Y-30090D01*
X44839Y-30104D01*
X44775Y-30130D01*
X44718Y-30168D01*
X44669Y-30217D01*
X44631Y-30274D01*
X44622Y-30297D01*
X44611Y-30288D01*
X44510Y-30233D01*
X44400Y-30199D01*
X44285Y-30187D01*
X44170Y-30197D01*
X44060Y-30230D01*
X43958Y-30283D01*
X43868Y-30355D01*
X43794Y-30444D01*
X43781Y-30467D01*
X43772Y-30450D01*
X43700Y-30361D01*
X43611Y-30288D01*
X43510Y-30233D01*
X43400Y-30199D01*
X43285Y-30187D01*
X43209Y-30194D01*
X43210Y-30133D01*
X43194Y-30051D01*
X43162Y-29974D01*
X43158Y-29968D01*
X43158Y-27970D01*
X43191Y-27938D01*
X43239Y-27870D01*
X43273Y-27794D01*
X43291Y-27712D01*
X43293Y-27617D01*
X43276Y-27536D01*
X43245Y-27458D01*
X43199Y-27389D01*
X43140Y-27330D01*
X43071Y-27283D01*
X42994Y-27251D01*
X42912Y-27234D01*
X42829Y-27234D01*
X42747Y-27249D01*
X42670Y-27280D01*
X42600Y-27326D01*
X42540Y-27384D01*
X42493Y-27453D01*
X42461Y-27530D01*
X42443Y-27611D01*
X42443Y-27622D01*
X42413Y-27602D01*
X42336Y-27570D01*
X42255Y-27553D01*
X42171Y-27553D01*
X42090Y-27568D01*
X42012Y-27599D01*
X41943Y-27645D01*
X41883Y-27703D01*
X41836Y-27772D01*
X41803Y-27849D01*
X41786Y-27930D01*
X41785Y-28014D01*
X41800Y-28096D01*
X41830Y-28173D01*
X41846Y-28197D01*
X41279Y-28765D01*
X41235Y-28773D01*
X41158Y-28804D01*
X41114Y-28833D01*
X40131Y-28833D01*
X39863Y-28565D01*
X39863Y-28345D01*
X40120Y-28345D01*
X40168Y-28335D01*
X40213Y-28317D01*
X40254Y-28289D01*
X40289Y-28254D01*
X40317Y-28213D01*
X40335Y-28168D01*
X40345Y-28120D01*
X40345Y-28070D01*
X40345Y-27190D01*
X40335Y-27142D01*
X40317Y-27097D01*
X40289Y-27056D01*
X40254Y-27021D01*
X40213Y-26993D01*
X40168Y-26975D01*
X40120Y-26965D01*
X40070Y-26965D01*
X39190Y-26965D01*
X39142Y-26975D01*
X39097Y-26993D01*
X39082Y-27003D01*
X39082Y-24974D01*
X39117Y-24978D01*
X39122Y-24978D01*
X39122Y-24978D01*
X39122Y-24978D01*
X39124Y-24978D01*
X39684Y-24978D01*
X39727Y-24982D01*
X39774Y-24988D01*
X39777Y-24988D01*
X39778Y-24988D01*
X39778Y-24988D01*
X39781Y-24988D01*
X41678Y-24988D01*
X41736Y-24994D01*
X41833Y-24984D01*
X41927Y-24957D01*
X42013Y-24911D01*
X42089Y-24850D01*
X42151Y-24775D01*
X42198Y-24689D01*
X42227Y-24596D01*
X42238Y-24499D01*
X42229Y-24402D01*
X42202Y-24308D01*
X42157Y-24221D01*
X42096Y-24145D01*
X42091Y-24140D01*
X42085Y-24134D01*
X42050Y-24105D01*
X42014Y-24075D01*
X42012Y-24074D01*
X42010Y-24072D01*
X41969Y-24050D01*
X41929Y-24028D01*
X41926Y-24027D01*
X41924Y-24026D01*
X41880Y-24013D01*
X41836Y-23999D01*
X41833Y-23998D01*
X41831Y-23998D01*
X41785Y-23993D01*
X41739Y-23988D01*
X41734Y-23988D01*
X41734Y-23988D01*
X41733Y-23988D01*
X41732Y-23988D01*
X40077Y-23988D01*
X40104Y-23962D01*
X40152Y-23894D01*
X40186Y-23817D01*
X40205Y-23736D01*
X40206Y-23641D01*
X40190Y-23559D01*
X40158Y-23482D01*
X40153Y-23475D01*
X40503Y-23475D01*
X40516Y-23548D01*
X40547Y-23626D01*
X40592Y-23696D01*
X40650Y-23756D01*
X40718Y-23803D01*
X40795Y-23837D01*
X40876Y-23855D01*
X40959Y-23856D01*
X41042Y-23842D01*
X41119Y-23812D01*
X41153Y-23790D01*
X41155Y-23792D01*
X41232Y-23825D01*
X41313Y-23843D01*
X41396Y-23845D01*
X41479Y-23830D01*
X41556Y-23800D01*
X41627Y-23755D01*
X41687Y-23698D01*
X41735Y-23630D01*
X41769Y-23554D01*
X41787Y-23475D01*
X46855Y-23475D01*
X46855Y-23475D01*
G37*
G54D29*
X46855Y-23475D02*
X46855Y-23587D01*
X45703Y-23587D01*
X45616Y-23674D01*
X45616Y-24553D01*
X45616Y-25245D01*
X45624Y-25245D01*
X45624Y-25265D01*
X45616Y-25265D01*
X45616Y-25958D01*
X45616Y-26837D01*
X45703Y-26924D01*
X46853Y-26924D01*
X46849Y-31289D01*
X45968Y-31289D01*
X45971Y-31275D01*
X45971Y-31206D01*
X45971Y-30938D01*
X45971Y-30743D01*
X45971Y-30475D01*
X45971Y-30406D01*
X45958Y-30338D01*
X45931Y-30274D01*
X45893Y-30217D01*
X45844Y-30168D01*
X45787Y-30130D01*
X45723Y-30104D01*
X45655Y-30090D01*
X45596Y-30090D01*
X45596Y-26837D01*
X45596Y-25958D01*
X45596Y-25265D01*
X45596Y-25245D01*
X45596Y-24553D01*
X45596Y-23674D01*
X45508Y-23587D01*
X44321Y-23587D01*
X44252Y-23587D01*
X44185Y-23600D01*
X44121Y-23626D01*
X44064Y-23665D01*
X44015Y-23713D01*
X43977Y-23771D01*
X43950Y-23834D01*
X43937Y-23902D01*
X43937Y-25158D01*
X44024Y-25245D01*
X44904Y-25245D01*
X45596Y-25245D01*
X45596Y-25265D01*
X44904Y-25265D01*
X44024Y-25265D01*
X43937Y-25353D01*
X43937Y-26609D01*
X43950Y-26676D01*
X43977Y-26740D01*
X44015Y-26797D01*
X44064Y-26846D01*
X44121Y-26884D01*
X44185Y-26911D01*
X44252Y-26924D01*
X44321Y-26924D01*
X45508Y-26924D01*
X45596Y-26837D01*
X45596Y-30090D01*
X45378Y-30090D01*
X45291Y-30178D01*
X45291Y-30830D01*
X45883Y-30830D01*
X45971Y-30743D01*
X45971Y-30938D01*
X45883Y-30850D01*
X45291Y-30850D01*
X45291Y-30858D01*
X45271Y-30858D01*
X45271Y-30850D01*
X45263Y-30850D01*
X45263Y-30830D01*
X45271Y-30830D01*
X45271Y-30178D01*
X45183Y-30090D01*
X44907Y-30090D01*
X44839Y-30104D01*
X44775Y-30130D01*
X44718Y-30168D01*
X44669Y-30217D01*
X44631Y-30274D01*
X44622Y-30297D01*
X44611Y-30288D01*
X44510Y-30233D01*
X44400Y-30199D01*
X44285Y-30187D01*
X44170Y-30197D01*
X44060Y-30230D01*
X43958Y-30283D01*
X43868Y-30355D01*
X43794Y-30444D01*
X43781Y-30467D01*
X43772Y-30450D01*
X43700Y-30361D01*
X43611Y-30288D01*
X43510Y-30233D01*
X43400Y-30199D01*
X43285Y-30187D01*
X43209Y-30194D01*
X43210Y-30133D01*
X43194Y-30051D01*
X43162Y-29974D01*
X43158Y-29968D01*
X43158Y-27970D01*
X43191Y-27938D01*
X43239Y-27870D01*
X43273Y-27794D01*
X43291Y-27712D01*
X43293Y-27617D01*
X43276Y-27536D01*
X43245Y-27458D01*
X43199Y-27389D01*
X43140Y-27330D01*
X43071Y-27283D01*
X42994Y-27251D01*
X42912Y-27234D01*
X42829Y-27234D01*
X42747Y-27249D01*
X42670Y-27280D01*
X42600Y-27326D01*
X42540Y-27384D01*
X42493Y-27453D01*
X42461Y-27530D01*
X42443Y-27611D01*
X42443Y-27622D01*
X42413Y-27602D01*
X42336Y-27570D01*
X42255Y-27553D01*
X42171Y-27553D01*
X42090Y-27568D01*
X42012Y-27599D01*
X41943Y-27645D01*
X41883Y-27703D01*
X41836Y-27772D01*
X41803Y-27849D01*
X41786Y-27930D01*
X41785Y-28014D01*
X41800Y-28096D01*
X41830Y-28173D01*
X41846Y-28197D01*
X41279Y-28765D01*
X41235Y-28773D01*
X41158Y-28804D01*
X41114Y-28833D01*
X40131Y-28833D01*
X39863Y-28565D01*
X39863Y-28345D01*
X40120Y-28345D01*
X40168Y-28335D01*
X40213Y-28317D01*
X40254Y-28289D01*
X40289Y-28254D01*
X40317Y-28213D01*
X40335Y-28168D01*
X40345Y-28120D01*
X40345Y-28070D01*
X40345Y-27190D01*
X40335Y-27142D01*
X40317Y-27097D01*
X40289Y-27056D01*
X40254Y-27021D01*
X40213Y-26993D01*
X40168Y-26975D01*
X40120Y-26965D01*
X40070Y-26965D01*
X39190Y-26965D01*
X39142Y-26975D01*
X39097Y-26993D01*
X39082Y-27003D01*
X39082Y-24974D01*
X39117Y-24978D01*
X39122Y-24978D01*
X39122Y-24978D01*
X39122Y-24978D01*
X39124Y-24978D01*
X39684Y-24978D01*
X39727Y-24982D01*
X39774Y-24988D01*
X39777Y-24988D01*
X39778Y-24988D01*
X39778Y-24988D01*
X39781Y-24988D01*
X41678Y-24988D01*
X41736Y-24994D01*
X41833Y-24984D01*
X41927Y-24957D01*
X42013Y-24911D01*
X42089Y-24850D01*
X42151Y-24775D01*
X42198Y-24689D01*
X42227Y-24596D01*
X42238Y-24499D01*
X42229Y-24402D01*
X42202Y-24308D01*
X42157Y-24221D01*
X42096Y-24145D01*
X42091Y-24140D01*
X42085Y-24134D01*
X42050Y-24105D01*
X42014Y-24075D01*
X42012Y-24074D01*
X42010Y-24072D01*
X41969Y-24050D01*
X41929Y-24028D01*
X41926Y-24027D01*
X41924Y-24026D01*
X41880Y-24013D01*
X41836Y-23999D01*
X41833Y-23998D01*
X41831Y-23998D01*
X41785Y-23993D01*
X41739Y-23988D01*
X41734Y-23988D01*
X41734Y-23988D01*
X41733Y-23988D01*
X41732Y-23988D01*
X40077Y-23988D01*
X40104Y-23962D01*
X40152Y-23894D01*
X40186Y-23817D01*
X40205Y-23736D01*
X40206Y-23641D01*
X40190Y-23559D01*
X40158Y-23482D01*
X40153Y-23475D01*
X40503Y-23475D01*
X40516Y-23548D01*
X40547Y-23626D01*
X40592Y-23696D01*
X40650Y-23756D01*
X40718Y-23803D01*
X40795Y-23837D01*
X40876Y-23855D01*
X40959Y-23856D01*
X41042Y-23842D01*
X41119Y-23812D01*
X41153Y-23790D01*
X41155Y-23792D01*
X41232Y-23825D01*
X41313Y-23843D01*
X41396Y-23845D01*
X41479Y-23830D01*
X41556Y-23800D01*
X41627Y-23755D01*
X41687Y-23698D01*
X41735Y-23630D01*
X41769Y-23554D01*
X41787Y-23475D01*
X46855Y-23475D01*
G54D10*
G36*
X56632Y-42890D02*
X56604Y-56415D01*
X56503Y-56651D01*
X56445Y-56926D01*
X56441Y-57206D01*
X56491Y-57482D01*
X56595Y-57743D01*
X56602Y-57754D01*
X56599Y-58785D01*
X55354Y-58785D01*
X55354Y-45692D01*
X55354Y-45624D01*
X55354Y-45316D01*
X55354Y-45121D01*
X55354Y-44812D01*
X55354Y-44744D01*
X55341Y-44676D01*
X55315Y-44612D01*
X55276Y-44555D01*
X55228Y-44506D01*
X55170Y-44468D01*
X55107Y-44441D01*
X55039Y-44428D01*
X54662Y-44428D01*
X54574Y-44516D01*
X54574Y-45208D01*
X55267Y-45208D01*
X55354Y-45121D01*
X55354Y-45316D01*
X55267Y-45228D01*
X54574Y-45228D01*
X54574Y-45921D01*
X54662Y-46008D01*
X55039Y-46008D01*
X55107Y-45995D01*
X55170Y-45968D01*
X55228Y-45930D01*
X55276Y-45881D01*
X55315Y-45824D01*
X55341Y-45760D01*
X55354Y-45692D01*
X55354Y-58785D01*
X54554Y-58785D01*
X54554Y-45921D01*
X54554Y-45228D01*
X54554Y-45208D01*
X54554Y-44516D01*
X54467Y-44428D01*
X54090Y-44428D01*
X54022Y-44441D01*
X53959Y-44468D01*
X53901Y-44506D01*
X53853Y-44555D01*
X53814Y-44612D01*
X53788Y-44676D01*
X53774Y-44744D01*
X53774Y-44812D01*
X53774Y-45121D01*
X53862Y-45208D01*
X54554Y-45208D01*
X54554Y-45228D01*
X53862Y-45228D01*
X53774Y-45316D01*
X53774Y-45624D01*
X53774Y-45692D01*
X53788Y-45760D01*
X53814Y-45824D01*
X53853Y-45881D01*
X53901Y-45930D01*
X53959Y-45968D01*
X54022Y-45995D01*
X54090Y-46008D01*
X54467Y-46008D01*
X54554Y-45921D01*
X54554Y-58785D01*
X53344Y-58785D01*
X53344Y-49936D01*
X53328Y-49854D01*
X53296Y-49777D01*
X53250Y-49708D01*
X53191Y-49649D01*
X53122Y-49602D01*
X53045Y-49570D01*
X52963Y-49553D01*
X52880Y-49553D01*
X52798Y-49568D01*
X52721Y-49599D01*
X52651Y-49645D01*
X52608Y-49688D01*
X52608Y-44751D01*
X52591Y-44669D01*
X52560Y-44592D01*
X52514Y-44523D01*
X52455Y-44464D01*
X52386Y-44417D01*
X52309Y-44385D01*
X52227Y-44368D01*
X52168Y-44368D01*
X52084Y-44285D01*
X52064Y-44268D01*
X52043Y-44250D01*
X52042Y-44250D01*
X52041Y-44249D01*
X52017Y-44236D01*
X51994Y-44223D01*
X51992Y-44223D01*
X51991Y-44222D01*
X51965Y-44214D01*
X51940Y-44206D01*
X51938Y-44206D01*
X51937Y-44205D01*
X51910Y-44203D01*
X51883Y-44200D01*
X51880Y-44200D01*
X51880Y-44200D01*
X51880Y-44200D01*
X51879Y-44200D01*
X45138Y-44200D01*
X45139Y-44133D01*
X45123Y-44051D01*
X45091Y-43974D01*
X45045Y-43905D01*
X44986Y-43846D01*
X44917Y-43799D01*
X44840Y-43767D01*
X44759Y-43750D01*
X44699Y-43750D01*
X44640Y-43690D01*
X44619Y-43673D01*
X44598Y-43656D01*
X44597Y-43655D01*
X44596Y-43654D01*
X44572Y-43642D01*
X44549Y-43629D01*
X44547Y-43628D01*
X44546Y-43627D01*
X44520Y-43620D01*
X44495Y-43612D01*
X44493Y-43611D01*
X44492Y-43611D01*
X44465Y-43608D01*
X44439Y-43605D01*
X44436Y-43605D01*
X44436Y-43605D01*
X44435Y-43605D01*
X44435Y-43605D01*
X43544Y-43605D01*
X43545Y-43590D01*
X43528Y-43508D01*
X43497Y-43431D01*
X43451Y-43361D01*
X43392Y-43302D01*
X43323Y-43256D01*
X43246Y-43223D01*
X43164Y-43207D01*
X43081Y-43206D01*
X42999Y-43222D01*
X42922Y-43253D01*
X42852Y-43299D01*
X42792Y-43357D01*
X42784Y-43369D01*
X42743Y-43360D01*
X42660Y-43360D01*
X42578Y-43375D01*
X42500Y-43406D01*
X42431Y-43452D01*
X42371Y-43510D01*
X42324Y-43579D01*
X42291Y-43656D01*
X42274Y-43737D01*
X42273Y-43821D01*
X42288Y-43903D01*
X42318Y-43980D01*
X42364Y-44050D01*
X42415Y-44103D01*
X42364Y-44082D01*
X42282Y-44065D01*
X42199Y-44064D01*
X42117Y-44080D01*
X42040Y-44111D01*
X41970Y-44157D01*
X41911Y-44215D01*
X41863Y-44284D01*
X41831Y-44361D01*
X41813Y-44442D01*
X41812Y-44525D01*
X41827Y-44607D01*
X41858Y-44685D01*
X41903Y-44755D01*
X41961Y-44815D01*
X42029Y-44862D01*
X42106Y-44896D01*
X42187Y-44914D01*
X42270Y-44915D01*
X42353Y-44901D01*
X42430Y-44871D01*
X42501Y-44826D01*
X42549Y-44780D01*
X47517Y-44780D01*
X47517Y-44780D01*
X47490Y-44821D01*
X47471Y-44866D01*
X47461Y-44915D01*
X47461Y-44964D01*
X47461Y-45844D01*
X47471Y-45892D01*
X47490Y-45938D01*
X47517Y-45979D01*
X47552Y-46014D01*
X47593Y-46041D01*
X47638Y-46060D01*
X47686Y-46069D01*
X47736Y-46069D01*
X48616Y-46069D01*
X48664Y-46060D01*
X48709Y-46041D01*
X48750Y-46014D01*
X48785Y-45979D01*
X48813Y-45938D01*
X48831Y-45892D01*
X48841Y-45844D01*
X48841Y-45795D01*
X48841Y-44915D01*
X48831Y-44866D01*
X48813Y-44821D01*
X48785Y-44780D01*
X48785Y-44780D01*
X51758Y-44780D01*
X51757Y-44829D01*
X51772Y-44911D01*
X51803Y-44988D01*
X51848Y-45058D01*
X51906Y-45118D01*
X51974Y-45166D01*
X52051Y-45199D01*
X52132Y-45217D01*
X52215Y-45219D01*
X52297Y-45204D01*
X52375Y-45174D01*
X52445Y-45129D01*
X52506Y-45072D01*
X52554Y-45004D01*
X52588Y-44928D01*
X52606Y-44846D01*
X52608Y-44751D01*
X52608Y-49688D01*
X52592Y-49703D01*
X52545Y-49772D01*
X52512Y-49849D01*
X52494Y-49930D01*
X52494Y-49993D01*
X52476Y-50011D01*
X44544Y-50011D01*
X44545Y-49960D01*
X44528Y-49878D01*
X44497Y-49801D01*
X44451Y-49732D01*
X44441Y-49722D01*
X44451Y-49729D01*
X44527Y-49762D01*
X44608Y-49780D01*
X44692Y-49782D01*
X44774Y-49767D01*
X44851Y-49737D01*
X44922Y-49692D01*
X44982Y-49635D01*
X45030Y-49567D01*
X45064Y-49491D01*
X45083Y-49409D01*
X45084Y-49314D01*
X45068Y-49232D01*
X45036Y-49155D01*
X44990Y-49086D01*
X44931Y-49027D01*
X44862Y-48980D01*
X44785Y-48948D01*
X44777Y-48946D01*
X44777Y-47605D01*
X44761Y-47524D01*
X44729Y-47447D01*
X44683Y-47377D01*
X44642Y-47336D01*
X44642Y-47191D01*
X44667Y-47166D01*
X44715Y-47098D01*
X44749Y-47022D01*
X44768Y-46941D01*
X44769Y-46846D01*
X44753Y-46764D01*
X44721Y-46687D01*
X44675Y-46617D01*
X44616Y-46558D01*
X44547Y-46512D01*
X44470Y-46479D01*
X44389Y-46463D01*
X44305Y-46462D01*
X44223Y-46478D01*
X44146Y-46509D01*
X44076Y-46554D01*
X44017Y-46613D01*
X43970Y-46682D01*
X43937Y-46758D01*
X43920Y-46840D01*
X43918Y-46923D01*
X43933Y-47005D01*
X43964Y-47083D01*
X44009Y-47153D01*
X44062Y-47207D01*
X44062Y-47336D01*
X44025Y-47373D01*
X43978Y-47441D01*
X43945Y-47518D01*
X43927Y-47600D01*
X43926Y-47683D01*
X43941Y-47765D01*
X43972Y-47842D01*
X44017Y-47912D01*
X44075Y-47972D01*
X44144Y-48020D01*
X44220Y-48053D01*
X44301Y-48071D01*
X44385Y-48073D01*
X44467Y-48058D01*
X44544Y-48028D01*
X44615Y-47984D01*
X44675Y-47926D01*
X44723Y-47858D01*
X44757Y-47782D01*
X44776Y-47701D01*
X44777Y-47605D01*
X44777Y-48946D01*
X44704Y-48931D01*
X44620Y-48931D01*
X44538Y-48946D01*
X44461Y-48977D01*
X44391Y-49023D01*
X44348Y-49066D01*
X43002Y-49066D01*
X43002Y-47660D01*
X42982Y-47559D01*
X42942Y-47464D01*
X42885Y-47378D01*
X42813Y-47305D01*
X42727Y-47247D01*
X42632Y-47207D01*
X42531Y-47187D01*
X42428Y-47186D01*
X42327Y-47205D01*
X42231Y-47244D01*
X42145Y-47300D01*
X42071Y-47372D01*
X42013Y-47457D01*
X41973Y-47552D01*
X41951Y-47653D01*
X41950Y-47756D01*
X41968Y-47857D01*
X42006Y-47953D01*
X42062Y-48040D01*
X42134Y-48114D01*
X42218Y-48173D01*
X42313Y-48214D01*
X42413Y-48236D01*
X42516Y-48238D01*
X42618Y-48221D01*
X42714Y-48183D01*
X42801Y-48128D01*
X42876Y-48057D01*
X42935Y-47973D01*
X42977Y-47879D01*
X43000Y-47778D01*
X43002Y-47660D01*
X43002Y-49066D01*
X42476Y-49066D01*
X42476Y-49063D01*
X42478Y-48968D01*
X42461Y-48886D01*
X42430Y-48809D01*
X42384Y-48739D01*
X42325Y-48680D01*
X42256Y-48634D01*
X42179Y-48601D01*
X42097Y-48585D01*
X42038Y-48584D01*
X41907Y-48454D01*
X41887Y-48437D01*
X41866Y-48420D01*
X41865Y-48419D01*
X41864Y-48418D01*
X41840Y-48405D01*
X41816Y-48392D01*
X41815Y-48392D01*
X41814Y-48391D01*
X41788Y-48383D01*
X41763Y-48375D01*
X41761Y-48375D01*
X41760Y-48375D01*
X41733Y-48372D01*
X41706Y-48369D01*
X41703Y-48369D01*
X41703Y-48369D01*
X41703Y-48369D01*
X41702Y-48369D01*
X41220Y-48369D01*
X40560Y-47709D01*
X40856Y-47709D01*
X40882Y-47706D01*
X40909Y-47704D01*
X40911Y-47703D01*
X40912Y-47703D01*
X40938Y-47696D01*
X40963Y-47688D01*
X40965Y-47687D01*
X40966Y-47687D01*
X40990Y-47674D01*
X41014Y-47662D01*
X41015Y-47661D01*
X41016Y-47660D01*
X41037Y-47643D01*
X41058Y-47627D01*
X41060Y-47625D01*
X41060Y-47625D01*
X41060Y-47625D01*
X41061Y-47624D01*
X41956Y-46728D01*
X42029Y-46728D01*
X42063Y-46764D01*
X42132Y-46811D01*
X42208Y-46845D01*
X42289Y-46863D01*
X42373Y-46864D01*
X42455Y-46850D01*
X42533Y-46820D01*
X42603Y-46775D01*
X42663Y-46718D01*
X42711Y-46649D01*
X42745Y-46573D01*
X42764Y-46492D01*
X42765Y-46397D01*
X42749Y-46315D01*
X42717Y-46238D01*
X42671Y-46169D01*
X42612Y-46109D01*
X42543Y-46063D01*
X42466Y-46031D01*
X42385Y-46014D01*
X42301Y-46013D01*
X42219Y-46029D01*
X42142Y-46060D01*
X42072Y-46106D01*
X42029Y-46148D01*
X41836Y-46148D01*
X41809Y-46151D01*
X41783Y-46153D01*
X41781Y-46154D01*
X41780Y-46154D01*
X41754Y-46162D01*
X41728Y-46169D01*
X41727Y-46170D01*
X41726Y-46170D01*
X41702Y-46183D01*
X41678Y-46195D01*
X41677Y-46196D01*
X41676Y-46197D01*
X41655Y-46214D01*
X41634Y-46231D01*
X41632Y-46233D01*
X41632Y-46233D01*
X41632Y-46233D01*
X41631Y-46233D01*
X41324Y-46540D01*
X41324Y-45168D01*
X41308Y-45087D01*
X41276Y-45010D01*
X41230Y-44940D01*
X41171Y-44881D01*
X41102Y-44834D01*
X41025Y-44802D01*
X40944Y-44785D01*
X40860Y-44785D01*
X40804Y-44796D01*
X40829Y-44760D01*
X40863Y-44684D01*
X40882Y-44602D01*
X40883Y-44507D01*
X40867Y-44425D01*
X40835Y-44348D01*
X40789Y-44279D01*
X40730Y-44220D01*
X40661Y-44173D01*
X40584Y-44141D01*
X40503Y-44124D01*
X40419Y-44123D01*
X40338Y-44139D01*
X40260Y-44170D01*
X40191Y-44216D01*
X40131Y-44274D01*
X40084Y-44343D01*
X40051Y-44420D01*
X40045Y-44448D01*
X38942Y-44448D01*
X38904Y-44409D01*
X38835Y-44362D01*
X38758Y-44330D01*
X38676Y-44313D01*
X38593Y-44312D01*
X38511Y-44328D01*
X38434Y-44359D01*
X38364Y-44405D01*
X38304Y-44463D01*
X38257Y-44532D01*
X38224Y-44609D01*
X38207Y-44690D01*
X38206Y-44773D01*
X38221Y-44855D01*
X38252Y-44933D01*
X38292Y-44996D01*
X38289Y-45000D01*
X38256Y-45077D01*
X38238Y-45159D01*
X38237Y-45242D01*
X38252Y-45324D01*
X38283Y-45401D01*
X38328Y-45471D01*
X38386Y-45531D01*
X38455Y-45579D01*
X38455Y-45579D01*
X38454Y-45647D01*
X38469Y-45729D01*
X38500Y-45807D01*
X38545Y-45877D01*
X38603Y-45937D01*
X38671Y-45984D01*
X38747Y-46018D01*
X38829Y-46036D01*
X38912Y-46038D01*
X38994Y-46023D01*
X39072Y-45993D01*
X39142Y-45948D01*
X39191Y-45902D01*
X39912Y-45902D01*
X39965Y-45957D01*
X40033Y-46004D01*
X40110Y-46038D01*
X40191Y-46055D01*
X40274Y-46057D01*
X40356Y-46043D01*
X40434Y-46013D01*
X40505Y-45968D01*
X40565Y-45910D01*
X40613Y-45842D01*
X40647Y-45766D01*
X40665Y-45685D01*
X40667Y-45590D01*
X40661Y-45562D01*
X40691Y-45583D01*
X40767Y-45616D01*
X40849Y-45634D01*
X40932Y-45636D01*
X41014Y-45621D01*
X41092Y-45591D01*
X41162Y-45547D01*
X41222Y-45489D01*
X41270Y-45421D01*
X41304Y-45345D01*
X41323Y-45264D01*
X41324Y-45168D01*
X41324Y-46540D01*
X40736Y-47129D01*
X37356Y-47129D01*
X37329Y-47131D01*
X37302Y-47134D01*
X37301Y-47134D01*
X37299Y-47134D01*
X37274Y-47142D01*
X37248Y-47150D01*
X37247Y-47150D01*
X37245Y-47151D01*
X37222Y-47163D01*
X37198Y-47176D01*
X37197Y-47177D01*
X37195Y-47177D01*
X37175Y-47194D01*
X37154Y-47211D01*
X37151Y-47213D01*
X37151Y-47213D01*
X37151Y-47213D01*
X37151Y-47214D01*
X36704Y-47660D01*
X33035Y-47660D01*
X32600Y-47226D01*
X32580Y-47209D01*
X32559Y-47191D01*
X32558Y-47191D01*
X32556Y-47190D01*
X32533Y-47177D01*
X32509Y-47164D01*
X32508Y-47164D01*
X32507Y-47163D01*
X32481Y-47155D01*
X32455Y-47147D01*
X32454Y-47147D01*
X32452Y-47146D01*
X32426Y-47144D01*
X32399Y-47141D01*
X32396Y-47141D01*
X32396Y-47141D01*
X32396Y-47141D01*
X32395Y-47141D01*
X32391Y-47141D01*
X31872Y-47141D01*
X31845Y-47143D01*
X31818Y-47146D01*
X31817Y-47146D01*
X31815Y-47146D01*
X31790Y-47154D01*
X31764Y-47161D01*
X31762Y-47162D01*
X31761Y-47162D01*
X31737Y-47175D01*
X31714Y-47187D01*
X31712Y-47188D01*
X31711Y-47189D01*
X31690Y-47206D01*
X31669Y-47223D01*
X31667Y-47225D01*
X31667Y-47225D01*
X31667Y-47225D01*
X31666Y-47226D01*
X31497Y-47395D01*
X31443Y-47395D01*
X31361Y-47411D01*
X31284Y-47442D01*
X31214Y-47488D01*
X31155Y-47546D01*
X31108Y-47615D01*
X31075Y-47691D01*
X31057Y-47773D01*
X31056Y-47856D01*
X31071Y-47938D01*
X31102Y-48016D01*
X31147Y-48086D01*
X31205Y-48146D01*
X31273Y-48193D01*
X31350Y-48227D01*
X31431Y-48244D01*
X31515Y-48246D01*
X31597Y-48232D01*
X31616Y-48224D01*
X31615Y-48254D01*
X31630Y-48336D01*
X31661Y-48413D01*
X31706Y-48483D01*
X31764Y-48543D01*
X31832Y-48591D01*
X31909Y-48624D01*
X31990Y-48642D01*
X32074Y-48644D01*
X32079Y-48643D01*
X32092Y-48650D01*
X32093Y-48650D01*
X32095Y-48651D01*
X32120Y-48659D01*
X32146Y-48667D01*
X32147Y-48667D01*
X32149Y-48668D01*
X32176Y-48670D01*
X32202Y-48673D01*
X32205Y-48673D01*
X32205Y-48673D01*
X32205Y-48673D01*
X32206Y-48673D01*
X33605Y-48673D01*
X33596Y-48687D01*
X33577Y-48733D01*
X33567Y-48781D01*
X33567Y-48830D01*
X33567Y-49710D01*
X33577Y-49758D01*
X33596Y-49804D01*
X33623Y-49845D01*
X33658Y-49880D01*
X33699Y-49907D01*
X33744Y-49926D01*
X33793Y-49936D01*
X33842Y-49936D01*
X34722Y-49936D01*
X34770Y-49926D01*
X34816Y-49907D01*
X34857Y-49880D01*
X34892Y-49845D01*
X34919Y-49804D01*
X34938Y-49758D01*
X34947Y-49710D01*
X34947Y-49661D01*
X34947Y-48966D01*
X35031Y-48882D01*
X35209Y-48882D01*
X35209Y-49734D01*
X35219Y-49782D01*
X35238Y-49828D01*
X35265Y-49869D01*
X35300Y-49903D01*
X35341Y-49931D01*
X35386Y-49950D01*
X35434Y-49959D01*
X35484Y-49959D01*
X36364Y-49959D01*
X36412Y-49950D01*
X36458Y-49931D01*
X36498Y-49903D01*
X36533Y-49869D01*
X36561Y-49828D01*
X36579Y-49782D01*
X36589Y-49734D01*
X36589Y-49685D01*
X36589Y-49559D01*
X39460Y-49559D01*
X39624Y-49723D01*
X39623Y-49773D01*
X39638Y-49855D01*
X39669Y-49933D01*
X39714Y-50003D01*
X39772Y-50063D01*
X39840Y-50110D01*
X39872Y-50124D01*
X39824Y-50172D01*
X39777Y-50241D01*
X39744Y-50317D01*
X39737Y-50350D01*
X39737Y-50350D01*
X39738Y-50294D01*
X39721Y-50213D01*
X39690Y-50136D01*
X39643Y-50066D01*
X39585Y-50007D01*
X39516Y-49960D01*
X39439Y-49928D01*
X39357Y-49911D01*
X39274Y-49911D01*
X39192Y-49926D01*
X39115Y-49958D01*
X39045Y-50003D01*
X38985Y-50062D01*
X38938Y-50130D01*
X38905Y-50207D01*
X38888Y-50289D01*
X38887Y-50372D01*
X38902Y-50454D01*
X38933Y-50531D01*
X38978Y-50601D01*
X39036Y-50661D01*
X39097Y-50704D01*
X29074Y-50704D01*
X28493Y-50122D01*
X28493Y-50066D01*
X28477Y-49984D01*
X28445Y-49907D01*
X28399Y-49838D01*
X28341Y-49779D01*
X28272Y-49732D01*
X28195Y-49700D01*
X28113Y-49683D01*
X28030Y-49682D01*
X27948Y-49698D01*
X27871Y-49729D01*
X27801Y-49775D01*
X27741Y-49833D01*
X27694Y-49902D01*
X27661Y-49979D01*
X27644Y-50060D01*
X27643Y-50144D01*
X27658Y-50225D01*
X27689Y-50303D01*
X27701Y-50323D01*
X27473Y-50094D01*
X27474Y-50039D01*
X27458Y-49957D01*
X27426Y-49880D01*
X27380Y-49810D01*
X27321Y-49751D01*
X27252Y-49705D01*
X27175Y-49672D01*
X27093Y-49655D01*
X27010Y-49655D01*
X26928Y-49671D01*
X26851Y-49702D01*
X26781Y-49747D01*
X26722Y-49806D01*
X26674Y-49874D01*
X26642Y-49951D01*
X26624Y-50033D01*
X26623Y-50116D01*
X26638Y-50198D01*
X26669Y-50275D01*
X26714Y-50345D01*
X26772Y-50405D01*
X26840Y-50453D01*
X26917Y-50486D01*
X26998Y-50504D01*
X27064Y-50506D01*
X27683Y-51125D01*
X26856Y-51125D01*
X26829Y-51127D01*
X26802Y-51130D01*
X26801Y-51130D01*
X26799Y-51130D01*
X26774Y-51138D01*
X26748Y-51146D01*
X26747Y-51146D01*
X26745Y-51147D01*
X26722Y-51159D01*
X26698Y-51172D01*
X26697Y-51173D01*
X26695Y-51173D01*
X26675Y-51190D01*
X26654Y-51207D01*
X26652Y-51209D01*
X26651Y-51209D01*
X26651Y-51209D01*
X26651Y-51210D01*
X26575Y-51285D01*
X26522Y-51285D01*
X26440Y-51300D01*
X26363Y-51332D01*
X26293Y-51377D01*
X26233Y-51436D01*
X26186Y-51504D01*
X26153Y-51581D01*
X26136Y-51663D01*
X26135Y-51746D01*
X26150Y-51828D01*
X26181Y-51905D01*
X26226Y-51975D01*
X26284Y-52035D01*
X26352Y-52083D01*
X26429Y-52116D01*
X26510Y-52134D01*
X26593Y-52136D01*
X26675Y-52121D01*
X26753Y-52091D01*
X26823Y-52047D01*
X26884Y-51989D01*
X26932Y-51921D01*
X26966Y-51845D01*
X26984Y-51764D01*
X26985Y-51705D01*
X35917Y-51705D01*
X36281Y-52069D01*
X36301Y-52086D01*
X36322Y-52103D01*
X36323Y-52104D01*
X36324Y-52105D01*
X36348Y-52117D01*
X36371Y-52130D01*
X36373Y-52131D01*
X36374Y-52131D01*
X36400Y-52139D01*
X36425Y-52147D01*
X36427Y-52148D01*
X36428Y-52148D01*
X36455Y-52151D01*
X36482Y-52154D01*
X36485Y-52154D01*
X36485Y-52154D01*
X36485Y-52154D01*
X36486Y-52154D01*
X41785Y-52154D01*
X41819Y-52189D01*
X41888Y-52236D01*
X41964Y-52270D01*
X42045Y-52288D01*
X42129Y-52289D01*
X42211Y-52275D01*
X42289Y-52245D01*
X42359Y-52200D01*
X42419Y-52143D01*
X42467Y-52075D01*
X42501Y-51998D01*
X42520Y-51917D01*
X42520Y-51891D01*
X42521Y-51891D01*
X42591Y-51846D01*
X42652Y-51788D01*
X42700Y-51720D01*
X42733Y-51644D01*
X42752Y-51563D01*
X42753Y-51484D01*
X46973Y-51484D01*
X46981Y-51525D01*
X47011Y-51602D01*
X47057Y-51672D01*
X47114Y-51732D01*
X47183Y-51780D01*
X47259Y-51813D01*
X47341Y-51831D01*
X47424Y-51833D01*
X47506Y-51818D01*
X47584Y-51788D01*
X47654Y-51744D01*
X47668Y-51730D01*
X47681Y-51744D01*
X47750Y-51792D01*
X47826Y-51825D01*
X47908Y-51843D01*
X47991Y-51845D01*
X48073Y-51830D01*
X48151Y-51800D01*
X48221Y-51755D01*
X48281Y-51698D01*
X48329Y-51630D01*
X48355Y-51572D01*
X48584Y-51802D01*
X48584Y-51852D01*
X48599Y-51934D01*
X48630Y-52012D01*
X48675Y-52082D01*
X48733Y-52142D01*
X48801Y-52189D01*
X48877Y-52223D01*
X48959Y-52240D01*
X49042Y-52242D01*
X49124Y-52228D01*
X49202Y-52198D01*
X49272Y-52153D01*
X49333Y-52095D01*
X49381Y-52027D01*
X49415Y-51951D01*
X49433Y-51870D01*
X49434Y-51775D01*
X49418Y-51693D01*
X49386Y-51616D01*
X49340Y-51547D01*
X49317Y-51523D01*
X49375Y-51501D01*
X49445Y-51456D01*
X49506Y-51399D01*
X49554Y-51331D01*
X49588Y-51254D01*
X49606Y-51173D01*
X49608Y-51078D01*
X49591Y-50996D01*
X49560Y-50919D01*
X49514Y-50850D01*
X49455Y-50791D01*
X49386Y-50744D01*
X49309Y-50712D01*
X49227Y-50695D01*
X49168Y-50694D01*
X49064Y-50591D01*
X52596Y-50591D01*
X52623Y-50588D01*
X52649Y-50586D01*
X52651Y-50585D01*
X52652Y-50585D01*
X52678Y-50577D01*
X52704Y-50570D01*
X52705Y-50569D01*
X52706Y-50569D01*
X52730Y-50556D01*
X52754Y-50544D01*
X52755Y-50543D01*
X52756Y-50542D01*
X52777Y-50525D01*
X52798Y-50509D01*
X52800Y-50506D01*
X52800Y-50506D01*
X52800Y-50506D01*
X52801Y-50506D01*
X52904Y-50403D01*
X52952Y-50404D01*
X53034Y-50389D01*
X53111Y-50359D01*
X53182Y-50314D01*
X53242Y-50257D01*
X53290Y-50189D01*
X53324Y-50113D01*
X53342Y-50031D01*
X53344Y-49936D01*
X53344Y-58785D01*
X41399Y-58785D01*
X41434Y-58763D01*
X41494Y-58706D01*
X41503Y-58693D01*
X41507Y-58695D01*
X41589Y-58713D01*
X41672Y-58715D01*
X41754Y-58700D01*
X41832Y-58670D01*
X41902Y-58625D01*
X41963Y-58568D01*
X42011Y-58500D01*
X42044Y-58424D01*
X42063Y-58342D01*
X42064Y-58247D01*
X42048Y-58165D01*
X42016Y-58088D01*
X41970Y-58019D01*
X41929Y-57978D01*
X41929Y-55375D01*
X41927Y-55349D01*
X41924Y-55322D01*
X41924Y-55321D01*
X41924Y-55319D01*
X41916Y-55294D01*
X41909Y-55268D01*
X41908Y-55266D01*
X41907Y-55265D01*
X41895Y-55241D01*
X41882Y-55218D01*
X41882Y-55216D01*
X41881Y-55215D01*
X41864Y-55194D01*
X41847Y-55173D01*
X41845Y-55171D01*
X41845Y-55171D01*
X41845Y-55171D01*
X41844Y-55170D01*
X41241Y-54567D01*
X41241Y-54511D01*
X41225Y-54429D01*
X41212Y-54398D01*
X41421Y-54398D01*
X41726Y-54703D01*
X41726Y-54754D01*
X41741Y-54836D01*
X41771Y-54913D01*
X41816Y-54983D01*
X41874Y-55043D01*
X41943Y-55091D01*
X42019Y-55124D01*
X42101Y-55142D01*
X42184Y-55144D01*
X42266Y-55129D01*
X42344Y-55099D01*
X42414Y-55055D01*
X42474Y-54997D01*
X42522Y-54929D01*
X42556Y-54853D01*
X42575Y-54772D01*
X42576Y-54676D01*
X42560Y-54595D01*
X42528Y-54518D01*
X42482Y-54448D01*
X42423Y-54389D01*
X42354Y-54342D01*
X42277Y-54310D01*
X42196Y-54293D01*
X42136Y-54293D01*
X41746Y-53903D01*
X41725Y-53886D01*
X41705Y-53868D01*
X41703Y-53868D01*
X41702Y-53867D01*
X41679Y-53854D01*
X41655Y-53841D01*
X41654Y-53841D01*
X41652Y-53840D01*
X41627Y-53832D01*
X41601Y-53824D01*
X41600Y-53824D01*
X41598Y-53823D01*
X41572Y-53821D01*
X41545Y-53818D01*
X41542Y-53818D01*
X41542Y-53818D01*
X41542Y-53818D01*
X41541Y-53818D01*
X40336Y-53818D01*
X40297Y-53779D01*
X40228Y-53732D01*
X40151Y-53700D01*
X40070Y-53683D01*
X39986Y-53682D01*
X39905Y-53698D01*
X39827Y-53729D01*
X39757Y-53775D01*
X39698Y-53833D01*
X39651Y-53902D01*
X39618Y-53979D01*
X39601Y-54060D01*
X39600Y-54144D01*
X39615Y-54225D01*
X39645Y-54303D01*
X39690Y-54373D01*
X39748Y-54433D01*
X39817Y-54481D01*
X39893Y-54514D01*
X39975Y-54532D01*
X40058Y-54534D01*
X40140Y-54519D01*
X40218Y-54489D01*
X40288Y-54444D01*
X40337Y-54398D01*
X40420Y-54398D01*
X40409Y-54424D01*
X40392Y-54505D01*
X40391Y-54588D01*
X40406Y-54670D01*
X40437Y-54748D01*
X40482Y-54818D01*
X40540Y-54878D01*
X40608Y-54925D01*
X40684Y-54959D01*
X40766Y-54977D01*
X40832Y-54978D01*
X41320Y-55466D01*
X41285Y-55452D01*
X41204Y-55435D01*
X41120Y-55434D01*
X41038Y-55450D01*
X40961Y-55481D01*
X40891Y-55527D01*
X40832Y-55585D01*
X40793Y-55641D01*
X40742Y-55590D01*
X40673Y-55543D01*
X40596Y-55511D01*
X40515Y-55494D01*
X40431Y-55493D01*
X40349Y-55509D01*
X40272Y-55540D01*
X40202Y-55586D01*
X40200Y-55588D01*
X40134Y-55543D01*
X40057Y-55511D01*
X39975Y-55494D01*
X39892Y-55493D01*
X39810Y-55509D01*
X39733Y-55540D01*
X39663Y-55586D01*
X39603Y-55644D01*
X39556Y-55713D01*
X39524Y-55790D01*
X39506Y-55871D01*
X39505Y-55955D01*
X39520Y-56037D01*
X39551Y-56114D01*
X39596Y-56184D01*
X39641Y-56230D01*
X39641Y-57767D01*
X39592Y-57799D01*
X39533Y-57857D01*
X39486Y-57926D01*
X39453Y-58002D01*
X39435Y-58084D01*
X39434Y-58167D01*
X39449Y-58249D01*
X39480Y-58327D01*
X39525Y-58397D01*
X39583Y-58457D01*
X39651Y-58504D01*
X39728Y-58538D01*
X39809Y-58555D01*
X39892Y-58557D01*
X39975Y-58543D01*
X40052Y-58513D01*
X40123Y-58468D01*
X40183Y-58410D01*
X40231Y-58342D01*
X40249Y-58303D01*
X40270Y-58307D01*
X40353Y-58309D01*
X40435Y-58295D01*
X40513Y-58265D01*
X40583Y-58220D01*
X40644Y-58162D01*
X40692Y-58094D01*
X40726Y-58018D01*
X40744Y-57937D01*
X40745Y-57842D01*
X40743Y-57829D01*
X40746Y-57820D01*
X40754Y-57794D01*
X40754Y-57793D01*
X40754Y-57791D01*
X40757Y-57764D01*
X40760Y-57738D01*
X40760Y-57735D01*
X40760Y-57735D01*
X40760Y-57735D01*
X40760Y-57734D01*
X40760Y-56230D01*
X40793Y-56198D01*
X40836Y-56137D01*
X40881Y-56184D01*
X40881Y-58116D01*
X40844Y-58152D01*
X40797Y-58221D01*
X40764Y-58298D01*
X40746Y-58379D01*
X40745Y-58462D01*
X40760Y-58544D01*
X40791Y-58622D01*
X40836Y-58692D01*
X40894Y-58752D01*
X40942Y-58785D01*
X34403Y-58785D01*
X34403Y-57007D01*
X34387Y-56925D01*
X34355Y-56848D01*
X34309Y-56779D01*
X34250Y-56720D01*
X34181Y-56673D01*
X34104Y-56641D01*
X34022Y-56624D01*
X33991Y-56624D01*
X33800Y-56433D01*
X33801Y-56377D01*
X33784Y-56295D01*
X33753Y-56218D01*
X33706Y-56149D01*
X33648Y-56090D01*
X33579Y-56043D01*
X33502Y-56011D01*
X33420Y-55994D01*
X33337Y-55993D01*
X33255Y-56009D01*
X33178Y-56040D01*
X33108Y-56086D01*
X33048Y-56144D01*
X33001Y-56213D01*
X32968Y-56290D01*
X32951Y-56371D01*
X32950Y-56455D01*
X32965Y-56537D01*
X32996Y-56614D01*
X33041Y-56684D01*
X33099Y-56744D01*
X33167Y-56792D01*
X33244Y-56825D01*
X33325Y-56843D01*
X33391Y-56844D01*
X33553Y-57007D01*
X33552Y-57084D01*
X33567Y-57166D01*
X33598Y-57244D01*
X33643Y-57314D01*
X33701Y-57374D01*
X33770Y-57421D01*
X33846Y-57455D01*
X33927Y-57473D01*
X34011Y-57475D01*
X34093Y-57460D01*
X34170Y-57430D01*
X34241Y-57385D01*
X34301Y-57328D01*
X34349Y-57260D01*
X34383Y-57184D01*
X34402Y-57102D01*
X34403Y-57007D01*
X34403Y-58785D01*
X31036Y-58785D01*
X31036Y-55431D01*
X31016Y-55330D01*
X30977Y-55234D01*
X30920Y-55148D01*
X30847Y-55075D01*
X30762Y-55018D01*
X30667Y-54978D01*
X30566Y-54957D01*
X30463Y-54956D01*
X30362Y-54976D01*
X30266Y-55014D01*
X30180Y-55071D01*
X30106Y-55143D01*
X30048Y-55228D01*
X30007Y-55322D01*
X29986Y-55423D01*
X29984Y-55526D01*
X30003Y-55628D01*
X30041Y-55724D01*
X30097Y-55810D01*
X30168Y-55884D01*
X30253Y-55943D01*
X30348Y-55984D01*
X30448Y-56007D01*
X30551Y-56009D01*
X30653Y-55991D01*
X30749Y-55954D01*
X30836Y-55898D01*
X30911Y-55827D01*
X30970Y-55743D01*
X31012Y-55649D01*
X31035Y-55548D01*
X31036Y-55431D01*
X31036Y-58785D01*
X26758Y-58785D01*
X26758Y-56454D01*
X26758Y-56405D01*
X26758Y-55525D01*
X26749Y-55477D01*
X26730Y-55431D01*
X26703Y-55390D01*
X26668Y-55355D01*
X26627Y-55328D01*
X26581Y-55309D01*
X26533Y-55300D01*
X26484Y-55300D01*
X25604Y-55300D01*
X25555Y-55309D01*
X25510Y-55328D01*
X25469Y-55355D01*
X25434Y-55390D01*
X25407Y-55431D01*
X25388Y-55477D01*
X25378Y-55525D01*
X25378Y-55574D01*
X25378Y-56454D01*
X25388Y-56503D01*
X25407Y-56548D01*
X25434Y-56589D01*
X25469Y-56624D01*
X25510Y-56651D01*
X25555Y-56670D01*
X25604Y-56680D01*
X25653Y-56680D01*
X26533Y-56680D01*
X26581Y-56670D01*
X26627Y-56651D01*
X26668Y-56624D01*
X26703Y-56589D01*
X26730Y-56548D01*
X26749Y-56503D01*
X26758Y-56454D01*
X26758Y-58785D01*
X24699Y-58785D01*
X24699Y-50454D01*
X24699Y-50405D01*
X24699Y-49525D01*
X24690Y-49477D01*
X24671Y-49431D01*
X24644Y-49390D01*
X24609Y-49355D01*
X24568Y-49328D01*
X24522Y-49309D01*
X24474Y-49300D01*
X24425Y-49300D01*
X23545Y-49300D01*
X23496Y-49309D01*
X23451Y-49328D01*
X23410Y-49355D01*
X23375Y-49390D01*
X23348Y-49431D01*
X23329Y-49477D01*
X23319Y-49525D01*
X23319Y-49574D01*
X23319Y-50454D01*
X23329Y-50503D01*
X23348Y-50548D01*
X23375Y-50589D01*
X23410Y-50624D01*
X23451Y-50651D01*
X23496Y-50670D01*
X23545Y-50680D01*
X23594Y-50680D01*
X24474Y-50680D01*
X24522Y-50670D01*
X24568Y-50651D01*
X24609Y-50624D01*
X24644Y-50589D01*
X24671Y-50548D01*
X24690Y-50503D01*
X24699Y-50454D01*
X24699Y-58785D01*
X24691Y-58785D01*
X24691Y-55694D01*
X24691Y-55645D01*
X24691Y-54765D01*
X24682Y-54717D01*
X24663Y-54671D01*
X24648Y-54649D01*
X24648Y-52923D01*
X24648Y-52874D01*
X24648Y-51994D01*
X24639Y-51945D01*
X24620Y-51900D01*
X24592Y-51859D01*
X24558Y-51824D01*
X24517Y-51797D01*
X24471Y-51778D01*
X24423Y-51768D01*
X24374Y-51768D01*
X23494Y-51768D01*
X23445Y-51778D01*
X23400Y-51797D01*
X23359Y-51824D01*
X23324Y-51859D01*
X23297Y-51900D01*
X23278Y-51945D01*
X23268Y-51994D01*
X23268Y-52043D01*
X23268Y-52923D01*
X23278Y-52971D01*
X23297Y-53017D01*
X23324Y-53058D01*
X23359Y-53092D01*
X23400Y-53120D01*
X23445Y-53139D01*
X23494Y-53148D01*
X23543Y-53148D01*
X24423Y-53148D01*
X24471Y-53139D01*
X24517Y-53120D01*
X24558Y-53092D01*
X24592Y-53058D01*
X24620Y-53017D01*
X24639Y-52971D01*
X24648Y-52923D01*
X24648Y-54649D01*
X24636Y-54630D01*
X24601Y-54596D01*
X24560Y-54568D01*
X24514Y-54549D01*
X24466Y-54540D01*
X24417Y-54540D01*
X23537Y-54540D01*
X23489Y-54549D01*
X23443Y-54568D01*
X23402Y-54596D01*
X23367Y-54630D01*
X23340Y-54671D01*
X23321Y-54717D01*
X23311Y-54765D01*
X23311Y-54814D01*
X23311Y-55694D01*
X23321Y-55743D01*
X23340Y-55788D01*
X23367Y-55829D01*
X23402Y-55864D01*
X23443Y-55891D01*
X23489Y-55910D01*
X23537Y-55920D01*
X23586Y-55920D01*
X24466Y-55920D01*
X24514Y-55910D01*
X24560Y-55891D01*
X24601Y-55864D01*
X24636Y-55829D01*
X24663Y-55788D01*
X24682Y-55743D01*
X24691Y-55694D01*
X24691Y-58785D01*
X24538Y-58785D01*
X24538Y-58045D01*
X24538Y-57996D01*
X24538Y-57116D01*
X24528Y-57067D01*
X24509Y-57022D01*
X24482Y-56981D01*
X24447Y-56946D01*
X24406Y-56919D01*
X24361Y-56900D01*
X24313Y-56890D01*
X24263Y-56890D01*
X23383Y-56890D01*
X23335Y-56900D01*
X23290Y-56919D01*
X23249Y-56946D01*
X23214Y-56981D01*
X23186Y-57022D01*
X23168Y-57067D01*
X23158Y-57116D01*
X23158Y-57165D01*
X23158Y-58045D01*
X23168Y-58093D01*
X23186Y-58139D01*
X23214Y-58180D01*
X23249Y-58214D01*
X23290Y-58242D01*
X23335Y-58261D01*
X23383Y-58270D01*
X23433Y-58270D01*
X24313Y-58270D01*
X24361Y-58261D01*
X24406Y-58242D01*
X24447Y-58214D01*
X24482Y-58180D01*
X24509Y-58139D01*
X24528Y-58093D01*
X24538Y-58045D01*
X24538Y-58785D01*
X22054Y-58785D01*
X22054Y-58672D01*
X22116Y-58584D01*
X22230Y-58327D01*
X22292Y-58054D01*
X22297Y-57733D01*
X22242Y-57458D01*
X22135Y-57198D01*
X22055Y-57077D01*
X22063Y-42890D01*
X28943Y-42869D01*
X29585Y-43511D01*
X29585Y-44386D01*
X29411Y-44386D01*
X29363Y-44396D01*
X29317Y-44415D01*
X29276Y-44442D01*
X29241Y-44477D01*
X29214Y-44518D01*
X29195Y-44563D01*
X29185Y-44612D01*
X29185Y-44661D01*
X29185Y-45541D01*
X29195Y-45589D01*
X29214Y-45635D01*
X29241Y-45676D01*
X29276Y-45710D01*
X29317Y-45738D01*
X29363Y-45757D01*
X29411Y-45766D01*
X29460Y-45766D01*
X30340Y-45766D01*
X30388Y-45757D01*
X30434Y-45738D01*
X30475Y-45710D01*
X30510Y-45676D01*
X30537Y-45635D01*
X30556Y-45589D01*
X30565Y-45541D01*
X30565Y-45492D01*
X30565Y-44612D01*
X30556Y-44563D01*
X30537Y-44518D01*
X30510Y-44477D01*
X30475Y-44442D01*
X30434Y-44415D01*
X30388Y-44396D01*
X30340Y-44386D01*
X30291Y-44386D01*
X30165Y-44386D01*
X30165Y-43391D01*
X30163Y-43365D01*
X30161Y-43338D01*
X30160Y-43336D01*
X30160Y-43335D01*
X30152Y-43309D01*
X30145Y-43284D01*
X30144Y-43282D01*
X30144Y-43281D01*
X30131Y-43257D01*
X30119Y-43233D01*
X30118Y-43232D01*
X30117Y-43231D01*
X30100Y-43210D01*
X30083Y-43189D01*
X30081Y-43187D01*
X30081Y-43187D01*
X30081Y-43187D01*
X30081Y-43186D01*
X29761Y-42867D01*
X34232Y-42853D01*
X33218Y-43867D01*
X33201Y-43888D01*
X33183Y-43908D01*
X33183Y-43910D01*
X33182Y-43911D01*
X33169Y-43935D01*
X33156Y-43958D01*
X33156Y-43960D01*
X33155Y-43961D01*
X33147Y-43987D01*
X33139Y-44012D01*
X33139Y-44014D01*
X33138Y-44015D01*
X33136Y-44042D01*
X33133Y-44068D01*
X33133Y-44071D01*
X33133Y-44071D01*
X33133Y-44071D01*
X33133Y-44072D01*
X33133Y-44426D01*
X32958Y-44426D01*
X32910Y-44435D01*
X32864Y-44454D01*
X32823Y-44481D01*
X32789Y-44516D01*
X32761Y-44557D01*
X32742Y-44603D01*
X32733Y-44651D01*
X32733Y-44700D01*
X32733Y-45580D01*
X32742Y-45629D01*
X32761Y-45674D01*
X32789Y-45715D01*
X32823Y-45750D01*
X32864Y-45777D01*
X32910Y-45796D01*
X32958Y-45806D01*
X33007Y-45806D01*
X33887Y-45806D01*
X33936Y-45796D01*
X33981Y-45777D01*
X34022Y-45750D01*
X34057Y-45715D01*
X34084Y-45674D01*
X34103Y-45629D01*
X34113Y-45580D01*
X34113Y-45531D01*
X34113Y-44651D01*
X34103Y-44603D01*
X34084Y-44557D01*
X34057Y-44516D01*
X34022Y-44481D01*
X33981Y-44454D01*
X33936Y-44435D01*
X33887Y-44426D01*
X33838Y-44426D01*
X33713Y-44426D01*
X33713Y-44192D01*
X34920Y-42985D01*
X34920Y-44319D01*
X34746Y-44319D01*
X34697Y-44329D01*
X34652Y-44348D01*
X34611Y-44375D01*
X34576Y-44410D01*
X34549Y-44451D01*
X34530Y-44496D01*
X34520Y-44545D01*
X34520Y-44594D01*
X34520Y-45474D01*
X34530Y-45522D01*
X34549Y-45568D01*
X34576Y-45609D01*
X34611Y-45644D01*
X34652Y-45671D01*
X34697Y-45690D01*
X34746Y-45699D01*
X34795Y-45699D01*
X35675Y-45699D01*
X35723Y-45690D01*
X35769Y-45671D01*
X35809Y-45644D01*
X35844Y-45609D01*
X35872Y-45568D01*
X35891Y-45522D01*
X35900Y-45474D01*
X35900Y-45425D01*
X35900Y-44545D01*
X35891Y-44496D01*
X35872Y-44451D01*
X35844Y-44410D01*
X35809Y-44375D01*
X35769Y-44348D01*
X35723Y-44329D01*
X35675Y-44319D01*
X35626Y-44319D01*
X35500Y-44319D01*
X35500Y-42895D01*
X35546Y-42849D01*
X38293Y-42841D01*
X38292Y-42848D01*
X38307Y-42930D01*
X38338Y-43008D01*
X38383Y-43078D01*
X38441Y-43138D01*
X38510Y-43185D01*
X38586Y-43219D01*
X38667Y-43237D01*
X38751Y-43238D01*
X38833Y-43224D01*
X38911Y-43194D01*
X38960Y-43162D01*
X41756Y-43162D01*
X41789Y-43185D01*
X41866Y-43219D01*
X41947Y-43237D01*
X42030Y-43238D01*
X42112Y-43224D01*
X42190Y-43194D01*
X42239Y-43162D01*
X43743Y-43162D01*
X43793Y-43197D01*
X43870Y-43230D01*
X43951Y-43248D01*
X44034Y-43250D01*
X44116Y-43236D01*
X44194Y-43205D01*
X44264Y-43161D01*
X44325Y-43103D01*
X44373Y-43035D01*
X44407Y-42959D01*
X44425Y-42878D01*
X44426Y-42783D01*
X44410Y-42701D01*
X44379Y-42624D01*
X44332Y-42554D01*
X44274Y-42495D01*
X44205Y-42449D01*
X44128Y-42416D01*
X44046Y-42400D01*
X43963Y-42399D01*
X43881Y-42415D01*
X43804Y-42446D01*
X43778Y-42462D01*
X42239Y-42462D01*
X42201Y-42437D01*
X42124Y-42405D01*
X42042Y-42388D01*
X41959Y-42387D01*
X41877Y-42403D01*
X41800Y-42434D01*
X41756Y-42462D01*
X39141Y-42462D01*
X39123Y-38181D01*
X40214Y-38181D01*
X40241Y-38179D01*
X40267Y-38176D01*
X40269Y-38176D01*
X40270Y-38176D01*
X40296Y-38168D01*
X40322Y-38160D01*
X40323Y-38160D01*
X40325Y-38159D01*
X40348Y-38147D01*
X40372Y-38134D01*
X40373Y-38133D01*
X40375Y-38133D01*
X40395Y-38116D01*
X40416Y-38099D01*
X40418Y-38097D01*
X40418Y-38097D01*
X40418Y-38097D01*
X40419Y-38096D01*
X41112Y-37404D01*
X41185Y-37404D01*
X41236Y-37482D01*
X41316Y-37565D01*
X41411Y-37631D01*
X41517Y-37678D01*
X41630Y-37702D01*
X41746Y-37705D01*
X41860Y-37685D01*
X41968Y-37643D01*
X42065Y-37581D01*
X42149Y-37501D01*
X42201Y-37428D01*
X42236Y-37482D01*
X42316Y-37565D01*
X42411Y-37631D01*
X42517Y-37678D01*
X42630Y-37702D01*
X42746Y-37705D01*
X42860Y-37685D01*
X42968Y-37643D01*
X43065Y-37581D01*
X43149Y-37501D01*
X43201Y-37428D01*
X43236Y-37482D01*
X43316Y-37565D01*
X43411Y-37631D01*
X43517Y-37678D01*
X43630Y-37702D01*
X43746Y-37705D01*
X43860Y-37685D01*
X43968Y-37643D01*
X44065Y-37581D01*
X44149Y-37501D01*
X44216Y-37407D01*
X44217Y-37404D01*
X44259Y-37470D01*
X44340Y-37553D01*
X44435Y-37619D01*
X44541Y-37666D01*
X44654Y-37691D01*
X44769Y-37693D01*
X44883Y-37673D01*
X44991Y-37631D01*
X45089Y-37569D01*
X45173Y-37489D01*
X45208Y-37439D01*
X45236Y-37482D01*
X45316Y-37565D01*
X45411Y-37631D01*
X45517Y-37678D01*
X45630Y-37702D01*
X45746Y-37705D01*
X45860Y-37685D01*
X45968Y-37643D01*
X46065Y-37581D01*
X46149Y-37501D01*
X46216Y-37407D01*
X46263Y-37301D01*
X46288Y-37188D01*
X46290Y-37056D01*
X46268Y-36942D01*
X46224Y-36835D01*
X46160Y-36739D01*
X46115Y-36694D01*
X46159Y-36675D01*
X46200Y-36648D01*
X46234Y-36613D01*
X46262Y-36572D01*
X46281Y-36527D01*
X46290Y-36478D01*
X46290Y-36429D01*
X46290Y-35749D01*
X46281Y-35701D01*
X46262Y-35655D01*
X46234Y-35614D01*
X46200Y-35579D01*
X46159Y-35552D01*
X46113Y-35533D01*
X46065Y-35524D01*
X46016Y-35524D01*
X45336Y-35524D01*
X45287Y-35533D01*
X45242Y-35552D01*
X45201Y-35579D01*
X45166Y-35614D01*
X45139Y-35655D01*
X45135Y-35665D01*
X45122Y-35678D01*
X45100Y-35547D01*
X44981Y-35480D01*
X44852Y-35437D01*
X44718Y-35421D01*
X44582Y-35431D01*
X44451Y-35467D01*
X44330Y-35528D01*
X44301Y-35547D01*
X44279Y-35678D01*
X44700Y-36100D01*
X44706Y-36094D01*
X44720Y-36108D01*
X44714Y-36114D01*
X44720Y-36119D01*
X44706Y-36133D01*
X44700Y-36128D01*
X44686Y-36142D01*
X44686Y-36114D01*
X44265Y-35692D01*
X44200Y-35703D01*
X44136Y-35692D01*
X44122Y-35707D01*
X44122Y-35678D01*
X44100Y-35547D01*
X43981Y-35480D01*
X43852Y-35437D01*
X43718Y-35421D01*
X43582Y-35431D01*
X43451Y-35467D01*
X43330Y-35528D01*
X43301Y-35547D01*
X43279Y-35678D01*
X43700Y-36100D01*
X44122Y-35678D01*
X44122Y-35707D01*
X43714Y-36114D01*
X44136Y-36535D01*
X44200Y-36524D01*
X44265Y-36535D01*
X44686Y-36114D01*
X44686Y-36142D01*
X44279Y-36549D01*
X44301Y-36680D01*
X44307Y-36684D01*
X44270Y-36721D01*
X44208Y-36811D01*
X44160Y-36739D01*
X44100Y-36679D01*
X44122Y-36549D01*
X43700Y-36128D01*
X43279Y-36549D01*
X43301Y-36679D01*
X43246Y-36733D01*
X43200Y-36800D01*
X43160Y-36739D01*
X43078Y-36657D01*
X43014Y-36613D01*
X43065Y-36581D01*
X43136Y-36513D01*
X43265Y-36535D01*
X43686Y-36114D01*
X43265Y-35692D01*
X43135Y-35714D01*
X43078Y-35657D01*
X42982Y-35592D01*
X42876Y-35547D01*
X42762Y-35524D01*
X42647Y-35523D01*
X42533Y-35545D01*
X42426Y-35588D01*
X42329Y-35652D01*
X42265Y-35714D01*
X42136Y-35692D01*
X42122Y-35707D01*
X42122Y-35678D01*
X42100Y-35547D01*
X41981Y-35480D01*
X41852Y-35437D01*
X41718Y-35421D01*
X41582Y-35431D01*
X41451Y-35467D01*
X41330Y-35528D01*
X41301Y-35547D01*
X41279Y-35678D01*
X41700Y-36100D01*
X42122Y-35678D01*
X42122Y-35707D01*
X41714Y-36114D01*
X42136Y-36535D01*
X42266Y-36513D01*
X42316Y-36565D01*
X42386Y-36614D01*
X42329Y-36652D01*
X42246Y-36733D01*
X42200Y-36800D01*
X42160Y-36739D01*
X42100Y-36679D01*
X42122Y-36549D01*
X41700Y-36128D01*
X41686Y-36142D01*
X41686Y-36114D01*
X41265Y-35692D01*
X41134Y-35714D01*
X41067Y-35833D01*
X41024Y-35962D01*
X41021Y-35986D01*
X41021Y-33844D01*
X40943Y-33736D01*
X40291Y-33736D01*
X40291Y-33744D01*
X40271Y-33744D01*
X40271Y-33736D01*
X39619Y-33736D01*
X39541Y-33844D01*
X39542Y-33851D01*
X39580Y-33981D01*
X39642Y-34101D01*
X39717Y-34196D01*
X39687Y-34227D01*
X39659Y-34267D01*
X39641Y-34313D01*
X39631Y-34361D01*
X39631Y-34411D01*
X39631Y-35091D01*
X39641Y-35139D01*
X39659Y-35184D01*
X39687Y-35225D01*
X39722Y-35260D01*
X39763Y-35287D01*
X39808Y-35306D01*
X39856Y-35316D01*
X39906Y-35316D01*
X40706Y-35316D01*
X40754Y-35306D01*
X40799Y-35287D01*
X40840Y-35260D01*
X40875Y-35225D01*
X40903Y-35184D01*
X40921Y-35139D01*
X40931Y-35091D01*
X40931Y-35041D01*
X40931Y-34361D01*
X40921Y-34313D01*
X40903Y-34267D01*
X40875Y-34227D01*
X40845Y-34196D01*
X40920Y-34101D01*
X40982Y-33981D01*
X41020Y-33851D01*
X41021Y-33844D01*
X41021Y-35986D01*
X41007Y-36096D01*
X41017Y-36232D01*
X41053Y-36363D01*
X41114Y-36484D01*
X41134Y-36513D01*
X41265Y-36535D01*
X41686Y-36114D01*
X41686Y-36142D01*
X41279Y-36549D01*
X41301Y-36679D01*
X41246Y-36733D01*
X41184Y-36824D01*
X40992Y-36824D01*
X40965Y-36826D01*
X40938Y-36829D01*
X40937Y-36829D01*
X40935Y-36829D01*
X40910Y-36837D01*
X40884Y-36844D01*
X40883Y-36845D01*
X40881Y-36846D01*
X40857Y-36858D01*
X40834Y-36870D01*
X40832Y-36871D01*
X40831Y-36872D01*
X40810Y-36889D01*
X40789Y-36906D01*
X40787Y-36908D01*
X40787Y-36908D01*
X40787Y-36908D01*
X40787Y-36909D01*
X40094Y-37601D01*
X39121Y-37601D01*
X39100Y-32309D01*
X39801Y-32309D01*
X39729Y-32396D01*
X39674Y-32497D01*
X39640Y-32607D01*
X39628Y-32722D01*
X39638Y-32836D01*
X39671Y-32947D01*
X39724Y-33049D01*
X39796Y-33139D01*
X39824Y-33162D01*
X39726Y-33245D01*
X39642Y-33351D01*
X39580Y-33471D01*
X39542Y-33601D01*
X39541Y-33608D01*
X39619Y-33716D01*
X40271Y-33716D01*
X40271Y-33708D01*
X40291Y-33708D01*
X40291Y-33716D01*
X40943Y-33716D01*
X41021Y-33608D01*
X41020Y-33601D01*
X40982Y-33471D01*
X40920Y-33351D01*
X40836Y-33245D01*
X40738Y-33162D01*
X40760Y-33145D01*
X40833Y-33056D01*
X40888Y-32955D01*
X40922Y-32845D01*
X40934Y-32730D01*
X40924Y-32615D01*
X40891Y-32505D01*
X40838Y-32403D01*
X40766Y-32313D01*
X40760Y-32309D01*
X46849Y-32309D01*
X46841Y-42874D01*
X56632Y-42890D01*
X56632Y-42890D01*
G37*
G54D29*
X56632Y-42890D02*
X56604Y-56415D01*
X56503Y-56651D01*
X56445Y-56926D01*
X56441Y-57206D01*
X56491Y-57482D01*
X56595Y-57743D01*
X56602Y-57754D01*
X56599Y-58785D01*
X55354Y-58785D01*
X55354Y-45692D01*
X55354Y-45624D01*
X55354Y-45316D01*
X55354Y-45121D01*
X55354Y-44812D01*
X55354Y-44744D01*
X55341Y-44676D01*
X55315Y-44612D01*
X55276Y-44555D01*
X55228Y-44506D01*
X55170Y-44468D01*
X55107Y-44441D01*
X55039Y-44428D01*
X54662Y-44428D01*
X54574Y-44516D01*
X54574Y-45208D01*
X55267Y-45208D01*
X55354Y-45121D01*
X55354Y-45316D01*
X55267Y-45228D01*
X54574Y-45228D01*
X54574Y-45921D01*
X54662Y-46008D01*
X55039Y-46008D01*
X55107Y-45995D01*
X55170Y-45968D01*
X55228Y-45930D01*
X55276Y-45881D01*
X55315Y-45824D01*
X55341Y-45760D01*
X55354Y-45692D01*
X55354Y-58785D01*
X54554Y-58785D01*
X54554Y-45921D01*
X54554Y-45228D01*
X54554Y-45208D01*
X54554Y-44516D01*
X54467Y-44428D01*
X54090Y-44428D01*
X54022Y-44441D01*
X53959Y-44468D01*
X53901Y-44506D01*
X53853Y-44555D01*
X53814Y-44612D01*
X53788Y-44676D01*
X53774Y-44744D01*
X53774Y-44812D01*
X53774Y-45121D01*
X53862Y-45208D01*
X54554Y-45208D01*
X54554Y-45228D01*
X53862Y-45228D01*
X53774Y-45316D01*
X53774Y-45624D01*
X53774Y-45692D01*
X53788Y-45760D01*
X53814Y-45824D01*
X53853Y-45881D01*
X53901Y-45930D01*
X53959Y-45968D01*
X54022Y-45995D01*
X54090Y-46008D01*
X54467Y-46008D01*
X54554Y-45921D01*
X54554Y-58785D01*
X53344Y-58785D01*
X53344Y-49936D01*
X53328Y-49854D01*
X53296Y-49777D01*
X53250Y-49708D01*
X53191Y-49649D01*
X53122Y-49602D01*
X53045Y-49570D01*
X52963Y-49553D01*
X52880Y-49553D01*
X52798Y-49568D01*
X52721Y-49599D01*
X52651Y-49645D01*
X52608Y-49688D01*
X52608Y-44751D01*
X52591Y-44669D01*
X52560Y-44592D01*
X52514Y-44523D01*
X52455Y-44464D01*
X52386Y-44417D01*
X52309Y-44385D01*
X52227Y-44368D01*
X52168Y-44368D01*
X52084Y-44285D01*
X52064Y-44268D01*
X52043Y-44250D01*
X52042Y-44250D01*
X52041Y-44249D01*
X52017Y-44236D01*
X51994Y-44223D01*
X51992Y-44223D01*
X51991Y-44222D01*
X51965Y-44214D01*
X51940Y-44206D01*
X51938Y-44206D01*
X51937Y-44205D01*
X51910Y-44203D01*
X51883Y-44200D01*
X51880Y-44200D01*
X51880Y-44200D01*
X51880Y-44200D01*
X51879Y-44200D01*
X45138Y-44200D01*
X45139Y-44133D01*
X45123Y-44051D01*
X45091Y-43974D01*
X45045Y-43905D01*
X44986Y-43846D01*
X44917Y-43799D01*
X44840Y-43767D01*
X44759Y-43750D01*
X44699Y-43750D01*
X44640Y-43690D01*
X44619Y-43673D01*
X44598Y-43656D01*
X44597Y-43655D01*
X44596Y-43654D01*
X44572Y-43642D01*
X44549Y-43629D01*
X44547Y-43628D01*
X44546Y-43627D01*
X44520Y-43620D01*
X44495Y-43612D01*
X44493Y-43611D01*
X44492Y-43611D01*
X44465Y-43608D01*
X44439Y-43605D01*
X44436Y-43605D01*
X44436Y-43605D01*
X44435Y-43605D01*
X44435Y-43605D01*
X43544Y-43605D01*
X43545Y-43590D01*
X43528Y-43508D01*
X43497Y-43431D01*
X43451Y-43361D01*
X43392Y-43302D01*
X43323Y-43256D01*
X43246Y-43223D01*
X43164Y-43207D01*
X43081Y-43206D01*
X42999Y-43222D01*
X42922Y-43253D01*
X42852Y-43299D01*
X42792Y-43357D01*
X42784Y-43369D01*
X42743Y-43360D01*
X42660Y-43360D01*
X42578Y-43375D01*
X42500Y-43406D01*
X42431Y-43452D01*
X42371Y-43510D01*
X42324Y-43579D01*
X42291Y-43656D01*
X42274Y-43737D01*
X42273Y-43821D01*
X42288Y-43903D01*
X42318Y-43980D01*
X42364Y-44050D01*
X42415Y-44103D01*
X42364Y-44082D01*
X42282Y-44065D01*
X42199Y-44064D01*
X42117Y-44080D01*
X42040Y-44111D01*
X41970Y-44157D01*
X41911Y-44215D01*
X41863Y-44284D01*
X41831Y-44361D01*
X41813Y-44442D01*
X41812Y-44525D01*
X41827Y-44607D01*
X41858Y-44685D01*
X41903Y-44755D01*
X41961Y-44815D01*
X42029Y-44862D01*
X42106Y-44896D01*
X42187Y-44914D01*
X42270Y-44915D01*
X42353Y-44901D01*
X42430Y-44871D01*
X42501Y-44826D01*
X42549Y-44780D01*
X47517Y-44780D01*
X47517Y-44780D01*
X47490Y-44821D01*
X47471Y-44866D01*
X47461Y-44915D01*
X47461Y-44964D01*
X47461Y-45844D01*
X47471Y-45892D01*
X47490Y-45938D01*
X47517Y-45979D01*
X47552Y-46014D01*
X47593Y-46041D01*
X47638Y-46060D01*
X47686Y-46069D01*
X47736Y-46069D01*
X48616Y-46069D01*
X48664Y-46060D01*
X48709Y-46041D01*
X48750Y-46014D01*
X48785Y-45979D01*
X48813Y-45938D01*
X48831Y-45892D01*
X48841Y-45844D01*
X48841Y-45795D01*
X48841Y-44915D01*
X48831Y-44866D01*
X48813Y-44821D01*
X48785Y-44780D01*
X48785Y-44780D01*
X51758Y-44780D01*
X51757Y-44829D01*
X51772Y-44911D01*
X51803Y-44988D01*
X51848Y-45058D01*
X51906Y-45118D01*
X51974Y-45166D01*
X52051Y-45199D01*
X52132Y-45217D01*
X52215Y-45219D01*
X52297Y-45204D01*
X52375Y-45174D01*
X52445Y-45129D01*
X52506Y-45072D01*
X52554Y-45004D01*
X52588Y-44928D01*
X52606Y-44846D01*
X52608Y-44751D01*
X52608Y-49688D01*
X52592Y-49703D01*
X52545Y-49772D01*
X52512Y-49849D01*
X52494Y-49930D01*
X52494Y-49993D01*
X52476Y-50011D01*
X44544Y-50011D01*
X44545Y-49960D01*
X44528Y-49878D01*
X44497Y-49801D01*
X44451Y-49732D01*
X44441Y-49722D01*
X44451Y-49729D01*
X44527Y-49762D01*
X44608Y-49780D01*
X44692Y-49782D01*
X44774Y-49767D01*
X44851Y-49737D01*
X44922Y-49692D01*
X44982Y-49635D01*
X45030Y-49567D01*
X45064Y-49491D01*
X45083Y-49409D01*
X45084Y-49314D01*
X45068Y-49232D01*
X45036Y-49155D01*
X44990Y-49086D01*
X44931Y-49027D01*
X44862Y-48980D01*
X44785Y-48948D01*
X44777Y-48946D01*
X44777Y-47605D01*
X44761Y-47524D01*
X44729Y-47447D01*
X44683Y-47377D01*
X44642Y-47336D01*
X44642Y-47191D01*
X44667Y-47166D01*
X44715Y-47098D01*
X44749Y-47022D01*
X44768Y-46941D01*
X44769Y-46846D01*
X44753Y-46764D01*
X44721Y-46687D01*
X44675Y-46617D01*
X44616Y-46558D01*
X44547Y-46512D01*
X44470Y-46479D01*
X44389Y-46463D01*
X44305Y-46462D01*
X44223Y-46478D01*
X44146Y-46509D01*
X44076Y-46554D01*
X44017Y-46613D01*
X43970Y-46682D01*
X43937Y-46758D01*
X43920Y-46840D01*
X43918Y-46923D01*
X43933Y-47005D01*
X43964Y-47083D01*
X44009Y-47153D01*
X44062Y-47207D01*
X44062Y-47336D01*
X44025Y-47373D01*
X43978Y-47441D01*
X43945Y-47518D01*
X43927Y-47600D01*
X43926Y-47683D01*
X43941Y-47765D01*
X43972Y-47842D01*
X44017Y-47912D01*
X44075Y-47972D01*
X44144Y-48020D01*
X44220Y-48053D01*
X44301Y-48071D01*
X44385Y-48073D01*
X44467Y-48058D01*
X44544Y-48028D01*
X44615Y-47984D01*
X44675Y-47926D01*
X44723Y-47858D01*
X44757Y-47782D01*
X44776Y-47701D01*
X44777Y-47605D01*
X44777Y-48946D01*
X44704Y-48931D01*
X44620Y-48931D01*
X44538Y-48946D01*
X44461Y-48977D01*
X44391Y-49023D01*
X44348Y-49066D01*
X43002Y-49066D01*
X43002Y-47660D01*
X42982Y-47559D01*
X42942Y-47464D01*
X42885Y-47378D01*
X42813Y-47305D01*
X42727Y-47247D01*
X42632Y-47207D01*
X42531Y-47187D01*
X42428Y-47186D01*
X42327Y-47205D01*
X42231Y-47244D01*
X42145Y-47300D01*
X42071Y-47372D01*
X42013Y-47457D01*
X41973Y-47552D01*
X41951Y-47653D01*
X41950Y-47756D01*
X41968Y-47857D01*
X42006Y-47953D01*
X42062Y-48040D01*
X42134Y-48114D01*
X42218Y-48173D01*
X42313Y-48214D01*
X42413Y-48236D01*
X42516Y-48238D01*
X42618Y-48221D01*
X42714Y-48183D01*
X42801Y-48128D01*
X42876Y-48057D01*
X42935Y-47973D01*
X42977Y-47879D01*
X43000Y-47778D01*
X43002Y-47660D01*
X43002Y-49066D01*
X42476Y-49066D01*
X42476Y-49063D01*
X42478Y-48968D01*
X42461Y-48886D01*
X42430Y-48809D01*
X42384Y-48739D01*
X42325Y-48680D01*
X42256Y-48634D01*
X42179Y-48601D01*
X42097Y-48585D01*
X42038Y-48584D01*
X41907Y-48454D01*
X41887Y-48437D01*
X41866Y-48420D01*
X41865Y-48419D01*
X41864Y-48418D01*
X41840Y-48405D01*
X41816Y-48392D01*
X41815Y-48392D01*
X41814Y-48391D01*
X41788Y-48383D01*
X41763Y-48375D01*
X41761Y-48375D01*
X41760Y-48375D01*
X41733Y-48372D01*
X41706Y-48369D01*
X41703Y-48369D01*
X41703Y-48369D01*
X41703Y-48369D01*
X41702Y-48369D01*
X41220Y-48369D01*
X40560Y-47709D01*
X40856Y-47709D01*
X40882Y-47706D01*
X40909Y-47704D01*
X40911Y-47703D01*
X40912Y-47703D01*
X40938Y-47696D01*
X40963Y-47688D01*
X40965Y-47687D01*
X40966Y-47687D01*
X40990Y-47674D01*
X41014Y-47662D01*
X41015Y-47661D01*
X41016Y-47660D01*
X41037Y-47643D01*
X41058Y-47627D01*
X41060Y-47625D01*
X41060Y-47625D01*
X41060Y-47625D01*
X41061Y-47624D01*
X41956Y-46728D01*
X42029Y-46728D01*
X42063Y-46764D01*
X42132Y-46811D01*
X42208Y-46845D01*
X42289Y-46863D01*
X42373Y-46864D01*
X42455Y-46850D01*
X42533Y-46820D01*
X42603Y-46775D01*
X42663Y-46718D01*
X42711Y-46649D01*
X42745Y-46573D01*
X42764Y-46492D01*
X42765Y-46397D01*
X42749Y-46315D01*
X42717Y-46238D01*
X42671Y-46169D01*
X42612Y-46109D01*
X42543Y-46063D01*
X42466Y-46031D01*
X42385Y-46014D01*
X42301Y-46013D01*
X42219Y-46029D01*
X42142Y-46060D01*
X42072Y-46106D01*
X42029Y-46148D01*
X41836Y-46148D01*
X41809Y-46151D01*
X41783Y-46153D01*
X41781Y-46154D01*
X41780Y-46154D01*
X41754Y-46162D01*
X41728Y-46169D01*
X41727Y-46170D01*
X41726Y-46170D01*
X41702Y-46183D01*
X41678Y-46195D01*
X41677Y-46196D01*
X41676Y-46197D01*
X41655Y-46214D01*
X41634Y-46231D01*
X41632Y-46233D01*
X41632Y-46233D01*
X41632Y-46233D01*
X41631Y-46233D01*
X41324Y-46540D01*
X41324Y-45168D01*
X41308Y-45087D01*
X41276Y-45010D01*
X41230Y-44940D01*
X41171Y-44881D01*
X41102Y-44834D01*
X41025Y-44802D01*
X40944Y-44785D01*
X40860Y-44785D01*
X40804Y-44796D01*
X40829Y-44760D01*
X40863Y-44684D01*
X40882Y-44602D01*
X40883Y-44507D01*
X40867Y-44425D01*
X40835Y-44348D01*
X40789Y-44279D01*
X40730Y-44220D01*
X40661Y-44173D01*
X40584Y-44141D01*
X40503Y-44124D01*
X40419Y-44123D01*
X40338Y-44139D01*
X40260Y-44170D01*
X40191Y-44216D01*
X40131Y-44274D01*
X40084Y-44343D01*
X40051Y-44420D01*
X40045Y-44448D01*
X38942Y-44448D01*
X38904Y-44409D01*
X38835Y-44362D01*
X38758Y-44330D01*
X38676Y-44313D01*
X38593Y-44312D01*
X38511Y-44328D01*
X38434Y-44359D01*
X38364Y-44405D01*
X38304Y-44463D01*
X38257Y-44532D01*
X38224Y-44609D01*
X38207Y-44690D01*
X38206Y-44773D01*
X38221Y-44855D01*
X38252Y-44933D01*
X38292Y-44996D01*
X38289Y-45000D01*
X38256Y-45077D01*
X38238Y-45159D01*
X38237Y-45242D01*
X38252Y-45324D01*
X38283Y-45401D01*
X38328Y-45471D01*
X38386Y-45531D01*
X38455Y-45579D01*
X38455Y-45579D01*
X38454Y-45647D01*
X38469Y-45729D01*
X38500Y-45807D01*
X38545Y-45877D01*
X38603Y-45937D01*
X38671Y-45984D01*
X38747Y-46018D01*
X38829Y-46036D01*
X38912Y-46038D01*
X38994Y-46023D01*
X39072Y-45993D01*
X39142Y-45948D01*
X39191Y-45902D01*
X39912Y-45902D01*
X39965Y-45957D01*
X40033Y-46004D01*
X40110Y-46038D01*
X40191Y-46055D01*
X40274Y-46057D01*
X40356Y-46043D01*
X40434Y-46013D01*
X40505Y-45968D01*
X40565Y-45910D01*
X40613Y-45842D01*
X40647Y-45766D01*
X40665Y-45685D01*
X40667Y-45590D01*
X40661Y-45562D01*
X40691Y-45583D01*
X40767Y-45616D01*
X40849Y-45634D01*
X40932Y-45636D01*
X41014Y-45621D01*
X41092Y-45591D01*
X41162Y-45547D01*
X41222Y-45489D01*
X41270Y-45421D01*
X41304Y-45345D01*
X41323Y-45264D01*
X41324Y-45168D01*
X41324Y-46540D01*
X40736Y-47129D01*
X37356Y-47129D01*
X37329Y-47131D01*
X37302Y-47134D01*
X37301Y-47134D01*
X37299Y-47134D01*
X37274Y-47142D01*
X37248Y-47150D01*
X37247Y-47150D01*
X37245Y-47151D01*
X37222Y-47163D01*
X37198Y-47176D01*
X37197Y-47177D01*
X37195Y-47177D01*
X37175Y-47194D01*
X37154Y-47211D01*
X37151Y-47213D01*
X37151Y-47213D01*
X37151Y-47213D01*
X37151Y-47214D01*
X36704Y-47660D01*
X33035Y-47660D01*
X32600Y-47226D01*
X32580Y-47209D01*
X32559Y-47191D01*
X32558Y-47191D01*
X32556Y-47190D01*
X32533Y-47177D01*
X32509Y-47164D01*
X32508Y-47164D01*
X32507Y-47163D01*
X32481Y-47155D01*
X32455Y-47147D01*
X32454Y-47147D01*
X32452Y-47146D01*
X32426Y-47144D01*
X32399Y-47141D01*
X32396Y-47141D01*
X32396Y-47141D01*
X32396Y-47141D01*
X32395Y-47141D01*
X32391Y-47141D01*
X31872Y-47141D01*
X31845Y-47143D01*
X31818Y-47146D01*
X31817Y-47146D01*
X31815Y-47146D01*
X31790Y-47154D01*
X31764Y-47161D01*
X31762Y-47162D01*
X31761Y-47162D01*
X31737Y-47175D01*
X31714Y-47187D01*
X31712Y-47188D01*
X31711Y-47189D01*
X31690Y-47206D01*
X31669Y-47223D01*
X31667Y-47225D01*
X31667Y-47225D01*
X31667Y-47225D01*
X31666Y-47226D01*
X31497Y-47395D01*
X31443Y-47395D01*
X31361Y-47411D01*
X31284Y-47442D01*
X31214Y-47488D01*
X31155Y-47546D01*
X31108Y-47615D01*
X31075Y-47691D01*
X31057Y-47773D01*
X31056Y-47856D01*
X31071Y-47938D01*
X31102Y-48016D01*
X31147Y-48086D01*
X31205Y-48146D01*
X31273Y-48193D01*
X31350Y-48227D01*
X31431Y-48244D01*
X31515Y-48246D01*
X31597Y-48232D01*
X31616Y-48224D01*
X31615Y-48254D01*
X31630Y-48336D01*
X31661Y-48413D01*
X31706Y-48483D01*
X31764Y-48543D01*
X31832Y-48591D01*
X31909Y-48624D01*
X31990Y-48642D01*
X32074Y-48644D01*
X32079Y-48643D01*
X32092Y-48650D01*
X32093Y-48650D01*
X32095Y-48651D01*
X32120Y-48659D01*
X32146Y-48667D01*
X32147Y-48667D01*
X32149Y-48668D01*
X32176Y-48670D01*
X32202Y-48673D01*
X32205Y-48673D01*
X32205Y-48673D01*
X32205Y-48673D01*
X32206Y-48673D01*
X33605Y-48673D01*
X33596Y-48687D01*
X33577Y-48733D01*
X33567Y-48781D01*
X33567Y-48830D01*
X33567Y-49710D01*
X33577Y-49758D01*
X33596Y-49804D01*
X33623Y-49845D01*
X33658Y-49880D01*
X33699Y-49907D01*
X33744Y-49926D01*
X33793Y-49936D01*
X33842Y-49936D01*
X34722Y-49936D01*
X34770Y-49926D01*
X34816Y-49907D01*
X34857Y-49880D01*
X34892Y-49845D01*
X34919Y-49804D01*
X34938Y-49758D01*
X34947Y-49710D01*
X34947Y-49661D01*
X34947Y-48966D01*
X35031Y-48882D01*
X35209Y-48882D01*
X35209Y-49734D01*
X35219Y-49782D01*
X35238Y-49828D01*
X35265Y-49869D01*
X35300Y-49903D01*
X35341Y-49931D01*
X35386Y-49950D01*
X35434Y-49959D01*
X35484Y-49959D01*
X36364Y-49959D01*
X36412Y-49950D01*
X36458Y-49931D01*
X36498Y-49903D01*
X36533Y-49869D01*
X36561Y-49828D01*
X36579Y-49782D01*
X36589Y-49734D01*
X36589Y-49685D01*
X36589Y-49559D01*
X39460Y-49559D01*
X39624Y-49723D01*
X39623Y-49773D01*
X39638Y-49855D01*
X39669Y-49933D01*
X39714Y-50003D01*
X39772Y-50063D01*
X39840Y-50110D01*
X39872Y-50124D01*
X39824Y-50172D01*
X39777Y-50241D01*
X39744Y-50317D01*
X39737Y-50350D01*
X39737Y-50350D01*
X39738Y-50294D01*
X39721Y-50213D01*
X39690Y-50136D01*
X39643Y-50066D01*
X39585Y-50007D01*
X39516Y-49960D01*
X39439Y-49928D01*
X39357Y-49911D01*
X39274Y-49911D01*
X39192Y-49926D01*
X39115Y-49958D01*
X39045Y-50003D01*
X38985Y-50062D01*
X38938Y-50130D01*
X38905Y-50207D01*
X38888Y-50289D01*
X38887Y-50372D01*
X38902Y-50454D01*
X38933Y-50531D01*
X38978Y-50601D01*
X39036Y-50661D01*
X39097Y-50704D01*
X29074Y-50704D01*
X28493Y-50122D01*
X28493Y-50066D01*
X28477Y-49984D01*
X28445Y-49907D01*
X28399Y-49838D01*
X28341Y-49779D01*
X28272Y-49732D01*
X28195Y-49700D01*
X28113Y-49683D01*
X28030Y-49682D01*
X27948Y-49698D01*
X27871Y-49729D01*
X27801Y-49775D01*
X27741Y-49833D01*
X27694Y-49902D01*
X27661Y-49979D01*
X27644Y-50060D01*
X27643Y-50144D01*
X27658Y-50225D01*
X27689Y-50303D01*
X27701Y-50323D01*
X27473Y-50094D01*
X27474Y-50039D01*
X27458Y-49957D01*
X27426Y-49880D01*
X27380Y-49810D01*
X27321Y-49751D01*
X27252Y-49705D01*
X27175Y-49672D01*
X27093Y-49655D01*
X27010Y-49655D01*
X26928Y-49671D01*
X26851Y-49702D01*
X26781Y-49747D01*
X26722Y-49806D01*
X26674Y-49874D01*
X26642Y-49951D01*
X26624Y-50033D01*
X26623Y-50116D01*
X26638Y-50198D01*
X26669Y-50275D01*
X26714Y-50345D01*
X26772Y-50405D01*
X26840Y-50453D01*
X26917Y-50486D01*
X26998Y-50504D01*
X27064Y-50506D01*
X27683Y-51125D01*
X26856Y-51125D01*
X26829Y-51127D01*
X26802Y-51130D01*
X26801Y-51130D01*
X26799Y-51130D01*
X26774Y-51138D01*
X26748Y-51146D01*
X26747Y-51146D01*
X26745Y-51147D01*
X26722Y-51159D01*
X26698Y-51172D01*
X26697Y-51173D01*
X26695Y-51173D01*
X26675Y-51190D01*
X26654Y-51207D01*
X26652Y-51209D01*
X26651Y-51209D01*
X26651Y-51209D01*
X26651Y-51210D01*
X26575Y-51285D01*
X26522Y-51285D01*
X26440Y-51300D01*
X26363Y-51332D01*
X26293Y-51377D01*
X26233Y-51436D01*
X26186Y-51504D01*
X26153Y-51581D01*
X26136Y-51663D01*
X26135Y-51746D01*
X26150Y-51828D01*
X26181Y-51905D01*
X26226Y-51975D01*
X26284Y-52035D01*
X26352Y-52083D01*
X26429Y-52116D01*
X26510Y-52134D01*
X26593Y-52136D01*
X26675Y-52121D01*
X26753Y-52091D01*
X26823Y-52047D01*
X26884Y-51989D01*
X26932Y-51921D01*
X26966Y-51845D01*
X26984Y-51764D01*
X26985Y-51705D01*
X35917Y-51705D01*
X36281Y-52069D01*
X36301Y-52086D01*
X36322Y-52103D01*
X36323Y-52104D01*
X36324Y-52105D01*
X36348Y-52117D01*
X36371Y-52130D01*
X36373Y-52131D01*
X36374Y-52131D01*
X36400Y-52139D01*
X36425Y-52147D01*
X36427Y-52148D01*
X36428Y-52148D01*
X36455Y-52151D01*
X36482Y-52154D01*
X36485Y-52154D01*
X36485Y-52154D01*
X36485Y-52154D01*
X36486Y-52154D01*
X41785Y-52154D01*
X41819Y-52189D01*
X41888Y-52236D01*
X41964Y-52270D01*
X42045Y-52288D01*
X42129Y-52289D01*
X42211Y-52275D01*
X42289Y-52245D01*
X42359Y-52200D01*
X42419Y-52143D01*
X42467Y-52075D01*
X42501Y-51998D01*
X42520Y-51917D01*
X42520Y-51891D01*
X42521Y-51891D01*
X42591Y-51846D01*
X42652Y-51788D01*
X42700Y-51720D01*
X42733Y-51644D01*
X42752Y-51563D01*
X42753Y-51484D01*
X46973Y-51484D01*
X46981Y-51525D01*
X47011Y-51602D01*
X47057Y-51672D01*
X47114Y-51732D01*
X47183Y-51780D01*
X47259Y-51813D01*
X47341Y-51831D01*
X47424Y-51833D01*
X47506Y-51818D01*
X47584Y-51788D01*
X47654Y-51744D01*
X47668Y-51730D01*
X47681Y-51744D01*
X47750Y-51792D01*
X47826Y-51825D01*
X47908Y-51843D01*
X47991Y-51845D01*
X48073Y-51830D01*
X48151Y-51800D01*
X48221Y-51755D01*
X48281Y-51698D01*
X48329Y-51630D01*
X48355Y-51572D01*
X48584Y-51802D01*
X48584Y-51852D01*
X48599Y-51934D01*
X48630Y-52012D01*
X48675Y-52082D01*
X48733Y-52142D01*
X48801Y-52189D01*
X48877Y-52223D01*
X48959Y-52240D01*
X49042Y-52242D01*
X49124Y-52228D01*
X49202Y-52198D01*
X49272Y-52153D01*
X49333Y-52095D01*
X49381Y-52027D01*
X49415Y-51951D01*
X49433Y-51870D01*
X49434Y-51775D01*
X49418Y-51693D01*
X49386Y-51616D01*
X49340Y-51547D01*
X49317Y-51523D01*
X49375Y-51501D01*
X49445Y-51456D01*
X49506Y-51399D01*
X49554Y-51331D01*
X49588Y-51254D01*
X49606Y-51173D01*
X49608Y-51078D01*
X49591Y-50996D01*
X49560Y-50919D01*
X49514Y-50850D01*
X49455Y-50791D01*
X49386Y-50744D01*
X49309Y-50712D01*
X49227Y-50695D01*
X49168Y-50694D01*
X49064Y-50591D01*
X52596Y-50591D01*
X52623Y-50588D01*
X52649Y-50586D01*
X52651Y-50585D01*
X52652Y-50585D01*
X52678Y-50577D01*
X52704Y-50570D01*
X52705Y-50569D01*
X52706Y-50569D01*
X52730Y-50556D01*
X52754Y-50544D01*
X52755Y-50543D01*
X52756Y-50542D01*
X52777Y-50525D01*
X52798Y-50509D01*
X52800Y-50506D01*
X52800Y-50506D01*
X52800Y-50506D01*
X52801Y-50506D01*
X52904Y-50403D01*
X52952Y-50404D01*
X53034Y-50389D01*
X53111Y-50359D01*
X53182Y-50314D01*
X53242Y-50257D01*
X53290Y-50189D01*
X53324Y-50113D01*
X53342Y-50031D01*
X53344Y-49936D01*
X53344Y-58785D01*
X41399Y-58785D01*
X41434Y-58763D01*
X41494Y-58706D01*
X41503Y-58693D01*
X41507Y-58695D01*
X41589Y-58713D01*
X41672Y-58715D01*
X41754Y-58700D01*
X41832Y-58670D01*
X41902Y-58625D01*
X41963Y-58568D01*
X42011Y-58500D01*
X42044Y-58424D01*
X42063Y-58342D01*
X42064Y-58247D01*
X42048Y-58165D01*
X42016Y-58088D01*
X41970Y-58019D01*
X41929Y-57978D01*
X41929Y-55375D01*
X41927Y-55349D01*
X41924Y-55322D01*
X41924Y-55321D01*
X41924Y-55319D01*
X41916Y-55294D01*
X41909Y-55268D01*
X41908Y-55266D01*
X41907Y-55265D01*
X41895Y-55241D01*
X41882Y-55218D01*
X41882Y-55216D01*
X41881Y-55215D01*
X41864Y-55194D01*
X41847Y-55173D01*
X41845Y-55171D01*
X41845Y-55171D01*
X41845Y-55171D01*
X41844Y-55170D01*
X41241Y-54567D01*
X41241Y-54511D01*
X41225Y-54429D01*
X41212Y-54398D01*
X41421Y-54398D01*
X41726Y-54703D01*
X41726Y-54754D01*
X41741Y-54836D01*
X41771Y-54913D01*
X41816Y-54983D01*
X41874Y-55043D01*
X41943Y-55091D01*
X42019Y-55124D01*
X42101Y-55142D01*
X42184Y-55144D01*
X42266Y-55129D01*
X42344Y-55099D01*
X42414Y-55055D01*
X42474Y-54997D01*
X42522Y-54929D01*
X42556Y-54853D01*
X42575Y-54772D01*
X42576Y-54676D01*
X42560Y-54595D01*
X42528Y-54518D01*
X42482Y-54448D01*
X42423Y-54389D01*
X42354Y-54342D01*
X42277Y-54310D01*
X42196Y-54293D01*
X42136Y-54293D01*
X41746Y-53903D01*
X41725Y-53886D01*
X41705Y-53868D01*
X41703Y-53868D01*
X41702Y-53867D01*
X41679Y-53854D01*
X41655Y-53841D01*
X41654Y-53841D01*
X41652Y-53840D01*
X41627Y-53832D01*
X41601Y-53824D01*
X41600Y-53824D01*
X41598Y-53823D01*
X41572Y-53821D01*
X41545Y-53818D01*
X41542Y-53818D01*
X41542Y-53818D01*
X41542Y-53818D01*
X41541Y-53818D01*
X40336Y-53818D01*
X40297Y-53779D01*
X40228Y-53732D01*
X40151Y-53700D01*
X40070Y-53683D01*
X39986Y-53682D01*
X39905Y-53698D01*
X39827Y-53729D01*
X39757Y-53775D01*
X39698Y-53833D01*
X39651Y-53902D01*
X39618Y-53979D01*
X39601Y-54060D01*
X39600Y-54144D01*
X39615Y-54225D01*
X39645Y-54303D01*
X39690Y-54373D01*
X39748Y-54433D01*
X39817Y-54481D01*
X39893Y-54514D01*
X39975Y-54532D01*
X40058Y-54534D01*
X40140Y-54519D01*
X40218Y-54489D01*
X40288Y-54444D01*
X40337Y-54398D01*
X40420Y-54398D01*
X40409Y-54424D01*
X40392Y-54505D01*
X40391Y-54588D01*
X40406Y-54670D01*
X40437Y-54748D01*
X40482Y-54818D01*
X40540Y-54878D01*
X40608Y-54925D01*
X40684Y-54959D01*
X40766Y-54977D01*
X40832Y-54978D01*
X41320Y-55466D01*
X41285Y-55452D01*
X41204Y-55435D01*
X41120Y-55434D01*
X41038Y-55450D01*
X40961Y-55481D01*
X40891Y-55527D01*
X40832Y-55585D01*
X40793Y-55641D01*
X40742Y-55590D01*
X40673Y-55543D01*
X40596Y-55511D01*
X40515Y-55494D01*
X40431Y-55493D01*
X40349Y-55509D01*
X40272Y-55540D01*
X40202Y-55586D01*
X40200Y-55588D01*
X40134Y-55543D01*
X40057Y-55511D01*
X39975Y-55494D01*
X39892Y-55493D01*
X39810Y-55509D01*
X39733Y-55540D01*
X39663Y-55586D01*
X39603Y-55644D01*
X39556Y-55713D01*
X39524Y-55790D01*
X39506Y-55871D01*
X39505Y-55955D01*
X39520Y-56037D01*
X39551Y-56114D01*
X39596Y-56184D01*
X39641Y-56230D01*
X39641Y-57767D01*
X39592Y-57799D01*
X39533Y-57857D01*
X39486Y-57926D01*
X39453Y-58002D01*
X39435Y-58084D01*
X39434Y-58167D01*
X39449Y-58249D01*
X39480Y-58327D01*
X39525Y-58397D01*
X39583Y-58457D01*
X39651Y-58504D01*
X39728Y-58538D01*
X39809Y-58555D01*
X39892Y-58557D01*
X39975Y-58543D01*
X40052Y-58513D01*
X40123Y-58468D01*
X40183Y-58410D01*
X40231Y-58342D01*
X40249Y-58303D01*
X40270Y-58307D01*
X40353Y-58309D01*
X40435Y-58295D01*
X40513Y-58265D01*
X40583Y-58220D01*
X40644Y-58162D01*
X40692Y-58094D01*
X40726Y-58018D01*
X40744Y-57937D01*
X40745Y-57842D01*
X40743Y-57829D01*
X40746Y-57820D01*
X40754Y-57794D01*
X40754Y-57793D01*
X40754Y-57791D01*
X40757Y-57764D01*
X40760Y-57738D01*
X40760Y-57735D01*
X40760Y-57735D01*
X40760Y-57735D01*
X40760Y-57734D01*
X40760Y-56230D01*
X40793Y-56198D01*
X40836Y-56137D01*
X40881Y-56184D01*
X40881Y-58116D01*
X40844Y-58152D01*
X40797Y-58221D01*
X40764Y-58298D01*
X40746Y-58379D01*
X40745Y-58462D01*
X40760Y-58544D01*
X40791Y-58622D01*
X40836Y-58692D01*
X40894Y-58752D01*
X40942Y-58785D01*
X34403Y-58785D01*
X34403Y-57007D01*
X34387Y-56925D01*
X34355Y-56848D01*
X34309Y-56779D01*
X34250Y-56720D01*
X34181Y-56673D01*
X34104Y-56641D01*
X34022Y-56624D01*
X33991Y-56624D01*
X33800Y-56433D01*
X33801Y-56377D01*
X33784Y-56295D01*
X33753Y-56218D01*
X33706Y-56149D01*
X33648Y-56090D01*
X33579Y-56043D01*
X33502Y-56011D01*
X33420Y-55994D01*
X33337Y-55993D01*
X33255Y-56009D01*
X33178Y-56040D01*
X33108Y-56086D01*
X33048Y-56144D01*
X33001Y-56213D01*
X32968Y-56290D01*
X32951Y-56371D01*
X32950Y-56455D01*
X32965Y-56537D01*
X32996Y-56614D01*
X33041Y-56684D01*
X33099Y-56744D01*
X33167Y-56792D01*
X33244Y-56825D01*
X33325Y-56843D01*
X33391Y-56844D01*
X33553Y-57007D01*
X33552Y-57084D01*
X33567Y-57166D01*
X33598Y-57244D01*
X33643Y-57314D01*
X33701Y-57374D01*
X33770Y-57421D01*
X33846Y-57455D01*
X33927Y-57473D01*
X34011Y-57475D01*
X34093Y-57460D01*
X34170Y-57430D01*
X34241Y-57385D01*
X34301Y-57328D01*
X34349Y-57260D01*
X34383Y-57184D01*
X34402Y-57102D01*
X34403Y-57007D01*
X34403Y-58785D01*
X31036Y-58785D01*
X31036Y-55431D01*
X31016Y-55330D01*
X30977Y-55234D01*
X30920Y-55148D01*
X30847Y-55075D01*
X30762Y-55018D01*
X30667Y-54978D01*
X30566Y-54957D01*
X30463Y-54956D01*
X30362Y-54976D01*
X30266Y-55014D01*
X30180Y-55071D01*
X30106Y-55143D01*
X30048Y-55228D01*
X30007Y-55322D01*
X29986Y-55423D01*
X29984Y-55526D01*
X30003Y-55628D01*
X30041Y-55724D01*
X30097Y-55810D01*
X30168Y-55884D01*
X30253Y-55943D01*
X30348Y-55984D01*
X30448Y-56007D01*
X30551Y-56009D01*
X30653Y-55991D01*
X30749Y-55954D01*
X30836Y-55898D01*
X30911Y-55827D01*
X30970Y-55743D01*
X31012Y-55649D01*
X31035Y-55548D01*
X31036Y-55431D01*
X31036Y-58785D01*
X26758Y-58785D01*
X26758Y-56454D01*
X26758Y-56405D01*
X26758Y-55525D01*
X26749Y-55477D01*
X26730Y-55431D01*
X26703Y-55390D01*
X26668Y-55355D01*
X26627Y-55328D01*
X26581Y-55309D01*
X26533Y-55300D01*
X26484Y-55300D01*
X25604Y-55300D01*
X25555Y-55309D01*
X25510Y-55328D01*
X25469Y-55355D01*
X25434Y-55390D01*
X25407Y-55431D01*
X25388Y-55477D01*
X25378Y-55525D01*
X25378Y-55574D01*
X25378Y-56454D01*
X25388Y-56503D01*
X25407Y-56548D01*
X25434Y-56589D01*
X25469Y-56624D01*
X25510Y-56651D01*
X25555Y-56670D01*
X25604Y-56680D01*
X25653Y-56680D01*
X26533Y-56680D01*
X26581Y-56670D01*
X26627Y-56651D01*
X26668Y-56624D01*
X26703Y-56589D01*
X26730Y-56548D01*
X26749Y-56503D01*
X26758Y-56454D01*
X26758Y-58785D01*
X24699Y-58785D01*
X24699Y-50454D01*
X24699Y-50405D01*
X24699Y-49525D01*
X24690Y-49477D01*
X24671Y-49431D01*
X24644Y-49390D01*
X24609Y-49355D01*
X24568Y-49328D01*
X24522Y-49309D01*
X24474Y-49300D01*
X24425Y-49300D01*
X23545Y-49300D01*
X23496Y-49309D01*
X23451Y-49328D01*
X23410Y-49355D01*
X23375Y-49390D01*
X23348Y-49431D01*
X23329Y-49477D01*
X23319Y-49525D01*
X23319Y-49574D01*
X23319Y-50454D01*
X23329Y-50503D01*
X23348Y-50548D01*
X23375Y-50589D01*
X23410Y-50624D01*
X23451Y-50651D01*
X23496Y-50670D01*
X23545Y-50680D01*
X23594Y-50680D01*
X24474Y-50680D01*
X24522Y-50670D01*
X24568Y-50651D01*
X24609Y-50624D01*
X24644Y-50589D01*
X24671Y-50548D01*
X24690Y-50503D01*
X24699Y-50454D01*
X24699Y-58785D01*
X24691Y-58785D01*
X24691Y-55694D01*
X24691Y-55645D01*
X24691Y-54765D01*
X24682Y-54717D01*
X24663Y-54671D01*
X24648Y-54649D01*
X24648Y-52923D01*
X24648Y-52874D01*
X24648Y-51994D01*
X24639Y-51945D01*
X24620Y-51900D01*
X24592Y-51859D01*
X24558Y-51824D01*
X24517Y-51797D01*
X24471Y-51778D01*
X24423Y-51768D01*
X24374Y-51768D01*
X23494Y-51768D01*
X23445Y-51778D01*
X23400Y-51797D01*
X23359Y-51824D01*
X23324Y-51859D01*
X23297Y-51900D01*
X23278Y-51945D01*
X23268Y-51994D01*
X23268Y-52043D01*
X23268Y-52923D01*
X23278Y-52971D01*
X23297Y-53017D01*
X23324Y-53058D01*
X23359Y-53092D01*
X23400Y-53120D01*
X23445Y-53139D01*
X23494Y-53148D01*
X23543Y-53148D01*
X24423Y-53148D01*
X24471Y-53139D01*
X24517Y-53120D01*
X24558Y-53092D01*
X24592Y-53058D01*
X24620Y-53017D01*
X24639Y-52971D01*
X24648Y-52923D01*
X24648Y-54649D01*
X24636Y-54630D01*
X24601Y-54596D01*
X24560Y-54568D01*
X24514Y-54549D01*
X24466Y-54540D01*
X24417Y-54540D01*
X23537Y-54540D01*
X23489Y-54549D01*
X23443Y-54568D01*
X23402Y-54596D01*
X23367Y-54630D01*
X23340Y-54671D01*
X23321Y-54717D01*
X23311Y-54765D01*
X23311Y-54814D01*
X23311Y-55694D01*
X23321Y-55743D01*
X23340Y-55788D01*
X23367Y-55829D01*
X23402Y-55864D01*
X23443Y-55891D01*
X23489Y-55910D01*
X23537Y-55920D01*
X23586Y-55920D01*
X24466Y-55920D01*
X24514Y-55910D01*
X24560Y-55891D01*
X24601Y-55864D01*
X24636Y-55829D01*
X24663Y-55788D01*
X24682Y-55743D01*
X24691Y-55694D01*
X24691Y-58785D01*
X24538Y-58785D01*
X24538Y-58045D01*
X24538Y-57996D01*
X24538Y-57116D01*
X24528Y-57067D01*
X24509Y-57022D01*
X24482Y-56981D01*
X24447Y-56946D01*
X24406Y-56919D01*
X24361Y-56900D01*
X24313Y-56890D01*
X24263Y-56890D01*
X23383Y-56890D01*
X23335Y-56900D01*
X23290Y-56919D01*
X23249Y-56946D01*
X23214Y-56981D01*
X23186Y-57022D01*
X23168Y-57067D01*
X23158Y-57116D01*
X23158Y-57165D01*
X23158Y-58045D01*
X23168Y-58093D01*
X23186Y-58139D01*
X23214Y-58180D01*
X23249Y-58214D01*
X23290Y-58242D01*
X23335Y-58261D01*
X23383Y-58270D01*
X23433Y-58270D01*
X24313Y-58270D01*
X24361Y-58261D01*
X24406Y-58242D01*
X24447Y-58214D01*
X24482Y-58180D01*
X24509Y-58139D01*
X24528Y-58093D01*
X24538Y-58045D01*
X24538Y-58785D01*
X22054Y-58785D01*
X22054Y-58672D01*
X22116Y-58584D01*
X22230Y-58327D01*
X22292Y-58054D01*
X22297Y-57733D01*
X22242Y-57458D01*
X22135Y-57198D01*
X22055Y-57077D01*
X22063Y-42890D01*
X28943Y-42869D01*
X29585Y-43511D01*
X29585Y-44386D01*
X29411Y-44386D01*
X29363Y-44396D01*
X29317Y-44415D01*
X29276Y-44442D01*
X29241Y-44477D01*
X29214Y-44518D01*
X29195Y-44563D01*
X29185Y-44612D01*
X29185Y-44661D01*
X29185Y-45541D01*
X29195Y-45589D01*
X29214Y-45635D01*
X29241Y-45676D01*
X29276Y-45710D01*
X29317Y-45738D01*
X29363Y-45757D01*
X29411Y-45766D01*
X29460Y-45766D01*
X30340Y-45766D01*
X30388Y-45757D01*
X30434Y-45738D01*
X30475Y-45710D01*
X30510Y-45676D01*
X30537Y-45635D01*
X30556Y-45589D01*
X30565Y-45541D01*
X30565Y-45492D01*
X30565Y-44612D01*
X30556Y-44563D01*
X30537Y-44518D01*
X30510Y-44477D01*
X30475Y-44442D01*
X30434Y-44415D01*
X30388Y-44396D01*
X30340Y-44386D01*
X30291Y-44386D01*
X30165Y-44386D01*
X30165Y-43391D01*
X30163Y-43365D01*
X30161Y-43338D01*
X30160Y-43336D01*
X30160Y-43335D01*
X30152Y-43309D01*
X30145Y-43284D01*
X30144Y-43282D01*
X30144Y-43281D01*
X30131Y-43257D01*
X30119Y-43233D01*
X30118Y-43232D01*
X30117Y-43231D01*
X30100Y-43210D01*
X30083Y-43189D01*
X30081Y-43187D01*
X30081Y-43187D01*
X30081Y-43187D01*
X30081Y-43186D01*
X29761Y-42867D01*
X34232Y-42853D01*
X33218Y-43867D01*
X33201Y-43888D01*
X33183Y-43908D01*
X33183Y-43910D01*
X33182Y-43911D01*
X33169Y-43935D01*
X33156Y-43958D01*
X33156Y-43960D01*
X33155Y-43961D01*
X33147Y-43987D01*
X33139Y-44012D01*
X33139Y-44014D01*
X33138Y-44015D01*
X33136Y-44042D01*
X33133Y-44068D01*
X33133Y-44071D01*
X33133Y-44071D01*
X33133Y-44071D01*
X33133Y-44072D01*
X33133Y-44426D01*
X32958Y-44426D01*
X32910Y-44435D01*
X32864Y-44454D01*
X32823Y-44481D01*
X32789Y-44516D01*
X32761Y-44557D01*
X32742Y-44603D01*
X32733Y-44651D01*
X32733Y-44700D01*
X32733Y-45580D01*
X32742Y-45629D01*
X32761Y-45674D01*
X32789Y-45715D01*
X32823Y-45750D01*
X32864Y-45777D01*
X32910Y-45796D01*
X32958Y-45806D01*
X33007Y-45806D01*
X33887Y-45806D01*
X33936Y-45796D01*
X33981Y-45777D01*
X34022Y-45750D01*
X34057Y-45715D01*
X34084Y-45674D01*
X34103Y-45629D01*
X34113Y-45580D01*
X34113Y-45531D01*
X34113Y-44651D01*
X34103Y-44603D01*
X34084Y-44557D01*
X34057Y-44516D01*
X34022Y-44481D01*
X33981Y-44454D01*
X33936Y-44435D01*
X33887Y-44426D01*
X33838Y-44426D01*
X33713Y-44426D01*
X33713Y-44192D01*
X34920Y-42985D01*
X34920Y-44319D01*
X34746Y-44319D01*
X34697Y-44329D01*
X34652Y-44348D01*
X34611Y-44375D01*
X34576Y-44410D01*
X34549Y-44451D01*
X34530Y-44496D01*
X34520Y-44545D01*
X34520Y-44594D01*
X34520Y-45474D01*
X34530Y-45522D01*
X34549Y-45568D01*
X34576Y-45609D01*
X34611Y-45644D01*
X34652Y-45671D01*
X34697Y-45690D01*
X34746Y-45699D01*
X34795Y-45699D01*
X35675Y-45699D01*
X35723Y-45690D01*
X35769Y-45671D01*
X35809Y-45644D01*
X35844Y-45609D01*
X35872Y-45568D01*
X35891Y-45522D01*
X35900Y-45474D01*
X35900Y-45425D01*
X35900Y-44545D01*
X35891Y-44496D01*
X35872Y-44451D01*
X35844Y-44410D01*
X35809Y-44375D01*
X35769Y-44348D01*
X35723Y-44329D01*
X35675Y-44319D01*
X35626Y-44319D01*
X35500Y-44319D01*
X35500Y-42895D01*
X35546Y-42849D01*
X38293Y-42841D01*
X38292Y-42848D01*
X38307Y-42930D01*
X38338Y-43008D01*
X38383Y-43078D01*
X38441Y-43138D01*
X38510Y-43185D01*
X38586Y-43219D01*
X38667Y-43237D01*
X38751Y-43238D01*
X38833Y-43224D01*
X38911Y-43194D01*
X38960Y-43162D01*
X41756Y-43162D01*
X41789Y-43185D01*
X41866Y-43219D01*
X41947Y-43237D01*
X42030Y-43238D01*
X42112Y-43224D01*
X42190Y-43194D01*
X42239Y-43162D01*
X43743Y-43162D01*
X43793Y-43197D01*
X43870Y-43230D01*
X43951Y-43248D01*
X44034Y-43250D01*
X44116Y-43236D01*
X44194Y-43205D01*
X44264Y-43161D01*
X44325Y-43103D01*
X44373Y-43035D01*
X44407Y-42959D01*
X44425Y-42878D01*
X44426Y-42783D01*
X44410Y-42701D01*
X44379Y-42624D01*
X44332Y-42554D01*
X44274Y-42495D01*
X44205Y-42449D01*
X44128Y-42416D01*
X44046Y-42400D01*
X43963Y-42399D01*
X43881Y-42415D01*
X43804Y-42446D01*
X43778Y-42462D01*
X42239Y-42462D01*
X42201Y-42437D01*
X42124Y-42405D01*
X42042Y-42388D01*
X41959Y-42387D01*
X41877Y-42403D01*
X41800Y-42434D01*
X41756Y-42462D01*
X39141Y-42462D01*
X39123Y-38181D01*
X40214Y-38181D01*
X40241Y-38179D01*
X40267Y-38176D01*
X40269Y-38176D01*
X40270Y-38176D01*
X40296Y-38168D01*
X40322Y-38160D01*
X40323Y-38160D01*
X40325Y-38159D01*
X40348Y-38147D01*
X40372Y-38134D01*
X40373Y-38133D01*
X40375Y-38133D01*
X40395Y-38116D01*
X40416Y-38099D01*
X40418Y-38097D01*
X40418Y-38097D01*
X40418Y-38097D01*
X40419Y-38096D01*
X41112Y-37404D01*
X41185Y-37404D01*
X41236Y-37482D01*
X41316Y-37565D01*
X41411Y-37631D01*
X41517Y-37678D01*
X41630Y-37702D01*
X41746Y-37705D01*
X41860Y-37685D01*
X41968Y-37643D01*
X42065Y-37581D01*
X42149Y-37501D01*
X42201Y-37428D01*
X42236Y-37482D01*
X42316Y-37565D01*
X42411Y-37631D01*
X42517Y-37678D01*
X42630Y-37702D01*
X42746Y-37705D01*
X42860Y-37685D01*
X42968Y-37643D01*
X43065Y-37581D01*
X43149Y-37501D01*
X43201Y-37428D01*
X43236Y-37482D01*
X43316Y-37565D01*
X43411Y-37631D01*
X43517Y-37678D01*
X43630Y-37702D01*
X43746Y-37705D01*
X43860Y-37685D01*
X43968Y-37643D01*
X44065Y-37581D01*
X44149Y-37501D01*
X44216Y-37407D01*
X44217Y-37404D01*
X44259Y-37470D01*
X44340Y-37553D01*
X44435Y-37619D01*
X44541Y-37666D01*
X44654Y-37691D01*
X44769Y-37693D01*
X44883Y-37673D01*
X44991Y-37631D01*
X45089Y-37569D01*
X45173Y-37489D01*
X45208Y-37439D01*
X45236Y-37482D01*
X45316Y-37565D01*
X45411Y-37631D01*
X45517Y-37678D01*
X45630Y-37702D01*
X45746Y-37705D01*
X45860Y-37685D01*
X45968Y-37643D01*
X46065Y-37581D01*
X46149Y-37501D01*
X46216Y-37407D01*
X46263Y-37301D01*
X46288Y-37188D01*
X46290Y-37056D01*
X46268Y-36942D01*
X46224Y-36835D01*
X46160Y-36739D01*
X46115Y-36694D01*
X46159Y-36675D01*
X46200Y-36648D01*
X46234Y-36613D01*
X46262Y-36572D01*
X46281Y-36527D01*
X46290Y-36478D01*
X46290Y-36429D01*
X46290Y-35749D01*
X46281Y-35701D01*
X46262Y-35655D01*
X46234Y-35614D01*
X46200Y-35579D01*
X46159Y-35552D01*
X46113Y-35533D01*
X46065Y-35524D01*
X46016Y-35524D01*
X45336Y-35524D01*
X45287Y-35533D01*
X45242Y-35552D01*
X45201Y-35579D01*
X45166Y-35614D01*
X45139Y-35655D01*
X45135Y-35665D01*
X45122Y-35678D01*
X45100Y-35547D01*
X44981Y-35480D01*
X44852Y-35437D01*
X44718Y-35421D01*
X44582Y-35431D01*
X44451Y-35467D01*
X44330Y-35528D01*
X44301Y-35547D01*
X44279Y-35678D01*
X44700Y-36100D01*
X44706Y-36094D01*
X44720Y-36108D01*
X44714Y-36114D01*
X44720Y-36119D01*
X44706Y-36133D01*
X44700Y-36128D01*
X44686Y-36142D01*
X44686Y-36114D01*
X44265Y-35692D01*
X44200Y-35703D01*
X44136Y-35692D01*
X44122Y-35707D01*
X44122Y-35678D01*
X44100Y-35547D01*
X43981Y-35480D01*
X43852Y-35437D01*
X43718Y-35421D01*
X43582Y-35431D01*
X43451Y-35467D01*
X43330Y-35528D01*
X43301Y-35547D01*
X43279Y-35678D01*
X43700Y-36100D01*
X44122Y-35678D01*
X44122Y-35707D01*
X43714Y-36114D01*
X44136Y-36535D01*
X44200Y-36524D01*
X44265Y-36535D01*
X44686Y-36114D01*
X44686Y-36142D01*
X44279Y-36549D01*
X44301Y-36680D01*
X44307Y-36684D01*
X44270Y-36721D01*
X44208Y-36811D01*
X44160Y-36739D01*
X44100Y-36679D01*
X44122Y-36549D01*
X43700Y-36128D01*
X43279Y-36549D01*
X43301Y-36679D01*
X43246Y-36733D01*
X43200Y-36800D01*
X43160Y-36739D01*
X43078Y-36657D01*
X43014Y-36613D01*
X43065Y-36581D01*
X43136Y-36513D01*
X43265Y-36535D01*
X43686Y-36114D01*
X43265Y-35692D01*
X43135Y-35714D01*
X43078Y-35657D01*
X42982Y-35592D01*
X42876Y-35547D01*
X42762Y-35524D01*
X42647Y-35523D01*
X42533Y-35545D01*
X42426Y-35588D01*
X42329Y-35652D01*
X42265Y-35714D01*
X42136Y-35692D01*
X42122Y-35707D01*
X42122Y-35678D01*
X42100Y-35547D01*
X41981Y-35480D01*
X41852Y-35437D01*
X41718Y-35421D01*
X41582Y-35431D01*
X41451Y-35467D01*
X41330Y-35528D01*
X41301Y-35547D01*
X41279Y-35678D01*
X41700Y-36100D01*
X42122Y-35678D01*
X42122Y-35707D01*
X41714Y-36114D01*
X42136Y-36535D01*
X42266Y-36513D01*
X42316Y-36565D01*
X42386Y-36614D01*
X42329Y-36652D01*
X42246Y-36733D01*
X42200Y-36800D01*
X42160Y-36739D01*
X42100Y-36679D01*
X42122Y-36549D01*
X41700Y-36128D01*
X41686Y-36142D01*
X41686Y-36114D01*
X41265Y-35692D01*
X41134Y-35714D01*
X41067Y-35833D01*
X41024Y-35962D01*
X41021Y-35986D01*
X41021Y-33844D01*
X40943Y-33736D01*
X40291Y-33736D01*
X40291Y-33744D01*
X40271Y-33744D01*
X40271Y-33736D01*
X39619Y-33736D01*
X39541Y-33844D01*
X39542Y-33851D01*
X39580Y-33981D01*
X39642Y-34101D01*
X39717Y-34196D01*
X39687Y-34227D01*
X39659Y-34267D01*
X39641Y-34313D01*
X39631Y-34361D01*
X39631Y-34411D01*
X39631Y-35091D01*
X39641Y-35139D01*
X39659Y-35184D01*
X39687Y-35225D01*
X39722Y-35260D01*
X39763Y-35287D01*
X39808Y-35306D01*
X39856Y-35316D01*
X39906Y-35316D01*
X40706Y-35316D01*
X40754Y-35306D01*
X40799Y-35287D01*
X40840Y-35260D01*
X40875Y-35225D01*
X40903Y-35184D01*
X40921Y-35139D01*
X40931Y-35091D01*
X40931Y-35041D01*
X40931Y-34361D01*
X40921Y-34313D01*
X40903Y-34267D01*
X40875Y-34227D01*
X40845Y-34196D01*
X40920Y-34101D01*
X40982Y-33981D01*
X41020Y-33851D01*
X41021Y-33844D01*
X41021Y-35986D01*
X41007Y-36096D01*
X41017Y-36232D01*
X41053Y-36363D01*
X41114Y-36484D01*
X41134Y-36513D01*
X41265Y-36535D01*
X41686Y-36114D01*
X41686Y-36142D01*
X41279Y-36549D01*
X41301Y-36679D01*
X41246Y-36733D01*
X41184Y-36824D01*
X40992Y-36824D01*
X40965Y-36826D01*
X40938Y-36829D01*
X40937Y-36829D01*
X40935Y-36829D01*
X40910Y-36837D01*
X40884Y-36844D01*
X40883Y-36845D01*
X40881Y-36846D01*
X40857Y-36858D01*
X40834Y-36870D01*
X40832Y-36871D01*
X40831Y-36872D01*
X40810Y-36889D01*
X40789Y-36906D01*
X40787Y-36908D01*
X40787Y-36908D01*
X40787Y-36908D01*
X40787Y-36909D01*
X40094Y-37601D01*
X39121Y-37601D01*
X39100Y-32309D01*
X39801Y-32309D01*
X39729Y-32396D01*
X39674Y-32497D01*
X39640Y-32607D01*
X39628Y-32722D01*
X39638Y-32836D01*
X39671Y-32947D01*
X39724Y-33049D01*
X39796Y-33139D01*
X39824Y-33162D01*
X39726Y-33245D01*
X39642Y-33351D01*
X39580Y-33471D01*
X39542Y-33601D01*
X39541Y-33608D01*
X39619Y-33716D01*
X40271Y-33716D01*
X40271Y-33708D01*
X40291Y-33708D01*
X40291Y-33716D01*
X40943Y-33716D01*
X41021Y-33608D01*
X41020Y-33601D01*
X40982Y-33471D01*
X40920Y-33351D01*
X40836Y-33245D01*
X40738Y-33162D01*
X40760Y-33145D01*
X40833Y-33056D01*
X40888Y-32955D01*
X40922Y-32845D01*
X40934Y-32730D01*
X40924Y-32615D01*
X40891Y-32505D01*
X40838Y-32403D01*
X40766Y-32313D01*
X40760Y-32309D01*
X46849Y-32309D01*
X46841Y-42874D01*
X56632Y-42890D01*
G54D10*
G36*
X54011Y-42160D02*
X53330Y-42157D01*
X53330Y-21212D01*
X53330Y-20519D01*
X52638Y-20519D01*
X52550Y-20607D01*
X52550Y-20915D01*
X52550Y-20984D01*
X52564Y-21051D01*
X52590Y-21115D01*
X52628Y-21172D01*
X52677Y-21221D01*
X52734Y-21260D01*
X52798Y-21286D01*
X52866Y-21299D01*
X53243Y-21299D01*
X53330Y-21212D01*
X53330Y-42157D01*
X47299Y-42129D01*
X47289Y-32309D01*
X47462Y-32309D01*
X47700Y-32547D01*
X47700Y-35474D01*
X47702Y-35501D01*
X47705Y-35527D01*
X47705Y-35529D01*
X47705Y-35530D01*
X47713Y-35556D01*
X47720Y-35582D01*
X47721Y-35583D01*
X47722Y-35584D01*
X47734Y-35608D01*
X47746Y-35632D01*
X47747Y-35633D01*
X47748Y-35634D01*
X47765Y-35655D01*
X47782Y-35676D01*
X47784Y-35678D01*
X47784Y-35678D01*
X47784Y-35678D01*
X47785Y-35679D01*
X48143Y-36037D01*
X48164Y-36054D01*
X48184Y-36071D01*
X48185Y-36072D01*
X48187Y-36073D01*
X48210Y-36086D01*
X48234Y-36099D01*
X48235Y-36099D01*
X48236Y-36100D01*
X48262Y-36108D01*
X48288Y-36116D01*
X48289Y-36116D01*
X48291Y-36116D01*
X48317Y-36119D01*
X48344Y-36122D01*
X48347Y-36122D01*
X48347Y-36122D01*
X48347Y-36122D01*
X48348Y-36122D01*
X48718Y-36122D01*
X48745Y-36120D01*
X48771Y-36117D01*
X48773Y-36117D01*
X48774Y-36117D01*
X48800Y-36109D01*
X48826Y-36101D01*
X48827Y-36101D01*
X48829Y-36100D01*
X48852Y-36088D01*
X48876Y-36075D01*
X48877Y-36074D01*
X48878Y-36074D01*
X48899Y-36057D01*
X48920Y-36040D01*
X48922Y-36038D01*
X48922Y-36038D01*
X48922Y-36038D01*
X48923Y-36037D01*
X49045Y-35915D01*
X49062Y-35894D01*
X49079Y-35874D01*
X49080Y-35873D01*
X49081Y-35871D01*
X49094Y-35848D01*
X49107Y-35824D01*
X49107Y-35823D01*
X49108Y-35822D01*
X49116Y-35796D01*
X49124Y-35770D01*
X49124Y-35769D01*
X49124Y-35767D01*
X49127Y-35741D01*
X49130Y-35714D01*
X49130Y-35711D01*
X49130Y-35711D01*
X49130Y-35711D01*
X49130Y-35710D01*
X49130Y-35623D01*
X49171Y-35632D01*
X49291Y-35634D01*
X49408Y-35613D01*
X49520Y-35570D01*
X49621Y-35506D01*
X49708Y-35424D01*
X49777Y-35326D01*
X49825Y-35217D01*
X49852Y-35100D01*
X49854Y-34963D01*
X49830Y-34846D01*
X49785Y-34735D01*
X49719Y-34636D01*
X49634Y-34551D01*
X49594Y-34523D01*
X49621Y-34506D01*
X49708Y-34424D01*
X49777Y-34326D01*
X49825Y-34217D01*
X49852Y-34100D01*
X49854Y-33963D01*
X49830Y-33846D01*
X49785Y-33735D01*
X49719Y-33636D01*
X49634Y-33551D01*
X49594Y-33523D01*
X49621Y-33506D01*
X49708Y-33424D01*
X49777Y-33326D01*
X49825Y-33217D01*
X49852Y-33100D01*
X49854Y-32963D01*
X49830Y-32846D01*
X49996Y-32681D01*
X50013Y-32660D01*
X50030Y-32640D01*
X50031Y-32638D01*
X50032Y-32637D01*
X50044Y-32614D01*
X50057Y-32590D01*
X50058Y-32589D01*
X50059Y-32587D01*
X50066Y-32562D01*
X50075Y-32536D01*
X50075Y-32535D01*
X50075Y-32533D01*
X50078Y-32507D01*
X50081Y-32480D01*
X50081Y-32477D01*
X50081Y-32477D01*
X50081Y-32477D01*
X50081Y-32476D01*
X50081Y-32270D01*
X50539Y-32728D01*
X50559Y-32745D01*
X50580Y-32762D01*
X50581Y-32763D01*
X50582Y-32764D01*
X50606Y-32777D01*
X50629Y-32790D01*
X50631Y-32790D01*
X50632Y-32791D01*
X50658Y-32799D01*
X50683Y-32807D01*
X50685Y-32807D01*
X50686Y-32807D01*
X50702Y-32809D01*
X50763Y-32904D01*
X50846Y-32990D01*
X50894Y-33023D01*
X50860Y-33045D01*
X50774Y-33129D01*
X50706Y-33228D01*
X50659Y-33338D01*
X50634Y-33455D01*
X50633Y-33574D01*
X50654Y-33692D01*
X50698Y-33803D01*
X50763Y-33904D01*
X50846Y-33990D01*
X50894Y-34023D01*
X50860Y-34045D01*
X50774Y-34129D01*
X50706Y-34228D01*
X50659Y-34338D01*
X50634Y-34455D01*
X50633Y-34574D01*
X50654Y-34692D01*
X50698Y-34803D01*
X50763Y-34904D01*
X50846Y-34990D01*
X50945Y-35058D01*
X51054Y-35106D01*
X51171Y-35132D01*
X51291Y-35134D01*
X51408Y-35113D01*
X51520Y-35070D01*
X51621Y-35006D01*
X51708Y-34924D01*
X51777Y-34826D01*
X51825Y-34717D01*
X51852Y-34600D01*
X51854Y-34463D01*
X51830Y-34346D01*
X51785Y-34235D01*
X51719Y-34136D01*
X51634Y-34051D01*
X51594Y-34023D01*
X51621Y-34006D01*
X51708Y-33924D01*
X51777Y-33826D01*
X51825Y-33717D01*
X51852Y-33600D01*
X51854Y-33463D01*
X51830Y-33346D01*
X52055Y-33122D01*
X52072Y-33101D01*
X52089Y-33081D01*
X52090Y-33079D01*
X52091Y-33078D01*
X52104Y-33055D01*
X52116Y-33031D01*
X52117Y-33030D01*
X52118Y-33028D01*
X52125Y-33003D01*
X52134Y-32977D01*
X52134Y-32976D01*
X52134Y-32974D01*
X52137Y-32947D01*
X52140Y-32921D01*
X52140Y-32918D01*
X52140Y-32918D01*
X52140Y-32918D01*
X52140Y-32917D01*
X52140Y-32220D01*
X52137Y-32193D01*
X52135Y-32167D01*
X52135Y-32165D01*
X52134Y-32164D01*
X52127Y-32138D01*
X52119Y-32112D01*
X52118Y-32111D01*
X52118Y-32109D01*
X52105Y-32086D01*
X52093Y-32062D01*
X52092Y-32061D01*
X52091Y-32059D01*
X52075Y-32039D01*
X52058Y-32018D01*
X52056Y-32016D01*
X52056Y-32016D01*
X52056Y-32016D01*
X52055Y-32015D01*
X51880Y-31840D01*
X51896Y-31813D01*
X51940Y-31680D01*
X51957Y-31541D01*
X51947Y-31402D01*
X51909Y-31267D01*
X51847Y-31142D01*
X51827Y-31112D01*
X51693Y-31088D01*
X51258Y-31523D01*
X51263Y-31529D01*
X51249Y-31543D01*
X51244Y-31537D01*
X51238Y-31543D01*
X51224Y-31529D01*
X51229Y-31523D01*
X50794Y-31088D01*
X50714Y-31102D01*
X50703Y-31082D01*
X50702Y-31081D01*
X50702Y-31079D01*
X50685Y-31058D01*
X50668Y-31037D01*
X50666Y-31035D01*
X50666Y-31035D01*
X50666Y-31035D01*
X50665Y-31035D01*
X49829Y-30199D01*
X49852Y-30100D01*
X49854Y-29963D01*
X49830Y-29846D01*
X49815Y-29809D01*
X50120Y-29809D01*
X50657Y-30347D01*
X50634Y-30455D01*
X50633Y-30574D01*
X50654Y-30692D01*
X50698Y-30803D01*
X50763Y-30904D01*
X50827Y-30970D01*
X50808Y-31074D01*
X51244Y-31509D01*
X51679Y-31074D01*
X51660Y-30969D01*
X51708Y-30924D01*
X51777Y-30826D01*
X51825Y-30717D01*
X51852Y-30600D01*
X51854Y-30463D01*
X51830Y-30346D01*
X51785Y-30235D01*
X51719Y-30136D01*
X51634Y-30051D01*
X51594Y-30023D01*
X51621Y-30006D01*
X51708Y-29924D01*
X51777Y-29826D01*
X51825Y-29717D01*
X51852Y-29600D01*
X51854Y-29463D01*
X51830Y-29346D01*
X51785Y-29235D01*
X51719Y-29136D01*
X51634Y-29051D01*
X51594Y-29023D01*
X51621Y-29006D01*
X51708Y-28924D01*
X51777Y-28826D01*
X51825Y-28717D01*
X51852Y-28600D01*
X51854Y-28463D01*
X51830Y-28346D01*
X51785Y-28235D01*
X51726Y-28147D01*
X51726Y-25484D01*
X51726Y-24806D01*
X51715Y-24689D01*
X51680Y-24576D01*
X51625Y-24472D01*
X51550Y-24380D01*
X51460Y-24305D01*
X51356Y-24249D01*
X51243Y-24214D01*
X51126Y-24202D01*
X51008Y-24212D01*
X50895Y-24246D01*
X50791Y-24300D01*
X50699Y-24374D01*
X50623Y-24465D01*
X50621Y-24467D01*
X50550Y-24380D01*
X50460Y-24305D01*
X50356Y-24249D01*
X50243Y-24214D01*
X50126Y-24202D01*
X50008Y-24212D01*
X49895Y-24246D01*
X49791Y-24300D01*
X49699Y-24374D01*
X49623Y-24465D01*
X49566Y-24568D01*
X49530Y-24680D01*
X49517Y-24798D01*
X49517Y-24806D01*
X49517Y-25484D01*
X49529Y-25602D01*
X49563Y-25715D01*
X49618Y-25819D01*
X49693Y-25910D01*
X49784Y-25985D01*
X49887Y-26041D01*
X50000Y-26076D01*
X50117Y-26089D01*
X50235Y-26078D01*
X50348Y-26045D01*
X50453Y-25990D01*
X50544Y-25916D01*
X50620Y-25826D01*
X50622Y-25823D01*
X50693Y-25910D01*
X50784Y-25985D01*
X50887Y-26041D01*
X51000Y-26076D01*
X51117Y-26089D01*
X51235Y-26078D01*
X51348Y-26045D01*
X51453Y-25990D01*
X51544Y-25916D01*
X51620Y-25826D01*
X51677Y-25722D01*
X51713Y-25610D01*
X51726Y-25493D01*
X51726Y-25484D01*
X51726Y-28147D01*
X51719Y-28136D01*
X51634Y-28051D01*
X51535Y-27984D01*
X51425Y-27938D01*
X51308Y-27914D01*
X51188Y-27913D01*
X51071Y-27935D01*
X50960Y-27980D01*
X50860Y-28045D01*
X50774Y-28129D01*
X50706Y-28228D01*
X50659Y-28338D01*
X50634Y-28455D01*
X50633Y-28574D01*
X50654Y-28692D01*
X50698Y-28803D01*
X50763Y-28904D01*
X50846Y-28990D01*
X50894Y-29023D01*
X50860Y-29045D01*
X50774Y-29129D01*
X50706Y-29228D01*
X50659Y-29338D01*
X50634Y-29455D01*
X50634Y-29503D01*
X50445Y-29314D01*
X50424Y-29297D01*
X50403Y-29280D01*
X50402Y-29279D01*
X50401Y-29278D01*
X50377Y-29266D01*
X50354Y-29253D01*
X50352Y-29252D01*
X50351Y-29251D01*
X50325Y-29244D01*
X50300Y-29236D01*
X50298Y-29235D01*
X50297Y-29235D01*
X50270Y-29232D01*
X50244Y-29229D01*
X50241Y-29229D01*
X50241Y-29229D01*
X50241Y-29229D01*
X50240Y-29229D01*
X49820Y-29229D01*
X49825Y-29217D01*
X49852Y-29100D01*
X49854Y-28963D01*
X49830Y-28846D01*
X49785Y-28735D01*
X49719Y-28636D01*
X49634Y-28551D01*
X49594Y-28523D01*
X49621Y-28506D01*
X49708Y-28424D01*
X49777Y-28326D01*
X49825Y-28217D01*
X49852Y-28100D01*
X49854Y-27963D01*
X49830Y-27846D01*
X49785Y-27735D01*
X49719Y-27636D01*
X49634Y-27551D01*
X49535Y-27484D01*
X49425Y-27438D01*
X49308Y-27414D01*
X49188Y-27413D01*
X49071Y-27435D01*
X48960Y-27480D01*
X48860Y-27545D01*
X48774Y-27629D01*
X48706Y-27728D01*
X48659Y-27838D01*
X48634Y-27955D01*
X48633Y-28074D01*
X48654Y-28192D01*
X48657Y-28199D01*
X48174Y-28682D01*
X48157Y-28703D01*
X48140Y-28723D01*
X48139Y-28725D01*
X48138Y-28726D01*
X48126Y-28750D01*
X48113Y-28773D01*
X48112Y-28775D01*
X48112Y-28776D01*
X48104Y-28801D01*
X48096Y-28827D01*
X48096Y-28829D01*
X48095Y-28830D01*
X48092Y-28857D01*
X48089Y-28883D01*
X48089Y-28886D01*
X48089Y-28886D01*
X48089Y-28886D01*
X48089Y-28887D01*
X48089Y-31137D01*
X47938Y-31289D01*
X47288Y-31289D01*
X47280Y-23121D01*
X45791Y-23119D01*
X45791Y-22588D01*
X45370Y-22167D01*
X44948Y-22588D01*
X44970Y-22720D01*
X45088Y-22787D01*
X45217Y-22829D01*
X45352Y-22846D01*
X45488Y-22836D01*
X45619Y-22800D01*
X45740Y-22739D01*
X45769Y-22720D01*
X45791Y-22588D01*
X45791Y-23119D01*
X44791Y-23118D01*
X44791Y-22588D01*
X44370Y-22167D01*
X43948Y-22588D01*
X43970Y-22720D01*
X44088Y-22787D01*
X44217Y-22829D01*
X44352Y-22846D01*
X44488Y-22836D01*
X44619Y-22800D01*
X44740Y-22739D01*
X44769Y-22720D01*
X44791Y-22588D01*
X44791Y-23118D01*
X43791Y-23118D01*
X43791Y-22588D01*
X43370Y-22167D01*
X42948Y-22588D01*
X42970Y-22720D01*
X43088Y-22787D01*
X43217Y-22829D01*
X43352Y-22846D01*
X43488Y-22836D01*
X43619Y-22800D01*
X43740Y-22739D01*
X43769Y-22720D01*
X43791Y-22588D01*
X43791Y-23118D01*
X42513Y-23116D01*
X42513Y-22829D01*
X42619Y-22800D01*
X42740Y-22739D01*
X42769Y-22720D01*
X42791Y-22588D01*
X42370Y-22167D01*
X42364Y-22173D01*
X42350Y-22159D01*
X42355Y-22153D01*
X42350Y-22147D01*
X42364Y-22133D01*
X42370Y-22139D01*
X42375Y-22133D01*
X42389Y-22147D01*
X42384Y-22153D01*
X42805Y-22574D01*
X42870Y-22564D01*
X42934Y-22574D01*
X43355Y-22153D01*
X43350Y-22147D01*
X43364Y-22133D01*
X43370Y-22139D01*
X43375Y-22133D01*
X43389Y-22147D01*
X43384Y-22153D01*
X43805Y-22574D01*
X43870Y-22564D01*
X43934Y-22574D01*
X44355Y-22153D01*
X44350Y-22147D01*
X44364Y-22133D01*
X44370Y-22139D01*
X44375Y-22133D01*
X44389Y-22147D01*
X44384Y-22153D01*
X44805Y-22574D01*
X44870Y-22564D01*
X44934Y-22574D01*
X45355Y-22153D01*
X45350Y-22147D01*
X45364Y-22133D01*
X45370Y-22139D01*
X45375Y-22133D01*
X45389Y-22147D01*
X45384Y-22153D01*
X45805Y-22574D01*
X45936Y-22552D01*
X46003Y-22434D01*
X46046Y-22305D01*
X46063Y-22170D01*
X46053Y-22035D01*
X46026Y-21937D01*
X48553Y-21937D01*
X48579Y-21935D01*
X48606Y-21932D01*
X48607Y-21932D01*
X48609Y-21932D01*
X48635Y-21924D01*
X48660Y-21916D01*
X48662Y-21916D01*
X48663Y-21915D01*
X48687Y-21903D01*
X48711Y-21890D01*
X48712Y-21889D01*
X48713Y-21889D01*
X48734Y-21872D01*
X48755Y-21855D01*
X48757Y-21853D01*
X48757Y-21853D01*
X48757Y-21853D01*
X48758Y-21852D01*
X49759Y-20851D01*
X49797Y-20878D01*
X49873Y-20912D01*
X49955Y-20929D01*
X50038Y-20931D01*
X50120Y-20917D01*
X50198Y-20887D01*
X50268Y-20842D01*
X50329Y-20784D01*
X50377Y-20716D01*
X50411Y-20640D01*
X50429Y-20559D01*
X50430Y-20464D01*
X50414Y-20382D01*
X50382Y-20305D01*
X50336Y-20235D01*
X50278Y-20176D01*
X50209Y-20130D01*
X50132Y-20097D01*
X50050Y-20081D01*
X49967Y-20080D01*
X49885Y-20096D01*
X49808Y-20127D01*
X49738Y-20173D01*
X49694Y-20215D01*
X49668Y-20218D01*
X49641Y-20220D01*
X49640Y-20221D01*
X49638Y-20221D01*
X49612Y-20229D01*
X49587Y-20236D01*
X49585Y-20237D01*
X49584Y-20237D01*
X49560Y-20250D01*
X49536Y-20262D01*
X49535Y-20263D01*
X49534Y-20264D01*
X49513Y-20281D01*
X49492Y-20298D01*
X49490Y-20300D01*
X49490Y-20300D01*
X49490Y-20300D01*
X49489Y-20300D01*
X48433Y-21357D01*
X46029Y-21357D01*
X46046Y-21305D01*
X46063Y-21170D01*
X46053Y-21035D01*
X46017Y-20904D01*
X45955Y-20782D01*
X45936Y-20754D01*
X45805Y-20732D01*
X45791Y-20746D01*
X45791Y-20718D01*
X45769Y-20586D01*
X45651Y-20519D01*
X45522Y-20477D01*
X45387Y-20460D01*
X45251Y-20470D01*
X45120Y-20506D01*
X44999Y-20567D01*
X44970Y-20586D01*
X44948Y-20718D01*
X45370Y-21139D01*
X45791Y-20718D01*
X45791Y-20746D01*
X45384Y-21153D01*
X45389Y-21159D01*
X45375Y-21173D01*
X45370Y-21167D01*
X45364Y-21173D01*
X45350Y-21159D01*
X45355Y-21153D01*
X44934Y-20732D01*
X44870Y-20743D01*
X44805Y-20732D01*
X44791Y-20746D01*
X44791Y-20718D01*
X44769Y-20586D01*
X44651Y-20519D01*
X44522Y-20477D01*
X44387Y-20460D01*
X44251Y-20470D01*
X44120Y-20506D01*
X43999Y-20567D01*
X43970Y-20586D01*
X43948Y-20718D01*
X44370Y-21139D01*
X44791Y-20718D01*
X44791Y-20746D01*
X44384Y-21153D01*
X44389Y-21159D01*
X44375Y-21173D01*
X44370Y-21167D01*
X44364Y-21173D01*
X44350Y-21159D01*
X44355Y-21153D01*
X43934Y-20732D01*
X43870Y-20743D01*
X43805Y-20732D01*
X43791Y-20746D01*
X43791Y-20718D01*
X43769Y-20586D01*
X43651Y-20519D01*
X43522Y-20477D01*
X43387Y-20460D01*
X43251Y-20470D01*
X43120Y-20506D01*
X42999Y-20567D01*
X42970Y-20586D01*
X42948Y-20718D01*
X43370Y-21139D01*
X43791Y-20718D01*
X43791Y-20746D01*
X43384Y-21153D01*
X43389Y-21159D01*
X43375Y-21173D01*
X43370Y-21167D01*
X43364Y-21173D01*
X43350Y-21159D01*
X43355Y-21153D01*
X42934Y-20732D01*
X42870Y-20743D01*
X42805Y-20732D01*
X42791Y-20746D01*
X42791Y-20718D01*
X42769Y-20586D01*
X42651Y-20519D01*
X42522Y-20477D01*
X42387Y-20460D01*
X42251Y-20470D01*
X42120Y-20506D01*
X41999Y-20567D01*
X41970Y-20586D01*
X41948Y-20718D01*
X42370Y-21139D01*
X42791Y-20718D01*
X42791Y-20746D01*
X42384Y-21153D01*
X42389Y-21159D01*
X42375Y-21173D01*
X42370Y-21167D01*
X42364Y-21173D01*
X42350Y-21159D01*
X42355Y-21153D01*
X41934Y-20732D01*
X41804Y-20753D01*
X41747Y-20696D01*
X41652Y-20632D01*
X41545Y-20587D01*
X41432Y-20563D01*
X41316Y-20563D01*
X41202Y-20584D01*
X41095Y-20628D01*
X40998Y-20691D01*
X40915Y-20772D01*
X40869Y-20839D01*
X40829Y-20778D01*
X40747Y-20696D01*
X40652Y-20632D01*
X40545Y-20587D01*
X40432Y-20563D01*
X40316Y-20563D01*
X40202Y-20584D01*
X40095Y-20628D01*
X39998Y-20691D01*
X39915Y-20772D01*
X39869Y-20839D01*
X39829Y-20778D01*
X39747Y-20696D01*
X39652Y-20632D01*
X39545Y-20587D01*
X39432Y-20563D01*
X39316Y-20563D01*
X39210Y-20583D01*
X39092Y-20466D01*
X39072Y-20449D01*
X39051Y-20431D01*
X39050Y-20431D01*
X39049Y-20430D01*
X39025Y-20417D01*
X39002Y-20404D01*
X39000Y-20404D01*
X38999Y-20403D01*
X38973Y-20395D01*
X38948Y-20387D01*
X38946Y-20387D01*
X38945Y-20386D01*
X38918Y-20384D01*
X38891Y-20381D01*
X38888Y-20381D01*
X38888Y-20381D01*
X38888Y-20381D01*
X38887Y-20381D01*
X38139Y-20381D01*
X38113Y-20383D01*
X38086Y-20386D01*
X38084Y-20386D01*
X38083Y-20386D01*
X38057Y-20394D01*
X38032Y-20401D01*
X38030Y-20402D01*
X38029Y-20403D01*
X38005Y-20415D01*
X37981Y-20428D01*
X37980Y-20428D01*
X37979Y-20429D01*
X37958Y-20446D01*
X37937Y-20463D01*
X37935Y-20465D01*
X37935Y-20465D01*
X37935Y-20465D01*
X37934Y-20466D01*
X37721Y-20679D01*
X37652Y-20632D01*
X37545Y-20587D01*
X37432Y-20563D01*
X37316Y-20563D01*
X37202Y-20584D01*
X37095Y-20628D01*
X36998Y-20691D01*
X36915Y-20772D01*
X36869Y-20839D01*
X36829Y-20778D01*
X36747Y-20696D01*
X36652Y-20632D01*
X36545Y-20587D01*
X36432Y-20563D01*
X36316Y-20563D01*
X36202Y-20584D01*
X36095Y-20628D01*
X36056Y-20653D01*
X35683Y-20653D01*
X35652Y-20632D01*
X35545Y-20587D01*
X35432Y-20563D01*
X35316Y-20563D01*
X35202Y-20584D01*
X35095Y-20628D01*
X35056Y-20653D01*
X34683Y-20653D01*
X34652Y-20632D01*
X34545Y-20587D01*
X34432Y-20563D01*
X34316Y-20563D01*
X34202Y-20584D01*
X34095Y-20628D01*
X34056Y-20653D01*
X33683Y-20653D01*
X33652Y-20632D01*
X33545Y-20587D01*
X33432Y-20563D01*
X33316Y-20563D01*
X33202Y-20584D01*
X33095Y-20628D01*
X32998Y-20691D01*
X32915Y-20772D01*
X32852Y-20865D01*
X32821Y-20834D01*
X32752Y-20787D01*
X32675Y-20755D01*
X32593Y-20738D01*
X32510Y-20738D01*
X32428Y-20753D01*
X32351Y-20784D01*
X32281Y-20830D01*
X32222Y-20888D01*
X32174Y-20957D01*
X32142Y-21034D01*
X32124Y-21115D01*
X32123Y-21199D01*
X32138Y-21281D01*
X32169Y-21358D01*
X32214Y-21428D01*
X32272Y-21488D01*
X32340Y-21536D01*
X32417Y-21569D01*
X32498Y-21587D01*
X32564Y-21588D01*
X32780Y-21804D01*
X32780Y-21838D01*
X32780Y-22518D01*
X32789Y-22566D01*
X32808Y-22611D01*
X32835Y-22652D01*
X32870Y-22687D01*
X32911Y-22715D01*
X32957Y-22733D01*
X33005Y-22743D01*
X33054Y-22743D01*
X33734Y-22743D01*
X33783Y-22733D01*
X33828Y-22715D01*
X33869Y-22687D01*
X33903Y-22653D01*
X34055Y-22653D01*
X34080Y-22671D01*
X34186Y-22717D01*
X34299Y-22742D01*
X34415Y-22744D01*
X34529Y-22724D01*
X34637Y-22682D01*
X34683Y-22653D01*
X35055Y-22653D01*
X35080Y-22671D01*
X35186Y-22717D01*
X35299Y-22742D01*
X35415Y-22744D01*
X35529Y-22724D01*
X35637Y-22682D01*
X35683Y-22653D01*
X36055Y-22653D01*
X36080Y-22671D01*
X36186Y-22717D01*
X36299Y-22742D01*
X36415Y-22744D01*
X36529Y-22724D01*
X36637Y-22682D01*
X36735Y-22620D01*
X36818Y-22540D01*
X36870Y-22468D01*
X36870Y-22724D01*
X36874Y-22770D01*
X36878Y-22816D01*
X36879Y-22818D01*
X36879Y-22821D01*
X36892Y-22865D01*
X36905Y-22910D01*
X36907Y-22912D01*
X36907Y-22914D01*
X36929Y-22955D01*
X36950Y-22996D01*
X36952Y-22998D01*
X36953Y-23001D01*
X36982Y-23036D01*
X37011Y-23072D01*
X37015Y-23076D01*
X37015Y-23076D01*
X37015Y-23076D01*
X37016Y-23077D01*
X37499Y-23561D01*
X36662Y-23561D01*
X36574Y-23648D01*
X36574Y-24528D01*
X36574Y-25220D01*
X37266Y-25220D01*
X38146Y-25220D01*
X38233Y-25132D01*
X38233Y-24295D01*
X38731Y-24792D01*
X38731Y-27844D01*
X38731Y-28014D01*
X38681Y-27980D01*
X38604Y-27948D01*
X38522Y-27931D01*
X38439Y-27931D01*
X38357Y-27946D01*
X38280Y-27977D01*
X38233Y-28008D01*
X38233Y-26583D01*
X38233Y-25327D01*
X38146Y-25240D01*
X37266Y-25240D01*
X36574Y-25240D01*
X36574Y-25932D01*
X36574Y-26811D01*
X36662Y-26899D01*
X37849Y-26899D01*
X37918Y-26899D01*
X37985Y-26885D01*
X38049Y-26859D01*
X38106Y-26821D01*
X38155Y-26772D01*
X38193Y-26715D01*
X38220Y-26651D01*
X38233Y-26583D01*
X38233Y-28008D01*
X38210Y-28023D01*
X38151Y-28081D01*
X38104Y-28150D01*
X38071Y-28227D01*
X38053Y-28308D01*
X38052Y-28392D01*
X38067Y-28474D01*
X38098Y-28551D01*
X38143Y-28621D01*
X38188Y-28667D01*
X38188Y-29570D01*
X37863Y-29895D01*
X37809Y-29895D01*
X37727Y-29911D01*
X37650Y-29942D01*
X37580Y-29988D01*
X37521Y-30046D01*
X37474Y-30115D01*
X37441Y-30191D01*
X37424Y-30273D01*
X37422Y-30356D01*
X37437Y-30438D01*
X37468Y-30516D01*
X37513Y-30586D01*
X37571Y-30646D01*
X37640Y-30693D01*
X37716Y-30727D01*
X37797Y-30744D01*
X37881Y-30746D01*
X37963Y-30732D01*
X38040Y-30702D01*
X38111Y-30657D01*
X38171Y-30599D01*
X38219Y-30531D01*
X38253Y-30455D01*
X38272Y-30374D01*
X38273Y-30306D01*
X38683Y-29896D01*
X38700Y-29875D01*
X38717Y-29854D01*
X38718Y-29853D01*
X38719Y-29852D01*
X38731Y-29828D01*
X38735Y-29822D01*
X38737Y-31007D01*
X38673Y-30964D01*
X38596Y-30932D01*
X38515Y-30915D01*
X38431Y-30915D01*
X38349Y-30930D01*
X38272Y-30962D01*
X38202Y-31007D01*
X38143Y-31066D01*
X38096Y-31134D01*
X38063Y-31211D01*
X38046Y-31292D01*
X38044Y-31376D01*
X38058Y-31449D01*
X37245Y-31449D01*
X37245Y-28479D01*
X37229Y-28398D01*
X37197Y-28321D01*
X37151Y-28251D01*
X37093Y-28192D01*
X37023Y-28145D01*
X36947Y-28113D01*
X36865Y-28096D01*
X36805Y-28096D01*
X36358Y-27649D01*
X36337Y-27632D01*
X36317Y-27615D01*
X36316Y-27614D01*
X36314Y-27613D01*
X36291Y-27600D01*
X36267Y-27587D01*
X36266Y-27587D01*
X36264Y-27586D01*
X36239Y-27578D01*
X36213Y-27570D01*
X36212Y-27570D01*
X36210Y-27570D01*
X36184Y-27567D01*
X36157Y-27564D01*
X36154Y-27564D01*
X36154Y-27564D01*
X36154Y-27564D01*
X36153Y-27564D01*
X35448Y-27564D01*
X35410Y-27525D01*
X35340Y-27478D01*
X35264Y-27446D01*
X35182Y-27429D01*
X35099Y-27429D01*
X35017Y-27444D01*
X34939Y-27475D01*
X34870Y-27521D01*
X34810Y-27579D01*
X34763Y-27648D01*
X34730Y-27725D01*
X34713Y-27806D01*
X34712Y-27890D01*
X34727Y-27972D01*
X34757Y-28049D01*
X34803Y-28119D01*
X34861Y-28179D01*
X34929Y-28227D01*
X35005Y-28260D01*
X35087Y-28278D01*
X35170Y-28280D01*
X35252Y-28265D01*
X35330Y-28235D01*
X35400Y-28190D01*
X35449Y-28144D01*
X36033Y-28144D01*
X36396Y-28506D01*
X36395Y-28557D01*
X36410Y-28639D01*
X36441Y-28716D01*
X36486Y-28786D01*
X36544Y-28846D01*
X36612Y-28894D01*
X36688Y-28927D01*
X36770Y-28945D01*
X36853Y-28947D01*
X36935Y-28932D01*
X37013Y-28902D01*
X37083Y-28858D01*
X37144Y-28800D01*
X37192Y-28732D01*
X37226Y-28656D01*
X37244Y-28575D01*
X37245Y-28479D01*
X37245Y-31449D01*
X36446Y-31449D01*
X36446Y-30424D01*
X36430Y-30343D01*
X36398Y-30266D01*
X36352Y-30196D01*
X36293Y-30137D01*
X36224Y-30090D01*
X36147Y-30058D01*
X36066Y-30041D01*
X36006Y-30041D01*
X35910Y-29945D01*
X35911Y-29877D01*
X35895Y-29795D01*
X35863Y-29718D01*
X35817Y-29649D01*
X35758Y-29590D01*
X35689Y-29543D01*
X35612Y-29511D01*
X35530Y-29494D01*
X35447Y-29493D01*
X35365Y-29509D01*
X35288Y-29540D01*
X35218Y-29586D01*
X35159Y-29644D01*
X35111Y-29713D01*
X35079Y-29790D01*
X35061Y-29871D01*
X35060Y-29955D01*
X35075Y-30037D01*
X35106Y-30114D01*
X35151Y-30184D01*
X35209Y-30244D01*
X35277Y-30292D01*
X35354Y-30325D01*
X35435Y-30343D01*
X35489Y-30344D01*
X35596Y-30451D01*
X35596Y-30502D01*
X35611Y-30584D01*
X35641Y-30661D01*
X35686Y-30731D01*
X35744Y-30791D01*
X35813Y-30839D01*
X35889Y-30872D01*
X35971Y-30890D01*
X36054Y-30892D01*
X36136Y-30877D01*
X36214Y-30847D01*
X36284Y-30803D01*
X36344Y-30745D01*
X36392Y-30677D01*
X36426Y-30601D01*
X36445Y-30520D01*
X36446Y-30424D01*
X36446Y-31449D01*
X33857Y-31449D01*
X33857Y-29265D01*
X33857Y-29216D01*
X33857Y-28336D01*
X33847Y-28288D01*
X33828Y-28242D01*
X33801Y-28201D01*
X33766Y-28166D01*
X33725Y-28139D01*
X33680Y-28120D01*
X33631Y-28111D01*
X33582Y-28111D01*
X32702Y-28111D01*
X32654Y-28120D01*
X32608Y-28139D01*
X32567Y-28166D01*
X32533Y-28201D01*
X32505Y-28242D01*
X32486Y-28288D01*
X32477Y-28336D01*
X32477Y-28385D01*
X32477Y-29265D01*
X32486Y-29314D01*
X32505Y-29359D01*
X32533Y-29400D01*
X32567Y-29435D01*
X32608Y-29462D01*
X32654Y-29481D01*
X32702Y-29491D01*
X32751Y-29491D01*
X33631Y-29491D01*
X33680Y-29481D01*
X33725Y-29462D01*
X33766Y-29435D01*
X33801Y-29400D01*
X33828Y-29359D01*
X33847Y-29314D01*
X33857Y-29265D01*
X33857Y-31449D01*
X30234Y-31449D01*
X30438Y-31245D01*
X30458Y-31220D01*
X30479Y-31195D01*
X30480Y-31194D01*
X30481Y-31192D01*
X30497Y-31164D01*
X30512Y-31135D01*
X30513Y-31134D01*
X30514Y-31132D01*
X30523Y-31101D01*
X30533Y-31070D01*
X30533Y-31068D01*
X30534Y-31067D01*
X30537Y-31035D01*
X30540Y-31002D01*
X30540Y-30999D01*
X30540Y-30999D01*
X30540Y-30999D01*
X30540Y-30998D01*
X30540Y-28163D01*
X30537Y-28131D01*
X30534Y-28099D01*
X30534Y-28097D01*
X30534Y-28095D01*
X30524Y-28064D01*
X30515Y-28033D01*
X30515Y-28031D01*
X30514Y-28030D01*
X30499Y-28001D01*
X30484Y-27972D01*
X30483Y-27971D01*
X30482Y-27969D01*
X30462Y-27944D01*
X30441Y-27919D01*
X30439Y-27916D01*
X30439Y-27916D01*
X30439Y-27916D01*
X30438Y-27915D01*
X30046Y-27523D01*
X30418Y-27151D01*
X34781Y-27151D01*
X34799Y-27197D01*
X34844Y-27267D01*
X34902Y-27327D01*
X34970Y-27374D01*
X35047Y-27408D01*
X35128Y-27426D01*
X35211Y-27427D01*
X35293Y-27413D01*
X35371Y-27383D01*
X35442Y-27338D01*
X35502Y-27281D01*
X35550Y-27212D01*
X35584Y-27136D01*
X35602Y-27055D01*
X35604Y-26960D01*
X35592Y-26899D01*
X36467Y-26899D01*
X36554Y-26811D01*
X36554Y-25932D01*
X36554Y-25240D01*
X36554Y-25220D01*
X36554Y-24528D01*
X36554Y-23648D01*
X36467Y-23561D01*
X35280Y-23561D01*
X35211Y-23561D01*
X35143Y-23574D01*
X35080Y-23601D01*
X35022Y-23639D01*
X34974Y-23688D01*
X34935Y-23745D01*
X34909Y-23809D01*
X34895Y-23876D01*
X34895Y-25132D01*
X34983Y-25220D01*
X35862Y-25220D01*
X36554Y-25220D01*
X36554Y-25240D01*
X35862Y-25240D01*
X34983Y-25240D01*
X34895Y-25327D01*
X34895Y-26451D01*
X30273Y-26451D01*
X30241Y-26454D01*
X30209Y-26457D01*
X30207Y-26457D01*
X30205Y-26457D01*
X30174Y-26467D01*
X30143Y-26476D01*
X30142Y-26477D01*
X30140Y-26477D01*
X30111Y-26492D01*
X30082Y-26507D01*
X30081Y-26508D01*
X30079Y-26509D01*
X30054Y-26530D01*
X30029Y-26550D01*
X30027Y-26552D01*
X30027Y-26552D01*
X30026Y-26552D01*
X30026Y-26553D01*
X29474Y-27105D01*
X29430Y-27113D01*
X29353Y-27145D01*
X29283Y-27190D01*
X29224Y-27249D01*
X29176Y-27317D01*
X29144Y-27394D01*
X29126Y-27476D01*
X29125Y-27559D01*
X29140Y-27641D01*
X29171Y-27718D01*
X29216Y-27788D01*
X29274Y-27848D01*
X29342Y-27896D01*
X29419Y-27929D01*
X29474Y-27941D01*
X29840Y-28308D01*
X29840Y-28387D01*
X29780Y-28326D01*
X29681Y-28260D01*
X29571Y-28213D01*
X29453Y-28189D01*
X29334Y-28188D01*
X29216Y-28211D01*
X29105Y-28256D01*
X29073Y-28277D01*
X29073Y-26252D01*
X29073Y-25574D01*
X29061Y-25456D01*
X29027Y-25343D01*
X28972Y-25239D01*
X28897Y-25148D01*
X28806Y-25073D01*
X28702Y-25017D01*
X28590Y-24982D01*
X28472Y-24969D01*
X28355Y-24980D01*
X28242Y-25013D01*
X28137Y-25068D01*
X28045Y-25142D01*
X27969Y-25232D01*
X27968Y-25235D01*
X27897Y-25148D01*
X27806Y-25073D01*
X27702Y-25017D01*
X27590Y-24982D01*
X27472Y-24969D01*
X27355Y-24980D01*
X27242Y-25013D01*
X27137Y-25068D01*
X27045Y-25142D01*
X26969Y-25232D01*
X26912Y-25336D01*
X26877Y-25448D01*
X26864Y-25565D01*
X26864Y-25574D01*
X26864Y-26252D01*
X26875Y-26369D01*
X26909Y-26482D01*
X26965Y-26586D01*
X27039Y-26678D01*
X27130Y-26753D01*
X27234Y-26809D01*
X27346Y-26844D01*
X27464Y-26856D01*
X27581Y-26846D01*
X27694Y-26812D01*
X27799Y-26758D01*
X27891Y-26684D01*
X27967Y-26593D01*
X27968Y-26591D01*
X28039Y-26678D01*
X28130Y-26753D01*
X28234Y-26809D01*
X28346Y-26844D01*
X28464Y-26856D01*
X28581Y-26846D01*
X28694Y-26812D01*
X28799Y-26758D01*
X28891Y-26684D01*
X28967Y-26593D01*
X29024Y-26490D01*
X29059Y-26378D01*
X29072Y-26260D01*
X29073Y-26252D01*
X29073Y-28277D01*
X29005Y-28321D01*
X28920Y-28405D01*
X28852Y-28503D01*
X28805Y-28613D01*
X28780Y-28730D01*
X28778Y-28850D01*
X28800Y-28968D01*
X28844Y-29079D01*
X28909Y-29179D01*
X28992Y-29265D01*
X29040Y-29299D01*
X29005Y-29321D01*
X28920Y-29405D01*
X28852Y-29503D01*
X28805Y-29613D01*
X28780Y-29730D01*
X28778Y-29850D01*
X28800Y-29968D01*
X28844Y-30079D01*
X28909Y-30179D01*
X28992Y-30265D01*
X29040Y-30299D01*
X29005Y-30321D01*
X28920Y-30405D01*
X28852Y-30503D01*
X28805Y-30613D01*
X28780Y-30730D01*
X28778Y-30850D01*
X28800Y-30968D01*
X28803Y-30975D01*
X28548Y-31229D01*
X28531Y-31250D01*
X28514Y-31271D01*
X28513Y-31272D01*
X28512Y-31273D01*
X28500Y-31297D01*
X28499Y-31298D01*
X28295Y-31094D01*
X28274Y-31077D01*
X28254Y-31059D01*
X28253Y-31059D01*
X28251Y-31058D01*
X28228Y-31045D01*
X28204Y-31032D01*
X28203Y-31032D01*
X28201Y-31031D01*
X28176Y-31023D01*
X28150Y-31015D01*
X28149Y-31015D01*
X28147Y-31014D01*
X28121Y-31012D01*
X28094Y-31009D01*
X28091Y-31009D01*
X28091Y-31009D01*
X28091Y-31009D01*
X28090Y-31009D01*
X27929Y-31009D01*
X27864Y-30911D01*
X27780Y-30826D01*
X27739Y-30799D01*
X27767Y-30782D01*
X27853Y-30699D01*
X27922Y-30601D01*
X27971Y-30492D01*
X27997Y-30376D01*
X27999Y-30239D01*
X27976Y-30122D01*
X27930Y-30011D01*
X27864Y-29911D01*
X27780Y-29826D01*
X27739Y-29799D01*
X27767Y-29782D01*
X27853Y-29699D01*
X27922Y-29601D01*
X27971Y-29492D01*
X27997Y-29376D01*
X27999Y-29239D01*
X27976Y-29122D01*
X27930Y-29011D01*
X27864Y-28911D01*
X27780Y-28826D01*
X27681Y-28760D01*
X27571Y-28713D01*
X27453Y-28689D01*
X27334Y-28688D01*
X27216Y-28711D01*
X27105Y-28756D01*
X27005Y-28821D01*
X26920Y-28905D01*
X26852Y-29003D01*
X26805Y-29113D01*
X26780Y-29230D01*
X26778Y-29350D01*
X26800Y-29468D01*
X26844Y-29579D01*
X26909Y-29679D01*
X26992Y-29765D01*
X27040Y-29799D01*
X27005Y-29821D01*
X26920Y-29905D01*
X26852Y-30003D01*
X26805Y-30113D01*
X26780Y-30230D01*
X26778Y-30350D01*
X26800Y-30468D01*
X26803Y-30475D01*
X26466Y-30812D01*
X26449Y-30833D01*
X26431Y-30853D01*
X26431Y-30855D01*
X26430Y-30856D01*
X26417Y-30880D01*
X26404Y-30903D01*
X26404Y-30904D01*
X26403Y-30906D01*
X26395Y-30931D01*
X26387Y-30957D01*
X26387Y-30958D01*
X26386Y-30960D01*
X26384Y-30987D01*
X26381Y-31013D01*
X26381Y-31016D01*
X26381Y-31016D01*
X26381Y-31016D01*
X26381Y-31017D01*
X26381Y-31328D01*
X26383Y-31355D01*
X26386Y-31382D01*
X26386Y-31383D01*
X26386Y-31385D01*
X26394Y-31410D01*
X26401Y-31436D01*
X26402Y-31437D01*
X26403Y-31439D01*
X26415Y-31462D01*
X26428Y-31486D01*
X26428Y-31487D01*
X26429Y-31489D01*
X26446Y-31509D01*
X26463Y-31530D01*
X26465Y-31533D01*
X26465Y-31533D01*
X26465Y-31533D01*
X26466Y-31533D01*
X26818Y-31885D01*
X26806Y-31887D01*
X26737Y-32009D01*
X26693Y-32142D01*
X26676Y-32281D01*
X26686Y-32420D01*
X26723Y-32555D01*
X26786Y-32680D01*
X26806Y-32710D01*
X26940Y-32734D01*
X27375Y-32299D01*
X27370Y-32293D01*
X27384Y-32279D01*
X27389Y-32285D01*
X27395Y-32279D01*
X27409Y-32293D01*
X27403Y-32299D01*
X27839Y-32734D01*
X27918Y-32720D01*
X27928Y-32738D01*
X27928Y-32739D01*
X27929Y-32741D01*
X27946Y-32761D01*
X27963Y-32782D01*
X27965Y-32785D01*
X27965Y-32785D01*
X27965Y-32785D01*
X27966Y-32785D01*
X28803Y-33623D01*
X28780Y-33730D01*
X28778Y-33850D01*
X28800Y-33968D01*
X28819Y-34015D01*
X28515Y-34015D01*
X27975Y-33474D01*
X27997Y-33376D01*
X27999Y-33239D01*
X27976Y-33122D01*
X27930Y-33011D01*
X27864Y-32911D01*
X27806Y-32852D01*
X27825Y-32748D01*
X27389Y-32313D01*
X26954Y-32748D01*
X26973Y-32853D01*
X26920Y-32905D01*
X26866Y-32983D01*
X26863Y-32974D01*
X26817Y-32905D01*
X26758Y-32846D01*
X26689Y-32799D01*
X26612Y-32767D01*
X26530Y-32750D01*
X26447Y-32749D01*
X26365Y-32765D01*
X26288Y-32796D01*
X26218Y-32842D01*
X26159Y-32900D01*
X26111Y-32969D01*
X26079Y-33046D01*
X26061Y-33127D01*
X26060Y-33210D01*
X26075Y-33292D01*
X26106Y-33370D01*
X26151Y-33440D01*
X26196Y-33486D01*
X26196Y-35419D01*
X26198Y-35445D01*
X26201Y-35472D01*
X26201Y-35474D01*
X26201Y-35475D01*
X26209Y-35501D01*
X26216Y-35526D01*
X26217Y-35528D01*
X26218Y-35529D01*
X26230Y-35553D01*
X26243Y-35577D01*
X26243Y-35578D01*
X26244Y-35579D01*
X26261Y-35600D01*
X26278Y-35621D01*
X26280Y-35623D01*
X26280Y-35623D01*
X26280Y-35623D01*
X26281Y-35624D01*
X26687Y-36030D01*
X26686Y-36081D01*
X26701Y-36162D01*
X26732Y-36240D01*
X26777Y-36310D01*
X26835Y-36370D01*
X26903Y-36418D01*
X26980Y-36451D01*
X27061Y-36469D01*
X27144Y-36471D01*
X27227Y-36456D01*
X27304Y-36426D01*
X27375Y-36381D01*
X27435Y-36324D01*
X27483Y-36256D01*
X27517Y-36180D01*
X27535Y-36098D01*
X27537Y-36003D01*
X27521Y-35921D01*
X27510Y-35897D01*
X27554Y-35889D01*
X27666Y-35846D01*
X27767Y-35782D01*
X27853Y-35699D01*
X27922Y-35601D01*
X27971Y-35492D01*
X27997Y-35376D01*
X27999Y-35239D01*
X27976Y-35122D01*
X27930Y-35011D01*
X27864Y-34911D01*
X27780Y-34826D01*
X27739Y-34799D01*
X27767Y-34782D01*
X27853Y-34699D01*
X27922Y-34601D01*
X27971Y-34492D01*
X27997Y-34376D01*
X27998Y-34318D01*
X28190Y-34510D01*
X28211Y-34527D01*
X28231Y-34544D01*
X28233Y-34545D01*
X28234Y-34546D01*
X28257Y-34558D01*
X28281Y-34571D01*
X28282Y-34572D01*
X28284Y-34572D01*
X28309Y-34580D01*
X28335Y-34588D01*
X28336Y-34588D01*
X28338Y-34589D01*
X28365Y-34592D01*
X28391Y-34595D01*
X28394Y-34595D01*
X28394Y-34595D01*
X28394Y-34595D01*
X28395Y-34595D01*
X28813Y-34595D01*
X28805Y-34613D01*
X28780Y-34730D01*
X28778Y-34850D01*
X28800Y-34968D01*
X28844Y-35079D01*
X28909Y-35179D01*
X28992Y-35265D01*
X29040Y-35299D01*
X29005Y-35321D01*
X28920Y-35405D01*
X28852Y-35503D01*
X28805Y-35613D01*
X28780Y-35730D01*
X28778Y-35850D01*
X28800Y-35968D01*
X28844Y-36079D01*
X28909Y-36179D01*
X28992Y-36265D01*
X29090Y-36334D01*
X29200Y-36382D01*
X29317Y-36407D01*
X29436Y-36410D01*
X29554Y-36389D01*
X29666Y-36346D01*
X29767Y-36282D01*
X29853Y-36199D01*
X29922Y-36101D01*
X29971Y-35992D01*
X29997Y-35876D01*
X29999Y-35739D01*
X29976Y-35622D01*
X29930Y-35511D01*
X29864Y-35411D01*
X29780Y-35326D01*
X29739Y-35299D01*
X29767Y-35282D01*
X29853Y-35199D01*
X29922Y-35101D01*
X29971Y-34992D01*
X29997Y-34876D01*
X29999Y-34739D01*
X29976Y-34622D01*
X29930Y-34511D01*
X29878Y-34432D01*
X30175Y-34136D01*
X30192Y-34115D01*
X30209Y-34094D01*
X30210Y-34093D01*
X30211Y-34092D01*
X30224Y-34068D01*
X30237Y-34045D01*
X30237Y-34043D01*
X30238Y-34042D01*
X30246Y-34016D01*
X30254Y-33991D01*
X30254Y-33989D01*
X30254Y-33988D01*
X30257Y-33961D01*
X30260Y-33935D01*
X30260Y-33932D01*
X30260Y-33932D01*
X30260Y-33932D01*
X30260Y-33931D01*
X30260Y-33465D01*
X31670Y-33465D01*
X31670Y-33639D01*
X31679Y-33688D01*
X31698Y-33733D01*
X31726Y-33774D01*
X31760Y-33809D01*
X31801Y-33836D01*
X31847Y-33855D01*
X31895Y-33865D01*
X31944Y-33865D01*
X32824Y-33865D01*
X32873Y-33855D01*
X32918Y-33836D01*
X32959Y-33809D01*
X32994Y-33774D01*
X33021Y-33733D01*
X33040Y-33688D01*
X33050Y-33639D01*
X33050Y-33590D01*
X33050Y-33378D01*
X33693Y-33378D01*
X33655Y-33434D01*
X33622Y-33510D01*
X33605Y-33592D01*
X33603Y-33675D01*
X33619Y-33757D01*
X33649Y-33834D01*
X33694Y-33905D01*
X33752Y-33964D01*
X33821Y-34012D01*
X33897Y-34045D01*
X33978Y-34063D01*
X34062Y-34065D01*
X34144Y-34051D01*
X34222Y-34020D01*
X34292Y-33976D01*
X34352Y-33918D01*
X34372Y-33890D01*
X37190Y-33890D01*
X37217Y-33887D01*
X37244Y-33885D01*
X37245Y-33885D01*
X37247Y-33884D01*
X37272Y-33877D01*
X37298Y-33869D01*
X37299Y-33868D01*
X37301Y-33868D01*
X37325Y-33855D01*
X37348Y-33843D01*
X37350Y-33842D01*
X37351Y-33841D01*
X37372Y-33825D01*
X37393Y-33808D01*
X37395Y-33806D01*
X37395Y-33806D01*
X37395Y-33806D01*
X37396Y-33805D01*
X37766Y-33434D01*
X37814Y-33435D01*
X37896Y-33421D01*
X37974Y-33391D01*
X38044Y-33346D01*
X38104Y-33288D01*
X38152Y-33220D01*
X38186Y-33144D01*
X38205Y-33063D01*
X38206Y-32968D01*
X38190Y-32886D01*
X38158Y-32809D01*
X38112Y-32739D01*
X38053Y-32680D01*
X37984Y-32634D01*
X37907Y-32601D01*
X37826Y-32585D01*
X37742Y-32584D01*
X37660Y-32600D01*
X37583Y-32631D01*
X37574Y-32637D01*
X37523Y-32602D01*
X37447Y-32570D01*
X37365Y-32553D01*
X37282Y-32553D01*
X37200Y-32568D01*
X37123Y-32599D01*
X37053Y-32645D01*
X37009Y-32688D01*
X36165Y-32688D01*
X35902Y-32425D01*
X35903Y-32369D01*
X35891Y-32309D01*
X38739Y-32309D01*
X38749Y-37601D01*
X36938Y-37601D01*
X36938Y-35346D01*
X36922Y-35264D01*
X36890Y-35187D01*
X36844Y-35117D01*
X36785Y-35058D01*
X36716Y-35012D01*
X36640Y-34979D01*
X36558Y-34963D01*
X36475Y-34962D01*
X36393Y-34978D01*
X36315Y-35009D01*
X36246Y-35054D01*
X36206Y-35093D01*
X35739Y-35093D01*
X35752Y-35035D01*
X35753Y-34940D01*
X35737Y-34858D01*
X35705Y-34781D01*
X35659Y-34712D01*
X35600Y-34653D01*
X35531Y-34606D01*
X35455Y-34574D01*
X35373Y-34557D01*
X35290Y-34556D01*
X35208Y-34572D01*
X35130Y-34603D01*
X35087Y-34632D01*
X34840Y-34632D01*
X34835Y-34620D01*
X34789Y-34550D01*
X34730Y-34491D01*
X34661Y-34445D01*
X34584Y-34412D01*
X34503Y-34396D01*
X34419Y-34395D01*
X34338Y-34411D01*
X34260Y-34442D01*
X34191Y-34488D01*
X34131Y-34546D01*
X34084Y-34615D01*
X34051Y-34691D01*
X34034Y-34773D01*
X34033Y-34856D01*
X34048Y-34938D01*
X34078Y-35016D01*
X34123Y-35086D01*
X34131Y-35093D01*
X33568Y-35093D01*
X33530Y-35054D01*
X33460Y-35008D01*
X33384Y-34975D01*
X33302Y-34959D01*
X33219Y-34958D01*
X33137Y-34974D01*
X33060Y-35005D01*
X32990Y-35051D01*
X32930Y-35109D01*
X32883Y-35178D01*
X32850Y-35254D01*
X32833Y-35336D01*
X32832Y-35399D01*
X32751Y-35479D01*
X32573Y-35479D01*
X32573Y-35305D01*
X32564Y-35256D01*
X32545Y-35211D01*
X32518Y-35170D01*
X32483Y-35135D01*
X32442Y-35108D01*
X32396Y-35089D01*
X32348Y-35079D01*
X32299Y-35079D01*
X31419Y-35079D01*
X31370Y-35089D01*
X31325Y-35108D01*
X31284Y-35135D01*
X31249Y-35170D01*
X31222Y-35211D01*
X31203Y-35256D01*
X31193Y-35305D01*
X31193Y-35354D01*
X31193Y-36234D01*
X31203Y-36282D01*
X31222Y-36328D01*
X31249Y-36369D01*
X31284Y-36403D01*
X31325Y-36431D01*
X31370Y-36450D01*
X31419Y-36459D01*
X31468Y-36459D01*
X32348Y-36459D01*
X32396Y-36450D01*
X32442Y-36431D01*
X32483Y-36403D01*
X32518Y-36369D01*
X32545Y-36328D01*
X32564Y-36282D01*
X32573Y-36234D01*
X32573Y-36185D01*
X32573Y-36059D01*
X32872Y-36059D01*
X32898Y-36057D01*
X32925Y-36054D01*
X32926Y-36054D01*
X32928Y-36054D01*
X32954Y-36046D01*
X32979Y-36038D01*
X32981Y-36038D01*
X32982Y-36037D01*
X33006Y-36025D01*
X33029Y-36012D01*
X33031Y-36011D01*
X33032Y-36011D01*
X33053Y-35994D01*
X33074Y-35977D01*
X33076Y-35975D01*
X33076Y-35975D01*
X33076Y-35975D01*
X33077Y-35974D01*
X33243Y-35808D01*
X33290Y-35809D01*
X33372Y-35795D01*
X33450Y-35765D01*
X33520Y-35720D01*
X33569Y-35673D01*
X36199Y-35673D01*
X36236Y-35713D01*
X36305Y-35760D01*
X36381Y-35793D01*
X36463Y-35811D01*
X36546Y-35813D01*
X36628Y-35799D01*
X36706Y-35768D01*
X36776Y-35724D01*
X36837Y-35666D01*
X36885Y-35598D01*
X36919Y-35522D01*
X36937Y-35441D01*
X36938Y-35346D01*
X36938Y-37601D01*
X28659Y-37601D01*
X28620Y-37562D01*
X28551Y-37516D01*
X28474Y-37483D01*
X28393Y-37467D01*
X28309Y-37466D01*
X28227Y-37482D01*
X28150Y-37513D01*
X28080Y-37558D01*
X28021Y-37617D01*
X27974Y-37685D01*
X27941Y-37762D01*
X27924Y-37844D01*
X27922Y-37927D01*
X27937Y-38009D01*
X27968Y-38086D01*
X28013Y-38156D01*
X28071Y-38216D01*
X28140Y-38264D01*
X28216Y-38297D01*
X28297Y-38315D01*
X28381Y-38317D01*
X28463Y-38303D01*
X28540Y-38272D01*
X28611Y-38228D01*
X28660Y-38181D01*
X38751Y-38181D01*
X38758Y-42365D01*
X36039Y-42356D01*
X37099Y-41296D01*
X37146Y-41297D01*
X37229Y-41283D01*
X37306Y-41253D01*
X37377Y-41208D01*
X37437Y-41151D01*
X37485Y-41082D01*
X37519Y-41006D01*
X37537Y-40925D01*
X37539Y-40830D01*
X37523Y-40748D01*
X37491Y-40671D01*
X37445Y-40602D01*
X37386Y-40542D01*
X37317Y-40496D01*
X37240Y-40464D01*
X37158Y-40447D01*
X37075Y-40446D01*
X36993Y-40462D01*
X36916Y-40493D01*
X36863Y-40527D01*
X36823Y-40500D01*
X36746Y-40468D01*
X36664Y-40451D01*
X36581Y-40450D01*
X36499Y-40466D01*
X36422Y-40497D01*
X36352Y-40543D01*
X36292Y-40601D01*
X36245Y-40670D01*
X36213Y-40746D01*
X36195Y-40828D01*
X36194Y-40891D01*
X34733Y-42352D01*
X29410Y-42336D01*
X29410Y-42226D01*
X29443Y-42194D01*
X29465Y-42163D01*
X29492Y-42174D01*
X29541Y-42184D01*
X29590Y-42184D01*
X30470Y-42184D01*
X30518Y-42174D01*
X30564Y-42155D01*
X30605Y-42128D01*
X30640Y-42093D01*
X30667Y-42052D01*
X30686Y-42007D01*
X30695Y-41958D01*
X30695Y-41909D01*
X30695Y-41029D01*
X30686Y-40981D01*
X30667Y-40935D01*
X30640Y-40894D01*
X30605Y-40859D01*
X30564Y-40832D01*
X30518Y-40813D01*
X30470Y-40804D01*
X30421Y-40804D01*
X29541Y-40804D01*
X29492Y-40813D01*
X29447Y-40832D01*
X29406Y-40859D01*
X29371Y-40894D01*
X29344Y-40935D01*
X29325Y-40981D01*
X29315Y-41029D01*
X29315Y-41078D01*
X29315Y-41536D01*
X29246Y-41507D01*
X29164Y-41490D01*
X29081Y-41490D01*
X28999Y-41505D01*
X28922Y-41536D01*
X28852Y-41582D01*
X28792Y-41640D01*
X28745Y-41709D01*
X28713Y-41786D01*
X28695Y-41867D01*
X28694Y-41951D01*
X28709Y-42033D01*
X28740Y-42110D01*
X28785Y-42180D01*
X28830Y-42226D01*
X28830Y-42334D01*
X26530Y-42327D01*
X26530Y-37466D01*
X26530Y-37417D01*
X26530Y-36537D01*
X26520Y-36489D01*
X26502Y-36443D01*
X26474Y-36402D01*
X26439Y-36367D01*
X26398Y-36340D01*
X26353Y-36321D01*
X26305Y-36311D01*
X26255Y-36311D01*
X25375Y-36311D01*
X25327Y-36321D01*
X25282Y-36340D01*
X25241Y-36367D01*
X25206Y-36402D01*
X25179Y-36443D01*
X25160Y-36489D01*
X25150Y-36537D01*
X25150Y-36586D01*
X25150Y-37466D01*
X25160Y-37514D01*
X25179Y-37560D01*
X25206Y-37601D01*
X25241Y-37636D01*
X25282Y-37663D01*
X25327Y-37682D01*
X25375Y-37691D01*
X25425Y-37691D01*
X26305Y-37691D01*
X26353Y-37682D01*
X26398Y-37663D01*
X26439Y-37636D01*
X26474Y-37601D01*
X26502Y-37560D01*
X26520Y-37514D01*
X26530Y-37466D01*
X26530Y-42327D01*
X24733Y-42322D01*
X24721Y-19954D01*
X52569Y-19954D01*
X52564Y-19967D01*
X52550Y-20035D01*
X52550Y-20104D01*
X52550Y-20412D01*
X52638Y-20499D01*
X53330Y-20499D01*
X53330Y-20491D01*
X53350Y-20491D01*
X53350Y-20499D01*
X53358Y-20499D01*
X53358Y-20519D01*
X53350Y-20519D01*
X53350Y-21212D01*
X53438Y-21299D01*
X53815Y-21299D01*
X53882Y-21286D01*
X53946Y-21260D01*
X54003Y-21221D01*
X54011Y-42160D01*
X54011Y-42160D01*
G37*
G54D29*
X54011Y-42160D02*
X53330Y-42157D01*
X53330Y-21212D01*
X53330Y-20519D01*
X52638Y-20519D01*
X52550Y-20607D01*
X52550Y-20915D01*
X52550Y-20984D01*
X52564Y-21051D01*
X52590Y-21115D01*
X52628Y-21172D01*
X52677Y-21221D01*
X52734Y-21260D01*
X52798Y-21286D01*
X52866Y-21299D01*
X53243Y-21299D01*
X53330Y-21212D01*
X53330Y-42157D01*
X47299Y-42129D01*
X47289Y-32309D01*
X47462Y-32309D01*
X47700Y-32547D01*
X47700Y-35474D01*
X47702Y-35501D01*
X47705Y-35527D01*
X47705Y-35529D01*
X47705Y-35530D01*
X47713Y-35556D01*
X47720Y-35582D01*
X47721Y-35583D01*
X47722Y-35584D01*
X47734Y-35608D01*
X47746Y-35632D01*
X47747Y-35633D01*
X47748Y-35634D01*
X47765Y-35655D01*
X47782Y-35676D01*
X47784Y-35678D01*
X47784Y-35678D01*
X47784Y-35678D01*
X47785Y-35679D01*
X48143Y-36037D01*
X48164Y-36054D01*
X48184Y-36071D01*
X48185Y-36072D01*
X48187Y-36073D01*
X48210Y-36086D01*
X48234Y-36099D01*
X48235Y-36099D01*
X48236Y-36100D01*
X48262Y-36108D01*
X48288Y-36116D01*
X48289Y-36116D01*
X48291Y-36116D01*
X48317Y-36119D01*
X48344Y-36122D01*
X48347Y-36122D01*
X48347Y-36122D01*
X48347Y-36122D01*
X48348Y-36122D01*
X48718Y-36122D01*
X48745Y-36120D01*
X48771Y-36117D01*
X48773Y-36117D01*
X48774Y-36117D01*
X48800Y-36109D01*
X48826Y-36101D01*
X48827Y-36101D01*
X48829Y-36100D01*
X48852Y-36088D01*
X48876Y-36075D01*
X48877Y-36074D01*
X48878Y-36074D01*
X48899Y-36057D01*
X48920Y-36040D01*
X48922Y-36038D01*
X48922Y-36038D01*
X48922Y-36038D01*
X48923Y-36037D01*
X49045Y-35915D01*
X49062Y-35894D01*
X49079Y-35874D01*
X49080Y-35873D01*
X49081Y-35871D01*
X49094Y-35848D01*
X49107Y-35824D01*
X49107Y-35823D01*
X49108Y-35822D01*
X49116Y-35796D01*
X49124Y-35770D01*
X49124Y-35769D01*
X49124Y-35767D01*
X49127Y-35741D01*
X49130Y-35714D01*
X49130Y-35711D01*
X49130Y-35711D01*
X49130Y-35711D01*
X49130Y-35710D01*
X49130Y-35623D01*
X49171Y-35632D01*
X49291Y-35634D01*
X49408Y-35613D01*
X49520Y-35570D01*
X49621Y-35506D01*
X49708Y-35424D01*
X49777Y-35326D01*
X49825Y-35217D01*
X49852Y-35100D01*
X49854Y-34963D01*
X49830Y-34846D01*
X49785Y-34735D01*
X49719Y-34636D01*
X49634Y-34551D01*
X49594Y-34523D01*
X49621Y-34506D01*
X49708Y-34424D01*
X49777Y-34326D01*
X49825Y-34217D01*
X49852Y-34100D01*
X49854Y-33963D01*
X49830Y-33846D01*
X49785Y-33735D01*
X49719Y-33636D01*
X49634Y-33551D01*
X49594Y-33523D01*
X49621Y-33506D01*
X49708Y-33424D01*
X49777Y-33326D01*
X49825Y-33217D01*
X49852Y-33100D01*
X49854Y-32963D01*
X49830Y-32846D01*
X49996Y-32681D01*
X50013Y-32660D01*
X50030Y-32640D01*
X50031Y-32638D01*
X50032Y-32637D01*
X50044Y-32614D01*
X50057Y-32590D01*
X50058Y-32589D01*
X50059Y-32587D01*
X50066Y-32562D01*
X50075Y-32536D01*
X50075Y-32535D01*
X50075Y-32533D01*
X50078Y-32507D01*
X50081Y-32480D01*
X50081Y-32477D01*
X50081Y-32477D01*
X50081Y-32477D01*
X50081Y-32476D01*
X50081Y-32270D01*
X50539Y-32728D01*
X50559Y-32745D01*
X50580Y-32762D01*
X50581Y-32763D01*
X50582Y-32764D01*
X50606Y-32777D01*
X50629Y-32790D01*
X50631Y-32790D01*
X50632Y-32791D01*
X50658Y-32799D01*
X50683Y-32807D01*
X50685Y-32807D01*
X50686Y-32807D01*
X50702Y-32809D01*
X50763Y-32904D01*
X50846Y-32990D01*
X50894Y-33023D01*
X50860Y-33045D01*
X50774Y-33129D01*
X50706Y-33228D01*
X50659Y-33338D01*
X50634Y-33455D01*
X50633Y-33574D01*
X50654Y-33692D01*
X50698Y-33803D01*
X50763Y-33904D01*
X50846Y-33990D01*
X50894Y-34023D01*
X50860Y-34045D01*
X50774Y-34129D01*
X50706Y-34228D01*
X50659Y-34338D01*
X50634Y-34455D01*
X50633Y-34574D01*
X50654Y-34692D01*
X50698Y-34803D01*
X50763Y-34904D01*
X50846Y-34990D01*
X50945Y-35058D01*
X51054Y-35106D01*
X51171Y-35132D01*
X51291Y-35134D01*
X51408Y-35113D01*
X51520Y-35070D01*
X51621Y-35006D01*
X51708Y-34924D01*
X51777Y-34826D01*
X51825Y-34717D01*
X51852Y-34600D01*
X51854Y-34463D01*
X51830Y-34346D01*
X51785Y-34235D01*
X51719Y-34136D01*
X51634Y-34051D01*
X51594Y-34023D01*
X51621Y-34006D01*
X51708Y-33924D01*
X51777Y-33826D01*
X51825Y-33717D01*
X51852Y-33600D01*
X51854Y-33463D01*
X51830Y-33346D01*
X52055Y-33122D01*
X52072Y-33101D01*
X52089Y-33081D01*
X52090Y-33079D01*
X52091Y-33078D01*
X52104Y-33055D01*
X52116Y-33031D01*
X52117Y-33030D01*
X52118Y-33028D01*
X52125Y-33003D01*
X52134Y-32977D01*
X52134Y-32976D01*
X52134Y-32974D01*
X52137Y-32947D01*
X52140Y-32921D01*
X52140Y-32918D01*
X52140Y-32918D01*
X52140Y-32918D01*
X52140Y-32917D01*
X52140Y-32220D01*
X52137Y-32193D01*
X52135Y-32167D01*
X52135Y-32165D01*
X52134Y-32164D01*
X52127Y-32138D01*
X52119Y-32112D01*
X52118Y-32111D01*
X52118Y-32109D01*
X52105Y-32086D01*
X52093Y-32062D01*
X52092Y-32061D01*
X52091Y-32059D01*
X52075Y-32039D01*
X52058Y-32018D01*
X52056Y-32016D01*
X52056Y-32016D01*
X52056Y-32016D01*
X52055Y-32015D01*
X51880Y-31840D01*
X51896Y-31813D01*
X51940Y-31680D01*
X51957Y-31541D01*
X51947Y-31402D01*
X51909Y-31267D01*
X51847Y-31142D01*
X51827Y-31112D01*
X51693Y-31088D01*
X51258Y-31523D01*
X51263Y-31529D01*
X51249Y-31543D01*
X51244Y-31537D01*
X51238Y-31543D01*
X51224Y-31529D01*
X51229Y-31523D01*
X50794Y-31088D01*
X50714Y-31102D01*
X50703Y-31082D01*
X50702Y-31081D01*
X50702Y-31079D01*
X50685Y-31058D01*
X50668Y-31037D01*
X50666Y-31035D01*
X50666Y-31035D01*
X50666Y-31035D01*
X50665Y-31035D01*
X49829Y-30199D01*
X49852Y-30100D01*
X49854Y-29963D01*
X49830Y-29846D01*
X49815Y-29809D01*
X50120Y-29809D01*
X50657Y-30347D01*
X50634Y-30455D01*
X50633Y-30574D01*
X50654Y-30692D01*
X50698Y-30803D01*
X50763Y-30904D01*
X50827Y-30970D01*
X50808Y-31074D01*
X51244Y-31509D01*
X51679Y-31074D01*
X51660Y-30969D01*
X51708Y-30924D01*
X51777Y-30826D01*
X51825Y-30717D01*
X51852Y-30600D01*
X51854Y-30463D01*
X51830Y-30346D01*
X51785Y-30235D01*
X51719Y-30136D01*
X51634Y-30051D01*
X51594Y-30023D01*
X51621Y-30006D01*
X51708Y-29924D01*
X51777Y-29826D01*
X51825Y-29717D01*
X51852Y-29600D01*
X51854Y-29463D01*
X51830Y-29346D01*
X51785Y-29235D01*
X51719Y-29136D01*
X51634Y-29051D01*
X51594Y-29023D01*
X51621Y-29006D01*
X51708Y-28924D01*
X51777Y-28826D01*
X51825Y-28717D01*
X51852Y-28600D01*
X51854Y-28463D01*
X51830Y-28346D01*
X51785Y-28235D01*
X51726Y-28147D01*
X51726Y-25484D01*
X51726Y-24806D01*
X51715Y-24689D01*
X51680Y-24576D01*
X51625Y-24472D01*
X51550Y-24380D01*
X51460Y-24305D01*
X51356Y-24249D01*
X51243Y-24214D01*
X51126Y-24202D01*
X51008Y-24212D01*
X50895Y-24246D01*
X50791Y-24300D01*
X50699Y-24374D01*
X50623Y-24465D01*
X50621Y-24467D01*
X50550Y-24380D01*
X50460Y-24305D01*
X50356Y-24249D01*
X50243Y-24214D01*
X50126Y-24202D01*
X50008Y-24212D01*
X49895Y-24246D01*
X49791Y-24300D01*
X49699Y-24374D01*
X49623Y-24465D01*
X49566Y-24568D01*
X49530Y-24680D01*
X49517Y-24798D01*
X49517Y-24806D01*
X49517Y-25484D01*
X49529Y-25602D01*
X49563Y-25715D01*
X49618Y-25819D01*
X49693Y-25910D01*
X49784Y-25985D01*
X49887Y-26041D01*
X50000Y-26076D01*
X50117Y-26089D01*
X50235Y-26078D01*
X50348Y-26045D01*
X50453Y-25990D01*
X50544Y-25916D01*
X50620Y-25826D01*
X50622Y-25823D01*
X50693Y-25910D01*
X50784Y-25985D01*
X50887Y-26041D01*
X51000Y-26076D01*
X51117Y-26089D01*
X51235Y-26078D01*
X51348Y-26045D01*
X51453Y-25990D01*
X51544Y-25916D01*
X51620Y-25826D01*
X51677Y-25722D01*
X51713Y-25610D01*
X51726Y-25493D01*
X51726Y-25484D01*
X51726Y-28147D01*
X51719Y-28136D01*
X51634Y-28051D01*
X51535Y-27984D01*
X51425Y-27938D01*
X51308Y-27914D01*
X51188Y-27913D01*
X51071Y-27935D01*
X50960Y-27980D01*
X50860Y-28045D01*
X50774Y-28129D01*
X50706Y-28228D01*
X50659Y-28338D01*
X50634Y-28455D01*
X50633Y-28574D01*
X50654Y-28692D01*
X50698Y-28803D01*
X50763Y-28904D01*
X50846Y-28990D01*
X50894Y-29023D01*
X50860Y-29045D01*
X50774Y-29129D01*
X50706Y-29228D01*
X50659Y-29338D01*
X50634Y-29455D01*
X50634Y-29503D01*
X50445Y-29314D01*
X50424Y-29297D01*
X50403Y-29280D01*
X50402Y-29279D01*
X50401Y-29278D01*
X50377Y-29266D01*
X50354Y-29253D01*
X50352Y-29252D01*
X50351Y-29251D01*
X50325Y-29244D01*
X50300Y-29236D01*
X50298Y-29235D01*
X50297Y-29235D01*
X50270Y-29232D01*
X50244Y-29229D01*
X50241Y-29229D01*
X50241Y-29229D01*
X50241Y-29229D01*
X50240Y-29229D01*
X49820Y-29229D01*
X49825Y-29217D01*
X49852Y-29100D01*
X49854Y-28963D01*
X49830Y-28846D01*
X49785Y-28735D01*
X49719Y-28636D01*
X49634Y-28551D01*
X49594Y-28523D01*
X49621Y-28506D01*
X49708Y-28424D01*
X49777Y-28326D01*
X49825Y-28217D01*
X49852Y-28100D01*
X49854Y-27963D01*
X49830Y-27846D01*
X49785Y-27735D01*
X49719Y-27636D01*
X49634Y-27551D01*
X49535Y-27484D01*
X49425Y-27438D01*
X49308Y-27414D01*
X49188Y-27413D01*
X49071Y-27435D01*
X48960Y-27480D01*
X48860Y-27545D01*
X48774Y-27629D01*
X48706Y-27728D01*
X48659Y-27838D01*
X48634Y-27955D01*
X48633Y-28074D01*
X48654Y-28192D01*
X48657Y-28199D01*
X48174Y-28682D01*
X48157Y-28703D01*
X48140Y-28723D01*
X48139Y-28725D01*
X48138Y-28726D01*
X48126Y-28750D01*
X48113Y-28773D01*
X48112Y-28775D01*
X48112Y-28776D01*
X48104Y-28801D01*
X48096Y-28827D01*
X48096Y-28829D01*
X48095Y-28830D01*
X48092Y-28857D01*
X48089Y-28883D01*
X48089Y-28886D01*
X48089Y-28886D01*
X48089Y-28886D01*
X48089Y-28887D01*
X48089Y-31137D01*
X47938Y-31289D01*
X47288Y-31289D01*
X47280Y-23121D01*
X45791Y-23119D01*
X45791Y-22588D01*
X45370Y-22167D01*
X44948Y-22588D01*
X44970Y-22720D01*
X45088Y-22787D01*
X45217Y-22829D01*
X45352Y-22846D01*
X45488Y-22836D01*
X45619Y-22800D01*
X45740Y-22739D01*
X45769Y-22720D01*
X45791Y-22588D01*
X45791Y-23119D01*
X44791Y-23118D01*
X44791Y-22588D01*
X44370Y-22167D01*
X43948Y-22588D01*
X43970Y-22720D01*
X44088Y-22787D01*
X44217Y-22829D01*
X44352Y-22846D01*
X44488Y-22836D01*
X44619Y-22800D01*
X44740Y-22739D01*
X44769Y-22720D01*
X44791Y-22588D01*
X44791Y-23118D01*
X43791Y-23118D01*
X43791Y-22588D01*
X43370Y-22167D01*
X42948Y-22588D01*
X42970Y-22720D01*
X43088Y-22787D01*
X43217Y-22829D01*
X43352Y-22846D01*
X43488Y-22836D01*
X43619Y-22800D01*
X43740Y-22739D01*
X43769Y-22720D01*
X43791Y-22588D01*
X43791Y-23118D01*
X42513Y-23116D01*
X42513Y-22829D01*
X42619Y-22800D01*
X42740Y-22739D01*
X42769Y-22720D01*
X42791Y-22588D01*
X42370Y-22167D01*
X42364Y-22173D01*
X42350Y-22159D01*
X42355Y-22153D01*
X42350Y-22147D01*
X42364Y-22133D01*
X42370Y-22139D01*
X42375Y-22133D01*
X42389Y-22147D01*
X42384Y-22153D01*
X42805Y-22574D01*
X42870Y-22564D01*
X42934Y-22574D01*
X43355Y-22153D01*
X43350Y-22147D01*
X43364Y-22133D01*
X43370Y-22139D01*
X43375Y-22133D01*
X43389Y-22147D01*
X43384Y-22153D01*
X43805Y-22574D01*
X43870Y-22564D01*
X43934Y-22574D01*
X44355Y-22153D01*
X44350Y-22147D01*
X44364Y-22133D01*
X44370Y-22139D01*
X44375Y-22133D01*
X44389Y-22147D01*
X44384Y-22153D01*
X44805Y-22574D01*
X44870Y-22564D01*
X44934Y-22574D01*
X45355Y-22153D01*
X45350Y-22147D01*
X45364Y-22133D01*
X45370Y-22139D01*
X45375Y-22133D01*
X45389Y-22147D01*
X45384Y-22153D01*
X45805Y-22574D01*
X45936Y-22552D01*
X46003Y-22434D01*
X46046Y-22305D01*
X46063Y-22170D01*
X46053Y-22035D01*
X46026Y-21937D01*
X48553Y-21937D01*
X48579Y-21935D01*
X48606Y-21932D01*
X48607Y-21932D01*
X48609Y-21932D01*
X48635Y-21924D01*
X48660Y-21916D01*
X48662Y-21916D01*
X48663Y-21915D01*
X48687Y-21903D01*
X48711Y-21890D01*
X48712Y-21889D01*
X48713Y-21889D01*
X48734Y-21872D01*
X48755Y-21855D01*
X48757Y-21853D01*
X48757Y-21853D01*
X48757Y-21853D01*
X48758Y-21852D01*
X49759Y-20851D01*
X49797Y-20878D01*
X49873Y-20912D01*
X49955Y-20929D01*
X50038Y-20931D01*
X50120Y-20917D01*
X50198Y-20887D01*
X50268Y-20842D01*
X50329Y-20784D01*
X50377Y-20716D01*
X50411Y-20640D01*
X50429Y-20559D01*
X50430Y-20464D01*
X50414Y-20382D01*
X50382Y-20305D01*
X50336Y-20235D01*
X50278Y-20176D01*
X50209Y-20130D01*
X50132Y-20097D01*
X50050Y-20081D01*
X49967Y-20080D01*
X49885Y-20096D01*
X49808Y-20127D01*
X49738Y-20173D01*
X49694Y-20215D01*
X49668Y-20218D01*
X49641Y-20220D01*
X49640Y-20221D01*
X49638Y-20221D01*
X49612Y-20229D01*
X49587Y-20236D01*
X49585Y-20237D01*
X49584Y-20237D01*
X49560Y-20250D01*
X49536Y-20262D01*
X49535Y-20263D01*
X49534Y-20264D01*
X49513Y-20281D01*
X49492Y-20298D01*
X49490Y-20300D01*
X49490Y-20300D01*
X49490Y-20300D01*
X49489Y-20300D01*
X48433Y-21357D01*
X46029Y-21357D01*
X46046Y-21305D01*
X46063Y-21170D01*
X46053Y-21035D01*
X46017Y-20904D01*
X45955Y-20782D01*
X45936Y-20754D01*
X45805Y-20732D01*
X45791Y-20746D01*
X45791Y-20718D01*
X45769Y-20586D01*
X45651Y-20519D01*
X45522Y-20477D01*
X45387Y-20460D01*
X45251Y-20470D01*
X45120Y-20506D01*
X44999Y-20567D01*
X44970Y-20586D01*
X44948Y-20718D01*
X45370Y-21139D01*
X45791Y-20718D01*
X45791Y-20746D01*
X45384Y-21153D01*
X45389Y-21159D01*
X45375Y-21173D01*
X45370Y-21167D01*
X45364Y-21173D01*
X45350Y-21159D01*
X45355Y-21153D01*
X44934Y-20732D01*
X44870Y-20743D01*
X44805Y-20732D01*
X44791Y-20746D01*
X44791Y-20718D01*
X44769Y-20586D01*
X44651Y-20519D01*
X44522Y-20477D01*
X44387Y-20460D01*
X44251Y-20470D01*
X44120Y-20506D01*
X43999Y-20567D01*
X43970Y-20586D01*
X43948Y-20718D01*
X44370Y-21139D01*
X44791Y-20718D01*
X44791Y-20746D01*
X44384Y-21153D01*
X44389Y-21159D01*
X44375Y-21173D01*
X44370Y-21167D01*
X44364Y-21173D01*
X44350Y-21159D01*
X44355Y-21153D01*
X43934Y-20732D01*
X43870Y-20743D01*
X43805Y-20732D01*
X43791Y-20746D01*
X43791Y-20718D01*
X43769Y-20586D01*
X43651Y-20519D01*
X43522Y-20477D01*
X43387Y-20460D01*
X43251Y-20470D01*
X43120Y-20506D01*
X42999Y-20567D01*
X42970Y-20586D01*
X42948Y-20718D01*
X43370Y-21139D01*
X43791Y-20718D01*
X43791Y-20746D01*
X43384Y-21153D01*
X43389Y-21159D01*
X43375Y-21173D01*
X43370Y-21167D01*
X43364Y-21173D01*
X43350Y-21159D01*
X43355Y-21153D01*
X42934Y-20732D01*
X42870Y-20743D01*
X42805Y-20732D01*
X42791Y-20746D01*
X42791Y-20718D01*
X42769Y-20586D01*
X42651Y-20519D01*
X42522Y-20477D01*
X42387Y-20460D01*
X42251Y-20470D01*
X42120Y-20506D01*
X41999Y-20567D01*
X41970Y-20586D01*
X41948Y-20718D01*
X42370Y-21139D01*
X42791Y-20718D01*
X42791Y-20746D01*
X42384Y-21153D01*
X42389Y-21159D01*
X42375Y-21173D01*
X42370Y-21167D01*
X42364Y-21173D01*
X42350Y-21159D01*
X42355Y-21153D01*
X41934Y-20732D01*
X41804Y-20753D01*
X41747Y-20696D01*
X41652Y-20632D01*
X41545Y-20587D01*
X41432Y-20563D01*
X41316Y-20563D01*
X41202Y-20584D01*
X41095Y-20628D01*
X40998Y-20691D01*
X40915Y-20772D01*
X40869Y-20839D01*
X40829Y-20778D01*
X40747Y-20696D01*
X40652Y-20632D01*
X40545Y-20587D01*
X40432Y-20563D01*
X40316Y-20563D01*
X40202Y-20584D01*
X40095Y-20628D01*
X39998Y-20691D01*
X39915Y-20772D01*
X39869Y-20839D01*
X39829Y-20778D01*
X39747Y-20696D01*
X39652Y-20632D01*
X39545Y-20587D01*
X39432Y-20563D01*
X39316Y-20563D01*
X39210Y-20583D01*
X39092Y-20466D01*
X39072Y-20449D01*
X39051Y-20431D01*
X39050Y-20431D01*
X39049Y-20430D01*
X39025Y-20417D01*
X39002Y-20404D01*
X39000Y-20404D01*
X38999Y-20403D01*
X38973Y-20395D01*
X38948Y-20387D01*
X38946Y-20387D01*
X38945Y-20386D01*
X38918Y-20384D01*
X38891Y-20381D01*
X38888Y-20381D01*
X38888Y-20381D01*
X38888Y-20381D01*
X38887Y-20381D01*
X38139Y-20381D01*
X38113Y-20383D01*
X38086Y-20386D01*
X38084Y-20386D01*
X38083Y-20386D01*
X38057Y-20394D01*
X38032Y-20401D01*
X38030Y-20402D01*
X38029Y-20403D01*
X38005Y-20415D01*
X37981Y-20428D01*
X37980Y-20428D01*
X37979Y-20429D01*
X37958Y-20446D01*
X37937Y-20463D01*
X37935Y-20465D01*
X37935Y-20465D01*
X37935Y-20465D01*
X37934Y-20466D01*
X37721Y-20679D01*
X37652Y-20632D01*
X37545Y-20587D01*
X37432Y-20563D01*
X37316Y-20563D01*
X37202Y-20584D01*
X37095Y-20628D01*
X36998Y-20691D01*
X36915Y-20772D01*
X36869Y-20839D01*
X36829Y-20778D01*
X36747Y-20696D01*
X36652Y-20632D01*
X36545Y-20587D01*
X36432Y-20563D01*
X36316Y-20563D01*
X36202Y-20584D01*
X36095Y-20628D01*
X36056Y-20653D01*
X35683Y-20653D01*
X35652Y-20632D01*
X35545Y-20587D01*
X35432Y-20563D01*
X35316Y-20563D01*
X35202Y-20584D01*
X35095Y-20628D01*
X35056Y-20653D01*
X34683Y-20653D01*
X34652Y-20632D01*
X34545Y-20587D01*
X34432Y-20563D01*
X34316Y-20563D01*
X34202Y-20584D01*
X34095Y-20628D01*
X34056Y-20653D01*
X33683Y-20653D01*
X33652Y-20632D01*
X33545Y-20587D01*
X33432Y-20563D01*
X33316Y-20563D01*
X33202Y-20584D01*
X33095Y-20628D01*
X32998Y-20691D01*
X32915Y-20772D01*
X32852Y-20865D01*
X32821Y-20834D01*
X32752Y-20787D01*
X32675Y-20755D01*
X32593Y-20738D01*
X32510Y-20738D01*
X32428Y-20753D01*
X32351Y-20784D01*
X32281Y-20830D01*
X32222Y-20888D01*
X32174Y-20957D01*
X32142Y-21034D01*
X32124Y-21115D01*
X32123Y-21199D01*
X32138Y-21281D01*
X32169Y-21358D01*
X32214Y-21428D01*
X32272Y-21488D01*
X32340Y-21536D01*
X32417Y-21569D01*
X32498Y-21587D01*
X32564Y-21588D01*
X32780Y-21804D01*
X32780Y-21838D01*
X32780Y-22518D01*
X32789Y-22566D01*
X32808Y-22611D01*
X32835Y-22652D01*
X32870Y-22687D01*
X32911Y-22715D01*
X32957Y-22733D01*
X33005Y-22743D01*
X33054Y-22743D01*
X33734Y-22743D01*
X33783Y-22733D01*
X33828Y-22715D01*
X33869Y-22687D01*
X33903Y-22653D01*
X34055Y-22653D01*
X34080Y-22671D01*
X34186Y-22717D01*
X34299Y-22742D01*
X34415Y-22744D01*
X34529Y-22724D01*
X34637Y-22682D01*
X34683Y-22653D01*
X35055Y-22653D01*
X35080Y-22671D01*
X35186Y-22717D01*
X35299Y-22742D01*
X35415Y-22744D01*
X35529Y-22724D01*
X35637Y-22682D01*
X35683Y-22653D01*
X36055Y-22653D01*
X36080Y-22671D01*
X36186Y-22717D01*
X36299Y-22742D01*
X36415Y-22744D01*
X36529Y-22724D01*
X36637Y-22682D01*
X36735Y-22620D01*
X36818Y-22540D01*
X36870Y-22468D01*
X36870Y-22724D01*
X36874Y-22770D01*
X36878Y-22816D01*
X36879Y-22818D01*
X36879Y-22821D01*
X36892Y-22865D01*
X36905Y-22910D01*
X36907Y-22912D01*
X36907Y-22914D01*
X36929Y-22955D01*
X36950Y-22996D01*
X36952Y-22998D01*
X36953Y-23001D01*
X36982Y-23036D01*
X37011Y-23072D01*
X37015Y-23076D01*
X37015Y-23076D01*
X37015Y-23076D01*
X37016Y-23077D01*
X37499Y-23561D01*
X36662Y-23561D01*
X36574Y-23648D01*
X36574Y-24528D01*
X36574Y-25220D01*
X37266Y-25220D01*
X38146Y-25220D01*
X38233Y-25132D01*
X38233Y-24295D01*
X38731Y-24792D01*
X38731Y-27844D01*
X38731Y-28014D01*
X38681Y-27980D01*
X38604Y-27948D01*
X38522Y-27931D01*
X38439Y-27931D01*
X38357Y-27946D01*
X38280Y-27977D01*
X38233Y-28008D01*
X38233Y-26583D01*
X38233Y-25327D01*
X38146Y-25240D01*
X37266Y-25240D01*
X36574Y-25240D01*
X36574Y-25932D01*
X36574Y-26811D01*
X36662Y-26899D01*
X37849Y-26899D01*
X37918Y-26899D01*
X37985Y-26885D01*
X38049Y-26859D01*
X38106Y-26821D01*
X38155Y-26772D01*
X38193Y-26715D01*
X38220Y-26651D01*
X38233Y-26583D01*
X38233Y-28008D01*
X38210Y-28023D01*
X38151Y-28081D01*
X38104Y-28150D01*
X38071Y-28227D01*
X38053Y-28308D01*
X38052Y-28392D01*
X38067Y-28474D01*
X38098Y-28551D01*
X38143Y-28621D01*
X38188Y-28667D01*
X38188Y-29570D01*
X37863Y-29895D01*
X37809Y-29895D01*
X37727Y-29911D01*
X37650Y-29942D01*
X37580Y-29988D01*
X37521Y-30046D01*
X37474Y-30115D01*
X37441Y-30191D01*
X37424Y-30273D01*
X37422Y-30356D01*
X37437Y-30438D01*
X37468Y-30516D01*
X37513Y-30586D01*
X37571Y-30646D01*
X37640Y-30693D01*
X37716Y-30727D01*
X37797Y-30744D01*
X37881Y-30746D01*
X37963Y-30732D01*
X38040Y-30702D01*
X38111Y-30657D01*
X38171Y-30599D01*
X38219Y-30531D01*
X38253Y-30455D01*
X38272Y-30374D01*
X38273Y-30306D01*
X38683Y-29896D01*
X38700Y-29875D01*
X38717Y-29854D01*
X38718Y-29853D01*
X38719Y-29852D01*
X38731Y-29828D01*
X38735Y-29822D01*
X38737Y-31007D01*
X38673Y-30964D01*
X38596Y-30932D01*
X38515Y-30915D01*
X38431Y-30915D01*
X38349Y-30930D01*
X38272Y-30962D01*
X38202Y-31007D01*
X38143Y-31066D01*
X38096Y-31134D01*
X38063Y-31211D01*
X38046Y-31292D01*
X38044Y-31376D01*
X38058Y-31449D01*
X37245Y-31449D01*
X37245Y-28479D01*
X37229Y-28398D01*
X37197Y-28321D01*
X37151Y-28251D01*
X37093Y-28192D01*
X37023Y-28145D01*
X36947Y-28113D01*
X36865Y-28096D01*
X36805Y-28096D01*
X36358Y-27649D01*
X36337Y-27632D01*
X36317Y-27615D01*
X36316Y-27614D01*
X36314Y-27613D01*
X36291Y-27600D01*
X36267Y-27587D01*
X36266Y-27587D01*
X36264Y-27586D01*
X36239Y-27578D01*
X36213Y-27570D01*
X36212Y-27570D01*
X36210Y-27570D01*
X36184Y-27567D01*
X36157Y-27564D01*
X36154Y-27564D01*
X36154Y-27564D01*
X36154Y-27564D01*
X36153Y-27564D01*
X35448Y-27564D01*
X35410Y-27525D01*
X35340Y-27478D01*
X35264Y-27446D01*
X35182Y-27429D01*
X35099Y-27429D01*
X35017Y-27444D01*
X34939Y-27475D01*
X34870Y-27521D01*
X34810Y-27579D01*
X34763Y-27648D01*
X34730Y-27725D01*
X34713Y-27806D01*
X34712Y-27890D01*
X34727Y-27972D01*
X34757Y-28049D01*
X34803Y-28119D01*
X34861Y-28179D01*
X34929Y-28227D01*
X35005Y-28260D01*
X35087Y-28278D01*
X35170Y-28280D01*
X35252Y-28265D01*
X35330Y-28235D01*
X35400Y-28190D01*
X35449Y-28144D01*
X36033Y-28144D01*
X36396Y-28506D01*
X36395Y-28557D01*
X36410Y-28639D01*
X36441Y-28716D01*
X36486Y-28786D01*
X36544Y-28846D01*
X36612Y-28894D01*
X36688Y-28927D01*
X36770Y-28945D01*
X36853Y-28947D01*
X36935Y-28932D01*
X37013Y-28902D01*
X37083Y-28858D01*
X37144Y-28800D01*
X37192Y-28732D01*
X37226Y-28656D01*
X37244Y-28575D01*
X37245Y-28479D01*
X37245Y-31449D01*
X36446Y-31449D01*
X36446Y-30424D01*
X36430Y-30343D01*
X36398Y-30266D01*
X36352Y-30196D01*
X36293Y-30137D01*
X36224Y-30090D01*
X36147Y-30058D01*
X36066Y-30041D01*
X36006Y-30041D01*
X35910Y-29945D01*
X35911Y-29877D01*
X35895Y-29795D01*
X35863Y-29718D01*
X35817Y-29649D01*
X35758Y-29590D01*
X35689Y-29543D01*
X35612Y-29511D01*
X35530Y-29494D01*
X35447Y-29493D01*
X35365Y-29509D01*
X35288Y-29540D01*
X35218Y-29586D01*
X35159Y-29644D01*
X35111Y-29713D01*
X35079Y-29790D01*
X35061Y-29871D01*
X35060Y-29955D01*
X35075Y-30037D01*
X35106Y-30114D01*
X35151Y-30184D01*
X35209Y-30244D01*
X35277Y-30292D01*
X35354Y-30325D01*
X35435Y-30343D01*
X35489Y-30344D01*
X35596Y-30451D01*
X35596Y-30502D01*
X35611Y-30584D01*
X35641Y-30661D01*
X35686Y-30731D01*
X35744Y-30791D01*
X35813Y-30839D01*
X35889Y-30872D01*
X35971Y-30890D01*
X36054Y-30892D01*
X36136Y-30877D01*
X36214Y-30847D01*
X36284Y-30803D01*
X36344Y-30745D01*
X36392Y-30677D01*
X36426Y-30601D01*
X36445Y-30520D01*
X36446Y-30424D01*
X36446Y-31449D01*
X33857Y-31449D01*
X33857Y-29265D01*
X33857Y-29216D01*
X33857Y-28336D01*
X33847Y-28288D01*
X33828Y-28242D01*
X33801Y-28201D01*
X33766Y-28166D01*
X33725Y-28139D01*
X33680Y-28120D01*
X33631Y-28111D01*
X33582Y-28111D01*
X32702Y-28111D01*
X32654Y-28120D01*
X32608Y-28139D01*
X32567Y-28166D01*
X32533Y-28201D01*
X32505Y-28242D01*
X32486Y-28288D01*
X32477Y-28336D01*
X32477Y-28385D01*
X32477Y-29265D01*
X32486Y-29314D01*
X32505Y-29359D01*
X32533Y-29400D01*
X32567Y-29435D01*
X32608Y-29462D01*
X32654Y-29481D01*
X32702Y-29491D01*
X32751Y-29491D01*
X33631Y-29491D01*
X33680Y-29481D01*
X33725Y-29462D01*
X33766Y-29435D01*
X33801Y-29400D01*
X33828Y-29359D01*
X33847Y-29314D01*
X33857Y-29265D01*
X33857Y-31449D01*
X30234Y-31449D01*
X30438Y-31245D01*
X30458Y-31220D01*
X30479Y-31195D01*
X30480Y-31194D01*
X30481Y-31192D01*
X30497Y-31164D01*
X30512Y-31135D01*
X30513Y-31134D01*
X30514Y-31132D01*
X30523Y-31101D01*
X30533Y-31070D01*
X30533Y-31068D01*
X30534Y-31067D01*
X30537Y-31035D01*
X30540Y-31002D01*
X30540Y-30999D01*
X30540Y-30999D01*
X30540Y-30999D01*
X30540Y-30998D01*
X30540Y-28163D01*
X30537Y-28131D01*
X30534Y-28099D01*
X30534Y-28097D01*
X30534Y-28095D01*
X30524Y-28064D01*
X30515Y-28033D01*
X30515Y-28031D01*
X30514Y-28030D01*
X30499Y-28001D01*
X30484Y-27972D01*
X30483Y-27971D01*
X30482Y-27969D01*
X30462Y-27944D01*
X30441Y-27919D01*
X30439Y-27916D01*
X30439Y-27916D01*
X30439Y-27916D01*
X30438Y-27915D01*
X30046Y-27523D01*
X30418Y-27151D01*
X34781Y-27151D01*
X34799Y-27197D01*
X34844Y-27267D01*
X34902Y-27327D01*
X34970Y-27374D01*
X35047Y-27408D01*
X35128Y-27426D01*
X35211Y-27427D01*
X35293Y-27413D01*
X35371Y-27383D01*
X35442Y-27338D01*
X35502Y-27281D01*
X35550Y-27212D01*
X35584Y-27136D01*
X35602Y-27055D01*
X35604Y-26960D01*
X35592Y-26899D01*
X36467Y-26899D01*
X36554Y-26811D01*
X36554Y-25932D01*
X36554Y-25240D01*
X36554Y-25220D01*
X36554Y-24528D01*
X36554Y-23648D01*
X36467Y-23561D01*
X35280Y-23561D01*
X35211Y-23561D01*
X35143Y-23574D01*
X35080Y-23601D01*
X35022Y-23639D01*
X34974Y-23688D01*
X34935Y-23745D01*
X34909Y-23809D01*
X34895Y-23876D01*
X34895Y-25132D01*
X34983Y-25220D01*
X35862Y-25220D01*
X36554Y-25220D01*
X36554Y-25240D01*
X35862Y-25240D01*
X34983Y-25240D01*
X34895Y-25327D01*
X34895Y-26451D01*
X30273Y-26451D01*
X30241Y-26454D01*
X30209Y-26457D01*
X30207Y-26457D01*
X30205Y-26457D01*
X30174Y-26467D01*
X30143Y-26476D01*
X30142Y-26477D01*
X30140Y-26477D01*
X30111Y-26492D01*
X30082Y-26507D01*
X30081Y-26508D01*
X30079Y-26509D01*
X30054Y-26530D01*
X30029Y-26550D01*
X30027Y-26552D01*
X30027Y-26552D01*
X30026Y-26552D01*
X30026Y-26553D01*
X29474Y-27105D01*
X29430Y-27113D01*
X29353Y-27145D01*
X29283Y-27190D01*
X29224Y-27249D01*
X29176Y-27317D01*
X29144Y-27394D01*
X29126Y-27476D01*
X29125Y-27559D01*
X29140Y-27641D01*
X29171Y-27718D01*
X29216Y-27788D01*
X29274Y-27848D01*
X29342Y-27896D01*
X29419Y-27929D01*
X29474Y-27941D01*
X29840Y-28308D01*
X29840Y-28387D01*
X29780Y-28326D01*
X29681Y-28260D01*
X29571Y-28213D01*
X29453Y-28189D01*
X29334Y-28188D01*
X29216Y-28211D01*
X29105Y-28256D01*
X29073Y-28277D01*
X29073Y-26252D01*
X29073Y-25574D01*
X29061Y-25456D01*
X29027Y-25343D01*
X28972Y-25239D01*
X28897Y-25148D01*
X28806Y-25073D01*
X28702Y-25017D01*
X28590Y-24982D01*
X28472Y-24969D01*
X28355Y-24980D01*
X28242Y-25013D01*
X28137Y-25068D01*
X28045Y-25142D01*
X27969Y-25232D01*
X27968Y-25235D01*
X27897Y-25148D01*
X27806Y-25073D01*
X27702Y-25017D01*
X27590Y-24982D01*
X27472Y-24969D01*
X27355Y-24980D01*
X27242Y-25013D01*
X27137Y-25068D01*
X27045Y-25142D01*
X26969Y-25232D01*
X26912Y-25336D01*
X26877Y-25448D01*
X26864Y-25565D01*
X26864Y-25574D01*
X26864Y-26252D01*
X26875Y-26369D01*
X26909Y-26482D01*
X26965Y-26586D01*
X27039Y-26678D01*
X27130Y-26753D01*
X27234Y-26809D01*
X27346Y-26844D01*
X27464Y-26856D01*
X27581Y-26846D01*
X27694Y-26812D01*
X27799Y-26758D01*
X27891Y-26684D01*
X27967Y-26593D01*
X27968Y-26591D01*
X28039Y-26678D01*
X28130Y-26753D01*
X28234Y-26809D01*
X28346Y-26844D01*
X28464Y-26856D01*
X28581Y-26846D01*
X28694Y-26812D01*
X28799Y-26758D01*
X28891Y-26684D01*
X28967Y-26593D01*
X29024Y-26490D01*
X29059Y-26378D01*
X29072Y-26260D01*
X29073Y-26252D01*
X29073Y-28277D01*
X29005Y-28321D01*
X28920Y-28405D01*
X28852Y-28503D01*
X28805Y-28613D01*
X28780Y-28730D01*
X28778Y-28850D01*
X28800Y-28968D01*
X28844Y-29079D01*
X28909Y-29179D01*
X28992Y-29265D01*
X29040Y-29299D01*
X29005Y-29321D01*
X28920Y-29405D01*
X28852Y-29503D01*
X28805Y-29613D01*
X28780Y-29730D01*
X28778Y-29850D01*
X28800Y-29968D01*
X28844Y-30079D01*
X28909Y-30179D01*
X28992Y-30265D01*
X29040Y-30299D01*
X29005Y-30321D01*
X28920Y-30405D01*
X28852Y-30503D01*
X28805Y-30613D01*
X28780Y-30730D01*
X28778Y-30850D01*
X28800Y-30968D01*
X28803Y-30975D01*
X28548Y-31229D01*
X28531Y-31250D01*
X28514Y-31271D01*
X28513Y-31272D01*
X28512Y-31273D01*
X28500Y-31297D01*
X28499Y-31298D01*
X28295Y-31094D01*
X28274Y-31077D01*
X28254Y-31059D01*
X28253Y-31059D01*
X28251Y-31058D01*
X28228Y-31045D01*
X28204Y-31032D01*
X28203Y-31032D01*
X28201Y-31031D01*
X28176Y-31023D01*
X28150Y-31015D01*
X28149Y-31015D01*
X28147Y-31014D01*
X28121Y-31012D01*
X28094Y-31009D01*
X28091Y-31009D01*
X28091Y-31009D01*
X28091Y-31009D01*
X28090Y-31009D01*
X27929Y-31009D01*
X27864Y-30911D01*
X27780Y-30826D01*
X27739Y-30799D01*
X27767Y-30782D01*
X27853Y-30699D01*
X27922Y-30601D01*
X27971Y-30492D01*
X27997Y-30376D01*
X27999Y-30239D01*
X27976Y-30122D01*
X27930Y-30011D01*
X27864Y-29911D01*
X27780Y-29826D01*
X27739Y-29799D01*
X27767Y-29782D01*
X27853Y-29699D01*
X27922Y-29601D01*
X27971Y-29492D01*
X27997Y-29376D01*
X27999Y-29239D01*
X27976Y-29122D01*
X27930Y-29011D01*
X27864Y-28911D01*
X27780Y-28826D01*
X27681Y-28760D01*
X27571Y-28713D01*
X27453Y-28689D01*
X27334Y-28688D01*
X27216Y-28711D01*
X27105Y-28756D01*
X27005Y-28821D01*
X26920Y-28905D01*
X26852Y-29003D01*
X26805Y-29113D01*
X26780Y-29230D01*
X26778Y-29350D01*
X26800Y-29468D01*
X26844Y-29579D01*
X26909Y-29679D01*
X26992Y-29765D01*
X27040Y-29799D01*
X27005Y-29821D01*
X26920Y-29905D01*
X26852Y-30003D01*
X26805Y-30113D01*
X26780Y-30230D01*
X26778Y-30350D01*
X26800Y-30468D01*
X26803Y-30475D01*
X26466Y-30812D01*
X26449Y-30833D01*
X26431Y-30853D01*
X26431Y-30855D01*
X26430Y-30856D01*
X26417Y-30880D01*
X26404Y-30903D01*
X26404Y-30904D01*
X26403Y-30906D01*
X26395Y-30931D01*
X26387Y-30957D01*
X26387Y-30958D01*
X26386Y-30960D01*
X26384Y-30987D01*
X26381Y-31013D01*
X26381Y-31016D01*
X26381Y-31016D01*
X26381Y-31016D01*
X26381Y-31017D01*
X26381Y-31328D01*
X26383Y-31355D01*
X26386Y-31382D01*
X26386Y-31383D01*
X26386Y-31385D01*
X26394Y-31410D01*
X26401Y-31436D01*
X26402Y-31437D01*
X26403Y-31439D01*
X26415Y-31462D01*
X26428Y-31486D01*
X26428Y-31487D01*
X26429Y-31489D01*
X26446Y-31509D01*
X26463Y-31530D01*
X26465Y-31533D01*
X26465Y-31533D01*
X26465Y-31533D01*
X26466Y-31533D01*
X26818Y-31885D01*
X26806Y-31887D01*
X26737Y-32009D01*
X26693Y-32142D01*
X26676Y-32281D01*
X26686Y-32420D01*
X26723Y-32555D01*
X26786Y-32680D01*
X26806Y-32710D01*
X26940Y-32734D01*
X27375Y-32299D01*
X27370Y-32293D01*
X27384Y-32279D01*
X27389Y-32285D01*
X27395Y-32279D01*
X27409Y-32293D01*
X27403Y-32299D01*
X27839Y-32734D01*
X27918Y-32720D01*
X27928Y-32738D01*
X27928Y-32739D01*
X27929Y-32741D01*
X27946Y-32761D01*
X27963Y-32782D01*
X27965Y-32785D01*
X27965Y-32785D01*
X27965Y-32785D01*
X27966Y-32785D01*
X28803Y-33623D01*
X28780Y-33730D01*
X28778Y-33850D01*
X28800Y-33968D01*
X28819Y-34015D01*
X28515Y-34015D01*
X27975Y-33474D01*
X27997Y-33376D01*
X27999Y-33239D01*
X27976Y-33122D01*
X27930Y-33011D01*
X27864Y-32911D01*
X27806Y-32852D01*
X27825Y-32748D01*
X27389Y-32313D01*
X26954Y-32748D01*
X26973Y-32853D01*
X26920Y-32905D01*
X26866Y-32983D01*
X26863Y-32974D01*
X26817Y-32905D01*
X26758Y-32846D01*
X26689Y-32799D01*
X26612Y-32767D01*
X26530Y-32750D01*
X26447Y-32749D01*
X26365Y-32765D01*
X26288Y-32796D01*
X26218Y-32842D01*
X26159Y-32900D01*
X26111Y-32969D01*
X26079Y-33046D01*
X26061Y-33127D01*
X26060Y-33210D01*
X26075Y-33292D01*
X26106Y-33370D01*
X26151Y-33440D01*
X26196Y-33486D01*
X26196Y-35419D01*
X26198Y-35445D01*
X26201Y-35472D01*
X26201Y-35474D01*
X26201Y-35475D01*
X26209Y-35501D01*
X26216Y-35526D01*
X26217Y-35528D01*
X26218Y-35529D01*
X26230Y-35553D01*
X26243Y-35577D01*
X26243Y-35578D01*
X26244Y-35579D01*
X26261Y-35600D01*
X26278Y-35621D01*
X26280Y-35623D01*
X26280Y-35623D01*
X26280Y-35623D01*
X26281Y-35624D01*
X26687Y-36030D01*
X26686Y-36081D01*
X26701Y-36162D01*
X26732Y-36240D01*
X26777Y-36310D01*
X26835Y-36370D01*
X26903Y-36418D01*
X26980Y-36451D01*
X27061Y-36469D01*
X27144Y-36471D01*
X27227Y-36456D01*
X27304Y-36426D01*
X27375Y-36381D01*
X27435Y-36324D01*
X27483Y-36256D01*
X27517Y-36180D01*
X27535Y-36098D01*
X27537Y-36003D01*
X27521Y-35921D01*
X27510Y-35897D01*
X27554Y-35889D01*
X27666Y-35846D01*
X27767Y-35782D01*
X27853Y-35699D01*
X27922Y-35601D01*
X27971Y-35492D01*
X27997Y-35376D01*
X27999Y-35239D01*
X27976Y-35122D01*
X27930Y-35011D01*
X27864Y-34911D01*
X27780Y-34826D01*
X27739Y-34799D01*
X27767Y-34782D01*
X27853Y-34699D01*
X27922Y-34601D01*
X27971Y-34492D01*
X27997Y-34376D01*
X27998Y-34318D01*
X28190Y-34510D01*
X28211Y-34527D01*
X28231Y-34544D01*
X28233Y-34545D01*
X28234Y-34546D01*
X28257Y-34558D01*
X28281Y-34571D01*
X28282Y-34572D01*
X28284Y-34572D01*
X28309Y-34580D01*
X28335Y-34588D01*
X28336Y-34588D01*
X28338Y-34589D01*
X28365Y-34592D01*
X28391Y-34595D01*
X28394Y-34595D01*
X28394Y-34595D01*
X28394Y-34595D01*
X28395Y-34595D01*
X28813Y-34595D01*
X28805Y-34613D01*
X28780Y-34730D01*
X28778Y-34850D01*
X28800Y-34968D01*
X28844Y-35079D01*
X28909Y-35179D01*
X28992Y-35265D01*
X29040Y-35299D01*
X29005Y-35321D01*
X28920Y-35405D01*
X28852Y-35503D01*
X28805Y-35613D01*
X28780Y-35730D01*
X28778Y-35850D01*
X28800Y-35968D01*
X28844Y-36079D01*
X28909Y-36179D01*
X28992Y-36265D01*
X29090Y-36334D01*
X29200Y-36382D01*
X29317Y-36407D01*
X29436Y-36410D01*
X29554Y-36389D01*
X29666Y-36346D01*
X29767Y-36282D01*
X29853Y-36199D01*
X29922Y-36101D01*
X29971Y-35992D01*
X29997Y-35876D01*
X29999Y-35739D01*
X29976Y-35622D01*
X29930Y-35511D01*
X29864Y-35411D01*
X29780Y-35326D01*
X29739Y-35299D01*
X29767Y-35282D01*
X29853Y-35199D01*
X29922Y-35101D01*
X29971Y-34992D01*
X29997Y-34876D01*
X29999Y-34739D01*
X29976Y-34622D01*
X29930Y-34511D01*
X29878Y-34432D01*
X30175Y-34136D01*
X30192Y-34115D01*
X30209Y-34094D01*
X30210Y-34093D01*
X30211Y-34092D01*
X30224Y-34068D01*
X30237Y-34045D01*
X30237Y-34043D01*
X30238Y-34042D01*
X30246Y-34016D01*
X30254Y-33991D01*
X30254Y-33989D01*
X30254Y-33988D01*
X30257Y-33961D01*
X30260Y-33935D01*
X30260Y-33932D01*
X30260Y-33932D01*
X30260Y-33932D01*
X30260Y-33931D01*
X30260Y-33465D01*
X31670Y-33465D01*
X31670Y-33639D01*
X31679Y-33688D01*
X31698Y-33733D01*
X31726Y-33774D01*
X31760Y-33809D01*
X31801Y-33836D01*
X31847Y-33855D01*
X31895Y-33865D01*
X31944Y-33865D01*
X32824Y-33865D01*
X32873Y-33855D01*
X32918Y-33836D01*
X32959Y-33809D01*
X32994Y-33774D01*
X33021Y-33733D01*
X33040Y-33688D01*
X33050Y-33639D01*
X33050Y-33590D01*
X33050Y-33378D01*
X33693Y-33378D01*
X33655Y-33434D01*
X33622Y-33510D01*
X33605Y-33592D01*
X33603Y-33675D01*
X33619Y-33757D01*
X33649Y-33834D01*
X33694Y-33905D01*
X33752Y-33964D01*
X33821Y-34012D01*
X33897Y-34045D01*
X33978Y-34063D01*
X34062Y-34065D01*
X34144Y-34051D01*
X34222Y-34020D01*
X34292Y-33976D01*
X34352Y-33918D01*
X34372Y-33890D01*
X37190Y-33890D01*
X37217Y-33887D01*
X37244Y-33885D01*
X37245Y-33885D01*
X37247Y-33884D01*
X37272Y-33877D01*
X37298Y-33869D01*
X37299Y-33868D01*
X37301Y-33868D01*
X37325Y-33855D01*
X37348Y-33843D01*
X37350Y-33842D01*
X37351Y-33841D01*
X37372Y-33825D01*
X37393Y-33808D01*
X37395Y-33806D01*
X37395Y-33806D01*
X37395Y-33806D01*
X37396Y-33805D01*
X37766Y-33434D01*
X37814Y-33435D01*
X37896Y-33421D01*
X37974Y-33391D01*
X38044Y-33346D01*
X38104Y-33288D01*
X38152Y-33220D01*
X38186Y-33144D01*
X38205Y-33063D01*
X38206Y-32968D01*
X38190Y-32886D01*
X38158Y-32809D01*
X38112Y-32739D01*
X38053Y-32680D01*
X37984Y-32634D01*
X37907Y-32601D01*
X37826Y-32585D01*
X37742Y-32584D01*
X37660Y-32600D01*
X37583Y-32631D01*
X37574Y-32637D01*
X37523Y-32602D01*
X37447Y-32570D01*
X37365Y-32553D01*
X37282Y-32553D01*
X37200Y-32568D01*
X37123Y-32599D01*
X37053Y-32645D01*
X37009Y-32688D01*
X36165Y-32688D01*
X35902Y-32425D01*
X35903Y-32369D01*
X35891Y-32309D01*
X38739Y-32309D01*
X38749Y-37601D01*
X36938Y-37601D01*
X36938Y-35346D01*
X36922Y-35264D01*
X36890Y-35187D01*
X36844Y-35117D01*
X36785Y-35058D01*
X36716Y-35012D01*
X36640Y-34979D01*
X36558Y-34963D01*
X36475Y-34962D01*
X36393Y-34978D01*
X36315Y-35009D01*
X36246Y-35054D01*
X36206Y-35093D01*
X35739Y-35093D01*
X35752Y-35035D01*
X35753Y-34940D01*
X35737Y-34858D01*
X35705Y-34781D01*
X35659Y-34712D01*
X35600Y-34653D01*
X35531Y-34606D01*
X35455Y-34574D01*
X35373Y-34557D01*
X35290Y-34556D01*
X35208Y-34572D01*
X35130Y-34603D01*
X35087Y-34632D01*
X34840Y-34632D01*
X34835Y-34620D01*
X34789Y-34550D01*
X34730Y-34491D01*
X34661Y-34445D01*
X34584Y-34412D01*
X34503Y-34396D01*
X34419Y-34395D01*
X34338Y-34411D01*
X34260Y-34442D01*
X34191Y-34488D01*
X34131Y-34546D01*
X34084Y-34615D01*
X34051Y-34691D01*
X34034Y-34773D01*
X34033Y-34856D01*
X34048Y-34938D01*
X34078Y-35016D01*
X34123Y-35086D01*
X34131Y-35093D01*
X33568Y-35093D01*
X33530Y-35054D01*
X33460Y-35008D01*
X33384Y-34975D01*
X33302Y-34959D01*
X33219Y-34958D01*
X33137Y-34974D01*
X33060Y-35005D01*
X32990Y-35051D01*
X32930Y-35109D01*
X32883Y-35178D01*
X32850Y-35254D01*
X32833Y-35336D01*
X32832Y-35399D01*
X32751Y-35479D01*
X32573Y-35479D01*
X32573Y-35305D01*
X32564Y-35256D01*
X32545Y-35211D01*
X32518Y-35170D01*
X32483Y-35135D01*
X32442Y-35108D01*
X32396Y-35089D01*
X32348Y-35079D01*
X32299Y-35079D01*
X31419Y-35079D01*
X31370Y-35089D01*
X31325Y-35108D01*
X31284Y-35135D01*
X31249Y-35170D01*
X31222Y-35211D01*
X31203Y-35256D01*
X31193Y-35305D01*
X31193Y-35354D01*
X31193Y-36234D01*
X31203Y-36282D01*
X31222Y-36328D01*
X31249Y-36369D01*
X31284Y-36403D01*
X31325Y-36431D01*
X31370Y-36450D01*
X31419Y-36459D01*
X31468Y-36459D01*
X32348Y-36459D01*
X32396Y-36450D01*
X32442Y-36431D01*
X32483Y-36403D01*
X32518Y-36369D01*
X32545Y-36328D01*
X32564Y-36282D01*
X32573Y-36234D01*
X32573Y-36185D01*
X32573Y-36059D01*
X32872Y-36059D01*
X32898Y-36057D01*
X32925Y-36054D01*
X32926Y-36054D01*
X32928Y-36054D01*
X32954Y-36046D01*
X32979Y-36038D01*
X32981Y-36038D01*
X32982Y-36037D01*
X33006Y-36025D01*
X33029Y-36012D01*
X33031Y-36011D01*
X33032Y-36011D01*
X33053Y-35994D01*
X33074Y-35977D01*
X33076Y-35975D01*
X33076Y-35975D01*
X33076Y-35975D01*
X33077Y-35974D01*
X33243Y-35808D01*
X33290Y-35809D01*
X33372Y-35795D01*
X33450Y-35765D01*
X33520Y-35720D01*
X33569Y-35673D01*
X36199Y-35673D01*
X36236Y-35713D01*
X36305Y-35760D01*
X36381Y-35793D01*
X36463Y-35811D01*
X36546Y-35813D01*
X36628Y-35799D01*
X36706Y-35768D01*
X36776Y-35724D01*
X36837Y-35666D01*
X36885Y-35598D01*
X36919Y-35522D01*
X36937Y-35441D01*
X36938Y-35346D01*
X36938Y-37601D01*
X28659Y-37601D01*
X28620Y-37562D01*
X28551Y-37516D01*
X28474Y-37483D01*
X28393Y-37467D01*
X28309Y-37466D01*
X28227Y-37482D01*
X28150Y-37513D01*
X28080Y-37558D01*
X28021Y-37617D01*
X27974Y-37685D01*
X27941Y-37762D01*
X27924Y-37844D01*
X27922Y-37927D01*
X27937Y-38009D01*
X27968Y-38086D01*
X28013Y-38156D01*
X28071Y-38216D01*
X28140Y-38264D01*
X28216Y-38297D01*
X28297Y-38315D01*
X28381Y-38317D01*
X28463Y-38303D01*
X28540Y-38272D01*
X28611Y-38228D01*
X28660Y-38181D01*
X38751Y-38181D01*
X38758Y-42365D01*
X36039Y-42356D01*
X37099Y-41296D01*
X37146Y-41297D01*
X37229Y-41283D01*
X37306Y-41253D01*
X37377Y-41208D01*
X37437Y-41151D01*
X37485Y-41082D01*
X37519Y-41006D01*
X37537Y-40925D01*
X37539Y-40830D01*
X37523Y-40748D01*
X37491Y-40671D01*
X37445Y-40602D01*
X37386Y-40542D01*
X37317Y-40496D01*
X37240Y-40464D01*
X37158Y-40447D01*
X37075Y-40446D01*
X36993Y-40462D01*
X36916Y-40493D01*
X36863Y-40527D01*
X36823Y-40500D01*
X36746Y-40468D01*
X36664Y-40451D01*
X36581Y-40450D01*
X36499Y-40466D01*
X36422Y-40497D01*
X36352Y-40543D01*
X36292Y-40601D01*
X36245Y-40670D01*
X36213Y-40746D01*
X36195Y-40828D01*
X36194Y-40891D01*
X34733Y-42352D01*
X29410Y-42336D01*
X29410Y-42226D01*
X29443Y-42194D01*
X29465Y-42163D01*
X29492Y-42174D01*
X29541Y-42184D01*
X29590Y-42184D01*
X30470Y-42184D01*
X30518Y-42174D01*
X30564Y-42155D01*
X30605Y-42128D01*
X30640Y-42093D01*
X30667Y-42052D01*
X30686Y-42007D01*
X30695Y-41958D01*
X30695Y-41909D01*
X30695Y-41029D01*
X30686Y-40981D01*
X30667Y-40935D01*
X30640Y-40894D01*
X30605Y-40859D01*
X30564Y-40832D01*
X30518Y-40813D01*
X30470Y-40804D01*
X30421Y-40804D01*
X29541Y-40804D01*
X29492Y-40813D01*
X29447Y-40832D01*
X29406Y-40859D01*
X29371Y-40894D01*
X29344Y-40935D01*
X29325Y-40981D01*
X29315Y-41029D01*
X29315Y-41078D01*
X29315Y-41536D01*
X29246Y-41507D01*
X29164Y-41490D01*
X29081Y-41490D01*
X28999Y-41505D01*
X28922Y-41536D01*
X28852Y-41582D01*
X28792Y-41640D01*
X28745Y-41709D01*
X28713Y-41786D01*
X28695Y-41867D01*
X28694Y-41951D01*
X28709Y-42033D01*
X28740Y-42110D01*
X28785Y-42180D01*
X28830Y-42226D01*
X28830Y-42334D01*
X26530Y-42327D01*
X26530Y-37466D01*
X26530Y-37417D01*
X26530Y-36537D01*
X26520Y-36489D01*
X26502Y-36443D01*
X26474Y-36402D01*
X26439Y-36367D01*
X26398Y-36340D01*
X26353Y-36321D01*
X26305Y-36311D01*
X26255Y-36311D01*
X25375Y-36311D01*
X25327Y-36321D01*
X25282Y-36340D01*
X25241Y-36367D01*
X25206Y-36402D01*
X25179Y-36443D01*
X25160Y-36489D01*
X25150Y-36537D01*
X25150Y-36586D01*
X25150Y-37466D01*
X25160Y-37514D01*
X25179Y-37560D01*
X25206Y-37601D01*
X25241Y-37636D01*
X25282Y-37663D01*
X25327Y-37682D01*
X25375Y-37691D01*
X25425Y-37691D01*
X26305Y-37691D01*
X26353Y-37682D01*
X26398Y-37663D01*
X26439Y-37636D01*
X26474Y-37601D01*
X26502Y-37560D01*
X26520Y-37514D01*
X26530Y-37466D01*
X26530Y-42327D01*
X24733Y-42322D01*
X24721Y-19954D01*
X52569Y-19954D01*
X52564Y-19967D01*
X52550Y-20035D01*
X52550Y-20104D01*
X52550Y-20412D01*
X52638Y-20499D01*
X53330Y-20499D01*
X53330Y-20491D01*
X53350Y-20491D01*
X53350Y-20499D01*
X53358Y-20499D01*
X53358Y-20519D01*
X53350Y-20519D01*
X53350Y-21212D01*
X53438Y-21299D01*
X53815Y-21299D01*
X53882Y-21286D01*
X53946Y-21260D01*
X54003Y-21221D01*
X54011Y-42160D01*
M02*
