%FSLAX34Y34*%
G04 Gerber Fmt 3.4, Leading zero omitted, Abs format*
G04 (created by PCBNEW (2014-02-21 BZR 4712)-product) date Sun 02 Mar 2014 06:29:27 PM PST*
%MOIN*%
G01*
G70*
G90*
G04 APERTURE LIST*
%ADD10C,0.005906*%
%ADD11R,0.029921X0.094488*%
%ADD12R,0.068000X0.068000*%
%ADD13C,0.068000*%
%ADD14R,0.039300X0.013700*%
%ADD15R,0.013700X0.039300*%
%ADD16R,0.088000X0.088000*%
%ADD17C,0.236200*%
%ADD18C,0.270000*%
%ADD19C,0.055118*%
%ADD20R,0.118100X0.063000*%
%ADD21R,0.087926X0.087926*%
%ADD22R,0.062900X0.118100*%
%ADD23R,0.037400X0.035400*%
%ADD24R,0.070800X0.049200*%
%ADD25R,0.035400X0.037400*%
%ADD26R,0.053100X0.041300*%
%ADD27R,0.086600X0.061000*%
%ADD28R,0.061000X0.086600*%
%ADD29R,0.080000X0.068000*%
%ADD30O,0.080000X0.068000*%
%ADD31R,0.068000X0.080000*%
%ADD32O,0.068000X0.080000*%
%ADD33O,0.070900X0.137800*%
%ADD34R,0.039300X0.033400*%
%ADD35R,0.033400X0.039300*%
%ADD36R,0.045200X0.131800*%
%ADD37R,0.131800X0.045200*%
%ADD38R,0.066900X0.145700*%
%ADD39R,0.061000X0.023600*%
%ADD40R,0.059000X0.011800*%
%ADD41R,0.011800X0.059000*%
%ADD42R,0.052800X0.025900*%
%ADD43R,0.023600X0.061000*%
%ADD44C,0.072000*%
%ADD45R,0.062900X0.192900*%
G04 APERTURE END LIST*
G54D10*
G54D11*
X45488Y-33090D03*
X45488Y-34625D03*
X44988Y-33090D03*
X44988Y-34625D03*
X44488Y-33090D03*
X44488Y-34625D03*
X43988Y-33090D03*
X43988Y-34625D03*
X43488Y-33090D03*
X43488Y-34625D03*
G54D12*
X45700Y-36114D03*
G54D13*
X45700Y-37114D03*
X44700Y-36114D03*
X44724Y-37102D03*
X43700Y-36114D03*
X43700Y-37114D03*
X42700Y-36114D03*
X42700Y-37114D03*
X41700Y-36114D03*
X41700Y-37114D03*
G54D14*
X31239Y-55865D03*
X31239Y-55609D03*
X31239Y-55355D03*
X31239Y-55099D03*
G54D15*
X30894Y-54754D03*
X30638Y-54754D03*
X30384Y-54754D03*
X30128Y-54754D03*
G54D14*
X29783Y-55099D03*
X29783Y-55355D03*
X29783Y-55609D03*
X29783Y-55865D03*
G54D15*
X30128Y-56210D03*
X30384Y-56210D03*
X30638Y-56210D03*
X30894Y-56210D03*
G54D14*
X41748Y-47329D03*
X41748Y-47585D03*
X41748Y-47839D03*
X41748Y-48095D03*
G54D15*
X42093Y-48440D03*
X42349Y-48440D03*
X42603Y-48440D03*
X42859Y-48440D03*
G54D14*
X43204Y-48095D03*
X43204Y-47839D03*
X43204Y-47585D03*
X43204Y-47329D03*
G54D15*
X42859Y-46984D03*
X42603Y-46984D03*
X42349Y-46984D03*
X42093Y-46984D03*
G54D16*
X39655Y-27655D03*
X48151Y-45379D03*
X54564Y-45218D03*
X31883Y-35769D03*
X25840Y-37001D03*
X53340Y-20509D03*
X35210Y-45009D03*
X33423Y-45116D03*
X30005Y-41494D03*
X33167Y-28801D03*
X32360Y-33175D03*
X29875Y-45076D03*
X35899Y-49269D03*
X34257Y-49246D03*
X26068Y-55990D03*
X24001Y-55230D03*
X23848Y-57580D03*
X24009Y-49990D03*
X23958Y-52458D03*
G54D17*
X57874Y-57086D03*
X57874Y-39370D03*
X20866Y-39370D03*
X20866Y-57874D03*
G54D18*
X56555Y-35688D03*
X56515Y-22185D03*
X22185Y-35688D03*
X22185Y-22185D03*
G54D19*
X42476Y-47712D03*
X30511Y-55482D03*
G54D12*
X33370Y-22153D03*
G54D13*
X34370Y-22153D03*
X35370Y-22153D03*
X36370Y-22153D03*
X37370Y-22153D03*
X38370Y-22153D03*
X39370Y-22153D03*
X40370Y-22153D03*
X41370Y-22153D03*
X42370Y-22153D03*
X43370Y-22153D03*
X44370Y-22153D03*
X45370Y-22153D03*
X45370Y-21153D03*
X44370Y-21153D03*
X43370Y-21153D03*
X42370Y-21153D03*
X41370Y-21153D03*
X40370Y-21153D03*
X39370Y-21153D03*
X38370Y-21153D03*
X37370Y-21153D03*
X36370Y-21153D03*
X35370Y-21153D03*
X34370Y-21153D03*
X33370Y-21153D03*
G54D20*
X42988Y-24349D03*
X42988Y-26161D03*
G54D21*
X45606Y-24376D03*
X45606Y-26135D03*
X46485Y-25255D03*
X44726Y-25255D03*
G54D20*
X33946Y-24324D03*
X33946Y-26136D03*
G54D21*
X36564Y-24351D03*
X36564Y-26109D03*
X37444Y-25230D03*
X35685Y-25230D03*
G54D22*
X40488Y-24485D03*
X40488Y-26255D03*
G54D23*
X45344Y-47269D03*
X45344Y-47859D03*
G54D24*
X45051Y-27413D03*
X46073Y-27413D03*
G54D25*
X45159Y-49490D03*
X45749Y-49490D03*
X48998Y-52844D03*
X49588Y-52844D03*
G54D23*
X41824Y-53588D03*
X41824Y-54178D03*
G54D25*
X45143Y-56651D03*
X45733Y-56651D03*
G54D23*
X27659Y-55686D03*
X27659Y-55096D03*
X43635Y-28108D03*
X43635Y-28698D03*
X49001Y-57061D03*
X49001Y-57651D03*
X46049Y-29919D03*
X46049Y-29329D03*
X52120Y-53738D03*
X52120Y-54328D03*
G54D22*
X31801Y-24514D03*
X31801Y-26284D03*
G54D24*
X34369Y-27500D03*
X33347Y-27500D03*
G54D25*
X29799Y-27940D03*
X30389Y-27940D03*
G54D23*
X47923Y-35329D03*
X47923Y-35919D03*
G54D25*
X37069Y-27159D03*
X37659Y-27159D03*
X34722Y-30127D03*
X34132Y-30127D03*
X36734Y-36179D03*
X37324Y-36179D03*
G54D23*
X34143Y-41808D03*
X34143Y-41218D03*
X35309Y-41808D03*
X35309Y-41218D03*
G54D25*
X33958Y-43545D03*
X33368Y-43545D03*
G54D23*
X38171Y-43584D03*
X38171Y-44174D03*
G54D26*
X51285Y-20505D03*
X50577Y-20505D03*
G54D27*
X27102Y-23751D03*
X28716Y-23751D03*
G54D28*
X29818Y-26712D03*
X29818Y-25098D03*
G54D27*
X53210Y-36761D03*
X51596Y-36761D03*
G54D28*
X48598Y-26724D03*
X48598Y-25110D03*
X26082Y-25189D03*
X26082Y-26803D03*
G54D27*
X29763Y-37066D03*
X31377Y-37066D03*
G54D28*
X52515Y-26767D03*
X52515Y-25153D03*
G54D27*
X50877Y-23078D03*
X49263Y-23078D03*
G54D29*
X40281Y-34726D03*
G54D30*
X40281Y-33726D03*
X40281Y-32726D03*
G54D31*
X45281Y-30840D03*
G54D32*
X44281Y-30840D03*
X43281Y-30840D03*
X42281Y-30840D03*
X41281Y-30840D03*
X40281Y-30840D03*
G54D33*
X27468Y-25913D03*
X28468Y-25913D03*
X51122Y-25145D03*
X50122Y-25145D03*
G54D34*
X53218Y-42758D03*
X53218Y-43348D03*
G54D35*
X50800Y-52124D03*
X50210Y-52124D03*
G54D34*
X27061Y-45415D03*
X27061Y-44825D03*
X28057Y-45430D03*
X28057Y-44840D03*
X50348Y-45045D03*
X50348Y-44455D03*
X51348Y-45045D03*
X51348Y-44455D03*
X24041Y-41856D03*
X24041Y-41266D03*
X47860Y-41824D03*
X47860Y-41234D03*
X25218Y-41856D03*
X25218Y-41266D03*
X48919Y-41828D03*
X48919Y-41238D03*
G54D36*
X48081Y-36982D03*
X50521Y-36982D03*
G54D37*
X31468Y-28673D03*
X31468Y-31113D03*
G54D38*
X26142Y-20724D03*
X28464Y-20724D03*
G54D39*
X40756Y-28155D03*
X40756Y-28655D03*
X40756Y-29155D03*
X40756Y-29655D03*
X42880Y-29655D03*
X42880Y-29155D03*
X42880Y-28655D03*
X42880Y-28155D03*
G54D40*
X42907Y-51864D03*
X42907Y-52061D03*
X42907Y-52258D03*
X42907Y-52455D03*
X42907Y-52652D03*
X42907Y-52848D03*
X42907Y-53045D03*
X42907Y-53242D03*
X42907Y-53438D03*
X42907Y-53635D03*
X42907Y-53832D03*
X42907Y-54028D03*
X42907Y-54225D03*
X42907Y-54422D03*
X42907Y-54619D03*
X42907Y-54816D03*
G54D41*
X43675Y-55584D03*
X43872Y-55584D03*
X44069Y-55584D03*
X44266Y-55584D03*
X44463Y-55584D03*
X44659Y-55584D03*
X44856Y-55584D03*
X45053Y-55584D03*
X45249Y-55584D03*
X45446Y-55584D03*
X45643Y-55584D03*
X45839Y-55584D03*
X46036Y-55584D03*
X46233Y-55584D03*
X46430Y-55584D03*
X46627Y-55584D03*
G54D40*
X47395Y-54816D03*
X47395Y-54619D03*
X47395Y-54422D03*
X47395Y-54225D03*
X47395Y-54028D03*
X47395Y-53832D03*
X47395Y-53635D03*
X47395Y-53438D03*
X47395Y-53242D03*
X47395Y-53045D03*
X47395Y-52848D03*
X47395Y-52652D03*
X47395Y-52455D03*
X47395Y-52258D03*
X47395Y-52061D03*
X47395Y-51864D03*
G54D41*
X46627Y-51096D03*
X46430Y-51096D03*
X46233Y-51096D03*
X46036Y-51096D03*
X45839Y-51096D03*
X45643Y-51096D03*
X45446Y-51096D03*
X45249Y-51096D03*
X45053Y-51096D03*
X44856Y-51096D03*
X44659Y-51096D03*
X44463Y-51096D03*
X44266Y-51096D03*
X44069Y-51096D03*
X43872Y-51096D03*
X43675Y-51096D03*
G54D42*
X45250Y-29070D03*
X45250Y-28696D03*
X45250Y-28322D03*
X44300Y-28322D03*
X44300Y-29070D03*
G54D43*
X31314Y-43611D03*
X31814Y-43611D03*
X32314Y-43611D03*
X32814Y-43611D03*
X32814Y-41487D03*
X32314Y-41487D03*
X31814Y-41487D03*
X31314Y-41487D03*
X36114Y-43611D03*
X36614Y-43611D03*
X37114Y-43611D03*
X37614Y-43611D03*
X37614Y-41487D03*
X37114Y-41487D03*
X36614Y-41487D03*
X36114Y-41487D03*
X26559Y-43658D03*
X27059Y-43658D03*
X27559Y-43658D03*
X28059Y-43658D03*
X28059Y-41534D03*
X27559Y-41534D03*
X27059Y-41534D03*
X26559Y-41534D03*
X49850Y-43520D03*
X50350Y-43520D03*
X50850Y-43520D03*
X51350Y-43520D03*
X51350Y-41396D03*
X50850Y-41396D03*
X50350Y-41396D03*
X49850Y-41396D03*
G54D39*
X33813Y-34155D03*
X33813Y-34655D03*
X33813Y-35155D03*
X33813Y-35655D03*
X33813Y-36155D03*
X33813Y-36655D03*
X33813Y-37155D03*
X35937Y-37155D03*
X35937Y-36655D03*
X35937Y-36155D03*
X35937Y-35655D03*
X35937Y-35155D03*
X35937Y-34655D03*
X35937Y-34155D03*
G54D44*
X27389Y-32299D03*
X29389Y-31799D03*
X27389Y-31299D03*
X29389Y-30799D03*
X27389Y-30299D03*
X29389Y-29799D03*
X27389Y-29299D03*
X29389Y-28799D03*
X29389Y-35799D03*
X27389Y-35299D03*
X29389Y-34799D03*
X27389Y-34299D03*
X29389Y-33799D03*
X27389Y-33299D03*
X29389Y-32799D03*
X51244Y-31523D03*
X49244Y-32023D03*
X51244Y-32523D03*
X49244Y-33023D03*
X51244Y-33523D03*
X49244Y-34023D03*
X51244Y-34523D03*
X49244Y-35023D03*
X49244Y-28023D03*
X51244Y-28523D03*
X49244Y-29023D03*
X51244Y-29523D03*
X49244Y-30023D03*
X51244Y-30523D03*
X49244Y-31023D03*
G54D39*
X34758Y-30929D03*
X34758Y-31429D03*
X34758Y-31929D03*
X34758Y-32429D03*
X36882Y-32429D03*
X36882Y-31929D03*
X36882Y-31429D03*
X36882Y-30929D03*
X37855Y-29354D03*
X37855Y-28854D03*
X37855Y-28354D03*
X37855Y-27854D03*
X35731Y-27854D03*
X35731Y-28354D03*
X35731Y-28854D03*
X35731Y-29354D03*
G54D45*
X50549Y-57418D03*
X50549Y-53758D03*
M02*
