%FSLAX34Y34*%
G04 Gerber Fmt 3.4, Leading zero omitted, Abs format*
G04 (created by PCBNEW (2014-02-21 BZR 4712)-product) date Tue 25 Feb 2014 10:55:41 PM PST*
%MOIN*%
G01*
G70*
G90*
G04 APERTURE LIST*
%ADD10C,0.005906*%
%ADD11C,0.008000*%
%ADD12C,0.007874*%
%ADD13C,0.007000*%
%ADD14C,0.010000*%
%ADD15C,0.015000*%
%ADD16C,0.005900*%
%ADD17C,0.020000*%
%ADD18C,0.005000*%
G04 APERTURE END LIST*
G54D10*
G54D11*
X37089Y-33499D02*
X37089Y-33823D01*
X37108Y-33861D01*
X37127Y-33880D01*
X37165Y-33899D01*
X37242Y-33899D01*
X37280Y-33880D01*
X37299Y-33861D01*
X37318Y-33823D01*
X37318Y-33499D01*
X37508Y-33899D02*
X37508Y-33499D01*
X37661Y-33499D01*
X37699Y-33518D01*
X37718Y-33537D01*
X37737Y-33575D01*
X37737Y-33632D01*
X37718Y-33670D01*
X37699Y-33689D01*
X37661Y-33708D01*
X37508Y-33708D01*
X38118Y-33518D02*
X38080Y-33499D01*
X38022Y-33499D01*
X37965Y-33518D01*
X37927Y-33556D01*
X37908Y-33594D01*
X37889Y-33670D01*
X37889Y-33728D01*
X37908Y-33804D01*
X37927Y-33842D01*
X37965Y-33880D01*
X38022Y-33899D01*
X38061Y-33899D01*
X38118Y-33880D01*
X38137Y-33861D01*
X38137Y-33728D01*
X38061Y-33728D01*
X38537Y-33899D02*
X38403Y-33708D01*
X38308Y-33899D02*
X38308Y-33499D01*
X38461Y-33499D01*
X38499Y-33518D01*
X38518Y-33537D01*
X38537Y-33575D01*
X38537Y-33632D01*
X38518Y-33670D01*
X38499Y-33689D01*
X38461Y-33708D01*
X38308Y-33708D01*
X38689Y-33785D02*
X38880Y-33785D01*
X38651Y-33899D02*
X38784Y-33499D01*
X38918Y-33899D01*
X39051Y-33899D02*
X39051Y-33499D01*
X39146Y-33499D01*
X39203Y-33518D01*
X39242Y-33556D01*
X39261Y-33594D01*
X39280Y-33670D01*
X39280Y-33728D01*
X39261Y-33804D01*
X39242Y-33842D01*
X39203Y-33880D01*
X39146Y-33899D01*
X39051Y-33899D01*
X39451Y-33689D02*
X39584Y-33689D01*
X39642Y-33899D02*
X39451Y-33899D01*
X39451Y-33499D01*
X39642Y-33499D01*
X27479Y-51252D02*
X27536Y-51271D01*
X27632Y-51271D01*
X27670Y-51252D01*
X27689Y-51233D01*
X27708Y-51195D01*
X27708Y-51156D01*
X27689Y-51118D01*
X27670Y-51099D01*
X27632Y-51080D01*
X27555Y-51061D01*
X27517Y-51042D01*
X27498Y-51023D01*
X27479Y-50985D01*
X27479Y-50947D01*
X27498Y-50909D01*
X27517Y-50890D01*
X27555Y-50871D01*
X27651Y-50871D01*
X27708Y-50890D01*
X27841Y-51004D02*
X27936Y-51271D01*
X28032Y-51004D02*
X27936Y-51271D01*
X27898Y-51366D01*
X27879Y-51385D01*
X27841Y-51404D01*
X28184Y-51004D02*
X28184Y-51271D01*
X28184Y-51042D02*
X28203Y-51023D01*
X28241Y-51004D01*
X28298Y-51004D01*
X28336Y-51023D01*
X28355Y-51061D01*
X28355Y-51271D01*
X28717Y-51252D02*
X28679Y-51271D01*
X28603Y-51271D01*
X28565Y-51252D01*
X28546Y-51233D01*
X28527Y-51195D01*
X28527Y-51080D01*
X28546Y-51042D01*
X28565Y-51023D01*
X28603Y-51004D01*
X28679Y-51004D01*
X28717Y-51023D01*
X28889Y-51271D02*
X28889Y-50871D01*
X29060Y-51271D02*
X29060Y-51061D01*
X29041Y-51023D01*
X29003Y-51004D01*
X28946Y-51004D01*
X28908Y-51023D01*
X28889Y-51042D01*
X29251Y-51271D02*
X29251Y-51004D01*
X29251Y-51080D02*
X29270Y-51042D01*
X29289Y-51023D01*
X29327Y-51004D01*
X29365Y-51004D01*
X29555Y-51271D02*
X29517Y-51252D01*
X29498Y-51233D01*
X29479Y-51195D01*
X29479Y-51080D01*
X29498Y-51042D01*
X29517Y-51023D01*
X29555Y-51004D01*
X29613Y-51004D01*
X29651Y-51023D01*
X29670Y-51042D01*
X29689Y-51080D01*
X29689Y-51195D01*
X29670Y-51233D01*
X29651Y-51252D01*
X29613Y-51271D01*
X29555Y-51271D01*
X29841Y-50909D02*
X29860Y-50890D01*
X29898Y-50871D01*
X29994Y-50871D01*
X30032Y-50890D01*
X30051Y-50909D01*
X30070Y-50947D01*
X30070Y-50985D01*
X30051Y-51042D01*
X29822Y-51271D01*
X30070Y-51271D01*
X30546Y-51271D02*
X30546Y-50871D01*
X30679Y-51156D01*
X30813Y-50871D01*
X30813Y-51271D01*
X31060Y-51271D02*
X31022Y-51252D01*
X31003Y-51233D01*
X30984Y-51195D01*
X30984Y-51080D01*
X31003Y-51042D01*
X31022Y-51023D01*
X31060Y-51004D01*
X31117Y-51004D01*
X31155Y-51023D01*
X31174Y-51042D01*
X31194Y-51080D01*
X31194Y-51195D01*
X31174Y-51233D01*
X31155Y-51252D01*
X31117Y-51271D01*
X31060Y-51271D01*
X31308Y-51004D02*
X31460Y-51004D01*
X31365Y-50871D02*
X31365Y-51214D01*
X31384Y-51252D01*
X31422Y-51271D01*
X31460Y-51271D01*
X31651Y-51271D02*
X31613Y-51252D01*
X31594Y-51233D01*
X31574Y-51195D01*
X31574Y-51080D01*
X31594Y-51042D01*
X31613Y-51023D01*
X31651Y-51004D01*
X31708Y-51004D01*
X31746Y-51023D01*
X31765Y-51042D01*
X31784Y-51080D01*
X31784Y-51195D01*
X31765Y-51233D01*
X31746Y-51252D01*
X31708Y-51271D01*
X31651Y-51271D01*
X31955Y-51271D02*
X31955Y-51004D01*
X31955Y-51080D02*
X31974Y-51042D01*
X31994Y-51023D01*
X32032Y-51004D01*
X32070Y-51004D01*
X32508Y-51271D02*
X32508Y-50871D01*
X32603Y-50871D01*
X32660Y-50890D01*
X32698Y-50928D01*
X32717Y-50966D01*
X32736Y-51042D01*
X32736Y-51099D01*
X32717Y-51176D01*
X32698Y-51214D01*
X32660Y-51252D01*
X32603Y-51271D01*
X32508Y-51271D01*
X32908Y-51271D02*
X32908Y-51004D01*
X32908Y-51080D02*
X32927Y-51042D01*
X32946Y-51023D01*
X32984Y-51004D01*
X33022Y-51004D01*
X33155Y-51271D02*
X33155Y-51004D01*
X33155Y-50871D02*
X33136Y-50890D01*
X33155Y-50909D01*
X33174Y-50890D01*
X33155Y-50871D01*
X33155Y-50909D01*
X33308Y-51004D02*
X33403Y-51271D01*
X33498Y-51004D01*
X33803Y-51252D02*
X33765Y-51271D01*
X33689Y-51271D01*
X33651Y-51252D01*
X33632Y-51214D01*
X33632Y-51061D01*
X33651Y-51023D01*
X33689Y-51004D01*
X33765Y-51004D01*
X33803Y-51023D01*
X33822Y-51061D01*
X33822Y-51099D01*
X33632Y-51137D01*
X33994Y-51271D02*
X33994Y-51004D01*
X33994Y-51080D02*
X34013Y-51042D01*
X34032Y-51023D01*
X34070Y-51004D01*
X34108Y-51004D01*
X34546Y-51118D02*
X34851Y-51118D01*
X35574Y-51271D02*
X35441Y-51080D01*
X35346Y-51271D02*
X35346Y-50871D01*
X35498Y-50871D01*
X35536Y-50890D01*
X35555Y-50909D01*
X35574Y-50947D01*
X35574Y-51004D01*
X35555Y-51042D01*
X35536Y-51061D01*
X35498Y-51080D01*
X35346Y-51080D01*
X35898Y-51252D02*
X35860Y-51271D01*
X35784Y-51271D01*
X35746Y-51252D01*
X35727Y-51214D01*
X35727Y-51061D01*
X35746Y-51023D01*
X35784Y-51004D01*
X35860Y-51004D01*
X35898Y-51023D01*
X35917Y-51061D01*
X35917Y-51099D01*
X35727Y-51137D01*
X36051Y-51004D02*
X36146Y-51271D01*
X36241Y-51004D01*
X36394Y-51233D02*
X36413Y-51252D01*
X36394Y-51271D01*
X36374Y-51252D01*
X36394Y-51233D01*
X36394Y-51271D01*
X37174Y-51156D02*
X37365Y-51156D01*
X37136Y-51271D02*
X37270Y-50871D01*
X37403Y-51271D01*
X27613Y-52063D02*
X27594Y-52044D01*
X27555Y-51987D01*
X27536Y-51949D01*
X27517Y-51892D01*
X27498Y-51796D01*
X27498Y-51720D01*
X27517Y-51625D01*
X27536Y-51568D01*
X27555Y-51530D01*
X27594Y-51473D01*
X27613Y-51454D01*
X27936Y-51892D02*
X27898Y-51911D01*
X27822Y-51911D01*
X27784Y-51892D01*
X27765Y-51873D01*
X27746Y-51835D01*
X27746Y-51720D01*
X27765Y-51682D01*
X27784Y-51663D01*
X27822Y-51644D01*
X27898Y-51644D01*
X27936Y-51663D01*
X28070Y-52063D02*
X28089Y-52044D01*
X28127Y-51987D01*
X28146Y-51949D01*
X28165Y-51892D01*
X28184Y-51796D01*
X28184Y-51720D01*
X28165Y-51625D01*
X28146Y-51568D01*
X28127Y-51530D01*
X28089Y-51473D01*
X28070Y-51454D01*
X28660Y-51549D02*
X28679Y-51530D01*
X28717Y-51511D01*
X28813Y-51511D01*
X28851Y-51530D01*
X28870Y-51549D01*
X28889Y-51587D01*
X28889Y-51625D01*
X28870Y-51682D01*
X28641Y-51911D01*
X28889Y-51911D01*
X29136Y-51511D02*
X29174Y-51511D01*
X29213Y-51530D01*
X29232Y-51549D01*
X29251Y-51587D01*
X29270Y-51663D01*
X29270Y-51758D01*
X29251Y-51835D01*
X29232Y-51873D01*
X29213Y-51892D01*
X29174Y-51911D01*
X29136Y-51911D01*
X29098Y-51892D01*
X29079Y-51873D01*
X29060Y-51835D01*
X29041Y-51758D01*
X29041Y-51663D01*
X29060Y-51587D01*
X29079Y-51549D01*
X29098Y-51530D01*
X29136Y-51511D01*
X29651Y-51911D02*
X29422Y-51911D01*
X29536Y-51911D02*
X29536Y-51511D01*
X29498Y-51568D01*
X29460Y-51606D01*
X29422Y-51625D01*
X29994Y-51644D02*
X29994Y-51911D01*
X29898Y-51492D02*
X29803Y-51777D01*
X30051Y-51777D01*
X30508Y-51911D02*
X30508Y-51511D01*
X30508Y-51663D02*
X30546Y-51644D01*
X30622Y-51644D01*
X30660Y-51663D01*
X30679Y-51682D01*
X30698Y-51720D01*
X30698Y-51835D01*
X30679Y-51873D01*
X30660Y-51892D01*
X30622Y-51911D01*
X30546Y-51911D01*
X30508Y-51892D01*
X30832Y-51644D02*
X30927Y-51911D01*
X31022Y-51644D02*
X30927Y-51911D01*
X30889Y-52006D01*
X30870Y-52025D01*
X30832Y-52044D01*
X31441Y-51511D02*
X31536Y-51911D01*
X31613Y-51625D01*
X31689Y-51911D01*
X31784Y-51511D01*
X32108Y-51911D02*
X32108Y-51701D01*
X32089Y-51663D01*
X32051Y-51644D01*
X31974Y-51644D01*
X31936Y-51663D01*
X32108Y-51892D02*
X32070Y-51911D01*
X31974Y-51911D01*
X31936Y-51892D01*
X31917Y-51854D01*
X31917Y-51816D01*
X31936Y-51777D01*
X31974Y-51758D01*
X32070Y-51758D01*
X32108Y-51739D01*
X32260Y-51644D02*
X32355Y-51911D01*
X32451Y-51644D02*
X32355Y-51911D01*
X32317Y-52006D01*
X32298Y-52025D01*
X32260Y-52044D01*
X32603Y-51644D02*
X32603Y-51911D01*
X32603Y-51682D02*
X32622Y-51663D01*
X32660Y-51644D01*
X32717Y-51644D01*
X32755Y-51663D01*
X32774Y-51701D01*
X32774Y-51911D01*
X33117Y-51892D02*
X33079Y-51911D01*
X33003Y-51911D01*
X32965Y-51892D01*
X32946Y-51854D01*
X32946Y-51701D01*
X32965Y-51663D01*
X33003Y-51644D01*
X33079Y-51644D01*
X33117Y-51663D01*
X33136Y-51701D01*
X33136Y-51739D01*
X32946Y-51777D01*
X33841Y-51873D02*
X33822Y-51892D01*
X33765Y-51911D01*
X33727Y-51911D01*
X33670Y-51892D01*
X33632Y-51854D01*
X33613Y-51816D01*
X33594Y-51739D01*
X33594Y-51682D01*
X33613Y-51606D01*
X33632Y-51568D01*
X33670Y-51530D01*
X33727Y-51511D01*
X33765Y-51511D01*
X33822Y-51530D01*
X33841Y-51549D01*
X34013Y-51873D02*
X34032Y-51892D01*
X34013Y-51911D01*
X33994Y-51892D01*
X34013Y-51873D01*
X34013Y-51911D01*
X34717Y-51530D02*
X34679Y-51511D01*
X34622Y-51511D01*
X34565Y-51530D01*
X34527Y-51568D01*
X34508Y-51606D01*
X34489Y-51682D01*
X34489Y-51739D01*
X34508Y-51816D01*
X34527Y-51854D01*
X34565Y-51892D01*
X34622Y-51911D01*
X34660Y-51911D01*
X34717Y-51892D01*
X34736Y-51873D01*
X34736Y-51739D01*
X34660Y-51739D01*
X34908Y-51911D02*
X34908Y-51644D01*
X34908Y-51720D02*
X34927Y-51682D01*
X34946Y-51663D01*
X34984Y-51644D01*
X35022Y-51644D01*
X35327Y-51911D02*
X35327Y-51701D01*
X35308Y-51663D01*
X35270Y-51644D01*
X35194Y-51644D01*
X35155Y-51663D01*
X35327Y-51892D02*
X35289Y-51911D01*
X35194Y-51911D01*
X35155Y-51892D01*
X35136Y-51854D01*
X35136Y-51816D01*
X35155Y-51777D01*
X35194Y-51758D01*
X35289Y-51758D01*
X35327Y-51739D01*
X35517Y-51911D02*
X35517Y-51644D01*
X35517Y-51682D02*
X35536Y-51663D01*
X35574Y-51644D01*
X35632Y-51644D01*
X35670Y-51663D01*
X35689Y-51701D01*
X35689Y-51911D01*
X35689Y-51701D02*
X35708Y-51663D01*
X35746Y-51644D01*
X35803Y-51644D01*
X35841Y-51663D01*
X35860Y-51701D01*
X35860Y-51911D01*
X36108Y-51911D02*
X36070Y-51892D01*
X36051Y-51854D01*
X36051Y-51511D01*
X36260Y-51911D02*
X36260Y-51644D01*
X36260Y-51511D02*
X36241Y-51530D01*
X36260Y-51549D01*
X36279Y-51530D01*
X36260Y-51511D01*
X36260Y-51549D01*
X36622Y-51892D02*
X36584Y-51911D01*
X36508Y-51911D01*
X36470Y-51892D01*
X36451Y-51873D01*
X36432Y-51835D01*
X36432Y-51720D01*
X36451Y-51682D01*
X36470Y-51663D01*
X36508Y-51644D01*
X36584Y-51644D01*
X36622Y-51663D01*
X36794Y-51911D02*
X36794Y-51511D01*
X36965Y-51911D02*
X36965Y-51701D01*
X36946Y-51663D01*
X36908Y-51644D01*
X36851Y-51644D01*
X36813Y-51663D01*
X36794Y-51682D01*
X27479Y-52436D02*
X27670Y-52436D01*
X27441Y-52551D02*
X27574Y-52151D01*
X27708Y-52551D01*
X27898Y-52551D02*
X27860Y-52532D01*
X27841Y-52494D01*
X27841Y-52151D01*
X28108Y-52551D02*
X28070Y-52532D01*
X28051Y-52494D01*
X28051Y-52151D01*
X28565Y-52551D02*
X28565Y-52284D01*
X28565Y-52360D02*
X28584Y-52322D01*
X28603Y-52303D01*
X28641Y-52284D01*
X28679Y-52284D01*
X28813Y-52551D02*
X28813Y-52284D01*
X28813Y-52151D02*
X28794Y-52170D01*
X28813Y-52189D01*
X28832Y-52170D01*
X28813Y-52151D01*
X28813Y-52189D01*
X29174Y-52284D02*
X29174Y-52608D01*
X29155Y-52646D01*
X29136Y-52665D01*
X29098Y-52684D01*
X29041Y-52684D01*
X29003Y-52665D01*
X29174Y-52532D02*
X29136Y-52551D01*
X29060Y-52551D01*
X29022Y-52532D01*
X29003Y-52513D01*
X28984Y-52475D01*
X28984Y-52360D01*
X29003Y-52322D01*
X29022Y-52303D01*
X29060Y-52284D01*
X29136Y-52284D01*
X29174Y-52303D01*
X29365Y-52551D02*
X29365Y-52151D01*
X29536Y-52551D02*
X29536Y-52341D01*
X29517Y-52303D01*
X29479Y-52284D01*
X29422Y-52284D01*
X29384Y-52303D01*
X29365Y-52322D01*
X29670Y-52284D02*
X29822Y-52284D01*
X29727Y-52151D02*
X29727Y-52494D01*
X29746Y-52532D01*
X29784Y-52551D01*
X29822Y-52551D01*
X29936Y-52532D02*
X29974Y-52551D01*
X30051Y-52551D01*
X30089Y-52532D01*
X30108Y-52494D01*
X30108Y-52475D01*
X30089Y-52436D01*
X30051Y-52417D01*
X29994Y-52417D01*
X29955Y-52398D01*
X29936Y-52360D01*
X29936Y-52341D01*
X29955Y-52303D01*
X29994Y-52284D01*
X30051Y-52284D01*
X30089Y-52303D01*
X30813Y-52551D02*
X30679Y-52360D01*
X30584Y-52551D02*
X30584Y-52151D01*
X30736Y-52151D01*
X30774Y-52170D01*
X30794Y-52189D01*
X30813Y-52227D01*
X30813Y-52284D01*
X30794Y-52322D01*
X30774Y-52341D01*
X30736Y-52360D01*
X30584Y-52360D01*
X31136Y-52532D02*
X31098Y-52551D01*
X31022Y-52551D01*
X30984Y-52532D01*
X30965Y-52494D01*
X30965Y-52341D01*
X30984Y-52303D01*
X31022Y-52284D01*
X31098Y-52284D01*
X31136Y-52303D01*
X31155Y-52341D01*
X31155Y-52379D01*
X30965Y-52417D01*
X31308Y-52532D02*
X31346Y-52551D01*
X31422Y-52551D01*
X31460Y-52532D01*
X31479Y-52494D01*
X31479Y-52475D01*
X31460Y-52436D01*
X31422Y-52417D01*
X31365Y-52417D01*
X31327Y-52398D01*
X31308Y-52360D01*
X31308Y-52341D01*
X31327Y-52303D01*
X31365Y-52284D01*
X31422Y-52284D01*
X31460Y-52303D01*
X31803Y-52532D02*
X31765Y-52551D01*
X31689Y-52551D01*
X31651Y-52532D01*
X31632Y-52494D01*
X31632Y-52341D01*
X31651Y-52303D01*
X31689Y-52284D01*
X31765Y-52284D01*
X31803Y-52303D01*
X31822Y-52341D01*
X31822Y-52379D01*
X31632Y-52417D01*
X31994Y-52551D02*
X31994Y-52284D01*
X31994Y-52360D02*
X32013Y-52322D01*
X32032Y-52303D01*
X32070Y-52284D01*
X32108Y-52284D01*
X32203Y-52284D02*
X32298Y-52551D01*
X32394Y-52284D01*
X32698Y-52532D02*
X32660Y-52551D01*
X32584Y-52551D01*
X32546Y-52532D01*
X32527Y-52494D01*
X32527Y-52341D01*
X32546Y-52303D01*
X32584Y-52284D01*
X32660Y-52284D01*
X32698Y-52303D01*
X32717Y-52341D01*
X32717Y-52379D01*
X32527Y-52417D01*
X33060Y-52551D02*
X33060Y-52151D01*
X33060Y-52532D02*
X33022Y-52551D01*
X32946Y-52551D01*
X32908Y-52532D01*
X32889Y-52513D01*
X32870Y-52475D01*
X32870Y-52360D01*
X32889Y-52322D01*
X32908Y-52303D01*
X32946Y-52284D01*
X33022Y-52284D01*
X33060Y-52303D01*
X33251Y-52513D02*
X33270Y-52532D01*
X33251Y-52551D01*
X33232Y-52532D01*
X33251Y-52513D01*
X33251Y-52551D01*
X34032Y-52189D02*
X34051Y-52170D01*
X34089Y-52151D01*
X34184Y-52151D01*
X34222Y-52170D01*
X34241Y-52189D01*
X34260Y-52227D01*
X34260Y-52265D01*
X34241Y-52322D01*
X34013Y-52551D01*
X34260Y-52551D01*
X34394Y-52151D02*
X34641Y-52151D01*
X34508Y-52303D01*
X34565Y-52303D01*
X34603Y-52322D01*
X34622Y-52341D01*
X34641Y-52379D01*
X34641Y-52475D01*
X34622Y-52513D01*
X34603Y-52532D01*
X34565Y-52551D01*
X34451Y-52551D01*
X34413Y-52532D01*
X34394Y-52513D01*
X34946Y-52341D02*
X34813Y-52341D01*
X34813Y-52551D02*
X34813Y-52151D01*
X35003Y-52151D01*
X35308Y-52532D02*
X35270Y-52551D01*
X35194Y-52551D01*
X35155Y-52532D01*
X35136Y-52494D01*
X35136Y-52341D01*
X35155Y-52303D01*
X35194Y-52284D01*
X35270Y-52284D01*
X35308Y-52303D01*
X35327Y-52341D01*
X35327Y-52379D01*
X35136Y-52417D01*
X35498Y-52551D02*
X35498Y-52151D01*
X35498Y-52303D02*
X35536Y-52284D01*
X35613Y-52284D01*
X35651Y-52303D01*
X35670Y-52322D01*
X35689Y-52360D01*
X35689Y-52475D01*
X35670Y-52513D01*
X35651Y-52532D01*
X35613Y-52551D01*
X35536Y-52551D01*
X35498Y-52532D01*
X35841Y-52189D02*
X35860Y-52170D01*
X35898Y-52151D01*
X35994Y-52151D01*
X36032Y-52170D01*
X36051Y-52189D01*
X36070Y-52227D01*
X36070Y-52265D01*
X36051Y-52322D01*
X35822Y-52551D01*
X36070Y-52551D01*
X36317Y-52151D02*
X36355Y-52151D01*
X36394Y-52170D01*
X36413Y-52189D01*
X36432Y-52227D01*
X36451Y-52303D01*
X36451Y-52398D01*
X36432Y-52475D01*
X36413Y-52513D01*
X36394Y-52532D01*
X36355Y-52551D01*
X36317Y-52551D01*
X36279Y-52532D01*
X36260Y-52513D01*
X36241Y-52475D01*
X36222Y-52398D01*
X36222Y-52303D01*
X36241Y-52227D01*
X36260Y-52189D01*
X36279Y-52170D01*
X36317Y-52151D01*
X36832Y-52551D02*
X36603Y-52551D01*
X36717Y-52551D02*
X36717Y-52151D01*
X36679Y-52208D01*
X36641Y-52246D01*
X36603Y-52265D01*
X37174Y-52284D02*
X37174Y-52551D01*
X37079Y-52132D02*
X36984Y-52417D01*
X37232Y-52417D01*
G54D12*
X44976Y-47712D02*
G75*
G03X44976Y-47712I-2500J0D01*
G74*
G01*
X33011Y-55482D02*
G75*
G03X33011Y-55482I-2499J0D01*
G74*
G01*
G54D11*
X46565Y-36049D02*
X46336Y-36049D01*
X46450Y-36049D02*
X46450Y-35649D01*
X46412Y-35706D01*
X46374Y-35744D01*
X46336Y-35763D01*
X25094Y-56949D02*
X25227Y-56949D01*
X25284Y-57159D02*
X25094Y-57159D01*
X25094Y-56759D01*
X25284Y-56759D01*
X25455Y-57159D02*
X25455Y-56759D01*
X25684Y-57159D01*
X25684Y-56759D01*
X26103Y-57121D02*
X26084Y-57140D01*
X26027Y-57159D01*
X25989Y-57159D01*
X25932Y-57140D01*
X25894Y-57102D01*
X25875Y-57064D01*
X25855Y-56987D01*
X25855Y-56930D01*
X25875Y-56854D01*
X25894Y-56816D01*
X25932Y-56778D01*
X25989Y-56759D01*
X26027Y-56759D01*
X26084Y-56778D01*
X26103Y-56797D01*
X26179Y-57197D02*
X26484Y-57197D01*
X26579Y-57159D02*
X26579Y-56759D01*
X26770Y-57159D02*
X26770Y-56759D01*
X26998Y-57159D01*
X26998Y-56759D01*
X27132Y-56759D02*
X27360Y-56759D01*
X27246Y-57159D02*
X27246Y-56759D01*
X22979Y-58682D02*
X22979Y-58282D01*
X23075Y-58282D01*
X23132Y-58301D01*
X23170Y-58340D01*
X23189Y-58378D01*
X23208Y-58454D01*
X23208Y-58511D01*
X23189Y-58587D01*
X23170Y-58625D01*
X23132Y-58663D01*
X23075Y-58682D01*
X22979Y-58682D01*
X23608Y-58682D02*
X23475Y-58492D01*
X23379Y-58682D02*
X23379Y-58282D01*
X23532Y-58282D01*
X23570Y-58301D01*
X23589Y-58321D01*
X23608Y-58359D01*
X23608Y-58416D01*
X23589Y-58454D01*
X23570Y-58473D01*
X23532Y-58492D01*
X23379Y-58492D01*
X23684Y-58721D02*
X23989Y-58721D01*
X24065Y-58663D02*
X24122Y-58682D01*
X24218Y-58682D01*
X24256Y-58663D01*
X24275Y-58644D01*
X24294Y-58606D01*
X24294Y-58568D01*
X24275Y-58530D01*
X24256Y-58511D01*
X24218Y-58492D01*
X24141Y-58473D01*
X24103Y-58454D01*
X24084Y-58435D01*
X24065Y-58397D01*
X24065Y-58359D01*
X24084Y-58321D01*
X24103Y-58301D01*
X24141Y-58282D01*
X24237Y-58282D01*
X24294Y-58301D01*
X24465Y-58473D02*
X24599Y-58473D01*
X24656Y-58682D02*
X24465Y-58682D01*
X24465Y-58282D01*
X24656Y-58282D01*
X25018Y-58682D02*
X24827Y-58682D01*
X24827Y-58282D01*
X22966Y-56249D02*
X22966Y-55849D01*
X23061Y-55849D01*
X23118Y-55868D01*
X23156Y-55906D01*
X23175Y-55945D01*
X23194Y-56021D01*
X23194Y-56078D01*
X23175Y-56154D01*
X23156Y-56192D01*
X23118Y-56230D01*
X23061Y-56249D01*
X22966Y-56249D01*
X23594Y-56249D02*
X23461Y-56059D01*
X23366Y-56249D02*
X23366Y-55849D01*
X23518Y-55849D01*
X23556Y-55868D01*
X23575Y-55887D01*
X23594Y-55926D01*
X23594Y-55983D01*
X23575Y-56021D01*
X23556Y-56040D01*
X23518Y-56059D01*
X23366Y-56059D01*
X23670Y-56287D02*
X23975Y-56287D01*
X24051Y-56230D02*
X24109Y-56249D01*
X24204Y-56249D01*
X24242Y-56230D01*
X24261Y-56211D01*
X24280Y-56173D01*
X24280Y-56135D01*
X24261Y-56097D01*
X24242Y-56078D01*
X24204Y-56059D01*
X24128Y-56040D01*
X24089Y-56021D01*
X24070Y-56002D01*
X24051Y-55964D01*
X24051Y-55926D01*
X24070Y-55887D01*
X24089Y-55868D01*
X24128Y-55849D01*
X24223Y-55849D01*
X24280Y-55868D01*
X24680Y-56211D02*
X24661Y-56230D01*
X24604Y-56249D01*
X24566Y-56249D01*
X24509Y-56230D01*
X24470Y-56192D01*
X24451Y-56154D01*
X24432Y-56078D01*
X24432Y-56021D01*
X24451Y-55945D01*
X24470Y-55906D01*
X24509Y-55868D01*
X24566Y-55849D01*
X24604Y-55849D01*
X24661Y-55868D01*
X24680Y-55887D01*
X24851Y-56249D02*
X24851Y-55849D01*
X25080Y-56249D02*
X24909Y-56021D01*
X25080Y-55849D02*
X24851Y-56078D01*
X22832Y-53521D02*
X22832Y-53121D01*
X22928Y-53121D01*
X22985Y-53140D01*
X23023Y-53178D01*
X23042Y-53216D01*
X23061Y-53292D01*
X23061Y-53350D01*
X23042Y-53426D01*
X23023Y-53464D01*
X22985Y-53502D01*
X22928Y-53521D01*
X22832Y-53521D01*
X23461Y-53521D02*
X23328Y-53331D01*
X23232Y-53521D02*
X23232Y-53121D01*
X23385Y-53121D01*
X23423Y-53140D01*
X23442Y-53159D01*
X23461Y-53197D01*
X23461Y-53254D01*
X23442Y-53292D01*
X23423Y-53311D01*
X23385Y-53331D01*
X23232Y-53331D01*
X23537Y-53559D02*
X23842Y-53559D01*
X23937Y-53521D02*
X23937Y-53121D01*
X24070Y-53407D01*
X24204Y-53121D01*
X24204Y-53521D01*
X24470Y-53121D02*
X24547Y-53121D01*
X24585Y-53140D01*
X24623Y-53178D01*
X24642Y-53254D01*
X24642Y-53388D01*
X24623Y-53464D01*
X24585Y-53502D01*
X24547Y-53521D01*
X24470Y-53521D01*
X24432Y-53502D01*
X24394Y-53464D01*
X24375Y-53388D01*
X24375Y-53254D01*
X24394Y-53178D01*
X24432Y-53140D01*
X24470Y-53121D01*
X24794Y-53502D02*
X24851Y-53521D01*
X24947Y-53521D01*
X24985Y-53502D01*
X25004Y-53483D01*
X25023Y-53445D01*
X25023Y-53407D01*
X25004Y-53369D01*
X24985Y-53350D01*
X24947Y-53331D01*
X24870Y-53311D01*
X24832Y-53292D01*
X24813Y-53273D01*
X24794Y-53235D01*
X24794Y-53197D01*
X24813Y-53159D01*
X24832Y-53140D01*
X24870Y-53121D01*
X24966Y-53121D01*
X25023Y-53140D01*
X25194Y-53521D02*
X25194Y-53121D01*
X22880Y-51017D02*
X22880Y-50617D01*
X22975Y-50617D01*
X23032Y-50636D01*
X23070Y-50674D01*
X23089Y-50712D01*
X23108Y-50788D01*
X23108Y-50846D01*
X23089Y-50922D01*
X23070Y-50960D01*
X23032Y-50998D01*
X22975Y-51017D01*
X22880Y-51017D01*
X23508Y-51017D02*
X23375Y-50827D01*
X23280Y-51017D02*
X23280Y-50617D01*
X23432Y-50617D01*
X23470Y-50636D01*
X23489Y-50655D01*
X23508Y-50693D01*
X23508Y-50750D01*
X23489Y-50788D01*
X23470Y-50808D01*
X23432Y-50827D01*
X23280Y-50827D01*
X23584Y-51055D02*
X23889Y-51055D01*
X23984Y-51017D02*
X23984Y-50617D01*
X24118Y-50903D01*
X24251Y-50617D01*
X24251Y-51017D01*
X24441Y-51017D02*
X24441Y-50617D01*
X24613Y-50998D02*
X24670Y-51017D01*
X24765Y-51017D01*
X24803Y-50998D01*
X24822Y-50979D01*
X24841Y-50941D01*
X24841Y-50903D01*
X24822Y-50865D01*
X24803Y-50846D01*
X24765Y-50827D01*
X24689Y-50808D01*
X24651Y-50788D01*
X24632Y-50769D01*
X24613Y-50731D01*
X24613Y-50693D01*
X24632Y-50655D01*
X24651Y-50636D01*
X24689Y-50617D01*
X24784Y-50617D01*
X24841Y-50636D01*
X25089Y-50617D02*
X25165Y-50617D01*
X25203Y-50636D01*
X25241Y-50674D01*
X25261Y-50750D01*
X25261Y-50884D01*
X25241Y-50960D01*
X25203Y-50998D01*
X25165Y-51017D01*
X25089Y-51017D01*
X25051Y-50998D01*
X25013Y-50960D01*
X24994Y-50884D01*
X24994Y-50750D01*
X25013Y-50674D01*
X25051Y-50636D01*
X25089Y-50617D01*
X32972Y-50371D02*
X32972Y-49971D01*
X33105Y-50257D01*
X33238Y-49971D01*
X33238Y-50371D01*
X33562Y-50162D02*
X33619Y-50181D01*
X33638Y-50200D01*
X33657Y-50238D01*
X33657Y-50295D01*
X33638Y-50333D01*
X33619Y-50352D01*
X33581Y-50371D01*
X33429Y-50371D01*
X33429Y-49971D01*
X33562Y-49971D01*
X33600Y-49990D01*
X33619Y-50009D01*
X33638Y-50048D01*
X33638Y-50086D01*
X33619Y-50124D01*
X33600Y-50143D01*
X33562Y-50162D01*
X33429Y-50162D01*
X33734Y-50409D02*
X34038Y-50409D01*
X34362Y-50371D02*
X34229Y-50181D01*
X34134Y-50371D02*
X34134Y-49971D01*
X34286Y-49971D01*
X34324Y-49990D01*
X34343Y-50009D01*
X34362Y-50048D01*
X34362Y-50105D01*
X34343Y-50143D01*
X34324Y-50162D01*
X34286Y-50181D01*
X34134Y-50181D01*
X34496Y-49971D02*
X34762Y-50371D01*
X34762Y-49971D02*
X34496Y-50371D01*
X35421Y-50391D02*
X35421Y-49991D01*
X35554Y-50277D01*
X35688Y-49991D01*
X35688Y-50391D01*
X36011Y-50182D02*
X36069Y-50201D01*
X36088Y-50220D01*
X36107Y-50258D01*
X36107Y-50315D01*
X36088Y-50353D01*
X36069Y-50372D01*
X36030Y-50391D01*
X35878Y-50391D01*
X35878Y-49991D01*
X36011Y-49991D01*
X36050Y-50010D01*
X36069Y-50029D01*
X36088Y-50067D01*
X36088Y-50105D01*
X36069Y-50143D01*
X36050Y-50163D01*
X36011Y-50182D01*
X35878Y-50182D01*
X36183Y-50429D02*
X36488Y-50429D01*
X36526Y-49991D02*
X36754Y-49991D01*
X36640Y-50391D02*
X36640Y-49991D01*
X36850Y-49991D02*
X37116Y-50391D01*
X37116Y-49991D02*
X36850Y-50391D01*
X53984Y-46446D02*
X53794Y-46446D01*
X53794Y-46046D01*
X54327Y-46065D02*
X54289Y-46046D01*
X54232Y-46046D01*
X54175Y-46065D01*
X54137Y-46103D01*
X54118Y-46141D01*
X54099Y-46218D01*
X54099Y-46275D01*
X54118Y-46351D01*
X54137Y-46389D01*
X54175Y-46427D01*
X54232Y-46446D01*
X54270Y-46446D01*
X54327Y-46427D01*
X54346Y-46408D01*
X54346Y-46275D01*
X54270Y-46275D01*
X54518Y-46446D02*
X54518Y-46046D01*
X54746Y-46446D01*
X54746Y-46046D01*
X54937Y-46446D02*
X54937Y-46046D01*
X55032Y-46046D01*
X55089Y-46065D01*
X55127Y-46103D01*
X55146Y-46141D01*
X55165Y-46218D01*
X55165Y-46275D01*
X55146Y-46351D01*
X55127Y-46389D01*
X55089Y-46427D01*
X55032Y-46446D01*
X54937Y-46446D01*
X47588Y-46113D02*
X47836Y-46113D01*
X47702Y-46266D01*
X47760Y-46266D01*
X47798Y-46285D01*
X47817Y-46304D01*
X47836Y-46342D01*
X47836Y-46437D01*
X47817Y-46475D01*
X47798Y-46494D01*
X47760Y-46513D01*
X47645Y-46513D01*
X47607Y-46494D01*
X47588Y-46475D01*
X48007Y-46475D02*
X48026Y-46494D01*
X48007Y-46513D01*
X47988Y-46494D01*
X48007Y-46475D01*
X48007Y-46513D01*
X48160Y-46113D02*
X48407Y-46113D01*
X48274Y-46266D01*
X48331Y-46266D01*
X48369Y-46285D01*
X48388Y-46304D01*
X48407Y-46342D01*
X48407Y-46437D01*
X48388Y-46475D01*
X48369Y-46494D01*
X48331Y-46513D01*
X48217Y-46513D01*
X48179Y-46494D01*
X48160Y-46475D01*
X48521Y-46113D02*
X48655Y-46513D01*
X48788Y-46113D01*
X28862Y-45763D02*
X29091Y-45763D01*
X28977Y-46163D02*
X28977Y-45763D01*
X29186Y-45763D02*
X29281Y-46163D01*
X29358Y-45877D01*
X29434Y-46163D01*
X29529Y-45763D01*
X29586Y-46201D02*
X29891Y-46201D01*
X29967Y-46144D02*
X30024Y-46163D01*
X30119Y-46163D01*
X30158Y-46144D01*
X30177Y-46125D01*
X30196Y-46087D01*
X30196Y-46048D01*
X30177Y-46010D01*
X30158Y-45991D01*
X30119Y-45972D01*
X30043Y-45953D01*
X30005Y-45934D01*
X29986Y-45915D01*
X29967Y-45877D01*
X29967Y-45839D01*
X29986Y-45801D01*
X30005Y-45782D01*
X30043Y-45763D01*
X30138Y-45763D01*
X30196Y-45782D01*
X30367Y-45953D02*
X30500Y-45953D01*
X30558Y-46163D02*
X30367Y-46163D01*
X30367Y-45763D01*
X30558Y-45763D01*
X30729Y-46163D02*
X30729Y-45763D01*
X30958Y-46163D01*
X30958Y-45763D01*
X34683Y-46197D02*
X34683Y-45797D01*
X34778Y-45797D01*
X34835Y-45816D01*
X34873Y-45854D01*
X34892Y-45892D01*
X34911Y-45968D01*
X34911Y-46026D01*
X34892Y-46102D01*
X34873Y-46140D01*
X34835Y-46178D01*
X34778Y-46197D01*
X34683Y-46197D01*
X35064Y-46083D02*
X35254Y-46083D01*
X35026Y-46197D02*
X35159Y-45797D01*
X35292Y-46197D01*
X35654Y-46159D02*
X35635Y-46178D01*
X35578Y-46197D01*
X35540Y-46197D01*
X35483Y-46178D01*
X35445Y-46140D01*
X35426Y-46102D01*
X35407Y-46026D01*
X35407Y-45968D01*
X35426Y-45892D01*
X35445Y-45854D01*
X35483Y-45816D01*
X35540Y-45797D01*
X35578Y-45797D01*
X35635Y-45816D01*
X35654Y-45835D01*
X34749Y-46818D02*
X34807Y-46837D01*
X34902Y-46837D01*
X34940Y-46818D01*
X34959Y-46799D01*
X34978Y-46761D01*
X34978Y-46723D01*
X34959Y-46685D01*
X34940Y-46666D01*
X34902Y-46647D01*
X34826Y-46628D01*
X34788Y-46608D01*
X34768Y-46589D01*
X34749Y-46551D01*
X34749Y-46513D01*
X34768Y-46475D01*
X34788Y-46456D01*
X34826Y-46437D01*
X34921Y-46437D01*
X34978Y-46456D01*
X35149Y-46837D02*
X35149Y-46437D01*
X35245Y-46437D01*
X35302Y-46456D01*
X35340Y-46494D01*
X35359Y-46532D01*
X35378Y-46608D01*
X35378Y-46666D01*
X35359Y-46742D01*
X35340Y-46780D01*
X35302Y-46818D01*
X35245Y-46837D01*
X35149Y-46837D01*
X35549Y-46837D02*
X35549Y-46437D01*
X32899Y-46225D02*
X32899Y-45825D01*
X32995Y-45825D01*
X33052Y-45844D01*
X33090Y-45882D01*
X33109Y-45920D01*
X33128Y-45996D01*
X33128Y-46053D01*
X33109Y-46129D01*
X33090Y-46167D01*
X33052Y-46206D01*
X32995Y-46225D01*
X32899Y-46225D01*
X33280Y-46110D02*
X33471Y-46110D01*
X33242Y-46225D02*
X33375Y-45825D01*
X33509Y-46225D01*
X33871Y-46187D02*
X33852Y-46206D01*
X33795Y-46225D01*
X33756Y-46225D01*
X33699Y-46206D01*
X33661Y-46167D01*
X33642Y-46129D01*
X33623Y-46053D01*
X33623Y-45996D01*
X33642Y-45920D01*
X33661Y-45882D01*
X33699Y-45844D01*
X33756Y-45825D01*
X33795Y-45825D01*
X33852Y-45844D01*
X33871Y-45863D01*
X32861Y-46846D02*
X32918Y-46865D01*
X33014Y-46865D01*
X33052Y-46846D01*
X33071Y-46827D01*
X33090Y-46788D01*
X33090Y-46750D01*
X33071Y-46712D01*
X33052Y-46693D01*
X33014Y-46674D01*
X32937Y-46655D01*
X32899Y-46636D01*
X32880Y-46617D01*
X32861Y-46579D01*
X32861Y-46541D01*
X32880Y-46503D01*
X32899Y-46484D01*
X32937Y-46465D01*
X33033Y-46465D01*
X33090Y-46484D01*
X33490Y-46827D02*
X33471Y-46846D01*
X33414Y-46865D01*
X33375Y-46865D01*
X33318Y-46846D01*
X33280Y-46807D01*
X33261Y-46769D01*
X33242Y-46693D01*
X33242Y-46636D01*
X33261Y-46560D01*
X33280Y-46522D01*
X33318Y-46484D01*
X33375Y-46465D01*
X33414Y-46465D01*
X33471Y-46484D01*
X33490Y-46503D01*
X33661Y-46865D02*
X33661Y-46465D01*
X33890Y-46865D02*
X33718Y-46636D01*
X33890Y-46465D02*
X33661Y-46693D01*
X29494Y-42579D02*
X29494Y-42179D01*
X29589Y-42179D01*
X29646Y-42198D01*
X29684Y-42236D01*
X29703Y-42274D01*
X29722Y-42350D01*
X29722Y-42408D01*
X29703Y-42484D01*
X29684Y-42522D01*
X29646Y-42560D01*
X29589Y-42579D01*
X29494Y-42579D01*
X29875Y-42465D02*
X30065Y-42465D01*
X29837Y-42579D02*
X29970Y-42179D01*
X30103Y-42579D01*
X30465Y-42541D02*
X30446Y-42560D01*
X30389Y-42579D01*
X30351Y-42579D01*
X30294Y-42560D01*
X30256Y-42522D01*
X30237Y-42484D01*
X30218Y-42408D01*
X30218Y-42350D01*
X30237Y-42274D01*
X30256Y-42236D01*
X30294Y-42198D01*
X30351Y-42179D01*
X30389Y-42179D01*
X30446Y-42198D01*
X30465Y-42217D01*
X29903Y-43181D02*
X29884Y-43200D01*
X29827Y-43219D01*
X29789Y-43219D01*
X29732Y-43200D01*
X29694Y-43162D01*
X29675Y-43124D01*
X29656Y-43048D01*
X29656Y-42990D01*
X29675Y-42914D01*
X29694Y-42876D01*
X29732Y-42838D01*
X29789Y-42819D01*
X29827Y-42819D01*
X29884Y-42838D01*
X29903Y-42857D01*
X30056Y-43200D02*
X30113Y-43219D01*
X30208Y-43219D01*
X30246Y-43200D01*
X30265Y-43181D01*
X30284Y-43143D01*
X30284Y-43105D01*
X30265Y-43067D01*
X30246Y-43048D01*
X30208Y-43028D01*
X30132Y-43009D01*
X30094Y-42990D01*
X30075Y-42971D01*
X30056Y-42933D01*
X30056Y-42895D01*
X30075Y-42857D01*
X30094Y-42838D01*
X30132Y-42819D01*
X30227Y-42819D01*
X30284Y-42838D01*
X32525Y-29870D02*
X32525Y-29470D01*
X32621Y-29470D01*
X32678Y-29489D01*
X32716Y-29527D01*
X32735Y-29566D01*
X32754Y-29642D01*
X32754Y-29699D01*
X32735Y-29775D01*
X32716Y-29813D01*
X32678Y-29851D01*
X32621Y-29870D01*
X32525Y-29870D01*
X32906Y-29756D02*
X33097Y-29756D01*
X32868Y-29870D02*
X33001Y-29470D01*
X33135Y-29870D01*
X33497Y-29832D02*
X33478Y-29851D01*
X33421Y-29870D01*
X33382Y-29870D01*
X33325Y-29851D01*
X33287Y-29813D01*
X33268Y-29775D01*
X33249Y-29699D01*
X33249Y-29642D01*
X33268Y-29566D01*
X33287Y-29527D01*
X33325Y-29489D01*
X33382Y-29470D01*
X33421Y-29470D01*
X33478Y-29489D01*
X33497Y-29508D01*
X32335Y-30396D02*
X32525Y-30396D01*
X32297Y-30510D02*
X32430Y-30110D01*
X32563Y-30510D01*
X32773Y-30110D02*
X32849Y-30110D01*
X32887Y-30129D01*
X32925Y-30167D01*
X32944Y-30244D01*
X32944Y-30377D01*
X32925Y-30453D01*
X32887Y-30491D01*
X32849Y-30510D01*
X32773Y-30510D01*
X32735Y-30491D01*
X32697Y-30453D01*
X32678Y-30377D01*
X32678Y-30244D01*
X32697Y-30167D01*
X32735Y-30129D01*
X32773Y-30110D01*
X33116Y-30110D02*
X33116Y-30434D01*
X33135Y-30472D01*
X33154Y-30491D01*
X33192Y-30510D01*
X33268Y-30510D01*
X33306Y-30491D01*
X33325Y-30472D01*
X33344Y-30434D01*
X33344Y-30110D01*
X33478Y-30110D02*
X33706Y-30110D01*
X33592Y-30510D02*
X33592Y-30110D01*
X31575Y-32062D02*
X31804Y-32062D01*
X31690Y-32462D02*
X31690Y-32062D01*
X31899Y-32062D02*
X31994Y-32462D01*
X32070Y-32176D01*
X32147Y-32462D01*
X32242Y-32062D01*
X32394Y-32252D02*
X32528Y-32252D01*
X32585Y-32462D02*
X32394Y-32462D01*
X32394Y-32062D01*
X32585Y-32062D01*
X32756Y-32462D02*
X32756Y-32062D01*
X32985Y-32462D01*
X32985Y-32062D01*
X30493Y-35056D02*
X30493Y-34656D01*
X30645Y-34656D01*
X30683Y-34675D01*
X30703Y-34695D01*
X30722Y-34733D01*
X30722Y-34790D01*
X30703Y-34828D01*
X30683Y-34847D01*
X30645Y-34866D01*
X30493Y-34866D01*
X30855Y-34656D02*
X30950Y-35056D01*
X31026Y-34771D01*
X31103Y-35056D01*
X31198Y-34656D01*
X31350Y-35056D02*
X31350Y-34656D01*
X31483Y-34942D01*
X31617Y-34656D01*
X31617Y-35056D01*
X31712Y-35095D02*
X32017Y-35095D01*
X32341Y-35018D02*
X32322Y-35037D01*
X32264Y-35056D01*
X32226Y-35056D01*
X32169Y-35037D01*
X32131Y-34999D01*
X32112Y-34961D01*
X32093Y-34885D01*
X32093Y-34828D01*
X32112Y-34752D01*
X32131Y-34714D01*
X32169Y-34675D01*
X32226Y-34656D01*
X32264Y-34656D01*
X32322Y-34675D01*
X32341Y-34695D01*
X32703Y-35056D02*
X32512Y-35056D01*
X32512Y-34656D01*
X32836Y-35056D02*
X32836Y-34656D01*
X33064Y-35056D02*
X32893Y-34828D01*
X33064Y-34656D02*
X32836Y-34885D01*
X26531Y-37521D02*
X26531Y-37121D01*
X26664Y-37407D01*
X26798Y-37121D01*
X26798Y-37521D01*
X26988Y-37521D02*
X26988Y-37121D01*
X27140Y-37121D01*
X27179Y-37140D01*
X27198Y-37159D01*
X27217Y-37197D01*
X27217Y-37254D01*
X27198Y-37292D01*
X27179Y-37311D01*
X27140Y-37331D01*
X26988Y-37331D01*
X27350Y-37121D02*
X27445Y-37521D01*
X27521Y-37235D01*
X27598Y-37521D01*
X27693Y-37121D01*
X28074Y-37521D02*
X27940Y-37331D01*
X27845Y-37521D02*
X27845Y-37121D01*
X27998Y-37121D01*
X28036Y-37140D01*
X28055Y-37159D01*
X28074Y-37197D01*
X28074Y-37254D01*
X28055Y-37292D01*
X28036Y-37311D01*
X27998Y-37331D01*
X27845Y-37331D01*
X26645Y-22150D02*
X26512Y-21959D01*
X26416Y-22150D02*
X26416Y-21750D01*
X26569Y-21750D01*
X26607Y-21769D01*
X26626Y-21788D01*
X26645Y-21826D01*
X26645Y-21883D01*
X26626Y-21921D01*
X26607Y-21940D01*
X26569Y-21959D01*
X26416Y-21959D01*
X26816Y-21940D02*
X26950Y-21940D01*
X27007Y-22150D02*
X26816Y-22150D01*
X26816Y-21750D01*
X27007Y-21750D01*
X27159Y-22131D02*
X27216Y-22150D01*
X27312Y-22150D01*
X27350Y-22131D01*
X27369Y-22112D01*
X27388Y-22074D01*
X27388Y-22036D01*
X27369Y-21997D01*
X27350Y-21978D01*
X27312Y-21959D01*
X27235Y-21940D01*
X27197Y-21921D01*
X27178Y-21902D01*
X27159Y-21864D01*
X27159Y-21826D01*
X27178Y-21788D01*
X27197Y-21769D01*
X27235Y-21750D01*
X27331Y-21750D01*
X27388Y-21769D01*
X27559Y-21940D02*
X27693Y-21940D01*
X27750Y-22150D02*
X27559Y-22150D01*
X27559Y-21750D01*
X27750Y-21750D01*
X27864Y-21750D02*
X28093Y-21750D01*
X27978Y-22150D02*
X27978Y-21750D01*
X52713Y-21595D02*
X52522Y-21595D01*
X52522Y-21195D01*
X53055Y-21214D02*
X53017Y-21195D01*
X52960Y-21195D01*
X52903Y-21214D01*
X52865Y-21252D01*
X52846Y-21290D01*
X52827Y-21366D01*
X52827Y-21423D01*
X52846Y-21499D01*
X52865Y-21538D01*
X52903Y-21576D01*
X52960Y-21595D01*
X52998Y-21595D01*
X53055Y-21576D01*
X53075Y-21557D01*
X53075Y-21423D01*
X52998Y-21423D01*
X53246Y-21595D02*
X53246Y-21195D01*
X53475Y-21595D01*
X53475Y-21195D01*
X53665Y-21595D02*
X53665Y-21195D01*
X53760Y-21195D01*
X53817Y-21214D01*
X53855Y-21252D01*
X53875Y-21290D01*
X53894Y-21366D01*
X53894Y-21423D01*
X53875Y-21499D01*
X53855Y-21538D01*
X53817Y-21576D01*
X53760Y-21595D01*
X53665Y-21595D01*
X39151Y-28411D02*
X38961Y-28411D01*
X38942Y-28602D01*
X38961Y-28583D01*
X38999Y-28564D01*
X39094Y-28564D01*
X39132Y-28583D01*
X39151Y-28602D01*
X39170Y-28640D01*
X39170Y-28735D01*
X39151Y-28773D01*
X39132Y-28792D01*
X39094Y-28811D01*
X38999Y-28811D01*
X38961Y-28792D01*
X38942Y-28773D01*
X39342Y-28773D02*
X39361Y-28792D01*
X39342Y-28811D01*
X39323Y-28792D01*
X39342Y-28773D01*
X39342Y-28811D01*
X39609Y-28411D02*
X39647Y-28411D01*
X39685Y-28430D01*
X39704Y-28449D01*
X39723Y-28487D01*
X39742Y-28564D01*
X39742Y-28659D01*
X39723Y-28735D01*
X39704Y-28773D01*
X39685Y-28792D01*
X39647Y-28811D01*
X39609Y-28811D01*
X39570Y-28792D01*
X39551Y-28773D01*
X39532Y-28735D01*
X39513Y-28659D01*
X39513Y-28564D01*
X39532Y-28487D01*
X39551Y-28449D01*
X39570Y-28430D01*
X39609Y-28411D01*
X39856Y-28411D02*
X39989Y-28811D01*
X40123Y-28411D01*
X46344Y-31000D02*
X46116Y-31000D01*
X46230Y-31000D02*
X46230Y-30600D01*
X46192Y-30657D01*
X46154Y-30695D01*
X46116Y-30715D01*
X46511Y-36360D02*
X46511Y-36646D01*
X46492Y-36703D01*
X46454Y-36741D01*
X46397Y-36760D01*
X46359Y-36760D01*
X46645Y-36360D02*
X46873Y-36360D01*
X46759Y-36760D02*
X46759Y-36360D01*
X46987Y-36646D02*
X47178Y-36646D01*
X46949Y-36760D02*
X47083Y-36360D01*
X47216Y-36760D01*
X47559Y-36379D02*
X47521Y-36360D01*
X47464Y-36360D01*
X47406Y-36379D01*
X47368Y-36417D01*
X47349Y-36455D01*
X47330Y-36531D01*
X47330Y-36589D01*
X47349Y-36665D01*
X47368Y-36703D01*
X47406Y-36741D01*
X47464Y-36760D01*
X47502Y-36760D01*
X47559Y-36741D01*
X47578Y-36722D01*
X47578Y-36589D01*
X47502Y-36589D01*
X46232Y-33372D02*
X46232Y-33658D01*
X46213Y-33715D01*
X46175Y-33753D01*
X46117Y-33772D01*
X46079Y-33772D01*
X46365Y-33372D02*
X46594Y-33372D01*
X46479Y-33772D02*
X46479Y-33372D01*
X46708Y-33658D02*
X46898Y-33658D01*
X46670Y-33772D02*
X46803Y-33372D01*
X46936Y-33772D01*
X47279Y-33391D02*
X47241Y-33372D01*
X47184Y-33372D01*
X47127Y-33391D01*
X47089Y-33429D01*
X47070Y-33467D01*
X47051Y-33543D01*
X47051Y-33600D01*
X47070Y-33677D01*
X47089Y-33715D01*
X47127Y-33753D01*
X47184Y-33772D01*
X47222Y-33772D01*
X47279Y-33753D01*
X47298Y-33734D01*
X47298Y-33600D01*
X47222Y-33600D01*
X39125Y-32072D02*
X39125Y-31672D01*
X39220Y-31672D01*
X39277Y-31691D01*
X39316Y-31729D01*
X39335Y-31767D01*
X39354Y-31844D01*
X39354Y-31901D01*
X39335Y-31977D01*
X39316Y-32015D01*
X39277Y-32053D01*
X39220Y-32072D01*
X39125Y-32072D01*
X39525Y-32072D02*
X39525Y-31672D01*
X39696Y-32053D02*
X39754Y-32072D01*
X39849Y-32072D01*
X39887Y-32053D01*
X39906Y-32034D01*
X39925Y-31996D01*
X39925Y-31958D01*
X39906Y-31920D01*
X39887Y-31901D01*
X39849Y-31882D01*
X39773Y-31863D01*
X39735Y-31844D01*
X39716Y-31825D01*
X39696Y-31786D01*
X39696Y-31748D01*
X39716Y-31710D01*
X39735Y-31691D01*
X39773Y-31672D01*
X39868Y-31672D01*
X39925Y-31691D01*
X40077Y-31958D02*
X40268Y-31958D01*
X40039Y-32072D02*
X40173Y-31672D01*
X40306Y-32072D01*
X40573Y-31863D02*
X40630Y-31882D01*
X40649Y-31901D01*
X40668Y-31939D01*
X40668Y-31996D01*
X40649Y-32034D01*
X40630Y-32053D01*
X40592Y-32072D01*
X40439Y-32072D01*
X40439Y-31672D01*
X40573Y-31672D01*
X40611Y-31691D01*
X40630Y-31710D01*
X40649Y-31748D01*
X40649Y-31786D01*
X40630Y-31825D01*
X40611Y-31844D01*
X40573Y-31863D01*
X40439Y-31863D01*
X41030Y-32072D02*
X40839Y-32072D01*
X40839Y-31672D01*
X41163Y-31863D02*
X41296Y-31863D01*
X41354Y-32072D02*
X41163Y-32072D01*
X41163Y-31672D01*
X41354Y-31672D01*
X38905Y-35654D02*
X39039Y-35654D01*
X39096Y-35864D02*
X38905Y-35864D01*
X38905Y-35464D01*
X39096Y-35464D01*
X39267Y-35864D02*
X39267Y-35464D01*
X39496Y-35864D01*
X39496Y-35464D01*
X39667Y-35749D02*
X39858Y-35749D01*
X39629Y-35864D02*
X39762Y-35464D01*
X39896Y-35864D01*
X40162Y-35654D02*
X40220Y-35673D01*
X40239Y-35692D01*
X40258Y-35730D01*
X40258Y-35787D01*
X40239Y-35825D01*
X40220Y-35844D01*
X40182Y-35864D01*
X40029Y-35864D01*
X40029Y-35464D01*
X40162Y-35464D01*
X40201Y-35483D01*
X40220Y-35502D01*
X40239Y-35540D01*
X40239Y-35578D01*
X40220Y-35616D01*
X40201Y-35635D01*
X40162Y-35654D01*
X40029Y-35654D01*
X40620Y-35864D02*
X40429Y-35864D01*
X40429Y-35464D01*
X40753Y-35654D02*
X40886Y-35654D01*
X40943Y-35864D02*
X40753Y-35864D01*
X40753Y-35464D01*
X40943Y-35464D01*
G54D12*
X24685Y-38188D02*
X54055Y-38188D01*
X22047Y-40551D02*
X56692Y-40551D01*
X56692Y-58956D02*
X56692Y-40551D01*
X22047Y-40551D02*
X22047Y-58956D01*
X54055Y-19783D02*
X54055Y-38188D01*
X24685Y-19783D02*
X24685Y-38188D01*
X58956Y-19783D02*
X58956Y-58956D01*
X19783Y-58956D02*
X58956Y-58956D01*
X19783Y-19783D02*
X19783Y-58956D01*
X19783Y-19783D02*
X58956Y-19783D01*
G54D13*
X40952Y-26413D02*
X41531Y-26413D01*
X41531Y-26413D02*
X41531Y-24849D01*
X41531Y-24849D02*
X41009Y-24327D01*
X41009Y-24327D02*
X40952Y-24327D01*
X40024Y-26413D02*
X39445Y-26413D01*
X39445Y-26413D02*
X39445Y-24849D01*
X39445Y-24849D02*
X39967Y-24327D01*
X39967Y-24327D02*
X40024Y-24327D01*
G54D14*
X41102Y-23977D02*
X41152Y-24027D01*
X41152Y-24027D02*
X41102Y-24077D01*
X41102Y-24077D02*
X41052Y-24027D01*
X41052Y-24027D02*
X41102Y-23977D01*
G54D13*
X45257Y-47546D02*
X45257Y-47582D01*
X45257Y-47582D02*
X45257Y-47546D01*
X45431Y-47546D02*
X45431Y-47582D01*
X45431Y-47582D02*
X45431Y-47546D01*
X44883Y-27049D02*
X46241Y-27049D01*
X44883Y-27777D02*
X46241Y-27777D01*
G54D14*
X44583Y-26952D02*
X44633Y-26902D01*
X44633Y-26902D02*
X44683Y-26952D01*
X44683Y-26952D02*
X44633Y-27002D01*
X44633Y-27002D02*
X44583Y-26952D01*
G54D13*
X45436Y-49577D02*
X45472Y-49577D01*
X45472Y-49577D02*
X45436Y-49577D01*
X45436Y-49403D02*
X45472Y-49403D01*
X45472Y-49403D02*
X45436Y-49403D01*
X49275Y-52931D02*
X49311Y-52931D01*
X49311Y-52931D02*
X49275Y-52931D01*
X49275Y-52757D02*
X49311Y-52757D01*
X49311Y-52757D02*
X49275Y-52757D01*
X41737Y-53865D02*
X41737Y-53901D01*
X41737Y-53901D02*
X41737Y-53865D01*
X41911Y-53865D02*
X41911Y-53901D01*
X41911Y-53901D02*
X41911Y-53865D01*
X45420Y-56738D02*
X45456Y-56738D01*
X45456Y-56738D02*
X45420Y-56738D01*
X45420Y-56564D02*
X45456Y-56564D01*
X45456Y-56564D02*
X45420Y-56564D01*
X27746Y-55409D02*
X27746Y-55373D01*
X27746Y-55373D02*
X27746Y-55409D01*
X27572Y-55409D02*
X27572Y-55373D01*
X27572Y-55373D02*
X27572Y-55409D01*
X43548Y-28385D02*
X43548Y-28421D01*
X43548Y-28421D02*
X43548Y-28385D01*
X43722Y-28385D02*
X43722Y-28421D01*
X43722Y-28421D02*
X43722Y-28385D01*
X48914Y-57338D02*
X48914Y-57374D01*
X48914Y-57374D02*
X48914Y-57338D01*
X49088Y-57338D02*
X49088Y-57374D01*
X49088Y-57374D02*
X49088Y-57338D01*
X46136Y-29642D02*
X46136Y-29606D01*
X46136Y-29606D02*
X46136Y-29642D01*
X45962Y-29642D02*
X45962Y-29606D01*
X45962Y-29606D02*
X45962Y-29642D01*
X52033Y-54015D02*
X52033Y-54051D01*
X52033Y-54051D02*
X52033Y-54015D01*
X52207Y-54015D02*
X52207Y-54051D01*
X52207Y-54051D02*
X52207Y-54015D01*
X32265Y-26442D02*
X32844Y-26442D01*
X32844Y-26442D02*
X32844Y-24878D01*
X32844Y-24878D02*
X32322Y-24356D01*
X32322Y-24356D02*
X32265Y-24356D01*
X31337Y-26442D02*
X30758Y-26442D01*
X30758Y-26442D02*
X30758Y-24878D01*
X30758Y-24878D02*
X31280Y-24356D01*
X31280Y-24356D02*
X31337Y-24356D01*
G54D14*
X32415Y-24006D02*
X32465Y-24056D01*
X32465Y-24056D02*
X32415Y-24106D01*
X32415Y-24106D02*
X32365Y-24056D01*
X32365Y-24056D02*
X32415Y-24006D01*
G54D13*
X34537Y-27864D02*
X33179Y-27864D01*
X34537Y-27136D02*
X33179Y-27136D01*
G54D14*
X34837Y-27961D02*
X34787Y-28011D01*
X34787Y-28011D02*
X34737Y-27961D01*
X34737Y-27961D02*
X34787Y-27911D01*
X34787Y-27911D02*
X34837Y-27961D01*
G54D13*
X30076Y-28027D02*
X30112Y-28027D01*
X30112Y-28027D02*
X30076Y-28027D01*
X30076Y-27853D02*
X30112Y-27853D01*
X30112Y-27853D02*
X30076Y-27853D01*
X47836Y-35606D02*
X47836Y-35642D01*
X47836Y-35642D02*
X47836Y-35606D01*
X48010Y-35606D02*
X48010Y-35642D01*
X48010Y-35642D02*
X48010Y-35606D01*
X37346Y-27246D02*
X37382Y-27246D01*
X37382Y-27246D02*
X37346Y-27246D01*
X37346Y-27072D02*
X37382Y-27072D01*
X37382Y-27072D02*
X37346Y-27072D01*
X34445Y-30040D02*
X34409Y-30040D01*
X34409Y-30040D02*
X34445Y-30040D01*
X34445Y-30214D02*
X34409Y-30214D01*
X34409Y-30214D02*
X34445Y-30214D01*
X37011Y-36266D02*
X37047Y-36266D01*
X37047Y-36266D02*
X37011Y-36266D01*
X37011Y-36092D02*
X37047Y-36092D01*
X37047Y-36092D02*
X37011Y-36092D01*
X34230Y-41531D02*
X34230Y-41495D01*
X34230Y-41495D02*
X34230Y-41531D01*
X34056Y-41531D02*
X34056Y-41495D01*
X34056Y-41495D02*
X34056Y-41531D01*
X35396Y-41531D02*
X35396Y-41495D01*
X35396Y-41495D02*
X35396Y-41531D01*
X35222Y-41531D02*
X35222Y-41495D01*
X35222Y-41495D02*
X35222Y-41531D01*
X51374Y-20801D02*
X50488Y-20801D01*
X51374Y-20209D02*
X50488Y-20209D01*
G54D14*
X51674Y-20926D02*
X51624Y-20976D01*
X51624Y-20976D02*
X51574Y-20926D01*
X51574Y-20926D02*
X51624Y-20876D01*
X51624Y-20876D02*
X51674Y-20926D01*
G54D13*
X26867Y-23296D02*
X26867Y-23170D01*
X26867Y-23170D02*
X28951Y-23170D01*
X28951Y-23170D02*
X28951Y-23296D01*
X26867Y-24206D02*
X26867Y-24332D01*
X26867Y-24332D02*
X28951Y-24332D01*
X28951Y-24332D02*
X28951Y-24206D01*
G54D14*
X26567Y-23231D02*
X26617Y-23181D01*
X26617Y-23181D02*
X26667Y-23231D01*
X26667Y-23231D02*
X26617Y-23281D01*
X26617Y-23281D02*
X26567Y-23231D01*
G54D13*
X29363Y-26947D02*
X29237Y-26947D01*
X29237Y-26947D02*
X29237Y-24863D01*
X29237Y-24863D02*
X29363Y-24863D01*
X30273Y-26947D02*
X30399Y-26947D01*
X30399Y-26947D02*
X30399Y-24863D01*
X30399Y-24863D02*
X30273Y-24863D01*
G54D14*
X29298Y-27247D02*
X29248Y-27197D01*
X29248Y-27197D02*
X29298Y-27147D01*
X29298Y-27147D02*
X29348Y-27197D01*
X29348Y-27197D02*
X29298Y-27247D01*
G54D13*
X53445Y-37216D02*
X53445Y-37342D01*
X53445Y-37342D02*
X51361Y-37342D01*
X51361Y-37342D02*
X51361Y-37216D01*
X53445Y-36306D02*
X53445Y-36180D01*
X53445Y-36180D02*
X51361Y-36180D01*
X51361Y-36180D02*
X51361Y-36306D01*
G54D14*
X53745Y-37281D02*
X53695Y-37331D01*
X53695Y-37331D02*
X53645Y-37281D01*
X53645Y-37281D02*
X53695Y-37231D01*
X53695Y-37231D02*
X53745Y-37281D01*
G54D13*
X48143Y-26959D02*
X48017Y-26959D01*
X48017Y-26959D02*
X48017Y-24875D01*
X48017Y-24875D02*
X48143Y-24875D01*
X49053Y-26959D02*
X49179Y-26959D01*
X49179Y-26959D02*
X49179Y-24875D01*
X49179Y-24875D02*
X49053Y-24875D01*
G54D14*
X48078Y-27259D02*
X48028Y-27209D01*
X48028Y-27209D02*
X48078Y-27159D01*
X48078Y-27159D02*
X48128Y-27209D01*
X48128Y-27209D02*
X48078Y-27259D01*
G54D13*
X26537Y-24954D02*
X26663Y-24954D01*
X26663Y-24954D02*
X26663Y-27038D01*
X26663Y-27038D02*
X26537Y-27038D01*
X25627Y-24954D02*
X25501Y-24954D01*
X25501Y-24954D02*
X25501Y-27038D01*
X25501Y-27038D02*
X25627Y-27038D01*
G54D14*
X26602Y-24654D02*
X26652Y-24704D01*
X26652Y-24704D02*
X26602Y-24754D01*
X26602Y-24754D02*
X26552Y-24704D01*
X26552Y-24704D02*
X26602Y-24654D01*
G54D13*
X29528Y-36611D02*
X29528Y-36485D01*
X29528Y-36485D02*
X31612Y-36485D01*
X31612Y-36485D02*
X31612Y-36611D01*
X29528Y-37521D02*
X29528Y-37647D01*
X29528Y-37647D02*
X31612Y-37647D01*
X31612Y-37647D02*
X31612Y-37521D01*
G54D14*
X29228Y-36546D02*
X29278Y-36496D01*
X29278Y-36496D02*
X29328Y-36546D01*
X29328Y-36546D02*
X29278Y-36596D01*
X29278Y-36596D02*
X29228Y-36546D01*
G54D13*
X52060Y-27002D02*
X51934Y-27002D01*
X51934Y-27002D02*
X51934Y-24918D01*
X51934Y-24918D02*
X52060Y-24918D01*
X52970Y-27002D02*
X53096Y-27002D01*
X53096Y-27002D02*
X53096Y-24918D01*
X53096Y-24918D02*
X52970Y-24918D01*
G54D14*
X51995Y-27302D02*
X51945Y-27252D01*
X51945Y-27252D02*
X51995Y-27202D01*
X51995Y-27202D02*
X52045Y-27252D01*
X52045Y-27252D02*
X51995Y-27302D01*
G54D13*
X51112Y-23533D02*
X51112Y-23659D01*
X51112Y-23659D02*
X49028Y-23659D01*
X49028Y-23659D02*
X49028Y-23533D01*
X51112Y-22623D02*
X51112Y-22497D01*
X51112Y-22497D02*
X49028Y-22497D01*
X49028Y-22497D02*
X49028Y-22623D01*
G54D14*
X51412Y-23598D02*
X51362Y-23648D01*
X51362Y-23648D02*
X51312Y-23598D01*
X51312Y-23598D02*
X51362Y-23548D01*
X51362Y-23548D02*
X51412Y-23598D01*
X40781Y-34226D02*
X40781Y-32226D01*
X40781Y-32226D02*
X39781Y-32226D01*
X39781Y-32226D02*
X39781Y-34226D01*
X39781Y-35226D02*
X39781Y-34226D01*
X39781Y-34226D02*
X40781Y-34226D01*
X39781Y-35226D02*
X40781Y-35226D01*
X40781Y-35226D02*
X40781Y-34226D01*
X44781Y-31340D02*
X39781Y-31340D01*
X39781Y-31340D02*
X39781Y-30340D01*
X39781Y-30340D02*
X44781Y-30340D01*
X45781Y-31340D02*
X44781Y-31340D01*
X44781Y-31340D02*
X44781Y-30340D01*
X45781Y-31340D02*
X45781Y-30340D01*
X45781Y-30340D02*
X44781Y-30340D01*
G54D10*
X43110Y-32480D02*
X45866Y-32480D01*
X45866Y-35236D02*
X43110Y-35236D01*
X43110Y-32480D02*
X43110Y-35236D01*
X45866Y-32480D02*
X45866Y-35236D01*
X46046Y-32374D02*
G75*
G03X46046Y-32374I-50J0D01*
G74*
G01*
G54D15*
X26968Y-24913D02*
X28968Y-24913D01*
X28968Y-27163D02*
X28968Y-26663D01*
X28968Y-24913D02*
X28968Y-25163D01*
X26968Y-26913D02*
X26968Y-26663D01*
X26968Y-24913D02*
X26968Y-25163D01*
X26968Y-24913D02*
X26968Y-24663D01*
X26968Y-24663D02*
X28968Y-24663D01*
X28968Y-24663D02*
X28968Y-24913D01*
X28968Y-27163D02*
X26968Y-27163D01*
X26968Y-27163D02*
X26968Y-26913D01*
X51622Y-26145D02*
X49622Y-26145D01*
X49622Y-23895D02*
X49622Y-24395D01*
X49622Y-26145D02*
X49622Y-25895D01*
X51622Y-24145D02*
X51622Y-24395D01*
X51622Y-26145D02*
X51622Y-25895D01*
X51622Y-26145D02*
X51622Y-26395D01*
X51622Y-26395D02*
X49622Y-26395D01*
X49622Y-26395D02*
X49622Y-26145D01*
X49622Y-23895D02*
X51622Y-23895D01*
X51622Y-23895D02*
X51622Y-24145D01*
G54D13*
X53122Y-43026D02*
X53122Y-43080D01*
X53122Y-43080D02*
X53122Y-43026D01*
X53314Y-43026D02*
X53314Y-43080D01*
X53314Y-43080D02*
X53314Y-43026D01*
X50532Y-52028D02*
X50478Y-52028D01*
X50478Y-52028D02*
X50532Y-52028D01*
X50532Y-52220D02*
X50478Y-52220D01*
X50478Y-52220D02*
X50532Y-52220D01*
X27157Y-45147D02*
X27157Y-45093D01*
X27157Y-45093D02*
X27157Y-45147D01*
X26965Y-45147D02*
X26965Y-45093D01*
X26965Y-45093D02*
X26965Y-45147D01*
X28153Y-45162D02*
X28153Y-45108D01*
X28153Y-45108D02*
X28153Y-45162D01*
X27961Y-45162D02*
X27961Y-45108D01*
X27961Y-45108D02*
X27961Y-45162D01*
X50444Y-44777D02*
X50444Y-44723D01*
X50444Y-44723D02*
X50444Y-44777D01*
X50252Y-44777D02*
X50252Y-44723D01*
X50252Y-44723D02*
X50252Y-44777D01*
X51444Y-44777D02*
X51444Y-44723D01*
X51444Y-44723D02*
X51444Y-44777D01*
X51252Y-44777D02*
X51252Y-44723D01*
X51252Y-44723D02*
X51252Y-44777D01*
X24137Y-41588D02*
X24137Y-41534D01*
X24137Y-41534D02*
X24137Y-41588D01*
X23945Y-41588D02*
X23945Y-41534D01*
X23945Y-41534D02*
X23945Y-41588D01*
X47956Y-41556D02*
X47956Y-41502D01*
X47956Y-41502D02*
X47956Y-41556D01*
X47764Y-41556D02*
X47764Y-41502D01*
X47764Y-41502D02*
X47764Y-41556D01*
X25314Y-41588D02*
X25314Y-41534D01*
X25314Y-41534D02*
X25314Y-41588D01*
X25122Y-41588D02*
X25122Y-41534D01*
X25122Y-41534D02*
X25122Y-41588D01*
X49015Y-41560D02*
X49015Y-41506D01*
X49015Y-41506D02*
X49015Y-41560D01*
X48823Y-41560D02*
X48823Y-41506D01*
X48823Y-41506D02*
X48823Y-41560D01*
X48407Y-37541D02*
X50195Y-37541D01*
X50195Y-37541D02*
X48407Y-37541D01*
X48407Y-36423D02*
X50195Y-36423D01*
X50195Y-36423D02*
X48407Y-36423D01*
X30909Y-28999D02*
X30909Y-30787D01*
X30909Y-30787D02*
X30909Y-28999D01*
X32027Y-28999D02*
X32027Y-30787D01*
X32027Y-30787D02*
X32027Y-28999D01*
G54D14*
X26712Y-20960D02*
X26712Y-21511D01*
X26712Y-21511D02*
X27894Y-21511D01*
X27894Y-21511D02*
X27894Y-20960D01*
X26712Y-20488D02*
X26712Y-19937D01*
X26712Y-19937D02*
X27894Y-19941D01*
X27894Y-19941D02*
X27894Y-20488D01*
X27894Y-20487D02*
G75*
G03X27657Y-20724I0J-237D01*
G74*
G01*
X27658Y-20724D02*
G75*
G03X27894Y-20960I236J0D01*
G74*
G01*
X26712Y-20961D02*
G75*
G03X26949Y-20724I0J237D01*
G74*
G01*
X26948Y-20724D02*
G75*
G03X26712Y-20488I-236J0D01*
G74*
G01*
G54D13*
X42375Y-27921D02*
X41261Y-27921D01*
X41261Y-27921D02*
X41261Y-29889D01*
X41261Y-29889D02*
X42375Y-29889D01*
X42375Y-29889D02*
X42375Y-27921D01*
G54D14*
X40500Y-27819D02*
X40550Y-27769D01*
X40550Y-27769D02*
X40600Y-27819D01*
X40600Y-27819D02*
X40550Y-27869D01*
X40550Y-27869D02*
X40500Y-27819D01*
G54D13*
X41311Y-28121D02*
X41461Y-27971D01*
X41461Y-27971D02*
X41611Y-28121D01*
X41611Y-28121D02*
X41461Y-28271D01*
X41461Y-28271D02*
X41311Y-28121D01*
X43403Y-55088D02*
X46899Y-55088D01*
X46899Y-55088D02*
X46899Y-51592D01*
X46899Y-51592D02*
X43403Y-51592D01*
X43403Y-51592D02*
X43403Y-55088D01*
X43553Y-51892D02*
X43703Y-51742D01*
X43703Y-51742D02*
X43853Y-51892D01*
X43853Y-51892D02*
X43703Y-52042D01*
X43703Y-52042D02*
X43553Y-51892D01*
G54D16*
X42642Y-51667D02*
X42671Y-51638D01*
X42671Y-51638D02*
X42701Y-51667D01*
X42701Y-51667D02*
X42671Y-51697D01*
X42671Y-51697D02*
X42642Y-51667D01*
G54D14*
X44811Y-29266D02*
X44811Y-28126D01*
X44811Y-28126D02*
X44739Y-28126D01*
X44739Y-28126D02*
X44739Y-29266D01*
X44739Y-29266D02*
X44811Y-29266D01*
G54D17*
X45250Y-29350D02*
X45250Y-29350D01*
G54D13*
X31080Y-41992D02*
X31080Y-43106D01*
X31080Y-43106D02*
X33048Y-43106D01*
X33048Y-43106D02*
X33048Y-41992D01*
X33048Y-41992D02*
X31080Y-41992D01*
G54D14*
X30978Y-43867D02*
X30928Y-43817D01*
X30928Y-43817D02*
X30978Y-43767D01*
X30978Y-43767D02*
X31028Y-43817D01*
X31028Y-43817D02*
X30978Y-43867D01*
G54D13*
X31280Y-43056D02*
X31130Y-42906D01*
X31130Y-42906D02*
X31280Y-42756D01*
X31280Y-42756D02*
X31430Y-42906D01*
X31430Y-42906D02*
X31280Y-43056D01*
X35880Y-41992D02*
X35880Y-43106D01*
X35880Y-43106D02*
X37848Y-43106D01*
X37848Y-43106D02*
X37848Y-41992D01*
X37848Y-41992D02*
X35880Y-41992D01*
G54D14*
X35778Y-43867D02*
X35728Y-43817D01*
X35728Y-43817D02*
X35778Y-43767D01*
X35778Y-43767D02*
X35828Y-43817D01*
X35828Y-43817D02*
X35778Y-43867D01*
G54D13*
X36080Y-43056D02*
X35930Y-42906D01*
X35930Y-42906D02*
X36080Y-42756D01*
X36080Y-42756D02*
X36230Y-42906D01*
X36230Y-42906D02*
X36080Y-43056D01*
G54D14*
X26389Y-28299D02*
X25889Y-28299D01*
X25889Y-28299D02*
X25889Y-36299D01*
X25889Y-36299D02*
X26389Y-36299D01*
X27889Y-28799D02*
X27889Y-28299D01*
X26389Y-28299D02*
X26389Y-28799D01*
X29389Y-28799D02*
X27889Y-28799D01*
X29389Y-29799D02*
X27889Y-29799D01*
X29389Y-30799D02*
X27889Y-30799D01*
X29389Y-31799D02*
X27889Y-31799D01*
X29389Y-32799D02*
X27889Y-32799D01*
X29389Y-33799D02*
X27889Y-33799D01*
X29389Y-34799D02*
X27889Y-34799D01*
X29389Y-35799D02*
X27889Y-35799D01*
X27889Y-36299D02*
X27889Y-28799D01*
X27889Y-28299D02*
X26389Y-28299D01*
X26389Y-28799D02*
X26389Y-36299D01*
X26389Y-36299D02*
X27889Y-36299D01*
X52244Y-35523D02*
X52744Y-35523D01*
X52744Y-35523D02*
X52744Y-27523D01*
X52744Y-27523D02*
X52244Y-27523D01*
X50744Y-35023D02*
X50744Y-35523D01*
X52244Y-35523D02*
X52244Y-35023D01*
X49244Y-35023D02*
X50744Y-35023D01*
X49244Y-34023D02*
X50744Y-34023D01*
X49244Y-33023D02*
X50744Y-33023D01*
X49244Y-32023D02*
X50744Y-32023D01*
X49244Y-31023D02*
X50744Y-31023D01*
X49244Y-30023D02*
X50744Y-30023D01*
X49244Y-29023D02*
X50744Y-29023D01*
X49244Y-28023D02*
X50744Y-28023D01*
X50744Y-27523D02*
X50744Y-35023D01*
X50744Y-35523D02*
X52244Y-35523D01*
X52244Y-35023D02*
X52244Y-27523D01*
X52244Y-27523D02*
X50744Y-27523D01*
G54D13*
X36377Y-30695D02*
X35263Y-30695D01*
X35263Y-30695D02*
X35263Y-32663D01*
X35263Y-32663D02*
X36377Y-32663D01*
X36377Y-32663D02*
X36377Y-30695D01*
G54D14*
X34502Y-30593D02*
X34552Y-30543D01*
X34552Y-30543D02*
X34602Y-30593D01*
X34602Y-30593D02*
X34552Y-30643D01*
X34552Y-30643D02*
X34502Y-30593D01*
G54D13*
X35313Y-30895D02*
X35463Y-30745D01*
X35463Y-30745D02*
X35613Y-30895D01*
X35613Y-30895D02*
X35463Y-31045D01*
X35463Y-31045D02*
X35313Y-30895D01*
X50085Y-57901D02*
X49555Y-57901D01*
X49555Y-57901D02*
X49555Y-53275D01*
X49555Y-53275D02*
X50085Y-53275D01*
X51013Y-57901D02*
X51543Y-57901D01*
X51543Y-57901D02*
X51543Y-53275D01*
X51543Y-53275D02*
X51013Y-53275D01*
X35432Y-33933D02*
X34318Y-33933D01*
X34318Y-33933D02*
X34318Y-37377D01*
X34318Y-37377D02*
X35432Y-37377D01*
X35432Y-37377D02*
X35432Y-33933D01*
G54D14*
X33557Y-33819D02*
X33607Y-33769D01*
X33607Y-33769D02*
X33657Y-33819D01*
X33657Y-33819D02*
X33607Y-33869D01*
X33607Y-33869D02*
X33557Y-33819D01*
G54D13*
X34368Y-34133D02*
X34518Y-33983D01*
X34518Y-33983D02*
X34668Y-34133D01*
X34668Y-34133D02*
X34518Y-34283D01*
X34518Y-34283D02*
X34368Y-34133D01*
X36236Y-29588D02*
X37350Y-29588D01*
X37350Y-29588D02*
X37350Y-27620D01*
X37350Y-27620D02*
X36236Y-27620D01*
X36236Y-27620D02*
X36236Y-29588D01*
G54D14*
X38111Y-29690D02*
X38061Y-29740D01*
X38061Y-29740D02*
X38011Y-29690D01*
X38011Y-29690D02*
X38061Y-29640D01*
X38061Y-29640D02*
X38111Y-29690D01*
G54D13*
X37300Y-29388D02*
X37150Y-29538D01*
X37150Y-29538D02*
X37000Y-29388D01*
X37000Y-29388D02*
X37150Y-29238D01*
X37150Y-29238D02*
X37300Y-29388D01*
G54D14*
X46200Y-37614D02*
X41200Y-37614D01*
X41200Y-37614D02*
X41200Y-35614D01*
X41200Y-35614D02*
X45200Y-35614D01*
X46200Y-37614D02*
X46200Y-36614D01*
X46200Y-35614D02*
X45200Y-35614D01*
X46200Y-36614D02*
X45200Y-36614D01*
X45200Y-36614D02*
X45200Y-35614D01*
X46200Y-35614D02*
X46200Y-36614D01*
G54D13*
X26325Y-42039D02*
X26325Y-43153D01*
X26325Y-43153D02*
X28293Y-43153D01*
X28293Y-43153D02*
X28293Y-42039D01*
X28293Y-42039D02*
X26325Y-42039D01*
G54D14*
X26223Y-43914D02*
X26173Y-43864D01*
X26173Y-43864D02*
X26223Y-43814D01*
X26223Y-43814D02*
X26273Y-43864D01*
X26273Y-43864D02*
X26223Y-43914D01*
G54D13*
X26525Y-43103D02*
X26375Y-42953D01*
X26375Y-42953D02*
X26525Y-42803D01*
X26525Y-42803D02*
X26675Y-42953D01*
X26675Y-42953D02*
X26525Y-43103D01*
X49616Y-41901D02*
X49616Y-43015D01*
X49616Y-43015D02*
X51584Y-43015D01*
X51584Y-43015D02*
X51584Y-41901D01*
X51584Y-41901D02*
X49616Y-41901D01*
G54D14*
X49514Y-43776D02*
X49464Y-43726D01*
X49464Y-43726D02*
X49514Y-43676D01*
X49514Y-43676D02*
X49564Y-43726D01*
X49564Y-43726D02*
X49514Y-43776D01*
G54D13*
X49816Y-42965D02*
X49666Y-42815D01*
X49666Y-42815D02*
X49816Y-42665D01*
X49816Y-42665D02*
X49966Y-42815D01*
X49966Y-42815D02*
X49816Y-42965D01*
X31348Y-56034D02*
X31348Y-56319D01*
X31348Y-56319D02*
X31063Y-56319D01*
X29959Y-56319D02*
X29674Y-56319D01*
X29674Y-56319D02*
X29674Y-56034D01*
X31348Y-54930D02*
X31348Y-54645D01*
X31348Y-54645D02*
X31063Y-54645D01*
X29959Y-54645D02*
X29674Y-54645D01*
X29674Y-54645D02*
X29674Y-54930D01*
G54D14*
X31548Y-56134D02*
X31498Y-56184D01*
X31498Y-56184D02*
X31448Y-56134D01*
X31448Y-56134D02*
X31498Y-56084D01*
X31498Y-56084D02*
X31548Y-56134D01*
G54D13*
X41639Y-47160D02*
X41639Y-46875D01*
X41639Y-46875D02*
X41924Y-46875D01*
X43028Y-46875D02*
X43313Y-46875D01*
X43313Y-46875D02*
X43313Y-47160D01*
X41639Y-48264D02*
X41639Y-48549D01*
X41639Y-48549D02*
X41924Y-48549D01*
X43028Y-48549D02*
X43313Y-48549D01*
X43313Y-48549D02*
X43313Y-48264D01*
G54D14*
X41439Y-47060D02*
X41489Y-47010D01*
X41489Y-47010D02*
X41539Y-47060D01*
X41539Y-47060D02*
X41489Y-47110D01*
X41489Y-47110D02*
X41439Y-47060D01*
X39155Y-27155D02*
X39155Y-28155D01*
X39155Y-28155D02*
X40155Y-28155D01*
X40155Y-28155D02*
X40155Y-27155D01*
X40155Y-27155D02*
X39155Y-27155D01*
X47651Y-44879D02*
X47651Y-45879D01*
X47651Y-45879D02*
X48651Y-45879D01*
X48651Y-45879D02*
X48651Y-44879D01*
X48651Y-44879D02*
X47651Y-44879D01*
X54064Y-44718D02*
X54064Y-45718D01*
X54064Y-45718D02*
X55064Y-45718D01*
X55064Y-45718D02*
X55064Y-44718D01*
X55064Y-44718D02*
X54064Y-44718D01*
X31383Y-35269D02*
X31383Y-36269D01*
X31383Y-36269D02*
X32383Y-36269D01*
X32383Y-36269D02*
X32383Y-35269D01*
X32383Y-35269D02*
X31383Y-35269D01*
X25340Y-36501D02*
X25340Y-37501D01*
X25340Y-37501D02*
X26340Y-37501D01*
X26340Y-37501D02*
X26340Y-36501D01*
X26340Y-36501D02*
X25340Y-36501D01*
X52840Y-20009D02*
X52840Y-21009D01*
X52840Y-21009D02*
X53840Y-21009D01*
X53840Y-21009D02*
X53840Y-20009D01*
X53840Y-20009D02*
X52840Y-20009D01*
X34710Y-44509D02*
X34710Y-45509D01*
X34710Y-45509D02*
X35710Y-45509D01*
X35710Y-45509D02*
X35710Y-44509D01*
X35710Y-44509D02*
X34710Y-44509D01*
X32923Y-44616D02*
X32923Y-45616D01*
X32923Y-45616D02*
X33923Y-45616D01*
X33923Y-45616D02*
X33923Y-44616D01*
X33923Y-44616D02*
X32923Y-44616D01*
X29505Y-40994D02*
X29505Y-41994D01*
X29505Y-41994D02*
X30505Y-41994D01*
X30505Y-41994D02*
X30505Y-40994D01*
X30505Y-40994D02*
X29505Y-40994D01*
X32667Y-28301D02*
X32667Y-29301D01*
X32667Y-29301D02*
X33667Y-29301D01*
X33667Y-29301D02*
X33667Y-28301D01*
X33667Y-28301D02*
X32667Y-28301D01*
X31860Y-32675D02*
X31860Y-33675D01*
X31860Y-33675D02*
X32860Y-33675D01*
X32860Y-33675D02*
X32860Y-32675D01*
X32860Y-32675D02*
X31860Y-32675D01*
X29375Y-44576D02*
X29375Y-45576D01*
X29375Y-45576D02*
X30375Y-45576D01*
X30375Y-45576D02*
X30375Y-44576D01*
X30375Y-44576D02*
X29375Y-44576D01*
X35399Y-48769D02*
X35399Y-49769D01*
X35399Y-49769D02*
X36399Y-49769D01*
X36399Y-49769D02*
X36399Y-48769D01*
X36399Y-48769D02*
X35399Y-48769D01*
X33757Y-48746D02*
X33757Y-49746D01*
X33757Y-49746D02*
X34757Y-49746D01*
X34757Y-49746D02*
X34757Y-48746D01*
X34757Y-48746D02*
X33757Y-48746D01*
X25568Y-55490D02*
X25568Y-56490D01*
X25568Y-56490D02*
X26568Y-56490D01*
X26568Y-56490D02*
X26568Y-55490D01*
X26568Y-55490D02*
X25568Y-55490D01*
X23501Y-54730D02*
X23501Y-55730D01*
X23501Y-55730D02*
X24501Y-55730D01*
X24501Y-55730D02*
X24501Y-54730D01*
X24501Y-54730D02*
X23501Y-54730D01*
X23348Y-57080D02*
X23348Y-58080D01*
X23348Y-58080D02*
X24348Y-58080D01*
X24348Y-58080D02*
X24348Y-57080D01*
X24348Y-57080D02*
X23348Y-57080D01*
X23509Y-49490D02*
X23509Y-50490D01*
X23509Y-50490D02*
X24509Y-50490D01*
X24509Y-50490D02*
X24509Y-49490D01*
X24509Y-49490D02*
X23509Y-49490D01*
X23458Y-51958D02*
X23458Y-52958D01*
X23458Y-52958D02*
X24458Y-52958D01*
X24458Y-52958D02*
X24458Y-51958D01*
X24458Y-51958D02*
X23458Y-51958D01*
G54D13*
X33681Y-43458D02*
X33645Y-43458D01*
X33645Y-43458D02*
X33681Y-43458D01*
X33681Y-43632D02*
X33645Y-43632D01*
X33645Y-43632D02*
X33681Y-43632D01*
X38084Y-43861D02*
X38084Y-43897D01*
X38084Y-43897D02*
X38084Y-43861D01*
X38258Y-43861D02*
X38258Y-43897D01*
X38258Y-43897D02*
X38258Y-43861D01*
G54D14*
X30570Y-19881D02*
X48169Y-19881D01*
X30570Y-23425D02*
X48169Y-23425D01*
X48169Y-19881D02*
X48169Y-23425D01*
X30570Y-19881D02*
X30570Y-23425D01*
X32870Y-22653D02*
X33870Y-22653D01*
X32870Y-21653D02*
X33870Y-21653D01*
X33870Y-21653D02*
X33870Y-22653D01*
X32870Y-22653D02*
X32870Y-21653D01*
X47079Y-23786D02*
X43736Y-23783D01*
X43732Y-25680D02*
X42236Y-25680D01*
X42236Y-25680D02*
X42232Y-26625D01*
X42232Y-26625D02*
X43732Y-26625D01*
X43736Y-23881D02*
X42248Y-23877D01*
X42248Y-23877D02*
X42248Y-24818D01*
X42248Y-24818D02*
X43740Y-24814D01*
X43732Y-23783D02*
X43732Y-26739D01*
X43732Y-26739D02*
X47071Y-26735D01*
X47071Y-26735D02*
X47075Y-23794D01*
X38037Y-23761D02*
X34694Y-23758D01*
X34690Y-25655D02*
X33194Y-25655D01*
X33194Y-25655D02*
X33190Y-26600D01*
X33190Y-26600D02*
X34690Y-26600D01*
X34694Y-23856D02*
X33206Y-23852D01*
X33206Y-23852D02*
X33206Y-24793D01*
X33206Y-24793D02*
X34698Y-24789D01*
X34690Y-23758D02*
X34690Y-26714D01*
X34690Y-26714D02*
X38029Y-26710D01*
X38029Y-26710D02*
X38033Y-23769D01*
G54D11*
X41332Y-26924D02*
X41313Y-26943D01*
X41256Y-26962D01*
X41218Y-26962D01*
X41161Y-26943D01*
X41123Y-26905D01*
X41104Y-26867D01*
X41085Y-26791D01*
X41085Y-26733D01*
X41104Y-26657D01*
X41123Y-26619D01*
X41161Y-26581D01*
X41218Y-26562D01*
X41256Y-26562D01*
X41313Y-26581D01*
X41332Y-26600D01*
X41713Y-26962D02*
X41485Y-26962D01*
X41599Y-26962D02*
X41599Y-26562D01*
X41561Y-26619D01*
X41523Y-26657D01*
X41485Y-26676D01*
X45958Y-47680D02*
X45939Y-47699D01*
X45882Y-47718D01*
X45844Y-47718D01*
X45787Y-47699D01*
X45749Y-47661D01*
X45730Y-47623D01*
X45711Y-47546D01*
X45711Y-47489D01*
X45730Y-47413D01*
X45749Y-47375D01*
X45787Y-47337D01*
X45844Y-47318D01*
X45882Y-47318D01*
X45939Y-47337D01*
X45958Y-47356D01*
X46111Y-47356D02*
X46130Y-47337D01*
X46168Y-47318D01*
X46263Y-47318D01*
X46301Y-47337D01*
X46320Y-47356D01*
X46339Y-47394D01*
X46339Y-47432D01*
X46320Y-47489D01*
X46092Y-47718D01*
X46339Y-47718D01*
X46862Y-27552D02*
X46843Y-27571D01*
X46786Y-27590D01*
X46748Y-27590D01*
X46691Y-27571D01*
X46652Y-27533D01*
X46633Y-27495D01*
X46614Y-27418D01*
X46614Y-27361D01*
X46633Y-27285D01*
X46652Y-27247D01*
X46691Y-27209D01*
X46748Y-27190D01*
X46786Y-27190D01*
X46843Y-27209D01*
X46862Y-27228D01*
X46995Y-27190D02*
X47243Y-27190D01*
X47110Y-27342D01*
X47167Y-27342D01*
X47205Y-27361D01*
X47224Y-27380D01*
X47243Y-27418D01*
X47243Y-27514D01*
X47224Y-27552D01*
X47205Y-27571D01*
X47167Y-27590D01*
X47052Y-27590D01*
X47014Y-27571D01*
X46995Y-27552D01*
X46482Y-49652D02*
X46463Y-49671D01*
X46406Y-49690D01*
X46368Y-49690D01*
X46311Y-49671D01*
X46273Y-49633D01*
X46253Y-49595D01*
X46234Y-49519D01*
X46234Y-49462D01*
X46253Y-49386D01*
X46273Y-49347D01*
X46311Y-49309D01*
X46368Y-49290D01*
X46406Y-49290D01*
X46463Y-49309D01*
X46482Y-49328D01*
X46825Y-49424D02*
X46825Y-49690D01*
X46730Y-49271D02*
X46634Y-49557D01*
X46882Y-49557D01*
X48903Y-53633D02*
X48884Y-53652D01*
X48827Y-53671D01*
X48789Y-53671D01*
X48732Y-53652D01*
X48694Y-53613D01*
X48675Y-53575D01*
X48656Y-53499D01*
X48656Y-53442D01*
X48675Y-53366D01*
X48694Y-53328D01*
X48732Y-53290D01*
X48789Y-53271D01*
X48827Y-53271D01*
X48884Y-53290D01*
X48903Y-53309D01*
X49265Y-53271D02*
X49075Y-53271D01*
X49056Y-53461D01*
X49075Y-53442D01*
X49113Y-53423D01*
X49208Y-53423D01*
X49246Y-53442D01*
X49265Y-53461D01*
X49284Y-53499D01*
X49284Y-53594D01*
X49265Y-53633D01*
X49246Y-53652D01*
X49208Y-53671D01*
X49113Y-53671D01*
X49075Y-53652D01*
X49056Y-53633D01*
X41687Y-53133D02*
X41668Y-53152D01*
X41611Y-53171D01*
X41572Y-53171D01*
X41515Y-53152D01*
X41477Y-53113D01*
X41458Y-53075D01*
X41439Y-52999D01*
X41439Y-52942D01*
X41458Y-52866D01*
X41477Y-52828D01*
X41515Y-52790D01*
X41572Y-52771D01*
X41611Y-52771D01*
X41668Y-52790D01*
X41687Y-52809D01*
X42030Y-52771D02*
X41953Y-52771D01*
X41915Y-52790D01*
X41896Y-52809D01*
X41858Y-52866D01*
X41839Y-52942D01*
X41839Y-53094D01*
X41858Y-53133D01*
X41877Y-53152D01*
X41915Y-53171D01*
X41992Y-53171D01*
X42030Y-53152D01*
X42049Y-53133D01*
X42068Y-53094D01*
X42068Y-52999D01*
X42049Y-52961D01*
X42030Y-52942D01*
X41992Y-52923D01*
X41915Y-52923D01*
X41877Y-52942D01*
X41858Y-52961D01*
X41839Y-52999D01*
X45339Y-57525D02*
X45320Y-57544D01*
X45263Y-57563D01*
X45225Y-57563D01*
X45167Y-57544D01*
X45129Y-57506D01*
X45110Y-57468D01*
X45091Y-57392D01*
X45091Y-57334D01*
X45110Y-57258D01*
X45129Y-57220D01*
X45167Y-57182D01*
X45225Y-57163D01*
X45263Y-57163D01*
X45320Y-57182D01*
X45339Y-57201D01*
X45472Y-57163D02*
X45739Y-57163D01*
X45567Y-57563D01*
X27537Y-56381D02*
X27518Y-56400D01*
X27461Y-56419D01*
X27423Y-56419D01*
X27366Y-56400D01*
X27328Y-56361D01*
X27309Y-56323D01*
X27290Y-56247D01*
X27290Y-56190D01*
X27309Y-56114D01*
X27328Y-56076D01*
X27366Y-56038D01*
X27423Y-56019D01*
X27461Y-56019D01*
X27518Y-56038D01*
X27537Y-56057D01*
X27766Y-56190D02*
X27728Y-56171D01*
X27709Y-56152D01*
X27690Y-56114D01*
X27690Y-56095D01*
X27709Y-56057D01*
X27728Y-56038D01*
X27766Y-56019D01*
X27842Y-56019D01*
X27880Y-56038D01*
X27899Y-56057D01*
X27918Y-56095D01*
X27918Y-56114D01*
X27899Y-56152D01*
X27880Y-56171D01*
X27842Y-56190D01*
X27766Y-56190D01*
X27728Y-56209D01*
X27709Y-56228D01*
X27690Y-56266D01*
X27690Y-56342D01*
X27709Y-56381D01*
X27728Y-56400D01*
X27766Y-56419D01*
X27842Y-56419D01*
X27880Y-56400D01*
X27899Y-56381D01*
X27918Y-56342D01*
X27918Y-56266D01*
X27899Y-56228D01*
X27880Y-56209D01*
X27842Y-56190D01*
X43584Y-27680D02*
X43565Y-27699D01*
X43508Y-27718D01*
X43470Y-27718D01*
X43413Y-27699D01*
X43375Y-27661D01*
X43356Y-27623D01*
X43337Y-27546D01*
X43337Y-27489D01*
X43356Y-27413D01*
X43375Y-27375D01*
X43413Y-27337D01*
X43470Y-27318D01*
X43508Y-27318D01*
X43565Y-27337D01*
X43584Y-27356D01*
X43775Y-27718D02*
X43851Y-27718D01*
X43889Y-27699D01*
X43908Y-27680D01*
X43946Y-27623D01*
X43965Y-27546D01*
X43965Y-27394D01*
X43946Y-27356D01*
X43927Y-27337D01*
X43889Y-27318D01*
X43813Y-27318D01*
X43775Y-27337D01*
X43756Y-27356D01*
X43737Y-27394D01*
X43737Y-27489D01*
X43756Y-27527D01*
X43775Y-27546D01*
X43813Y-27565D01*
X43889Y-27565D01*
X43927Y-27546D01*
X43946Y-27527D01*
X43965Y-27489D01*
X47874Y-57451D02*
X47855Y-57470D01*
X47798Y-57490D01*
X47760Y-57490D01*
X47703Y-57470D01*
X47665Y-57432D01*
X47646Y-57394D01*
X47627Y-57318D01*
X47627Y-57261D01*
X47646Y-57185D01*
X47665Y-57147D01*
X47703Y-57109D01*
X47760Y-57090D01*
X47798Y-57090D01*
X47855Y-57109D01*
X47874Y-57128D01*
X48255Y-57490D02*
X48027Y-57490D01*
X48141Y-57490D02*
X48141Y-57090D01*
X48103Y-57147D01*
X48065Y-57185D01*
X48027Y-57204D01*
X48503Y-57090D02*
X48541Y-57090D01*
X48579Y-57109D01*
X48598Y-57128D01*
X48617Y-57166D01*
X48636Y-57242D01*
X48636Y-57337D01*
X48617Y-57413D01*
X48598Y-57451D01*
X48579Y-57470D01*
X48541Y-57490D01*
X48503Y-57490D01*
X48465Y-57470D01*
X48446Y-57451D01*
X48427Y-57413D01*
X48408Y-57337D01*
X48408Y-57242D01*
X48427Y-57166D01*
X48446Y-57128D01*
X48465Y-57109D01*
X48503Y-57090D01*
X46650Y-29758D02*
X46631Y-29778D01*
X46574Y-29797D01*
X46536Y-29797D01*
X46478Y-29778D01*
X46440Y-29739D01*
X46421Y-29701D01*
X46402Y-29625D01*
X46402Y-29568D01*
X46421Y-29492D01*
X46440Y-29454D01*
X46478Y-29416D01*
X46536Y-29397D01*
X46574Y-29397D01*
X46631Y-29416D01*
X46650Y-29435D01*
X47031Y-29797D02*
X46802Y-29797D01*
X46917Y-29797D02*
X46917Y-29397D01*
X46878Y-29454D01*
X46840Y-29492D01*
X46802Y-29511D01*
X47412Y-29797D02*
X47183Y-29797D01*
X47297Y-29797D02*
X47297Y-29397D01*
X47259Y-29454D01*
X47221Y-29492D01*
X47183Y-29511D01*
X52004Y-53302D02*
X51985Y-53321D01*
X51928Y-53340D01*
X51890Y-53340D01*
X51833Y-53321D01*
X51795Y-53283D01*
X51776Y-53245D01*
X51757Y-53168D01*
X51757Y-53111D01*
X51776Y-53035D01*
X51795Y-52997D01*
X51833Y-52959D01*
X51890Y-52940D01*
X51928Y-52940D01*
X51985Y-52959D01*
X52004Y-52978D01*
X52385Y-53340D02*
X52157Y-53340D01*
X52271Y-53340D02*
X52271Y-52940D01*
X52233Y-52997D01*
X52195Y-53035D01*
X52157Y-53054D01*
X52538Y-52978D02*
X52557Y-52959D01*
X52595Y-52940D01*
X52690Y-52940D01*
X52728Y-52959D01*
X52747Y-52978D01*
X52766Y-53016D01*
X52766Y-53054D01*
X52747Y-53111D01*
X52518Y-53340D01*
X52766Y-53340D01*
X30512Y-23932D02*
X30493Y-23951D01*
X30436Y-23970D01*
X30398Y-23970D01*
X30341Y-23951D01*
X30303Y-23913D01*
X30283Y-23875D01*
X30264Y-23798D01*
X30264Y-23741D01*
X30283Y-23665D01*
X30303Y-23627D01*
X30341Y-23589D01*
X30398Y-23570D01*
X30436Y-23570D01*
X30493Y-23589D01*
X30512Y-23608D01*
X30893Y-23970D02*
X30664Y-23970D01*
X30779Y-23970D02*
X30779Y-23570D01*
X30741Y-23627D01*
X30703Y-23665D01*
X30664Y-23684D01*
X31026Y-23570D02*
X31274Y-23570D01*
X31141Y-23722D01*
X31198Y-23722D01*
X31236Y-23741D01*
X31255Y-23760D01*
X31274Y-23798D01*
X31274Y-23894D01*
X31255Y-23932D01*
X31236Y-23951D01*
X31198Y-23970D01*
X31083Y-23970D01*
X31045Y-23951D01*
X31026Y-23932D01*
X32012Y-27510D02*
X31993Y-27530D01*
X31936Y-27549D01*
X31898Y-27549D01*
X31841Y-27530D01*
X31803Y-27491D01*
X31783Y-27453D01*
X31764Y-27377D01*
X31764Y-27320D01*
X31783Y-27244D01*
X31803Y-27206D01*
X31841Y-27168D01*
X31898Y-27149D01*
X31936Y-27149D01*
X31993Y-27168D01*
X32012Y-27187D01*
X32393Y-27549D02*
X32164Y-27549D01*
X32279Y-27549D02*
X32279Y-27149D01*
X32241Y-27206D01*
X32203Y-27244D01*
X32164Y-27263D01*
X32736Y-27282D02*
X32736Y-27549D01*
X32641Y-27130D02*
X32545Y-27415D01*
X32793Y-27415D01*
X31022Y-28103D02*
X31003Y-28122D01*
X30946Y-28141D01*
X30908Y-28141D01*
X30850Y-28122D01*
X30812Y-28084D01*
X30793Y-28046D01*
X30774Y-27970D01*
X30774Y-27913D01*
X30793Y-27836D01*
X30812Y-27798D01*
X30850Y-27760D01*
X30908Y-27741D01*
X30946Y-27741D01*
X31003Y-27760D01*
X31022Y-27779D01*
X31403Y-28141D02*
X31174Y-28141D01*
X31289Y-28141D02*
X31289Y-27741D01*
X31250Y-27798D01*
X31212Y-27836D01*
X31174Y-27855D01*
X31765Y-27741D02*
X31574Y-27741D01*
X31555Y-27932D01*
X31574Y-27913D01*
X31612Y-27893D01*
X31708Y-27893D01*
X31746Y-27913D01*
X31765Y-27932D01*
X31784Y-27970D01*
X31784Y-28065D01*
X31765Y-28103D01*
X31746Y-28122D01*
X31708Y-28141D01*
X31612Y-28141D01*
X31574Y-28122D01*
X31555Y-28103D01*
X47547Y-34928D02*
X47528Y-34947D01*
X47471Y-34966D01*
X47433Y-34966D01*
X47376Y-34947D01*
X47338Y-34909D01*
X47319Y-34871D01*
X47300Y-34794D01*
X47300Y-34737D01*
X47319Y-34661D01*
X47338Y-34623D01*
X47376Y-34585D01*
X47433Y-34566D01*
X47471Y-34566D01*
X47528Y-34585D01*
X47547Y-34604D01*
X47928Y-34966D02*
X47700Y-34966D01*
X47814Y-34966D02*
X47814Y-34566D01*
X47776Y-34623D01*
X47738Y-34661D01*
X47700Y-34680D01*
X48271Y-34566D02*
X48195Y-34566D01*
X48157Y-34585D01*
X48138Y-34604D01*
X48100Y-34661D01*
X48081Y-34737D01*
X48081Y-34890D01*
X48100Y-34928D01*
X48119Y-34947D01*
X48157Y-34966D01*
X48233Y-34966D01*
X48271Y-34947D01*
X48290Y-34928D01*
X48309Y-34890D01*
X48309Y-34794D01*
X48290Y-34756D01*
X48271Y-34737D01*
X48233Y-34718D01*
X48157Y-34718D01*
X48119Y-34737D01*
X48100Y-34756D01*
X48081Y-34794D01*
X35918Y-27357D02*
X35899Y-27376D01*
X35841Y-27395D01*
X35803Y-27395D01*
X35746Y-27376D01*
X35708Y-27338D01*
X35689Y-27300D01*
X35670Y-27224D01*
X35670Y-27166D01*
X35689Y-27090D01*
X35708Y-27052D01*
X35746Y-27014D01*
X35803Y-26995D01*
X35841Y-26995D01*
X35899Y-27014D01*
X35918Y-27033D01*
X36299Y-27395D02*
X36070Y-27395D01*
X36184Y-27395D02*
X36184Y-26995D01*
X36146Y-27052D01*
X36108Y-27090D01*
X36070Y-27109D01*
X36432Y-26995D02*
X36699Y-26995D01*
X36527Y-27395D01*
X34142Y-29719D02*
X34123Y-29738D01*
X34066Y-29757D01*
X34028Y-29757D01*
X33971Y-29738D01*
X33932Y-29700D01*
X33913Y-29662D01*
X33894Y-29586D01*
X33894Y-29529D01*
X33913Y-29452D01*
X33932Y-29414D01*
X33971Y-29376D01*
X34028Y-29357D01*
X34066Y-29357D01*
X34123Y-29376D01*
X34142Y-29395D01*
X34523Y-29757D02*
X34294Y-29757D01*
X34409Y-29757D02*
X34409Y-29357D01*
X34371Y-29414D01*
X34332Y-29452D01*
X34294Y-29472D01*
X34751Y-29529D02*
X34713Y-29510D01*
X34694Y-29491D01*
X34675Y-29452D01*
X34675Y-29433D01*
X34694Y-29395D01*
X34713Y-29376D01*
X34751Y-29357D01*
X34828Y-29357D01*
X34866Y-29376D01*
X34885Y-29395D01*
X34904Y-29433D01*
X34904Y-29452D01*
X34885Y-29491D01*
X34866Y-29510D01*
X34828Y-29529D01*
X34751Y-29529D01*
X34713Y-29548D01*
X34694Y-29567D01*
X34675Y-29605D01*
X34675Y-29681D01*
X34694Y-29719D01*
X34713Y-29738D01*
X34751Y-29757D01*
X34828Y-29757D01*
X34866Y-29738D01*
X34885Y-29719D01*
X34904Y-29681D01*
X34904Y-29605D01*
X34885Y-29567D01*
X34866Y-29548D01*
X34828Y-29529D01*
X36804Y-36996D02*
X36785Y-37016D01*
X36728Y-37035D01*
X36690Y-37035D01*
X36632Y-37016D01*
X36594Y-36977D01*
X36575Y-36939D01*
X36556Y-36863D01*
X36556Y-36806D01*
X36575Y-36730D01*
X36594Y-36692D01*
X36632Y-36654D01*
X36690Y-36635D01*
X36728Y-36635D01*
X36785Y-36654D01*
X36804Y-36673D01*
X37185Y-37035D02*
X36956Y-37035D01*
X37071Y-37035D02*
X37071Y-36635D01*
X37032Y-36692D01*
X36994Y-36730D01*
X36956Y-36749D01*
X37375Y-37035D02*
X37452Y-37035D01*
X37490Y-37016D01*
X37509Y-36996D01*
X37547Y-36939D01*
X37566Y-36863D01*
X37566Y-36711D01*
X37547Y-36673D01*
X37528Y-36654D01*
X37490Y-36635D01*
X37413Y-36635D01*
X37375Y-36654D01*
X37356Y-36673D01*
X37337Y-36711D01*
X37337Y-36806D01*
X37356Y-36844D01*
X37375Y-36863D01*
X37413Y-36882D01*
X37490Y-36882D01*
X37528Y-36863D01*
X37547Y-36844D01*
X37566Y-36806D01*
X33642Y-42668D02*
X33623Y-42687D01*
X33566Y-42706D01*
X33528Y-42706D01*
X33471Y-42687D01*
X33432Y-42649D01*
X33413Y-42611D01*
X33394Y-42535D01*
X33394Y-42477D01*
X33413Y-42401D01*
X33432Y-42363D01*
X33471Y-42325D01*
X33528Y-42306D01*
X33566Y-42306D01*
X33623Y-42325D01*
X33642Y-42344D01*
X33794Y-42344D02*
X33813Y-42325D01*
X33851Y-42306D01*
X33947Y-42306D01*
X33985Y-42325D01*
X34004Y-42344D01*
X34023Y-42382D01*
X34023Y-42420D01*
X34004Y-42477D01*
X33775Y-42706D01*
X34023Y-42706D01*
X34271Y-42306D02*
X34309Y-42306D01*
X34347Y-42325D01*
X34366Y-42344D01*
X34385Y-42382D01*
X34404Y-42458D01*
X34404Y-42554D01*
X34385Y-42630D01*
X34366Y-42668D01*
X34347Y-42687D01*
X34309Y-42706D01*
X34271Y-42706D01*
X34232Y-42687D01*
X34213Y-42668D01*
X34194Y-42630D01*
X34175Y-42554D01*
X34175Y-42458D01*
X34194Y-42382D01*
X34213Y-42344D01*
X34232Y-42325D01*
X34271Y-42306D01*
X34953Y-42617D02*
X34934Y-42636D01*
X34877Y-42655D01*
X34839Y-42655D01*
X34782Y-42636D01*
X34743Y-42598D01*
X34724Y-42560D01*
X34705Y-42483D01*
X34705Y-42426D01*
X34724Y-42350D01*
X34743Y-42312D01*
X34782Y-42274D01*
X34839Y-42255D01*
X34877Y-42255D01*
X34934Y-42274D01*
X34953Y-42293D01*
X35105Y-42293D02*
X35124Y-42274D01*
X35163Y-42255D01*
X35258Y-42255D01*
X35296Y-42274D01*
X35315Y-42293D01*
X35334Y-42331D01*
X35334Y-42369D01*
X35315Y-42426D01*
X35086Y-42655D01*
X35334Y-42655D01*
X35715Y-42655D02*
X35486Y-42655D01*
X35601Y-42655D02*
X35601Y-42255D01*
X35563Y-42312D01*
X35524Y-42350D01*
X35486Y-42369D01*
X50612Y-21434D02*
X50612Y-21034D01*
X50707Y-21034D01*
X50764Y-21053D01*
X50802Y-21092D01*
X50821Y-21130D01*
X50840Y-21206D01*
X50840Y-21263D01*
X50821Y-21339D01*
X50802Y-21377D01*
X50764Y-21415D01*
X50707Y-21434D01*
X50612Y-21434D01*
X51221Y-21434D02*
X50993Y-21434D01*
X51107Y-21434D02*
X51107Y-21034D01*
X51069Y-21092D01*
X51031Y-21130D01*
X50993Y-21149D01*
X27648Y-22992D02*
X27648Y-22592D01*
X27743Y-22592D01*
X27800Y-22611D01*
X27838Y-22650D01*
X27857Y-22688D01*
X27876Y-22764D01*
X27876Y-22821D01*
X27857Y-22897D01*
X27838Y-22935D01*
X27800Y-22973D01*
X27743Y-22992D01*
X27648Y-22992D01*
X28029Y-22631D02*
X28048Y-22611D01*
X28086Y-22592D01*
X28181Y-22592D01*
X28219Y-22611D01*
X28238Y-22631D01*
X28257Y-22669D01*
X28257Y-22707D01*
X28238Y-22764D01*
X28010Y-22992D01*
X28257Y-22992D01*
X29541Y-24434D02*
X29541Y-24034D01*
X29636Y-24034D01*
X29693Y-24053D01*
X29731Y-24092D01*
X29750Y-24130D01*
X29769Y-24206D01*
X29769Y-24263D01*
X29750Y-24339D01*
X29731Y-24377D01*
X29693Y-24415D01*
X29636Y-24434D01*
X29541Y-24434D01*
X29903Y-24034D02*
X30150Y-24034D01*
X30017Y-24187D01*
X30074Y-24187D01*
X30112Y-24206D01*
X30131Y-24225D01*
X30150Y-24263D01*
X30150Y-24358D01*
X30131Y-24396D01*
X30112Y-24415D01*
X30074Y-24434D01*
X29960Y-24434D01*
X29922Y-24415D01*
X29903Y-24396D01*
X53021Y-35942D02*
X53021Y-35542D01*
X53116Y-35542D01*
X53174Y-35561D01*
X53212Y-35599D01*
X53231Y-35638D01*
X53250Y-35714D01*
X53250Y-35771D01*
X53231Y-35847D01*
X53212Y-35885D01*
X53174Y-35923D01*
X53116Y-35942D01*
X53021Y-35942D01*
X53593Y-35676D02*
X53593Y-35942D01*
X53497Y-35523D02*
X53402Y-35809D01*
X53650Y-35809D01*
X47885Y-27901D02*
X47885Y-27501D01*
X47981Y-27501D01*
X48038Y-27520D01*
X48076Y-27558D01*
X48095Y-27596D01*
X48114Y-27672D01*
X48114Y-27729D01*
X48095Y-27806D01*
X48076Y-27844D01*
X48038Y-27882D01*
X47981Y-27901D01*
X47885Y-27901D01*
X48476Y-27501D02*
X48285Y-27501D01*
X48266Y-27691D01*
X48285Y-27672D01*
X48323Y-27653D01*
X48419Y-27653D01*
X48457Y-27672D01*
X48476Y-27691D01*
X48495Y-27729D01*
X48495Y-27825D01*
X48476Y-27863D01*
X48457Y-27882D01*
X48419Y-27901D01*
X48323Y-27901D01*
X48285Y-27882D01*
X48266Y-27863D01*
X24964Y-24767D02*
X24964Y-24367D01*
X25059Y-24367D01*
X25116Y-24386D01*
X25155Y-24424D01*
X25174Y-24462D01*
X25193Y-24538D01*
X25193Y-24596D01*
X25174Y-24672D01*
X25155Y-24710D01*
X25116Y-24748D01*
X25059Y-24767D01*
X24964Y-24767D01*
X25536Y-24367D02*
X25459Y-24367D01*
X25421Y-24386D01*
X25402Y-24405D01*
X25364Y-24462D01*
X25345Y-24538D01*
X25345Y-24691D01*
X25364Y-24729D01*
X25383Y-24748D01*
X25421Y-24767D01*
X25497Y-24767D01*
X25536Y-24748D01*
X25555Y-24729D01*
X25574Y-24691D01*
X25574Y-24596D01*
X25555Y-24558D01*
X25536Y-24538D01*
X25497Y-24519D01*
X25421Y-24519D01*
X25383Y-24538D01*
X25364Y-24558D01*
X25345Y-24596D01*
X32002Y-37954D02*
X32002Y-37554D01*
X32097Y-37554D01*
X32154Y-37573D01*
X32192Y-37611D01*
X32211Y-37649D01*
X32230Y-37726D01*
X32230Y-37783D01*
X32211Y-37859D01*
X32192Y-37897D01*
X32154Y-37935D01*
X32097Y-37954D01*
X32002Y-37954D01*
X32363Y-37554D02*
X32630Y-37554D01*
X32459Y-37954D01*
X52263Y-24491D02*
X52263Y-24091D01*
X52359Y-24091D01*
X52416Y-24111D01*
X52454Y-24149D01*
X52473Y-24187D01*
X52492Y-24263D01*
X52492Y-24320D01*
X52473Y-24396D01*
X52454Y-24434D01*
X52416Y-24472D01*
X52359Y-24491D01*
X52263Y-24491D01*
X52720Y-24263D02*
X52682Y-24244D01*
X52663Y-24225D01*
X52644Y-24187D01*
X52644Y-24168D01*
X52663Y-24130D01*
X52682Y-24111D01*
X52720Y-24091D01*
X52797Y-24091D01*
X52835Y-24111D01*
X52854Y-24130D01*
X52873Y-24168D01*
X52873Y-24187D01*
X52854Y-24225D01*
X52835Y-24244D01*
X52797Y-24263D01*
X52720Y-24263D01*
X52682Y-24282D01*
X52663Y-24301D01*
X52644Y-24339D01*
X52644Y-24415D01*
X52663Y-24453D01*
X52682Y-24472D01*
X52720Y-24491D01*
X52797Y-24491D01*
X52835Y-24472D01*
X52854Y-24453D01*
X52873Y-24415D01*
X52873Y-24339D01*
X52854Y-24301D01*
X52835Y-24282D01*
X52797Y-24263D01*
X51694Y-23100D02*
X51694Y-22700D01*
X51790Y-22700D01*
X51847Y-22719D01*
X51885Y-22757D01*
X51904Y-22795D01*
X51923Y-22871D01*
X51923Y-22928D01*
X51904Y-23005D01*
X51885Y-23043D01*
X51847Y-23081D01*
X51790Y-23100D01*
X51694Y-23100D01*
X52113Y-23100D02*
X52190Y-23100D01*
X52228Y-23081D01*
X52247Y-23062D01*
X52285Y-23005D01*
X52304Y-22928D01*
X52304Y-22776D01*
X52285Y-22738D01*
X52266Y-22719D01*
X52228Y-22700D01*
X52152Y-22700D01*
X52113Y-22719D01*
X52094Y-22738D01*
X52075Y-22776D01*
X52075Y-22871D01*
X52094Y-22909D01*
X52113Y-22928D01*
X52152Y-22947D01*
X52228Y-22947D01*
X52266Y-22928D01*
X52285Y-22909D01*
X52304Y-22871D01*
X39167Y-32570D02*
X39167Y-32856D01*
X39148Y-32913D01*
X39110Y-32951D01*
X39053Y-32970D01*
X39015Y-32970D01*
X39567Y-32970D02*
X39339Y-32970D01*
X39453Y-32970D02*
X39453Y-32570D01*
X39415Y-32627D01*
X39377Y-32665D01*
X39339Y-32684D01*
X38949Y-31037D02*
X38949Y-30637D01*
X39177Y-31037D01*
X39177Y-30637D01*
X39349Y-30675D02*
X39368Y-30656D01*
X39406Y-30637D01*
X39501Y-30637D01*
X39539Y-30656D01*
X39558Y-30675D01*
X39577Y-30713D01*
X39577Y-30751D01*
X39558Y-30808D01*
X39330Y-31037D01*
X39577Y-31037D01*
X42338Y-34049D02*
X42338Y-33649D01*
X42567Y-34049D01*
X42567Y-33649D01*
X42719Y-33649D02*
X42967Y-33649D01*
X42834Y-33801D01*
X42891Y-33801D01*
X42929Y-33820D01*
X42948Y-33839D01*
X42967Y-33877D01*
X42967Y-33972D01*
X42948Y-34010D01*
X42929Y-34030D01*
X42891Y-34049D01*
X42777Y-34049D01*
X42738Y-34030D01*
X42719Y-34010D01*
G54D10*
X42627Y-35046D02*
X42402Y-35046D01*
X42515Y-35046D02*
X42515Y-34652D01*
X42477Y-34708D01*
X42440Y-34746D01*
X42402Y-34764D01*
X42871Y-34652D02*
X42908Y-34652D01*
X42946Y-34671D01*
X42965Y-34690D01*
X42983Y-34727D01*
X43002Y-34802D01*
X43002Y-34896D01*
X42983Y-34971D01*
X42965Y-35008D01*
X42946Y-35027D01*
X42908Y-35046D01*
X42871Y-35046D01*
X42833Y-35027D01*
X42815Y-35008D01*
X42796Y-34971D01*
X42777Y-34896D01*
X42777Y-34802D01*
X42796Y-34727D01*
X42815Y-34690D01*
X42833Y-34671D01*
X42871Y-34652D01*
X42799Y-32906D02*
X42874Y-32906D01*
X42911Y-32887D01*
X42930Y-32868D01*
X42967Y-32812D01*
X42986Y-32737D01*
X42986Y-32587D01*
X42967Y-32550D01*
X42949Y-32531D01*
X42911Y-32512D01*
X42836Y-32512D01*
X42799Y-32531D01*
X42780Y-32550D01*
X42761Y-32587D01*
X42761Y-32681D01*
X42780Y-32718D01*
X42799Y-32737D01*
X42836Y-32756D01*
X42911Y-32756D01*
X42949Y-32737D01*
X42967Y-32718D01*
X42986Y-32681D01*
X45993Y-34715D02*
X46012Y-34696D01*
X46050Y-34678D01*
X46143Y-34678D01*
X46181Y-34696D01*
X46200Y-34715D01*
X46218Y-34753D01*
X46218Y-34790D01*
X46200Y-34846D01*
X45975Y-35071D01*
X46218Y-35071D01*
X46210Y-32941D02*
X45985Y-32941D01*
X46098Y-32941D02*
X46098Y-32548D01*
X46060Y-32604D01*
X46023Y-32641D01*
X45985Y-32660D01*
G54D11*
X27624Y-27869D02*
X27624Y-27469D01*
X27852Y-27869D01*
X27852Y-27469D01*
X28233Y-27469D02*
X28043Y-27469D01*
X28024Y-27660D01*
X28043Y-27641D01*
X28081Y-27622D01*
X28176Y-27622D01*
X28214Y-27641D01*
X28233Y-27660D01*
X28252Y-27698D01*
X28252Y-27793D01*
X28233Y-27831D01*
X28214Y-27850D01*
X28176Y-27869D01*
X28081Y-27869D01*
X28043Y-27850D01*
X28024Y-27831D01*
X50317Y-27076D02*
X50317Y-26676D01*
X50545Y-27076D01*
X50545Y-26676D01*
X50907Y-26676D02*
X50831Y-26676D01*
X50793Y-26695D01*
X50774Y-26714D01*
X50736Y-26771D01*
X50717Y-26848D01*
X50717Y-27000D01*
X50736Y-27038D01*
X50755Y-27057D01*
X50793Y-27076D01*
X50869Y-27076D01*
X50907Y-27057D01*
X50926Y-27038D01*
X50945Y-27000D01*
X50945Y-26905D01*
X50926Y-26867D01*
X50907Y-26848D01*
X50869Y-26829D01*
X50793Y-26829D01*
X50755Y-26848D01*
X50736Y-26867D01*
X50717Y-26905D01*
X53947Y-43230D02*
X53813Y-43039D01*
X53718Y-43230D02*
X53718Y-42830D01*
X53870Y-42830D01*
X53909Y-42849D01*
X53928Y-42868D01*
X53947Y-42906D01*
X53947Y-42963D01*
X53928Y-43001D01*
X53909Y-43020D01*
X53870Y-43039D01*
X53718Y-43039D01*
X54328Y-43230D02*
X54099Y-43230D01*
X54213Y-43230D02*
X54213Y-42830D01*
X54175Y-42887D01*
X54137Y-42925D01*
X54099Y-42944D01*
X50435Y-51592D02*
X50301Y-51401D01*
X50206Y-51592D02*
X50206Y-51192D01*
X50359Y-51192D01*
X50397Y-51211D01*
X50416Y-51230D01*
X50435Y-51268D01*
X50435Y-51325D01*
X50416Y-51363D01*
X50397Y-51382D01*
X50359Y-51401D01*
X50206Y-51401D01*
X50587Y-51230D02*
X50606Y-51211D01*
X50644Y-51192D01*
X50740Y-51192D01*
X50778Y-51211D01*
X50797Y-51230D01*
X50816Y-51268D01*
X50816Y-51306D01*
X50797Y-51363D01*
X50568Y-51592D01*
X50816Y-51592D01*
X26903Y-46214D02*
X26770Y-46023D01*
X26675Y-46214D02*
X26675Y-45814D01*
X26827Y-45814D01*
X26865Y-45833D01*
X26884Y-45852D01*
X26903Y-45890D01*
X26903Y-45947D01*
X26884Y-45985D01*
X26865Y-46004D01*
X26827Y-46023D01*
X26675Y-46023D01*
X27037Y-45814D02*
X27284Y-45814D01*
X27151Y-45966D01*
X27208Y-45966D01*
X27246Y-45985D01*
X27265Y-46004D01*
X27284Y-46042D01*
X27284Y-46138D01*
X27265Y-46176D01*
X27246Y-46195D01*
X27208Y-46214D01*
X27094Y-46214D01*
X27056Y-46195D01*
X27037Y-46176D01*
X28136Y-46214D02*
X28002Y-46023D01*
X27907Y-46214D02*
X27907Y-45814D01*
X28059Y-45814D01*
X28097Y-45833D01*
X28117Y-45852D01*
X28136Y-45890D01*
X28136Y-45947D01*
X28117Y-45985D01*
X28097Y-46004D01*
X28059Y-46023D01*
X27907Y-46023D01*
X28478Y-45947D02*
X28478Y-46214D01*
X28383Y-45795D02*
X28288Y-46081D01*
X28536Y-46081D01*
X50191Y-45919D02*
X50057Y-45728D01*
X49962Y-45919D02*
X49962Y-45519D01*
X50115Y-45519D01*
X50153Y-45538D01*
X50172Y-45557D01*
X50191Y-45595D01*
X50191Y-45652D01*
X50172Y-45690D01*
X50153Y-45709D01*
X50115Y-45728D01*
X49962Y-45728D01*
X50553Y-45519D02*
X50362Y-45519D01*
X50343Y-45709D01*
X50362Y-45690D01*
X50400Y-45671D01*
X50495Y-45671D01*
X50534Y-45690D01*
X50553Y-45709D01*
X50572Y-45747D01*
X50572Y-45842D01*
X50553Y-45881D01*
X50534Y-45900D01*
X50495Y-45919D01*
X50400Y-45919D01*
X50362Y-45900D01*
X50343Y-45881D01*
X51262Y-45911D02*
X51128Y-45720D01*
X51033Y-45911D02*
X51033Y-45511D01*
X51185Y-45511D01*
X51223Y-45530D01*
X51243Y-45549D01*
X51262Y-45587D01*
X51262Y-45644D01*
X51243Y-45682D01*
X51223Y-45701D01*
X51185Y-45720D01*
X51033Y-45720D01*
X51604Y-45511D02*
X51528Y-45511D01*
X51490Y-45530D01*
X51471Y-45549D01*
X51433Y-45606D01*
X51414Y-45682D01*
X51414Y-45835D01*
X51433Y-45873D01*
X51452Y-45892D01*
X51490Y-45911D01*
X51566Y-45911D01*
X51604Y-45892D01*
X51623Y-45873D01*
X51643Y-45835D01*
X51643Y-45739D01*
X51623Y-45701D01*
X51604Y-45682D01*
X51566Y-45663D01*
X51490Y-45663D01*
X51452Y-45682D01*
X51433Y-45701D01*
X51414Y-45739D01*
X23840Y-42864D02*
X23707Y-42673D01*
X23612Y-42864D02*
X23612Y-42464D01*
X23764Y-42464D01*
X23802Y-42483D01*
X23821Y-42502D01*
X23840Y-42540D01*
X23840Y-42597D01*
X23821Y-42635D01*
X23802Y-42654D01*
X23764Y-42673D01*
X23612Y-42673D01*
X23974Y-42464D02*
X24240Y-42464D01*
X24069Y-42864D01*
X47754Y-42631D02*
X47620Y-42441D01*
X47525Y-42631D02*
X47525Y-42231D01*
X47678Y-42231D01*
X47716Y-42250D01*
X47735Y-42269D01*
X47754Y-42307D01*
X47754Y-42365D01*
X47735Y-42403D01*
X47716Y-42422D01*
X47678Y-42441D01*
X47525Y-42441D01*
X47982Y-42403D02*
X47944Y-42384D01*
X47925Y-42365D01*
X47906Y-42326D01*
X47906Y-42307D01*
X47925Y-42269D01*
X47944Y-42250D01*
X47982Y-42231D01*
X48058Y-42231D01*
X48097Y-42250D01*
X48116Y-42269D01*
X48135Y-42307D01*
X48135Y-42326D01*
X48116Y-42365D01*
X48097Y-42384D01*
X48058Y-42403D01*
X47982Y-42403D01*
X47944Y-42422D01*
X47925Y-42441D01*
X47906Y-42479D01*
X47906Y-42555D01*
X47925Y-42593D01*
X47944Y-42612D01*
X47982Y-42631D01*
X48058Y-42631D01*
X48097Y-42612D01*
X48116Y-42593D01*
X48135Y-42555D01*
X48135Y-42479D01*
X48116Y-42441D01*
X48097Y-42422D01*
X48058Y-42403D01*
X25175Y-42820D02*
X25042Y-42630D01*
X24946Y-42820D02*
X24946Y-42420D01*
X25099Y-42420D01*
X25137Y-42439D01*
X25156Y-42458D01*
X25175Y-42496D01*
X25175Y-42554D01*
X25156Y-42592D01*
X25137Y-42611D01*
X25099Y-42630D01*
X24946Y-42630D01*
X25365Y-42820D02*
X25442Y-42820D01*
X25480Y-42801D01*
X25499Y-42782D01*
X25537Y-42725D01*
X25556Y-42649D01*
X25556Y-42496D01*
X25537Y-42458D01*
X25518Y-42439D01*
X25480Y-42420D01*
X25404Y-42420D01*
X25365Y-42439D01*
X25346Y-42458D01*
X25327Y-42496D01*
X25327Y-42592D01*
X25346Y-42630D01*
X25365Y-42649D01*
X25404Y-42668D01*
X25480Y-42668D01*
X25518Y-42649D01*
X25537Y-42630D01*
X25556Y-42592D01*
X48670Y-42576D02*
X48536Y-42386D01*
X48441Y-42576D02*
X48441Y-42176D01*
X48593Y-42176D01*
X48631Y-42195D01*
X48650Y-42214D01*
X48670Y-42252D01*
X48670Y-42309D01*
X48650Y-42348D01*
X48631Y-42367D01*
X48593Y-42386D01*
X48441Y-42386D01*
X49050Y-42576D02*
X48822Y-42576D01*
X48936Y-42576D02*
X48936Y-42176D01*
X48898Y-42233D01*
X48860Y-42271D01*
X48822Y-42290D01*
X49298Y-42176D02*
X49336Y-42176D01*
X49374Y-42195D01*
X49393Y-42214D01*
X49412Y-42252D01*
X49431Y-42329D01*
X49431Y-42424D01*
X49412Y-42500D01*
X49393Y-42538D01*
X49374Y-42557D01*
X49336Y-42576D01*
X49298Y-42576D01*
X49260Y-42557D01*
X49241Y-42538D01*
X49222Y-42500D01*
X49203Y-42424D01*
X49203Y-42329D01*
X49222Y-42252D01*
X49241Y-42214D01*
X49260Y-42195D01*
X49298Y-42176D01*
X49382Y-36206D02*
X49249Y-36016D01*
X49154Y-36206D02*
X49154Y-35806D01*
X49306Y-35806D01*
X49344Y-35825D01*
X49363Y-35844D01*
X49382Y-35882D01*
X49382Y-35939D01*
X49363Y-35977D01*
X49344Y-35997D01*
X49306Y-36016D01*
X49154Y-36016D01*
X49763Y-36206D02*
X49535Y-36206D01*
X49649Y-36206D02*
X49649Y-35806D01*
X49611Y-35863D01*
X49573Y-35901D01*
X49535Y-35920D01*
X50144Y-36206D02*
X49915Y-36206D01*
X50030Y-36206D02*
X50030Y-35806D01*
X49992Y-35863D01*
X49954Y-35901D01*
X49915Y-35920D01*
X30374Y-31919D02*
X30241Y-31728D01*
X30146Y-31919D02*
X30146Y-31519D01*
X30298Y-31519D01*
X30336Y-31538D01*
X30355Y-31557D01*
X30374Y-31595D01*
X30374Y-31652D01*
X30355Y-31690D01*
X30336Y-31709D01*
X30298Y-31728D01*
X30146Y-31728D01*
X30755Y-31919D02*
X30527Y-31919D01*
X30641Y-31919D02*
X30641Y-31519D01*
X30603Y-31576D01*
X30565Y-31614D01*
X30527Y-31633D01*
X30908Y-31557D02*
X30927Y-31538D01*
X30965Y-31519D01*
X31060Y-31519D01*
X31098Y-31538D01*
X31117Y-31557D01*
X31136Y-31595D01*
X31136Y-31633D01*
X31117Y-31690D01*
X30889Y-31919D01*
X31136Y-31919D01*
X28956Y-21297D02*
X29013Y-21316D01*
X29109Y-21316D01*
X29147Y-21297D01*
X29166Y-21278D01*
X29185Y-21240D01*
X29185Y-21202D01*
X29166Y-21164D01*
X29147Y-21145D01*
X29109Y-21126D01*
X29033Y-21107D01*
X28994Y-21088D01*
X28975Y-21069D01*
X28956Y-21031D01*
X28956Y-20992D01*
X28975Y-20954D01*
X28994Y-20935D01*
X29033Y-20916D01*
X29128Y-20916D01*
X29185Y-20935D01*
X29318Y-20916D02*
X29413Y-21316D01*
X29490Y-21031D01*
X29566Y-21316D01*
X29661Y-20916D01*
X30023Y-21316D02*
X29794Y-21316D01*
X29909Y-21316D02*
X29909Y-20916D01*
X29871Y-20973D01*
X29833Y-21012D01*
X29794Y-21031D01*
X39583Y-29503D02*
X39583Y-29827D01*
X39602Y-29865D01*
X39621Y-29884D01*
X39659Y-29903D01*
X39735Y-29903D01*
X39773Y-29884D01*
X39792Y-29865D01*
X39811Y-29827D01*
X39811Y-29503D01*
X40173Y-29636D02*
X40173Y-29903D01*
X40078Y-29484D02*
X39983Y-29770D01*
X40230Y-29770D01*
X42474Y-55575D02*
X42474Y-55899D01*
X42493Y-55937D01*
X42512Y-55956D01*
X42551Y-55975D01*
X42627Y-55975D01*
X42665Y-55956D01*
X42684Y-55937D01*
X42703Y-55899D01*
X42703Y-55575D01*
X43084Y-55575D02*
X42893Y-55575D01*
X42874Y-55765D01*
X42893Y-55746D01*
X42931Y-55727D01*
X43027Y-55727D01*
X43065Y-55746D01*
X43084Y-55765D01*
X43103Y-55804D01*
X43103Y-55899D01*
X43084Y-55937D01*
X43065Y-55956D01*
X43027Y-55975D01*
X42931Y-55975D01*
X42893Y-55956D01*
X42874Y-55937D01*
X45803Y-28491D02*
X45803Y-28815D01*
X45822Y-28853D01*
X45841Y-28872D01*
X45879Y-28891D01*
X45955Y-28891D01*
X45993Y-28872D01*
X46013Y-28853D01*
X46032Y-28815D01*
X46032Y-28491D01*
X46393Y-28491D02*
X46317Y-28491D01*
X46279Y-28510D01*
X46260Y-28529D01*
X46222Y-28586D01*
X46203Y-28663D01*
X46203Y-28815D01*
X46222Y-28853D01*
X46241Y-28872D01*
X46279Y-28891D01*
X46355Y-28891D01*
X46393Y-28872D01*
X46413Y-28853D01*
X46432Y-28815D01*
X46432Y-28720D01*
X46413Y-28682D01*
X46393Y-28663D01*
X46355Y-28643D01*
X46279Y-28643D01*
X46241Y-28663D01*
X46222Y-28682D01*
X46203Y-28720D01*
X31685Y-44160D02*
X31685Y-44484D01*
X31704Y-44522D01*
X31723Y-44541D01*
X31761Y-44560D01*
X31837Y-44560D01*
X31875Y-44541D01*
X31894Y-44522D01*
X31913Y-44484D01*
X31913Y-44160D01*
X32161Y-44332D02*
X32123Y-44313D01*
X32104Y-44294D01*
X32085Y-44256D01*
X32085Y-44237D01*
X32104Y-44198D01*
X32123Y-44179D01*
X32161Y-44160D01*
X32237Y-44160D01*
X32275Y-44179D01*
X32294Y-44198D01*
X32313Y-44237D01*
X32313Y-44256D01*
X32294Y-44294D01*
X32275Y-44313D01*
X32237Y-44332D01*
X32161Y-44332D01*
X32123Y-44351D01*
X32104Y-44370D01*
X32085Y-44408D01*
X32085Y-44484D01*
X32104Y-44522D01*
X32123Y-44541D01*
X32161Y-44560D01*
X32237Y-44560D01*
X32275Y-44541D01*
X32294Y-44522D01*
X32313Y-44484D01*
X32313Y-44408D01*
X32294Y-44370D01*
X32275Y-44351D01*
X32237Y-44332D01*
X36185Y-44259D02*
X36185Y-44583D01*
X36204Y-44621D01*
X36223Y-44640D01*
X36261Y-44659D01*
X36337Y-44659D01*
X36375Y-44640D01*
X36394Y-44621D01*
X36413Y-44583D01*
X36413Y-44259D01*
X36623Y-44659D02*
X36699Y-44659D01*
X36737Y-44640D01*
X36756Y-44621D01*
X36794Y-44564D01*
X36813Y-44487D01*
X36813Y-44335D01*
X36794Y-44297D01*
X36775Y-44278D01*
X36737Y-44259D01*
X36661Y-44259D01*
X36623Y-44278D01*
X36604Y-44297D01*
X36585Y-44335D01*
X36585Y-44430D01*
X36604Y-44468D01*
X36623Y-44487D01*
X36661Y-44506D01*
X36737Y-44506D01*
X36775Y-44487D01*
X36794Y-44468D01*
X36813Y-44430D01*
X27959Y-36487D02*
X27959Y-36811D01*
X27978Y-36849D01*
X27997Y-36868D01*
X28035Y-36887D01*
X28111Y-36887D01*
X28149Y-36868D01*
X28169Y-36849D01*
X28188Y-36811D01*
X28188Y-36487D01*
X28588Y-36887D02*
X28359Y-36887D01*
X28473Y-36887D02*
X28473Y-36487D01*
X28435Y-36544D01*
X28397Y-36582D01*
X28359Y-36601D01*
X28721Y-36487D02*
X28969Y-36487D01*
X28835Y-36640D01*
X28892Y-36640D01*
X28930Y-36659D01*
X28949Y-36678D01*
X28969Y-36716D01*
X28969Y-36811D01*
X28949Y-36849D01*
X28930Y-36868D01*
X28892Y-36887D01*
X28778Y-36887D01*
X28740Y-36868D01*
X28721Y-36849D01*
G54D14*
X52874Y-31395D02*
X52874Y-31718D01*
X52893Y-31757D01*
X52912Y-31776D01*
X52951Y-31795D01*
X53027Y-31795D01*
X53065Y-31776D01*
X53084Y-31757D01*
X53103Y-31718D01*
X53103Y-31395D01*
X53503Y-31795D02*
X53274Y-31795D01*
X53389Y-31795D02*
X53389Y-31395D01*
X53351Y-31452D01*
X53312Y-31490D01*
X53274Y-31509D01*
X53846Y-31528D02*
X53846Y-31795D01*
X53751Y-31376D02*
X53655Y-31661D01*
X53903Y-31661D01*
G54D11*
X33278Y-31420D02*
X33278Y-31744D01*
X33297Y-31782D01*
X33316Y-31801D01*
X33354Y-31820D01*
X33430Y-31820D01*
X33468Y-31801D01*
X33487Y-31782D01*
X33506Y-31744D01*
X33506Y-31420D01*
X33906Y-31820D02*
X33678Y-31820D01*
X33792Y-31820D02*
X33792Y-31420D01*
X33754Y-31477D01*
X33716Y-31515D01*
X33678Y-31535D01*
X34268Y-31420D02*
X34078Y-31420D01*
X34059Y-31611D01*
X34078Y-31592D01*
X34116Y-31573D01*
X34211Y-31573D01*
X34249Y-31592D01*
X34268Y-31611D01*
X34287Y-31649D01*
X34287Y-31744D01*
X34268Y-31782D01*
X34249Y-31801D01*
X34211Y-31820D01*
X34116Y-31820D01*
X34078Y-31801D01*
X34059Y-31782D01*
X51756Y-56121D02*
X52023Y-56521D01*
X52023Y-56121D02*
X51756Y-56521D01*
X52385Y-56521D02*
X52156Y-56521D01*
X52271Y-56521D02*
X52271Y-56121D01*
X52233Y-56178D01*
X52194Y-56216D01*
X52156Y-56235D01*
X36463Y-34180D02*
X36463Y-34504D01*
X36482Y-34542D01*
X36501Y-34561D01*
X36539Y-34580D01*
X36615Y-34580D01*
X36653Y-34561D01*
X36672Y-34542D01*
X36691Y-34504D01*
X36691Y-34180D01*
X37091Y-34580D02*
X36863Y-34580D01*
X36977Y-34580D02*
X36977Y-34180D01*
X36939Y-34237D01*
X36901Y-34275D01*
X36863Y-34294D01*
X37244Y-34218D02*
X37263Y-34199D01*
X37301Y-34180D01*
X37396Y-34180D01*
X37434Y-34199D01*
X37453Y-34218D01*
X37472Y-34256D01*
X37472Y-34294D01*
X37453Y-34351D01*
X37225Y-34580D01*
X37472Y-34580D01*
X36388Y-29782D02*
X36388Y-30106D01*
X36407Y-30144D01*
X36426Y-30163D01*
X36464Y-30182D01*
X36541Y-30182D01*
X36579Y-30163D01*
X36598Y-30144D01*
X36617Y-30106D01*
X36617Y-29782D01*
X37017Y-30182D02*
X36788Y-30182D01*
X36902Y-30182D02*
X36902Y-29782D01*
X36864Y-29840D01*
X36826Y-29878D01*
X36788Y-29897D01*
X37360Y-29782D02*
X37283Y-29782D01*
X37245Y-29801D01*
X37226Y-29821D01*
X37188Y-29878D01*
X37169Y-29954D01*
X37169Y-30106D01*
X37188Y-30144D01*
X37207Y-30163D01*
X37245Y-30182D01*
X37321Y-30182D01*
X37360Y-30163D01*
X37379Y-30144D01*
X37398Y-30106D01*
X37398Y-30011D01*
X37379Y-29973D01*
X37360Y-29954D01*
X37321Y-29935D01*
X37245Y-29935D01*
X37207Y-29954D01*
X37188Y-29973D01*
X37169Y-30011D01*
X40433Y-36812D02*
X40433Y-36412D01*
X40661Y-36812D01*
X40661Y-36412D01*
X41023Y-36546D02*
X41023Y-36812D01*
X40928Y-36393D02*
X40833Y-36679D01*
X41081Y-36679D01*
X28451Y-43341D02*
X28451Y-43665D01*
X28470Y-43703D01*
X28489Y-43722D01*
X28527Y-43741D01*
X28603Y-43741D01*
X28642Y-43722D01*
X28661Y-43703D01*
X28680Y-43665D01*
X28680Y-43341D01*
X29080Y-43741D02*
X28851Y-43741D01*
X28965Y-43741D02*
X28965Y-43341D01*
X28927Y-43399D01*
X28889Y-43437D01*
X28851Y-43456D01*
X29327Y-43341D02*
X29365Y-43341D01*
X29403Y-43361D01*
X29423Y-43380D01*
X29442Y-43418D01*
X29461Y-43494D01*
X29461Y-43589D01*
X29442Y-43665D01*
X29423Y-43703D01*
X29403Y-43722D01*
X29365Y-43741D01*
X29327Y-43741D01*
X29289Y-43722D01*
X29270Y-43703D01*
X29251Y-43665D01*
X29232Y-43589D01*
X29232Y-43494D01*
X29251Y-43418D01*
X29270Y-43380D01*
X29289Y-43361D01*
X29327Y-43341D01*
X48187Y-43530D02*
X48187Y-43854D01*
X48206Y-43892D01*
X48225Y-43911D01*
X48264Y-43930D01*
X48340Y-43930D01*
X48378Y-43911D01*
X48397Y-43892D01*
X48416Y-43854D01*
X48416Y-43530D01*
X48816Y-43930D02*
X48587Y-43930D01*
X48702Y-43930D02*
X48702Y-43530D01*
X48664Y-43588D01*
X48625Y-43626D01*
X48587Y-43645D01*
X49197Y-43930D02*
X48968Y-43930D01*
X49083Y-43930D02*
X49083Y-43530D01*
X49044Y-43588D01*
X49006Y-43626D01*
X48968Y-43645D01*
X30140Y-53859D02*
X30140Y-54183D01*
X30159Y-54221D01*
X30178Y-54240D01*
X30216Y-54259D01*
X30292Y-54259D01*
X30330Y-54240D01*
X30350Y-54221D01*
X30369Y-54183D01*
X30369Y-53859D01*
X30769Y-54259D02*
X30540Y-54259D01*
X30654Y-54259D02*
X30654Y-53859D01*
X30616Y-53916D01*
X30578Y-53954D01*
X30540Y-53973D01*
X42237Y-48897D02*
X42237Y-49221D01*
X42256Y-49259D01*
X42275Y-49278D01*
X42313Y-49297D01*
X42390Y-49297D01*
X42428Y-49278D01*
X42447Y-49259D01*
X42466Y-49221D01*
X42466Y-48897D01*
X42637Y-48935D02*
X42656Y-48916D01*
X42694Y-48897D01*
X42790Y-48897D01*
X42828Y-48916D01*
X42847Y-48935D01*
X42866Y-48973D01*
X42866Y-49011D01*
X42847Y-49068D01*
X42618Y-49297D01*
X42866Y-49297D01*
X40284Y-27200D02*
X40513Y-27200D01*
X40398Y-27600D02*
X40398Y-27200D01*
X40646Y-27600D02*
X40646Y-27200D01*
X40798Y-27200D01*
X40836Y-27219D01*
X40856Y-27238D01*
X40875Y-27276D01*
X40875Y-27333D01*
X40856Y-27371D01*
X40836Y-27390D01*
X40798Y-27409D01*
X40646Y-27409D01*
X41256Y-27600D02*
X41027Y-27600D01*
X41141Y-27600D02*
X41141Y-27200D01*
X41103Y-27257D01*
X41065Y-27295D01*
X41027Y-27314D01*
X47646Y-44260D02*
X47875Y-44260D01*
X47761Y-44660D02*
X47761Y-44260D01*
X48008Y-44660D02*
X48008Y-44260D01*
X48161Y-44260D01*
X48199Y-44279D01*
X48218Y-44298D01*
X48237Y-44337D01*
X48237Y-44394D01*
X48218Y-44432D01*
X48199Y-44451D01*
X48161Y-44470D01*
X48008Y-44470D01*
X48389Y-44298D02*
X48408Y-44279D01*
X48446Y-44260D01*
X48542Y-44260D01*
X48580Y-44279D01*
X48599Y-44298D01*
X48618Y-44337D01*
X48618Y-44375D01*
X48599Y-44432D01*
X48370Y-44660D01*
X48618Y-44660D01*
X54060Y-44099D02*
X54288Y-44099D01*
X54174Y-44499D02*
X54174Y-44099D01*
X54422Y-44499D02*
X54422Y-44099D01*
X54574Y-44099D01*
X54612Y-44118D01*
X54631Y-44137D01*
X54650Y-44175D01*
X54650Y-44232D01*
X54631Y-44270D01*
X54612Y-44289D01*
X54574Y-44308D01*
X54422Y-44308D01*
X54784Y-44099D02*
X55031Y-44099D01*
X54898Y-44251D01*
X54955Y-44251D01*
X54993Y-44270D01*
X55012Y-44289D01*
X55031Y-44328D01*
X55031Y-44423D01*
X55012Y-44461D01*
X54993Y-44480D01*
X54955Y-44499D01*
X54841Y-44499D01*
X54803Y-44480D01*
X54784Y-44461D01*
X30229Y-35617D02*
X30458Y-35617D01*
X30343Y-36017D02*
X30343Y-35617D01*
X30591Y-36017D02*
X30591Y-35617D01*
X30743Y-35617D01*
X30781Y-35636D01*
X30800Y-35655D01*
X30819Y-35693D01*
X30819Y-35750D01*
X30800Y-35788D01*
X30781Y-35808D01*
X30743Y-35827D01*
X30591Y-35827D01*
X31162Y-35750D02*
X31162Y-36017D01*
X31067Y-35598D02*
X30972Y-35884D01*
X31219Y-35884D01*
X26489Y-36519D02*
X26717Y-36519D01*
X26603Y-36919D02*
X26603Y-36519D01*
X26851Y-36919D02*
X26851Y-36519D01*
X27003Y-36519D01*
X27041Y-36538D01*
X27060Y-36557D01*
X27079Y-36595D01*
X27079Y-36652D01*
X27060Y-36690D01*
X27041Y-36709D01*
X27003Y-36728D01*
X26851Y-36728D01*
X27441Y-36519D02*
X27251Y-36519D01*
X27232Y-36709D01*
X27251Y-36690D01*
X27289Y-36671D01*
X27384Y-36671D01*
X27422Y-36690D01*
X27441Y-36709D01*
X27460Y-36747D01*
X27460Y-36842D01*
X27441Y-36881D01*
X27422Y-36900D01*
X27384Y-36919D01*
X27289Y-36919D01*
X27251Y-36900D01*
X27232Y-36881D01*
X51701Y-20019D02*
X51930Y-20019D01*
X51816Y-20419D02*
X51816Y-20019D01*
X52063Y-20419D02*
X52063Y-20019D01*
X52216Y-20019D01*
X52254Y-20038D01*
X52273Y-20057D01*
X52292Y-20095D01*
X52292Y-20152D01*
X52273Y-20190D01*
X52254Y-20209D01*
X52216Y-20228D01*
X52063Y-20228D01*
X52635Y-20019D02*
X52559Y-20019D01*
X52520Y-20038D01*
X52501Y-20057D01*
X52463Y-20114D01*
X52444Y-20190D01*
X52444Y-20342D01*
X52463Y-20381D01*
X52482Y-20400D01*
X52520Y-20419D01*
X52597Y-20419D01*
X52635Y-20400D01*
X52654Y-20381D01*
X52673Y-20342D01*
X52673Y-20247D01*
X52654Y-20209D01*
X52635Y-20190D01*
X52597Y-20171D01*
X52520Y-20171D01*
X52482Y-20190D01*
X52463Y-20209D01*
X52444Y-20247D01*
X34627Y-43924D02*
X34855Y-43924D01*
X34741Y-44324D02*
X34741Y-43924D01*
X34989Y-44324D02*
X34989Y-43924D01*
X35141Y-43924D01*
X35179Y-43943D01*
X35198Y-43962D01*
X35217Y-44000D01*
X35217Y-44057D01*
X35198Y-44096D01*
X35179Y-44115D01*
X35141Y-44134D01*
X34989Y-44134D01*
X35350Y-43924D02*
X35617Y-43924D01*
X35446Y-44324D01*
X33201Y-44030D02*
X33430Y-44030D01*
X33316Y-44430D02*
X33316Y-44030D01*
X33563Y-44430D02*
X33563Y-44030D01*
X33716Y-44030D01*
X33754Y-44050D01*
X33773Y-44069D01*
X33792Y-44107D01*
X33792Y-44164D01*
X33773Y-44202D01*
X33754Y-44221D01*
X33716Y-44240D01*
X33563Y-44240D01*
X34020Y-44202D02*
X33982Y-44183D01*
X33963Y-44164D01*
X33944Y-44126D01*
X33944Y-44107D01*
X33963Y-44069D01*
X33982Y-44050D01*
X34020Y-44030D01*
X34097Y-44030D01*
X34135Y-44050D01*
X34154Y-44069D01*
X34173Y-44107D01*
X34173Y-44126D01*
X34154Y-44164D01*
X34135Y-44183D01*
X34097Y-44202D01*
X34020Y-44202D01*
X33982Y-44221D01*
X33963Y-44240D01*
X33944Y-44278D01*
X33944Y-44354D01*
X33963Y-44392D01*
X33982Y-44411D01*
X34020Y-44430D01*
X34097Y-44430D01*
X34135Y-44411D01*
X34154Y-44392D01*
X34173Y-44354D01*
X34173Y-44278D01*
X34154Y-44240D01*
X34135Y-44221D01*
X34097Y-44202D01*
X28398Y-41286D02*
X28627Y-41286D01*
X28513Y-41686D02*
X28513Y-41286D01*
X28760Y-41686D02*
X28760Y-41286D01*
X28913Y-41286D01*
X28951Y-41305D01*
X28970Y-41324D01*
X28989Y-41363D01*
X28989Y-41420D01*
X28970Y-41458D01*
X28951Y-41477D01*
X28913Y-41496D01*
X28760Y-41496D01*
X29179Y-41686D02*
X29255Y-41686D01*
X29294Y-41667D01*
X29313Y-41648D01*
X29351Y-41591D01*
X29370Y-41515D01*
X29370Y-41363D01*
X29351Y-41324D01*
X29332Y-41305D01*
X29294Y-41286D01*
X29217Y-41286D01*
X29179Y-41305D01*
X29160Y-41324D01*
X29141Y-41363D01*
X29141Y-41458D01*
X29160Y-41496D01*
X29179Y-41515D01*
X29217Y-41534D01*
X29294Y-41534D01*
X29332Y-41515D01*
X29351Y-41496D01*
X29370Y-41458D01*
X33814Y-28353D02*
X34043Y-28353D01*
X33928Y-28753D02*
X33928Y-28353D01*
X34176Y-28753D02*
X34176Y-28353D01*
X34328Y-28353D01*
X34366Y-28372D01*
X34386Y-28391D01*
X34405Y-28429D01*
X34405Y-28487D01*
X34386Y-28525D01*
X34366Y-28544D01*
X34328Y-28563D01*
X34176Y-28563D01*
X34786Y-28753D02*
X34557Y-28753D01*
X34671Y-28753D02*
X34671Y-28353D01*
X34633Y-28410D01*
X34595Y-28449D01*
X34557Y-28468D01*
X35033Y-28353D02*
X35071Y-28353D01*
X35109Y-28372D01*
X35128Y-28391D01*
X35147Y-28429D01*
X35166Y-28506D01*
X35166Y-28601D01*
X35147Y-28677D01*
X35128Y-28715D01*
X35109Y-28734D01*
X35071Y-28753D01*
X35033Y-28753D01*
X34995Y-28734D01*
X34976Y-28715D01*
X34957Y-28677D01*
X34938Y-28601D01*
X34938Y-28506D01*
X34957Y-28429D01*
X34976Y-28391D01*
X34995Y-28372D01*
X35033Y-28353D01*
X31668Y-33857D02*
X31897Y-33857D01*
X31783Y-34257D02*
X31783Y-33857D01*
X32030Y-34257D02*
X32030Y-33857D01*
X32183Y-33857D01*
X32221Y-33876D01*
X32240Y-33895D01*
X32259Y-33933D01*
X32259Y-33991D01*
X32240Y-34029D01*
X32221Y-34048D01*
X32183Y-34067D01*
X32030Y-34067D01*
X32640Y-34257D02*
X32411Y-34257D01*
X32526Y-34257D02*
X32526Y-33857D01*
X32487Y-33914D01*
X32449Y-33952D01*
X32411Y-33972D01*
X33021Y-34257D02*
X32792Y-34257D01*
X32907Y-34257D02*
X32907Y-33857D01*
X32868Y-33914D01*
X32830Y-33952D01*
X32792Y-33972D01*
X29180Y-43957D02*
X29409Y-43957D01*
X29295Y-44357D02*
X29295Y-43957D01*
X29542Y-44357D02*
X29542Y-43957D01*
X29695Y-43957D01*
X29733Y-43976D01*
X29752Y-43995D01*
X29771Y-44033D01*
X29771Y-44091D01*
X29752Y-44129D01*
X29733Y-44148D01*
X29695Y-44167D01*
X29542Y-44167D01*
X30152Y-44357D02*
X29923Y-44357D01*
X30037Y-44357D02*
X30037Y-43957D01*
X29999Y-44014D01*
X29961Y-44052D01*
X29923Y-44072D01*
X30304Y-43995D02*
X30323Y-43976D01*
X30361Y-43957D01*
X30456Y-43957D01*
X30495Y-43976D01*
X30514Y-43995D01*
X30533Y-44033D01*
X30533Y-44072D01*
X30514Y-44129D01*
X30285Y-44357D01*
X30533Y-44357D01*
X35243Y-48129D02*
X35472Y-48129D01*
X35358Y-48529D02*
X35358Y-48129D01*
X35605Y-48529D02*
X35605Y-48129D01*
X35758Y-48129D01*
X35796Y-48148D01*
X35815Y-48167D01*
X35834Y-48205D01*
X35834Y-48262D01*
X35815Y-48300D01*
X35796Y-48319D01*
X35758Y-48338D01*
X35605Y-48338D01*
X36215Y-48529D02*
X35986Y-48529D01*
X36100Y-48529D02*
X36100Y-48129D01*
X36062Y-48186D01*
X36024Y-48224D01*
X35986Y-48243D01*
X36348Y-48129D02*
X36596Y-48129D01*
X36462Y-48281D01*
X36519Y-48281D01*
X36558Y-48300D01*
X36577Y-48319D01*
X36596Y-48357D01*
X36596Y-48453D01*
X36577Y-48491D01*
X36558Y-48510D01*
X36519Y-48529D01*
X36405Y-48529D01*
X36367Y-48510D01*
X36348Y-48491D01*
X33444Y-48121D02*
X33673Y-48121D01*
X33558Y-48521D02*
X33558Y-48121D01*
X33806Y-48521D02*
X33806Y-48121D01*
X33958Y-48121D01*
X33996Y-48140D01*
X34015Y-48159D01*
X34035Y-48197D01*
X34035Y-48254D01*
X34015Y-48292D01*
X33996Y-48311D01*
X33958Y-48331D01*
X33806Y-48331D01*
X34415Y-48521D02*
X34187Y-48521D01*
X34301Y-48521D02*
X34301Y-48121D01*
X34263Y-48178D01*
X34225Y-48216D01*
X34187Y-48235D01*
X34758Y-48254D02*
X34758Y-48521D01*
X34663Y-48102D02*
X34568Y-48388D01*
X34815Y-48388D01*
X25373Y-54871D02*
X25602Y-54871D01*
X25487Y-55271D02*
X25487Y-54871D01*
X25735Y-55271D02*
X25735Y-54871D01*
X25887Y-54871D01*
X25926Y-54890D01*
X25945Y-54909D01*
X25964Y-54947D01*
X25964Y-55004D01*
X25945Y-55042D01*
X25926Y-55061D01*
X25887Y-55080D01*
X25735Y-55080D01*
X26345Y-55271D02*
X26116Y-55271D01*
X26230Y-55271D02*
X26230Y-54871D01*
X26192Y-54928D01*
X26154Y-54966D01*
X26116Y-54985D01*
X26706Y-54871D02*
X26516Y-54871D01*
X26497Y-55061D01*
X26516Y-55042D01*
X26554Y-55023D01*
X26649Y-55023D01*
X26687Y-55042D01*
X26706Y-55061D01*
X26726Y-55099D01*
X26726Y-55194D01*
X26706Y-55233D01*
X26687Y-55252D01*
X26649Y-55271D01*
X26554Y-55271D01*
X26516Y-55252D01*
X26497Y-55233D01*
X23306Y-54111D02*
X23535Y-54111D01*
X23421Y-54511D02*
X23421Y-54111D01*
X23668Y-54511D02*
X23668Y-54111D01*
X23821Y-54111D01*
X23859Y-54130D01*
X23878Y-54149D01*
X23897Y-54187D01*
X23897Y-54244D01*
X23878Y-54282D01*
X23859Y-54301D01*
X23821Y-54320D01*
X23668Y-54320D01*
X24278Y-54511D02*
X24049Y-54511D01*
X24163Y-54511D02*
X24163Y-54111D01*
X24125Y-54168D01*
X24087Y-54206D01*
X24049Y-54225D01*
X24621Y-54111D02*
X24544Y-54111D01*
X24506Y-54130D01*
X24487Y-54149D01*
X24449Y-54206D01*
X24430Y-54282D01*
X24430Y-54435D01*
X24449Y-54473D01*
X24468Y-54492D01*
X24506Y-54511D01*
X24582Y-54511D01*
X24621Y-54492D01*
X24640Y-54473D01*
X24659Y-54435D01*
X24659Y-54339D01*
X24640Y-54301D01*
X24621Y-54282D01*
X24582Y-54263D01*
X24506Y-54263D01*
X24468Y-54282D01*
X24449Y-54301D01*
X24430Y-54339D01*
X23153Y-56461D02*
X23381Y-56461D01*
X23267Y-56861D02*
X23267Y-56461D01*
X23515Y-56861D02*
X23515Y-56461D01*
X23667Y-56461D01*
X23705Y-56480D01*
X23724Y-56499D01*
X23743Y-56537D01*
X23743Y-56594D01*
X23724Y-56633D01*
X23705Y-56652D01*
X23667Y-56671D01*
X23515Y-56671D01*
X24124Y-56861D02*
X23896Y-56861D01*
X24010Y-56861D02*
X24010Y-56461D01*
X23972Y-56518D01*
X23934Y-56556D01*
X23896Y-56575D01*
X24257Y-56461D02*
X24524Y-56461D01*
X24353Y-56861D01*
X23314Y-48871D02*
X23543Y-48871D01*
X23428Y-49271D02*
X23428Y-48871D01*
X23676Y-49271D02*
X23676Y-48871D01*
X23828Y-48871D01*
X23866Y-48890D01*
X23886Y-48909D01*
X23905Y-48947D01*
X23905Y-49004D01*
X23886Y-49042D01*
X23866Y-49061D01*
X23828Y-49080D01*
X23676Y-49080D01*
X24286Y-49271D02*
X24057Y-49271D01*
X24171Y-49271D02*
X24171Y-48871D01*
X24133Y-48928D01*
X24095Y-48966D01*
X24057Y-48985D01*
X24514Y-49042D02*
X24476Y-49023D01*
X24457Y-49004D01*
X24438Y-48966D01*
X24438Y-48947D01*
X24457Y-48909D01*
X24476Y-48890D01*
X24514Y-48871D01*
X24590Y-48871D01*
X24628Y-48890D01*
X24647Y-48909D01*
X24666Y-48947D01*
X24666Y-48966D01*
X24647Y-49004D01*
X24628Y-49023D01*
X24590Y-49042D01*
X24514Y-49042D01*
X24476Y-49061D01*
X24457Y-49080D01*
X24438Y-49118D01*
X24438Y-49194D01*
X24457Y-49233D01*
X24476Y-49252D01*
X24514Y-49271D01*
X24590Y-49271D01*
X24628Y-49252D01*
X24647Y-49233D01*
X24666Y-49194D01*
X24666Y-49118D01*
X24647Y-49080D01*
X24628Y-49061D01*
X24590Y-49042D01*
X23263Y-51339D02*
X23491Y-51339D01*
X23377Y-51739D02*
X23377Y-51339D01*
X23625Y-51739D02*
X23625Y-51339D01*
X23777Y-51339D01*
X23815Y-51358D01*
X23834Y-51377D01*
X23853Y-51415D01*
X23853Y-51472D01*
X23834Y-51511D01*
X23815Y-51530D01*
X23777Y-51549D01*
X23625Y-51549D01*
X24234Y-51739D02*
X24006Y-51739D01*
X24120Y-51739D02*
X24120Y-51339D01*
X24082Y-51396D01*
X24044Y-51434D01*
X24006Y-51453D01*
X24425Y-51739D02*
X24501Y-51739D01*
X24539Y-51720D01*
X24558Y-51701D01*
X24596Y-51644D01*
X24615Y-51568D01*
X24615Y-51415D01*
X24596Y-51377D01*
X24577Y-51358D01*
X24539Y-51339D01*
X24463Y-51339D01*
X24425Y-51358D01*
X24406Y-51377D01*
X24387Y-51415D01*
X24387Y-51511D01*
X24406Y-51549D01*
X24425Y-51568D01*
X24463Y-51587D01*
X24539Y-51587D01*
X24577Y-51568D01*
X24596Y-51549D01*
X24615Y-51511D01*
X34559Y-43656D02*
X34540Y-43675D01*
X34483Y-43694D01*
X34445Y-43694D01*
X34388Y-43675D01*
X34350Y-43637D01*
X34331Y-43599D01*
X34312Y-43523D01*
X34312Y-43466D01*
X34331Y-43389D01*
X34350Y-43351D01*
X34388Y-43313D01*
X34445Y-43294D01*
X34483Y-43294D01*
X34540Y-43313D01*
X34559Y-43332D01*
X34712Y-43332D02*
X34731Y-43313D01*
X34769Y-43294D01*
X34864Y-43294D01*
X34902Y-43313D01*
X34921Y-43332D01*
X34940Y-43370D01*
X34940Y-43409D01*
X34921Y-43466D01*
X34693Y-43694D01*
X34940Y-43694D01*
X35093Y-43332D02*
X35112Y-43313D01*
X35150Y-43294D01*
X35245Y-43294D01*
X35283Y-43313D01*
X35302Y-43332D01*
X35321Y-43370D01*
X35321Y-43409D01*
X35302Y-43466D01*
X35074Y-43694D01*
X35321Y-43694D01*
X38858Y-43963D02*
X38839Y-43982D01*
X38782Y-44001D01*
X38744Y-44001D01*
X38687Y-43982D01*
X38649Y-43944D01*
X38630Y-43906D01*
X38611Y-43830D01*
X38611Y-43773D01*
X38630Y-43697D01*
X38649Y-43658D01*
X38687Y-43620D01*
X38744Y-43601D01*
X38782Y-43601D01*
X38839Y-43620D01*
X38858Y-43639D01*
X39011Y-43639D02*
X39030Y-43620D01*
X39068Y-43601D01*
X39163Y-43601D01*
X39201Y-43620D01*
X39220Y-43639D01*
X39239Y-43678D01*
X39239Y-43716D01*
X39220Y-43773D01*
X38992Y-44001D01*
X39239Y-44001D01*
X39373Y-43601D02*
X39620Y-43601D01*
X39487Y-43754D01*
X39544Y-43754D01*
X39582Y-43773D01*
X39601Y-43792D01*
X39620Y-43830D01*
X39620Y-43925D01*
X39601Y-43963D01*
X39582Y-43982D01*
X39544Y-44001D01*
X39430Y-44001D01*
X39392Y-43982D01*
X39373Y-43963D01*
G54D18*
X57721Y-57177D02*
X57721Y-56977D01*
X57721Y-57072D02*
X57835Y-57072D01*
X57835Y-57177D02*
X57835Y-56977D01*
X58035Y-57177D02*
X57921Y-57177D01*
X57978Y-57177D02*
X57978Y-56977D01*
X57959Y-57005D01*
X57940Y-57024D01*
X57921Y-57034D01*
X57721Y-39460D02*
X57721Y-39260D01*
X57721Y-39355D02*
X57835Y-39355D01*
X57835Y-39460D02*
X57835Y-39260D01*
X57921Y-39279D02*
X57931Y-39270D01*
X57950Y-39260D01*
X57997Y-39260D01*
X58016Y-39270D01*
X58026Y-39279D01*
X58035Y-39298D01*
X58035Y-39317D01*
X58026Y-39346D01*
X57912Y-39460D01*
X58035Y-39460D01*
X20713Y-39460D02*
X20713Y-39260D01*
X20713Y-39355D02*
X20828Y-39355D01*
X20828Y-39460D02*
X20828Y-39260D01*
X20904Y-39260D02*
X21028Y-39260D01*
X20961Y-39336D01*
X20989Y-39336D01*
X21008Y-39346D01*
X21018Y-39355D01*
X21028Y-39374D01*
X21028Y-39422D01*
X21018Y-39441D01*
X21008Y-39451D01*
X20989Y-39460D01*
X20932Y-39460D01*
X20913Y-39451D01*
X20904Y-39441D01*
X20713Y-57964D02*
X20713Y-57764D01*
X20713Y-57859D02*
X20828Y-57859D01*
X20828Y-57964D02*
X20828Y-57764D01*
X21008Y-57831D02*
X21008Y-57964D01*
X20961Y-57754D02*
X20913Y-57897D01*
X21037Y-57897D01*
X56402Y-35779D02*
X56402Y-35579D01*
X56402Y-35674D02*
X56517Y-35674D01*
X56517Y-35779D02*
X56517Y-35579D01*
X56697Y-35579D02*
X56659Y-35579D01*
X56640Y-35588D01*
X56631Y-35598D01*
X56612Y-35627D01*
X56602Y-35665D01*
X56602Y-35741D01*
X56612Y-35760D01*
X56621Y-35769D01*
X56640Y-35779D01*
X56678Y-35779D01*
X56697Y-35769D01*
X56707Y-35760D01*
X56717Y-35741D01*
X56717Y-35693D01*
X56707Y-35674D01*
X56697Y-35665D01*
X56678Y-35655D01*
X56640Y-35655D01*
X56621Y-35665D01*
X56612Y-35674D01*
X56602Y-35693D01*
X56363Y-22275D02*
X56363Y-22075D01*
X56363Y-22170D02*
X56477Y-22170D01*
X56477Y-22275D02*
X56477Y-22075D01*
X56553Y-22075D02*
X56687Y-22075D01*
X56601Y-22275D01*
X22032Y-35779D02*
X22032Y-35579D01*
X22032Y-35674D02*
X22146Y-35674D01*
X22146Y-35779D02*
X22146Y-35579D01*
X22270Y-35665D02*
X22251Y-35655D01*
X22242Y-35646D01*
X22232Y-35627D01*
X22232Y-35617D01*
X22242Y-35598D01*
X22251Y-35588D01*
X22270Y-35579D01*
X22308Y-35579D01*
X22327Y-35588D01*
X22337Y-35598D01*
X22346Y-35617D01*
X22346Y-35627D01*
X22337Y-35646D01*
X22327Y-35655D01*
X22308Y-35665D01*
X22270Y-35665D01*
X22251Y-35674D01*
X22242Y-35684D01*
X22232Y-35703D01*
X22232Y-35741D01*
X22242Y-35760D01*
X22251Y-35769D01*
X22270Y-35779D01*
X22308Y-35779D01*
X22327Y-35769D01*
X22337Y-35760D01*
X22346Y-35741D01*
X22346Y-35703D01*
X22337Y-35684D01*
X22327Y-35674D01*
X22308Y-35665D01*
X22032Y-22275D02*
X22032Y-22075D01*
X22032Y-22170D02*
X22146Y-22170D01*
X22146Y-22275D02*
X22146Y-22075D01*
X22251Y-22275D02*
X22289Y-22275D01*
X22308Y-22265D01*
X22318Y-22256D01*
X22337Y-22227D01*
X22346Y-22189D01*
X22346Y-22113D01*
X22337Y-22094D01*
X22327Y-22085D01*
X22308Y-22075D01*
X22270Y-22075D01*
X22251Y-22085D01*
X22242Y-22094D01*
X22232Y-22113D01*
X22232Y-22161D01*
X22242Y-22180D01*
X22251Y-22189D01*
X22270Y-22199D01*
X22308Y-22199D01*
X22327Y-22189D01*
X22337Y-22180D01*
X22346Y-22161D01*
X42324Y-47802D02*
X42324Y-47602D01*
X42324Y-47698D02*
X42438Y-47698D01*
X42438Y-47802D02*
X42438Y-47602D01*
X42628Y-47602D02*
X42533Y-47602D01*
X42524Y-47698D01*
X42533Y-47688D01*
X42552Y-47679D01*
X42600Y-47679D01*
X42619Y-47688D01*
X42628Y-47698D01*
X42638Y-47717D01*
X42638Y-47764D01*
X42628Y-47783D01*
X42619Y-47793D01*
X42600Y-47802D01*
X42552Y-47802D01*
X42533Y-47793D01*
X42524Y-47783D01*
X30263Y-55573D02*
X30263Y-55373D01*
X30263Y-55468D02*
X30377Y-55468D01*
X30377Y-55573D02*
X30377Y-55373D01*
X30577Y-55573D02*
X30463Y-55573D01*
X30520Y-55573D02*
X30520Y-55373D01*
X30501Y-55401D01*
X30482Y-55420D01*
X30463Y-55430D01*
X30701Y-55373D02*
X30720Y-55373D01*
X30739Y-55382D01*
X30749Y-55392D01*
X30758Y-55411D01*
X30768Y-55449D01*
X30768Y-55496D01*
X30758Y-55535D01*
X30749Y-55554D01*
X30739Y-55563D01*
X30720Y-55573D01*
X30701Y-55573D01*
X30682Y-55563D01*
X30673Y-55554D01*
X30663Y-55535D01*
X30654Y-55496D01*
X30654Y-55449D01*
X30663Y-55411D01*
X30673Y-55392D01*
X30682Y-55382D01*
X30701Y-55373D01*
G54D11*
X29618Y-22336D02*
X29618Y-21936D01*
X29847Y-22336D01*
X29847Y-21936D01*
X30247Y-22336D02*
X30018Y-22336D01*
X30132Y-22336D02*
X30132Y-21936D01*
X30094Y-21993D01*
X30056Y-22031D01*
X30018Y-22050D01*
G54D10*
X48406Y-20028D02*
X48425Y-20009D01*
X48462Y-19991D01*
X48556Y-19991D01*
X48594Y-20009D01*
X48612Y-20028D01*
X48631Y-20066D01*
X48631Y-20103D01*
X48612Y-20159D01*
X48387Y-20384D01*
X48631Y-20384D01*
X48969Y-19991D02*
X48894Y-19991D01*
X48856Y-20009D01*
X48837Y-20028D01*
X48800Y-20084D01*
X48781Y-20159D01*
X48781Y-20309D01*
X48800Y-20347D01*
X48819Y-20366D01*
X48856Y-20384D01*
X48931Y-20384D01*
X48969Y-20366D01*
X48987Y-20347D01*
X49006Y-20309D01*
X49006Y-20216D01*
X48987Y-20178D01*
X48969Y-20159D01*
X48931Y-20141D01*
X48856Y-20141D01*
X48819Y-20159D01*
X48800Y-20178D01*
X48781Y-20216D01*
X47654Y-23627D02*
X47673Y-23608D01*
X47711Y-23589D01*
X47804Y-23589D01*
X47842Y-23608D01*
X47860Y-23627D01*
X47879Y-23664D01*
X47879Y-23702D01*
X47860Y-23758D01*
X47636Y-23983D01*
X47879Y-23983D01*
X48235Y-23589D02*
X48048Y-23589D01*
X48029Y-23776D01*
X48048Y-23758D01*
X48085Y-23739D01*
X48179Y-23739D01*
X48217Y-23758D01*
X48235Y-23776D01*
X48254Y-23814D01*
X48254Y-23908D01*
X48235Y-23945D01*
X48217Y-23964D01*
X48179Y-23983D01*
X48085Y-23983D01*
X48048Y-23964D01*
X48029Y-23945D01*
X30141Y-20071D02*
X30160Y-20053D01*
X30197Y-20034D01*
X30291Y-20034D01*
X30328Y-20053D01*
X30347Y-20071D01*
X30366Y-20109D01*
X30366Y-20146D01*
X30347Y-20203D01*
X30122Y-20428D01*
X30366Y-20428D01*
X30350Y-23278D02*
X30125Y-23278D01*
X30238Y-23278D02*
X30238Y-22884D01*
X30200Y-22941D01*
X30163Y-22978D01*
X30125Y-22997D01*
G54D11*
X42285Y-25068D02*
X42285Y-25392D01*
X42304Y-25430D01*
X42323Y-25449D01*
X42361Y-25468D01*
X42438Y-25468D01*
X42476Y-25449D01*
X42495Y-25430D01*
X42514Y-25392D01*
X42514Y-25068D01*
X42666Y-25068D02*
X42914Y-25068D01*
X42781Y-25220D01*
X42838Y-25220D01*
X42876Y-25239D01*
X42895Y-25258D01*
X42914Y-25296D01*
X42914Y-25392D01*
X42895Y-25430D01*
X42876Y-25449D01*
X42838Y-25468D01*
X42723Y-25468D01*
X42685Y-25449D01*
X42666Y-25430D01*
X33244Y-25042D02*
X33244Y-25366D01*
X33263Y-25404D01*
X33282Y-25423D01*
X33320Y-25442D01*
X33396Y-25442D01*
X33434Y-25423D01*
X33453Y-25404D01*
X33473Y-25366D01*
X33473Y-25042D01*
X33625Y-25042D02*
X33892Y-25042D01*
X33720Y-25442D01*
M02*
