M48
;DRILL file {Pcbnew (2014-02-21 BZR 4712)-product} date Tue 25 Feb 2014 10:55:39 PM PST
;FORMAT={-:-/ absolute / metric / decimal}
FMAT,2
METRIC,TZ
T1C0.635
T2C1.000
T3C1.016
T4C1.067
T5C1.199
T6C3.200
T7C3.701
%
G90
G05
M71
T1
X67.275Y-84.265
X67.465Y-131.345
X68.705Y-127.205
X68.745Y-104.025
X68.865Y-91.555
X70.265Y-138.765
X71.275Y-104.015
X71.295Y-127.275
X72.005Y-96.245
X73.965Y-106.465
X74.305Y-139.945
X75.06Y-69.91
X76.525Y-144.125
X79.965Y-121.465
X81.385Y-122.475
X81.665Y-94.145
X82.065Y-121.515
X82.675Y-53.755
X83.345Y-112.295
X83.385Y-103.655
X84.475Y-89.875
X84.775Y-143.305
X85.885Y-95.375
X85.955Y-82.185
X86.305Y-144.905
X86.435Y-85.445
X86.695Y-77.765
X86.725Y-103.605
X87.525Y-88.445
X88.875Y-84.045
X89.25Y-70.75
X89.355Y-68.585
X89.685Y-103.615
X89.735Y-88.855
X90.095Y-84.505
X90.115Y-82.325
X90.135Y-75.995
X90.641Y-61.852
X90.641Y-66.318
X91.495Y-77.385
X92.745Y-89.885
X92.875Y-64.085
X93.015Y-103.825
X93.525Y-72.445
X93.545Y-84.585
X94.27Y-103.815
X94.795Y-83.765
X94.805Y-90.745
X95.055Y-121.405
X95.108Y-61.852
X95.108Y-66.318
X95.305Y-79.775
X95.315Y-82.375
X95.535Y-103.865
X95.535Y-112.265
X95.965Y-83.845
X96.135Y-77.015
X96.185Y-130.845
X96.855Y-68.985
X97.715Y-79.605
X97.735Y-72.025
X98.125Y-113.635
X98.205Y-114.825
X98.345Y-108.745
X98.755Y-115.855
X99.795Y-60.075
X99.855Y-127.855
X101.045Y-60.155
X101.045Y-62.175
X101.095Y-66.695
X101.245Y-147.655
X101.425Y-142.035
X101.665Y-137.435
X101.725Y-126.335
X101.985Y-128.135
X102.135Y-125.125
X102.215Y-115.905
X102.415Y-147.025
X102.765Y-113.155
X102.795Y-142.035
X103.675Y-138.565
X103.885Y-114.835
X103.955Y-59.515
X104.545Y-141.885
X104.575Y-148.405
X105.045Y-74.125
X105.065Y-59.485
X105.305Y-72.195
X105.635Y-127.765
X105.655Y-124.515
X105.765Y-148.055
X106.015Y-62.215
X106.675Y-108.745
X106.815Y-124.485
X106.925Y-131.735
X107.065Y-138.985
X107.215Y-71.065
X107.285Y-113.005
X107.515Y-130.835
X107.545Y-117.955
X108.455Y-111.215
X108.675Y-76.645
X108.885Y-70.255
X109.525Y-110.825
X110.055Y-118.785
X110.115Y-64.145
X110.595Y-137.225
X110.605Y-132.745
X110.835Y-74.205
X111.015Y-126.235
X111.335Y-121.685
X111.765Y-108.775
X112.065Y-127.005
X112.335Y-112.225
X112.635Y-119.095
X112.655Y-121.025
X113.435Y-125.365
X113.575Y-112.205
X113.606Y-61.917
X113.606Y-66.383
X113.915Y-82.095
X115.035Y-122.855
X115.395Y-131.395
X115.84Y-64.15
X115.935Y-139.585
X116.205Y-124.355
X118.073Y-61.917
X118.073Y-66.383
X118.265Y-78.325
X118.285Y-77.005
X118.285Y-82.265
X118.295Y-83.705
X118.755Y-138.235
X118.785Y-136.235
X120.375Y-130.575
X121.815Y-130.605
X123.295Y-90.295
X123.575Y-93.915
X124.465Y-147.735
X124.485Y-131.615
X124.925Y-129.845
X125.905Y-132.865
X127.015Y-52.085
X127.895Y-103.605
X130.425Y-103.635
X132.405Y-139.325
X132.545Y-113.775
X134.415Y-126.945
T2
X77.499Y-140.926
X107.89Y-121.19
T3
X60.575Y-146.255
X60.855Y-133.245
X60.965Y-140.285
X60.985Y-126.975
X65.635Y-93.985
X66.215Y-142.215
X75.885Y-114.495
X76.215Y-105.395
X80.985Y-90.855
X82.195Y-84.265
X84.245Y-73.155
X84.76Y-53.73
X84.76Y-56.27
X84.895Y-114.595
X87.015Y-125.085
X87.3Y-53.73
X87.3Y-56.27
X89.435Y-114.325
X89.84Y-53.73
X89.84Y-56.27
X91.185Y-125.145
X92.38Y-53.73
X92.38Y-56.27
X94.92Y-53.73
X94.92Y-56.27
X97.46Y-53.73
X97.46Y-56.27
X100.Y-53.73
X100.Y-56.27
X100.725Y-70.245
X102.315Y-78.335
X102.315Y-83.125
X102.315Y-85.665
X102.315Y-88.205
X102.54Y-53.73
X102.54Y-56.27
X104.855Y-78.335
X105.08Y-53.73
X105.08Y-56.27
X105.92Y-91.73
X105.92Y-94.27
X107.395Y-78.335
X107.62Y-53.73
X107.62Y-56.27
X108.46Y-91.73
X108.46Y-94.27
X109.935Y-78.335
X110.16Y-53.73
X110.16Y-56.27
X111.Y-91.73
X111.Y-94.27
X112.475Y-78.335
X112.7Y-53.73
X112.7Y-56.27
X113.54Y-91.73
X113.6Y-94.24
X115.015Y-78.335
X115.24Y-53.73
X115.24Y-56.27
X116.08Y-91.73
X116.08Y-94.27
X122.305Y-115.265
X135.485Y-52.095
X138.595Y-114.855
T4
X69.57Y-74.42
X69.57Y-76.96
X69.57Y-79.5
X69.57Y-82.04
X69.57Y-84.58
X69.57Y-87.12
X69.57Y-89.66
X74.65Y-73.15
X74.65Y-75.69
X74.65Y-78.23
X74.65Y-80.77
X74.65Y-83.31
X74.65Y-85.85
X74.65Y-88.39
X74.65Y-90.93
X125.08Y-71.18
X125.08Y-73.72
X125.08Y-76.26
X125.08Y-78.8
X125.08Y-81.34
X125.08Y-83.88
X125.08Y-86.42
X125.08Y-88.96
X130.16Y-72.45
X130.16Y-74.99
X130.16Y-77.53
X130.16Y-80.07
X130.16Y-82.61
X130.16Y-85.15
X130.16Y-87.69
T5
X69.77Y-65.82
X72.31Y-65.82
X127.31Y-63.87
X129.85Y-63.87
T6
X53.Y-100.
X53.Y-147.
X147.Y-100.
X147.Y-145.
T7
X56.35Y-56.35
X56.35Y-90.65
X143.55Y-56.35
X143.65Y-90.65
T0
M30
